<svg width="182" height="130" viewBox="0 0 182 130" fill="none" xmlns="http://www.w3.org/2000/svg">
<g clip-path="url(#clip0_2049_1752)">
<rect width="1556" height="4011" transform="translate(-226 -2981)" fill="white"/>
<path d="M-221 -268H1337V659H-221V-268Z" fill="url(#paint0_linear_2049_1752)"/>
<path fill-rule="evenodd" clip-rule="evenodd" d="M464.914 380.195C466.369 380.611 467.887 380.985 469.47 381.317C471.093 381.652 472.778 381.953 474.527 382.22C476.315 382.489 478.165 382.732 480.077 382.949C481.992 383.15 483.948 383.332 485.946 383.493C487.985 383.641 490.067 383.762 492.191 383.855C494.353 383.966 496.539 384.04 498.749 384.077C500.957 384.13 503.208 384.163 505.5 384.175C507.791 384.187 510.106 384.178 512.442 384.148C514.779 384.117 517.136 384.073 519.516 384.015C521.857 383.939 524.219 383.856 526.602 383.768C528.985 383.679 531.369 383.575 533.755 383.457C536.141 383.338 538.509 383.21 540.857 383.073C543.206 382.937 545.515 382.798 547.785 382.656C550.097 382.502 552.388 382.346 554.66 382.189C556.894 382.015 559.089 381.845 561.243 381.68C563.438 381.503 565.574 381.322 567.651 381.137C569.768 380.955 571.826 380.769 573.825 380.579C575.865 380.377 577.846 380.17 579.768 379.96C581.69 379.75 583.574 379.529 585.419 379.299C587.225 379.066 588.993 378.822 590.723 378.569C592.45 378.331 594.121 378.073 595.734 377.797C597.385 377.539 598.959 377.26 600.457 376.961C601.952 376.677 603.391 376.374 604.772 376.052C606.191 375.748 607.514 375.422 608.74 375.075C610.004 374.745 611.21 374.397 612.36 374.029C613.47 373.659 614.522 373.277 615.516 372.884C616.51 372.491 617.427 372.086 618.266 371.667C619.107 371.234 619.87 370.787 620.555 370.328C621.241 369.869 621.868 369.399 622.438 368.917C622.968 368.433 623.441 367.929 623.857 367.407C624.234 366.882 624.552 366.346 624.813 365.798C625.074 365.25 625.277 364.691 625.421 364.12C625.566 363.549 625.633 362.966 625.623 362.37C625.651 361.777 625.622 361.172 625.535 360.555C625.448 359.939 625.302 359.311 625.099 358.672C624.896 358.033 624.654 357.383 624.374 356.724C624.055 356.062 623.716 355.399 623.357 354.734C622.96 354.067 622.524 353.39 622.049 352.702C621.614 352.017 621.121 351.321 620.569 350.613C620.056 349.923 619.484 349.222 618.854 348.509C618.264 347.799 617.654 347.087 617.024 346.374C616.355 345.659 615.666 344.942 614.958 344.224C614.289 343.509 613.581 342.791 612.833 342.07C612.086 341.35 611.319 340.628 610.532 339.905C609.745 339.182 608.938 338.465 608.11 337.754C607.322 337.047 606.493 336.351 605.622 335.668C604.753 334.97 603.863 334.286 602.952 333.616C602.042 332.931 601.11 332.267 600.156 331.624C599.241 330.985 598.285 330.357 597.288 329.743C596.29 329.143 595.27 328.557 594.228 327.986C593.226 327.416 592.182 326.867 591.096 326.338C590.009 325.825 588.92 325.326 587.829 324.842C586.696 324.371 585.561 323.931 584.422 323.521C583.244 323.108 582.061 322.733 580.874 322.396C579.689 322.044 578.479 321.728 577.246 321.449C575.972 321.182 574.694 320.946 573.413 320.74C572.13 320.55 570.823 320.396 569.493 320.278C568.162 320.161 566.826 320.081 565.487 320.039C564.106 320.01 562.722 320.011 561.335 320.043C559.908 320.072 558.477 320.138 557.041 320.243C555.607 320.333 554.169 320.46 552.727 320.625C551.245 320.788 549.761 320.973 548.274 321.182C546.787 321.39 545.297 321.621 543.805 321.874C542.311 322.143 540.796 322.426 539.259 322.722C537.724 323.003 536.186 323.315 534.644 323.657C533.143 323.987 531.622 324.322 530.08 324.664C528.536 325.021 526.992 325.386 525.446 325.758C523.899 326.146 522.352 326.533 520.805 326.92C519.258 327.308 517.711 327.695 516.163 328.083C514.656 328.473 513.127 328.869 511.578 329.271C510.07 329.661 508.543 330.05 506.996 330.438C505.488 330.828 503.981 331.21 502.475 331.585C501.008 331.962 499.521 332.338 498.015 332.713C496.548 333.091 495.101 333.469 493.673 333.849C492.206 334.227 490.779 334.607 489.39 334.989C487.963 335.369 486.574 335.752 485.225 336.137C483.835 336.534 482.484 336.935 481.173 337.337C479.861 337.74 478.569 338.144 477.297 338.55C476.022 338.97 474.767 339.399 473.53 339.838C472.333 340.279 471.153 340.736 469.992 341.209C468.832 341.668 467.709 342.144 466.625 342.638C465.541 343.117 464.495 343.621 463.485 344.15C462.475 344.68 461.504 345.219 460.57 345.769C459.636 346.334 458.738 346.916 457.878 347.517C457.058 348.119 456.275 348.74 455.529 349.378C454.744 350.014 454.035 350.677 453.402 351.369C452.73 352.058 452.115 352.765 451.556 353.492C451 354.204 450.5 354.942 450.056 355.707C449.614 356.457 449.231 357.21 448.906 357.968C448.58 358.74 448.313 359.516 448.105 360.297C447.935 361.079 447.806 361.857 447.718 362.63C447.668 363.405 447.677 364.184 447.745 364.967C447.815 365.735 447.945 366.499 448.134 367.26C448.364 368.008 448.674 368.753 449.063 369.496C449.414 370.221 449.846 370.936 450.358 371.641C450.911 372.334 451.525 373.015 452.199 373.685C452.914 374.343 453.711 374.975 454.591 375.582C455.47 376.189 456.432 376.763 457.477 377.305C458.52 377.861 459.666 378.379 460.916 378.857C462.166 379.336 463.498 379.782 464.914 380.195Z" fill="url(#paint1_linear_2049_1752)"/>
<path fill-rule="evenodd" clip-rule="evenodd" d="M163.6 105.063C162.257 105.715 160.848 106.316 159.373 106.867C157.861 107.424 156.286 107.94 154.646 108.416C152.969 108.898 151.23 109.349 149.429 109.77C147.624 110.171 145.777 110.548 143.888 110.901C141.958 111.241 139.985 111.547 137.968 111.819C135.917 112.117 133.839 112.369 131.735 112.574C129.634 112.799 127.49 113 125.305 113.177C123.12 113.355 120.911 113.505 118.678 113.629C116.446 113.753 114.191 113.86 111.915 113.95C109.673 114.014 107.41 114.071 105.127 114.122C102.844 114.172 100.558 114.202 98.2688 114.213C95.9794 114.224 93.707 114.221 91.4514 114.205C89.1959 114.19 86.9775 114.168 84.7963 114.14C82.5747 114.099 80.3716 114.054 78.1871 114.006C76.0365 113.933 73.9247 113.863 71.8517 113.796C69.7382 113.716 67.6805 113.627 65.6786 113.529C63.6395 113.437 61.6561 113.335 59.7285 113.225C57.7604 113.1 55.8481 112.966 53.9916 112.824C52.135 112.681 50.314 112.522 48.5285 112.347C46.7801 112.165 45.0673 111.968 43.39 111.754C41.716 111.561 40.0944 111.338 38.5253 111.086C36.9224 110.861 35.3905 110.603 33.9296 110.313C32.472 110.042 31.0669 109.743 29.7142 109.414C28.3277 109.112 27.0308 108.774 25.8235 108.401C24.5823 108.054 23.3936 107.678 22.2574 107.273C21.1583 106.862 20.1134 106.431 19.1225 105.981C18.1317 105.532 17.2135 105.06 16.3681 104.565C15.5193 104.051 14.7432 103.515 14.0398 102.956C13.3365 102.397 12.6872 101.82 12.092 101.223C11.534 100.62 11.0285 99.9873 10.5754 99.3259C10.1595 98.6583 9.79769 97.9716 9.49 97.2657C9.1823 96.5598 8.92871 95.8347 8.72923 95.0904C8.52975 94.3461 8.40296 93.5796 8.34886 92.7909C8.25759 92.0082 8.22043 91.2064 8.23737 90.3855C8.25432 89.5645 8.32537 88.7244 8.45053 87.865C8.57569 87.0057 8.73637 86.1303 8.93257 85.2387C9.16594 84.3411 9.4179 83.4403 9.68844 82.5365C9.99615 81.6265 10.3394 80.7004 10.7181 79.7583C11.0597 78.8222 11.4554 77.867 11.9052 76.8926C12.3211 75.9443 12.7912 74.9768 13.3153 73.9901C13.8023 73.0096 14.3078 72.026 14.832 71.0393C15.3933 70.0464 15.9732 69.0505 16.5716 68.0515C17.1329 67.0587 17.7314 66.0597 18.3671 65.0546C19.0027 64.0495 19.6569 63.0413 20.3297 62.03C21.0026 61.0187 21.6956 60.0143 22.4089 59.0168C23.085 58.0254 23.8015 57.0478 24.5586 56.084C25.3123 55.1002 26.0879 54.1333 26.8854 53.1832C27.6796 52.2132 28.4973 51.27 29.3386 50.3536C30.1427 49.4434 30.9872 48.5469 31.8722 47.6641C32.7605 46.8013 33.6707 45.9553 34.6027 45.1261C35.4976 44.3031 36.4346 43.5038 37.4137 42.7282C38.3961 41.9726 39.3818 41.2368 40.3708 40.5209C41.4002 39.8189 42.4362 39.1566 43.4789 38.5341C44.5586 37.9055 45.6467 37.3267 46.7429 36.7976C47.8359 36.2487 48.9556 35.7464 50.1022 35.2908C51.2893 34.849 52.4829 34.4471 53.6832 34.0849C54.8867 33.7426 56.117 33.4471 57.3742 33.1982C58.6313 32.9494 59.8967 32.7503 61.1703 32.601C62.4844 32.4654 63.8051 32.3697 65.1324 32.3138C66.4968 32.2517 67.8694 32.2394 69.2503 32.2769C70.6279 32.2945 72.0138 32.3619 73.4078 32.479C74.8391 32.59 76.2753 32.7308 77.7164 32.9015C79.1575 33.0722 80.6035 33.2728 82.0545 33.5032C83.5088 33.7536 84.985 34.0207 86.483 34.3048C87.9778 34.5689 89.4791 34.8728 90.987 35.2165C92.4545 35.5465 93.9422 35.8834 95.4501 36.2271C96.9613 36.5908 98.4742 36.9644 99.9887 37.3479C101.507 37.7514 103.024 38.1549 104.542 38.5584C106.06 38.9618 107.578 39.3653 109.096 39.7688C110.576 40.1784 112.077 40.5949 113.598 41.0183C115.079 41.4279 116.578 41.8344 118.096 42.2379C119.576 42.6475 121.055 43.0472 122.533 43.4369C123.973 43.8328 125.432 44.2256 126.909 44.6153C128.349 45.0111 129.771 45.4101 131.174 45.8121C132.614 46.2079 134.017 46.6099 135.383 47.0181C136.786 47.4201 138.152 47.8282 139.48 48.2425C140.849 48.6706 142.181 49.1048 143.476 49.5452C144.771 49.9855 146.047 50.429 147.305 50.8755C148.566 51.3419 149.81 51.8214 151.037 52.3138C152.227 52.8125 153.401 53.3341 154.56 53.8787C155.716 54.4033 156.839 54.9541 157.927 55.5309C159.012 56.0878 160.064 56.6807 161.085 57.3096C162.105 57.9385 163.09 58.5835 164.04 59.2446C164.993 59.9257 165.911 60.6327 166.796 61.3659C167.644 62.1052 168.458 62.8705 169.238 63.6619C170.056 64.4472 170.803 65.2746 171.482 66.1442C172.197 67.0076 172.861 67.9002 173.471 68.8219C174.079 69.7237 174.635 70.6645 175.141 71.6445C175.644 72.6045 176.09 73.5738 176.481 74.5523C176.875 75.5507 177.214 76.5583 177.497 77.5752C177.742 78.5982 177.949 79.6174 178.117 80.6327C178.248 81.6543 178.323 82.685 178.342 83.725C178.358 84.7451 178.317 85.7644 178.218 86.783C178.079 87.7878 177.863 88.795 177.572 89.8046C177.315 90.788 176.98 91.7639 176.567 92.7321C176.114 93.6866 175.602 94.6304 175.031 95.5635C174.419 96.4828 173.727 97.3747 172.953 98.2389C172.18 99.1032 171.323 99.9301 170.385 100.719C169.449 101.529 168.411 102.294 167.27 103.014C166.129 103.735 164.906 104.418 163.6 105.063Z" fill="url(#paint2_linear_2049_1752)"/>
<path d="M-226 -268H1330V754H-226V-268Z" fill="url(#paint3_linear_2049_1752)"/>
<path fill-rule="evenodd" clip-rule="evenodd" d="M163.6 105.063C162.257 105.715 160.848 106.316 159.373 106.867C157.861 107.424 156.286 107.94 154.646 108.416C152.969 108.898 151.23 109.349 149.429 109.77C147.624 110.171 145.777 110.548 143.888 110.901C141.958 111.241 139.985 111.547 137.968 111.819C135.917 112.117 133.839 112.369 131.735 112.574C129.634 112.799 127.49 113 125.305 113.177C123.12 113.355 120.911 113.505 118.678 113.629C116.446 113.753 114.191 113.86 111.915 113.95C109.673 114.014 107.41 114.071 105.127 114.122C102.844 114.172 100.558 114.202 98.2688 114.213C95.9794 114.224 93.707 114.221 91.4514 114.205C89.1959 114.19 86.9775 114.168 84.7963 114.14C82.5747 114.099 80.3716 114.054 78.1871 114.006C76.0365 113.933 73.9247 113.863 71.8517 113.796C69.7382 113.716 67.6805 113.627 65.6786 113.529C63.6395 113.437 61.6561 113.335 59.7285 113.225C57.7604 113.1 55.8481 112.966 53.9916 112.824C52.135 112.681 50.314 112.522 48.5285 112.347C46.7801 112.165 45.0673 111.968 43.39 111.754C41.716 111.561 40.0944 111.338 38.5253 111.086C36.9224 110.861 35.3905 110.603 33.9296 110.313C32.472 110.042 31.0669 109.743 29.7142 109.414C28.3277 109.112 27.0308 108.774 25.8235 108.401C24.5823 108.054 23.3936 107.678 22.2574 107.273C21.1583 106.862 20.1134 106.431 19.1225 105.981C18.1317 105.532 17.2135 105.06 16.3681 104.565C15.5193 104.051 14.7432 103.515 14.0398 102.956C13.3365 102.397 12.6872 101.82 12.092 101.223C11.534 100.62 11.0285 99.9873 10.5754 99.3259C10.1595 98.6583 9.79769 97.9716 9.49 97.2657C9.1823 96.5598 8.92871 95.8347 8.72923 95.0904C8.52975 94.3461 8.40296 93.5796 8.34886 92.7909C8.25759 92.0082 8.22043 91.2064 8.23737 90.3855C8.25432 89.5645 8.32537 88.7244 8.45053 87.865C8.57569 87.0057 8.73637 86.1303 8.93257 85.2387C9.16594 84.3411 9.4179 83.4403 9.68844 82.5365C9.99615 81.6265 10.3394 80.7004 10.7181 79.7583C11.0597 78.8222 11.4554 77.867 11.9052 76.8926C12.3211 75.9443 12.7912 74.9768 13.3153 73.9901C13.8023 73.0096 14.3078 72.026 14.832 71.0393C15.3933 70.0464 15.9732 69.0505 16.5716 68.0515C17.1329 67.0587 17.7314 66.0597 18.3671 65.0546C19.0027 64.0495 19.6569 63.0413 20.3297 62.03C21.0026 61.0187 21.6956 60.0143 22.4089 59.0168C23.085 58.0254 23.8015 57.0478 24.5586 56.084C25.3123 55.1002 26.0879 54.1333 26.8854 53.1832C27.6796 52.2132 28.4973 51.27 29.3386 50.3536C30.1427 49.4434 30.9872 48.5469 31.8722 47.6641C32.7605 46.8013 33.6707 45.9553 34.6027 45.1261C35.4976 44.3031 36.4346 43.5038 37.4137 42.7282C38.3961 41.9726 39.3818 41.2368 40.3708 40.5209C41.4002 39.8189 42.4362 39.1566 43.4789 38.5341C44.5586 37.9055 45.6467 37.3267 46.7429 36.7976C47.8359 36.2487 48.9556 35.7464 50.1022 35.2908C51.2893 34.849 52.4829 34.4471 53.6832 34.0849C54.8867 33.7426 56.117 33.4471 57.3742 33.1982C58.6313 32.9494 59.8967 32.7503 61.1703 32.601C62.4844 32.4654 63.8051 32.3697 65.1324 32.3138C66.4968 32.2517 67.8694 32.2394 69.2503 32.2769C70.6279 32.2945 72.0138 32.3619 73.4078 32.479C74.8391 32.59 76.2753 32.7308 77.7164 32.9015C79.1575 33.0722 80.6035 33.2728 82.0545 33.5032C83.5088 33.7536 84.985 34.0207 86.483 34.3048C87.9778 34.5689 89.4791 34.8728 90.987 35.2165C92.4545 35.5465 93.9422 35.8834 95.4501 36.2271C96.9613 36.5908 98.4742 36.9644 99.9887 37.3479C101.507 37.7514 103.024 38.1549 104.542 38.5584C106.06 38.9618 107.578 39.3653 109.096 39.7688C110.576 40.1784 112.077 40.5949 113.598 41.0183C115.079 41.4279 116.578 41.8344 118.096 42.2379C119.576 42.6475 121.055 43.0472 122.533 43.4369C123.973 43.8328 125.432 44.2256 126.909 44.6153C128.349 45.0111 129.771 45.4101 131.174 45.8121C132.614 46.2079 134.017 46.6099 135.383 47.0181C136.786 47.4201 138.152 47.8282 139.48 48.2425C140.849 48.6706 142.181 49.1048 143.476 49.5452C144.771 49.9855 146.047 50.429 147.305 50.8755C148.566 51.3419 149.81 51.8214 151.037 52.3138C152.227 52.8125 153.401 53.3341 154.56 53.8787C155.716 54.4033 156.839 54.9541 157.927 55.5309C159.012 56.0878 160.064 56.6807 161.085 57.3096C162.105 57.9385 163.09 58.5835 164.04 59.2446C164.993 59.9257 165.911 60.6327 166.796 61.3659C167.644 62.1052 168.458 62.8705 169.238 63.6619C170.056 64.4472 170.803 65.2746 171.482 66.1442C172.197 67.0076 172.861 67.9002 173.471 68.8219C174.079 69.7237 174.635 70.6645 175.141 71.6445C175.644 72.6045 176.09 73.5738 176.481 74.5523C176.875 75.5507 177.214 76.5583 177.497 77.5752C177.742 78.5982 177.949 79.6174 178.117 80.6327C178.248 81.6543 178.323 82.685 178.342 83.725C178.358 84.7451 178.317 85.7644 178.218 86.783C178.079 87.7878 177.863 88.795 177.572 89.8046C177.315 90.788 176.98 91.7639 176.567 92.7321C176.114 93.6866 175.602 94.6304 175.031 95.5635C174.419 96.4828 173.727 97.3747 172.953 98.2389C172.18 99.1032 171.323 99.9301 170.385 100.719C169.449 101.529 168.411 102.294 167.27 103.014C166.129 103.735 164.906 104.418 163.6 105.063Z" fill="url(#paint4_linear_2049_1752)"/>
<path d="M71.1854 19.6719C71.1854 19.6719 71.7898 24.8445 72.276 26.0314C72.7621 27.2183 74.3914 32.3865 74.3914 32.3865C74.3914 32.3865 75.5652 34.0421 75.1141 34.2611C74.663 34.4801 73.9534 32.9866 73.9534 32.9866L71.7635 32.3953C71.7635 32.3953 69.8101 27.2139 69.3546 26.0796C68.8991 24.9452 68.229 20.285 68.229 20.285" fill="#FFC8A9"/>
<path style="mix-blend-mode:multiply" opacity="0.63" d="M63.7141 71.7031L47.627 82.2498L94.8941 112.523L114.13 100.628C111.31 98.7968 66.5434 73.4901 63.7141 71.7031Z" fill="url(#paint5_linear_2049_1752)"/>
<path d="M119.762 35.4593C119.907 35.1527 117.349 38.8887 116.736 39.1164C115.632 39.5238 111.668 41.8275 109.768 41.8144C109.908 42.467 111.379 43.1284 111.52 43.781C112.619 44.2189 117.034 42.3619 118.786 41.6261C120.301 40.9866 122.675 37.7631 122.675 37.7631L119.762 35.4593Z" fill="#F2C3BD"/>
<path d="M125.614 78.5547C125.229 79.0689 124.809 79.5562 124.357 80.0132C123.416 80.6382 122.432 81.1973 121.414 81.6863C121.024 81.8439 120.481 82.0366 120.481 82.6586C120.481 83.2805 121.3 83.863 122.465 83.7886C123.63 83.7141 125.732 83.0878 126.24 82.5447C126.748 82.0016 126.981 81.9622 126.981 81.9622C126.981 81.9622 129.004 82.4002 129.609 81.9228C130.047 81.5636 129.722 79.6015 129.543 78.7299C128.909 78.9635 128.235 79.0683 127.561 79.0382C126.886 79.0081 126.224 78.8437 125.614 78.5547Z" fill="#F3A05E"/>
<path d="M138.771 84.0519C138.794 84.7738 138.72 85.4956 138.552 86.198C138.298 86.925 136.769 89.8726 137.023 90.2712C137.259 90.5806 137.584 90.8094 137.955 90.9262C138.326 91.0431 138.724 91.0422 139.095 90.9238C140.041 90.5953 141.495 89.5792 141.749 88.7777C142.003 87.9762 142.112 86.1235 142.296 85.541C142.394 84.9611 142.394 84.3689 142.296 83.7891L138.771 84.0519Z" fill="#F3A05E"/>
<path d="M128.159 52.0294C128.159 52.3141 129.473 58.9321 130.397 61.0475C131.321 63.163 134.348 69.9867 134.348 69.9867C134.348 69.9867 137.851 82.316 137.851 83.8796C137.851 83.8796 140.243 85.5351 142.634 83.8796C142.634 83.8796 142.082 79.1888 142.082 77.7171C142.082 76.2455 139.892 70.8145 139.507 69.2509C139.122 67.6873 136.616 51.6572 135.854 50.1943C135.092 48.7314 128.036 48.6219 128.159 52.0294Z" fill="#1F573F"/>
<path d="M123.77 48.623V56.5373C123.77 60.4003 125.242 64.8196 125.15 66.3832C125.058 67.9468 125.15 78.8044 125.15 78.8044C125.834 79.2068 126.614 79.419 127.407 79.419C128.201 79.419 128.981 79.2068 129.665 78.8044C129.665 78.8044 130.388 71.1659 130.48 69.7863C130.572 68.4066 130.48 59.8485 130.48 58.2849C130.48 56.7213 129.775 50.5457 128.15 49.2186C126.525 47.8915 123.77 48.623 123.77 48.623Z" fill="#1F573F"/>
<path d="M126.661 29.5727C126.661 29.5727 124.519 29.5333 123.819 30.0413C123.118 30.5494 119.106 35.2183 119.106 35.2183C119.106 35.2183 120.197 37.671 121.791 38.5294H122.334C122.334 38.5294 122.772 48.5373 122.877 49.041C122.877 49.041 122.557 49.0104 122.794 49.6323C123.03 50.2542 124.506 50.5083 124.506 50.5083C124.506 50.5083 131.873 51.9405 134.992 50.5389L135.868 50.1491C135.868 50.1491 136.376 48.9797 136.257 48.6293C135.91 48.0303 135.52 47.4579 135.088 46.9168C135.088 46.9168 137.484 39.9091 137.484 37.1016C137.467 35.331 136.776 33.6333 135.552 32.3539C134.383 31.2633 130.607 29.5508 130.607 29.5508L126.661 29.5727Z" fill="#D27152"/>
<path d="M127.067 29.5599L127.129 31.0097C127.129 31.0097 127.352 32.4462 129.516 32.1528C129.516 32.1528 131.189 31.6623 131.11 30.633C131.11 30.3571 130.891 27.6328 130.891 27.6328" fill="#F2C3BD"/>
<path d="M126.376 25.0818C126.211 25.0757 126.049 25.0366 125.899 24.9669C125.749 24.8973 125.614 24.7983 125.503 24.676C125.391 24.5536 125.305 24.4103 125.25 24.2544C125.195 24.0984 125.171 23.933 125.181 23.7679C125.207 22.5722 125.93 21.9765 126.552 21.9765C127.174 21.9765 127.051 20.7546 129.017 20.956C130.984 21.1575 131.282 21.832 131.282 21.832C131.282 21.832 132.951 22.0554 133.226 23.5839C133.502 25.1125 132.605 26.6498 132.307 26.7724C132.009 26.8951 132.232 27.7448 131.61 28.3404C131.207 28.7039 130.686 28.9079 130.143 28.9142" fill="#4D4030"/>
<path d="M125.999 24.6361C126.051 25.1312 126.051 25.6302 125.999 26.1253C125.903 26.6202 125.272 29.1517 127.401 30.689C127.401 30.689 129.529 31.0044 130.594 28.4991C130.594 28.4991 130.962 25.3018 130.462 24.8901C129.963 24.4784 129.853 25.5077 128.947 25.3019C128.04 25.096 126.827 24.312 125.999 24.6361Z" fill="#F2C3BD"/>
<path d="M130.765 26.1444C130.442 26.377 130.219 26.7225 130.139 27.1123C130.084 27.1155 130.032 27.1355 129.99 27.1697C129.947 27.2038 129.916 27.2503 129.901 27.3028C129.886 27.3553 129.888 27.4111 129.906 27.4625C129.924 27.5139 129.958 27.5584 130.003 27.5897C130.296 27.7912 130.752 27.5897 131.015 27.4145C131.173 27.3225 131.302 27.1889 131.39 27.0283C131.477 26.8676 131.518 26.6861 131.51 26.5035C131.499 26.4223 131.468 26.345 131.42 26.2787C131.372 26.2123 131.308 26.159 131.234 26.1234C131.16 26.0878 131.079 26.071 130.997 26.0747C130.915 26.0784 130.835 26.1023 130.765 26.1444Z" fill="#F2C3BD"/>
<path d="M130.73 26.125C130.73 26.125 130.419 27.6755 130.183 27.8419C129.946 28.0083 129.46 28.6127 129.044 28.5076C128.971 28.484 128.903 28.4485 128.842 28.4025C128.437 28.0531 127.951 27.8107 127.428 27.6974C126.801 27.6448 126.232 27.8507 126.074 27.6711C125.955 27.4738 125.876 27.255 125.842 27.0272C125.842 27.0272 125.807 28.7792 126.013 29.3661C126.107 29.7574 126.313 30.1127 126.607 30.3882C126.9 30.6637 127.268 30.8473 127.664 30.9165C128.125 31.0025 128.602 30.9537 129.036 30.7758C129.47 30.5979 129.844 30.2985 130.112 29.9136C130.844 28.8142 130.844 26.5104 130.844 26.5104L130.73 26.125Z" fill="#4D4030"/>
<path style="mix-blend-mode:multiply" opacity="0.63" d="M60.5733 60.9727L44 69.2374L52.1552 74.756L66.4948 66.5175C63.6917 64.7087 63.3939 62.7421 60.5733 60.9727Z" fill="url(#paint6_linear_2049_1752)"/>
<path d="M65.2421 41.7822C65.2421 41.7822 65.5224 48.606 65.6801 50.6996C65.8378 52.7931 65.7545 62.5032 65.7545 62.5032C65.1386 62.7581 64.4662 62.8457 63.8055 62.7572C62.623 62.6302 61.4798 52.9552 61.493 51.6412C61.5061 50.3273 59.6841 43.1926 59.6753 40.2843C59.6666 37.3761 61.1032 33.9292 63.3194 34.3103C65.5355 34.6913 65.2421 41.7822 65.2421 41.7822Z" fill="#EFB497"/>
<path d="M60.07 44.6536C60.07 44.6536 59.7546 51.4774 59.7239 53.5753C59.6933 55.6733 58.9356 64.8052 58.9356 64.8052C58.0991 65.0587 57.2183 65.1318 56.3515 65.0198C56.3515 65.0198 55.4317 55.7653 55.5193 53.9389C55.5806 52.6249 54.4068 45.5734 54.6433 42.6783C54.8799 39.7833 56.623 36.4721 58.7954 37.0459C60.9678 37.6196 60.07 44.6536 60.07 44.6536Z" fill="#FFC8A9"/>
<path d="M67.4759 65.8672C66.4992 64.6715 65.9167 61.9253 65.9167 61.9253C65.9167 61.9253 65.9561 61.8728 65.8422 61.737C65.7429 61.9501 65.5813 62.1282 65.3789 62.2478C65.1764 62.3674 64.9425 62.4229 64.7078 62.4071C63.683 62.3283 63.6873 61.0406 62.8858 60.7734C62.842 60.8567 62.8026 60.9486 62.7544 61.0537C62.3646 61.9297 62.6712 66.9402 62.6712 66.9402L64.0465 67.6147L63.9151 66.0117C63.9151 66.0117 64.2786 66.8614 64.6465 67.7636C65.0144 68.6659 66.2714 69.0995 67.5942 69.682C68.9169 70.2645 69.6133 69.8134 69.9242 68.806C70.2352 67.7987 68.4526 67.0585 67.4759 65.8672Z" fill="#473E39"/>
<path d="M65.7064 49.0051C66.0349 39.4221 66.2538 30.0405 66.2538 30.0405C66.2538 30.0405 58.138 26.0242 55.8999 27.9995C55.0259 30.6337 54.5246 33.3772 54.4108 36.1503C54.275 38.5242 54.1743 44.2311 54.1611 50.3848C58.0417 52.3601 62.5529 52.1017 65.7064 49.0051Z" fill="#847066"/>
<path d="M66.8412 25.3543C67.1921 23.882 67.6623 22.4406 68.2471 21.0446C69.2194 18.5262 69.9114 16.0341 69.7494 13.3755C69.7125 13.0981 69.6004 12.8361 69.4253 12.6178C68.0325 11.1418 64.9841 11.4834 64.9841 11.4834C64.5642 11.4522 64.1426 11.4522 63.7227 11.4834C63.7242 11.5426 63.7034 11.6002 63.6645 11.6448C63.6256 11.6894 63.5713 11.7178 63.5125 11.7243C60.0086 12.1185 58.9005 15.8939 58.4363 18.8722C58.1209 20.8957 58.0552 22.9849 57.3238 24.9207C56.9198 25.9359 56.4411 26.9196 55.8916 27.864C56.899 28.6086 61.454 31.6394 66.1054 29.5283C66.3638 28.1531 66.5477 26.7427 66.8412 25.3543Z" fill="#A3D0DE"/>
<path d="M69.193 12.4062C69.193 12.4062 71.9918 14.5392 71.5275 20.417C71.5275 20.417 68.8646 21.0783 67.936 21.0739" fill="#A3D0DE"/>
<path d="M69.1402 9.67499V9.70127C69.0273 9.75861 68.9342 9.84866 68.8731 9.95968C68.3957 10.8006 67.9446 11.659 67.5066 12.5175C67.1529 12.4539 66.8151 12.3214 66.5124 12.1277C65.9913 11.8162 65.5563 11.3796 65.2466 10.8575L65.8072 8.12891L69.1402 9.67499Z" fill="#F9B495"/>
<path d="M72.0089 6.03855C72.0834 6.21374 69.657 11.982 68.3693 11.4739C67.0816 10.9659 65.2552 8.68397 65.921 6.3539C66.5867 4.02383 70.9797 3.56394 72.0089 6.03855Z" fill="#FFC8A9"/>
<path d="M69.8979 3.1859C62.2726 1.16242 59.106 16.3254 59.106 16.3254C59.7235 13.0975 62.8507 11.8536 62.8507 11.8536L62.9033 16.7108C64.0508 15.9881 65.7764 16.0845 66.5867 15.1078L66.6655 9.38336C66.6655 9.38336 65.7545 7.7453 66.5998 7.63142C67.4452 7.51755 67.5941 8.50739 67.5941 8.50739L68.3386 6.6372L72.044 8.13072C72.044 8.13072 74.558 4.42101 69.8979 3.1859Z" fill="#8E4228"/>
<path d="M60.6214 67.8804C59.6447 66.6847 59.0622 63.9386 59.0622 63.9386C59.0622 63.9386 59.1016 63.886 58.9877 63.7503C58.8917 63.9675 58.7316 64.1502 58.5289 64.2738C58.3261 64.3975 58.0904 64.4563 57.8534 64.4423C56.8285 64.3634 56.8329 63.0758 56.0314 62.8086C55.9876 62.8918 55.9481 62.9838 55.9 63.0889C55.5101 63.9649 55.8167 68.9754 55.8167 68.9754L57.192 69.6499L57.0606 68.0469C57.0606 68.0469 57.4241 68.8966 57.792 69.7988C58.1599 70.701 59.417 71.1346 60.7397 71.7172C62.0624 72.2997 62.7588 71.8486 63.0697 70.8412C63.3807 69.8338 61.5981 69.0761 60.6214 67.8804Z" fill="#473E39"/>
<path d="M108.958 91.749L119.592 86.2216V73.2617L108.958 79.4504V91.749Z" fill="#526E77"/>
<path d="M96.501 71.7082L108.848 78.8517L108.716 79.0795L119.372 72.882L106.894 65.6641L96.501 71.7082Z" fill="#68E1FD"/>
<path d="M106.894 65.1537L117.476 59L106.408 52.6055L95.8394 58.7547L106.894 65.1537Z" fill="#68E1FD"/>
<path d="M119.807 72.6158L130.406 66.4841C130.345 66.4403 130.283 66.3965 130.218 66.357L117.932 59.2617L107.351 65.4198L119.807 72.6158Z" fill="#526E77"/>
<path d="M94.1057 45.5087L86.2746 40.9887C85.6181 40.6097 84.8734 40.4102 84.1153 40.4102C83.3573 40.4102 82.6126 40.6097 81.9561 40.9887L73.5293 45.8547L83.5416 51.6492L94.1057 45.5087Z" fill="#68E1FD"/>
<path d="M84.5751 65.3164L84.1021 65.588V77.6018L95.8706 84.4081V71.8511L84.5751 65.3164Z" fill="#68E1FD"/>
<path d="M94.9688 58.761L83.5549 52.1562L73.1572 58.2004L84.5711 64.8052L94.9688 58.761Z" fill="#68E1FD"/>
<path d="M108.541 79.1794L96.3086 72.1016V84.6585L108.52 91.7232V79.1925L108.541 79.1794Z" fill="#526E77"/>
<path d="M96.0679 71.4592L106.461 65.4106L95.4021 59.0117L85.0088 65.0603L96.0679 71.4592Z" fill="#526E77"/>
<path d="M84.1369 65.0577L72.8501 58.5273V71.0843L83.6639 77.3431V65.3336L84.1369 65.0577Z" fill="#526E77"/>
<path d="M72.417 58.277L62.8559 52.7453L63.0749 52.3642L72.7105 57.9485L83.1038 51.9044L73.0828 46.1055L63.4384 51.681C62.8386 52.0262 62.3853 52.5783 62.1635 53.2339C61.9418 53.8894 61.9668 54.6034 62.2339 55.2418V57.1514C62.2288 57.2506 62.2288 57.35 62.2339 57.4492V64.9475L72.417 70.8384V58.277Z" fill="#8F9EA3"/>
<path d="M95.4021 58.5109L105.971 52.3616L94.5437 45.7656L83.9883 51.9061L95.4021 58.5109Z" fill="#526E77"/>
<path d="M96.3086 85.1662V94.7581H95.8706V84.9122L84.1021 78.1016V88.0832L106.671 101.612C107.242 101.95 107.868 102.183 108.52 102.3V92.2265L96.3086 85.1662Z" fill="#526E77"/>
<path d="M119.588 86.7148L108.945 92.2378V102.368C110.137 102.499 111.339 102.242 112.374 101.637L119.991 97.1432H119.588V86.7148Z" fill="#68E1FD"/>
<path d="M120.025 97.143L128.885 91.9266C129.546 91.5375 130.098 90.9895 130.493 90.3325C130.888 89.6754 131.112 88.9301 131.145 88.1643L131.478 80.5391L120.025 86.4869V97.143Z" fill="#526E77"/>
<path d="M131.754 72.547L131.64 68.8767C131.647 68.4835 131.573 68.0932 131.422 67.73C131.271 67.3668 131.047 67.0385 130.764 66.7656L120.025 73.0025V85.9887L131.5 80.0277L131.75 72.547" fill="#68E1FD"/>
<path d="M72.8505 71.5977V81.3209H72.811L83.6643 87.8249V77.8521L72.8505 71.5977Z" fill="#68E1FD"/>
<path d="M62.2339 65.4492V72.8949C62.2342 73.5301 62.3989 74.1544 62.7121 74.707C63.0252 75.2596 63.4761 75.7217 64.0209 76.0484L72.417 81.0808V71.3401L62.2339 65.4492Z" fill="#526E77"/>
<path d="M96.501 71.7082L108.848 78.8517L108.716 79.0795L119.372 72.882L106.894 65.6641L96.501 71.7082Z" fill="#8F9EA3"/>
<path d="M106.894 65.1537L117.476 59L106.408 52.6055L95.8394 58.7547L106.894 65.1537Z" fill="#8F9EA3"/>
<path d="M94.1057 45.5087L86.2746 40.9887C85.6181 40.6097 84.8734 40.4102 84.1153 40.4102C83.3573 40.4102 82.6126 40.6097 81.9561 40.9887L73.5293 45.8547L83.5416 51.6492L94.1057 45.5087Z" fill="#8F9EA3"/>
<path d="M84.5751 65.3164L84.1021 65.588V77.6018L95.8706 84.4081V71.8511L84.5751 65.3164Z" fill="#8F9EA3"/>
<path d="M94.9688 58.761L83.5549 52.1562L73.1572 58.2004L84.5711 64.8052L94.9688 58.761Z" fill="#8F9EA3"/>
<g style="mix-blend-mode:multiply">
<path d="M73.0953 46.1055L63.4378 51.681C63.2007 51.8213 62.9853 51.9954 62.7983 52.1978C62.8837 52.2616 62.9729 52.3201 63.0655 52.373L72.7011 57.9573L83.1032 51.9044L73.0953 46.1055Z" fill="#55737C"/>
</g>
<path d="M96.3084 85.168V94.7598H96.2427V95.3686L106.662 101.614C107.233 101.951 107.859 102.184 108.511 102.302V92.2283L96.3084 85.168Z" fill="#8F9EA3"/>
<path d="M119.588 86.7148L108.945 92.2378V102.368C110.137 102.499 111.339 102.242 112.374 101.637L119.991 97.1432H119.588V86.7148Z" fill="#8F9EA3"/>
<path d="M131.754 72.547L131.64 68.8767C131.647 68.4835 131.573 68.0932 131.422 67.73C131.271 67.3668 131.047 67.0385 130.764 66.7656L120.025 73.0025V85.9887L131.5 80.0277L131.75 72.547" fill="#8F9EA3"/>
<path d="M72.8505 71.5977V81.3209H72.811L83.6643 87.8249V77.8521L72.8505 71.5977Z" fill="#8F9EA3"/>
<path d="M95.8701 94.7599H96.3081V85.1681L95.8701 84.9141V94.7599Z" fill="#FFEED9"/>
<path d="M96.5015 71.7083L106.895 65.6642L106.461 65.4102L96.0679 71.4587L96.5015 71.7083Z" fill="#FFEED9"/>
<path d="M95.8701 71.8477V84.4046L96.3081 84.6587V72.1017L95.8701 71.8477Z" fill="#FFEED9"/>
<path d="M107.333 65.4116L117.914 59.2536L117.476 59.0039L106.895 65.1576L107.333 65.4116Z" fill="#FFEED9"/>
<path d="M95.8398 58.7544L106.408 52.6051L105.97 52.3555L95.4019 58.5047L95.8398 58.7544Z" fill="#FFEED9"/>
<path d="M83.6646 77.8477V87.8205L84.1025 88.0833V78.1017L83.6646 77.8477Z" fill="#FFEED9"/>
<path d="M84.5756 65.3126L84.1376 65.0586L83.6646 65.3345V77.344L84.1025 77.598V65.5842L84.5756 65.3126Z" fill="#FFEED9"/>
<path d="M85.0093 65.0599L95.4026 59.0114L94.969 58.7617L84.5713 64.8059L85.0093 65.0599Z" fill="#FFEED9"/>
<path d="M72.4116 81.319H72.8102L72.4116 81.0781V81.319Z" fill="#FFEED9"/>
<path d="M83.5545 52.1564L83.1165 51.9023L72.7231 57.9509L73.1567 58.2005L83.5545 52.1564Z" fill="#FFEED9"/>
<path d="M83.9888 51.9024L94.5441 45.7618L94.1062 45.5078L83.5508 51.6483L83.9888 51.9024Z" fill="#FFEED9"/>
<path d="M72.8496 71.5978L72.4116 71.3438V81.0801L72.8102 81.321H72.8496V71.5978Z" fill="#FFEED9"/>
<path d="M72.8496 58.5275L72.4116 58.2734V70.8304L72.8496 71.0844V58.5275Z" fill="#FFEED9"/>
<path d="M84.5705 64.804L73.1567 58.1992L72.8501 58.3788V58.5277L84.1369 65.058L84.5705 64.804Z" fill="#FFEED9"/>
<path d="M96.3086 72.1012L108.541 79.179L108.629 79.1308L108.717 79.0783L108.848 78.8505L96.5013 71.707L96.3086 71.8209V72.1012Z" fill="#FFEED9"/>
<path d="M96.0674 71.4575L85.0083 65.0586L84.5747 65.3126L95.8703 71.8473V71.567L96.0674 71.4575Z" fill="#FFEED9"/>
<path d="M72.7227 57.9515L63.0696 52.3672L62.8506 52.7439L72.4118 58.2756V58.1267L72.7227 57.9515Z" fill="#FFEED9"/>
<path d="M95.8701 71.5665V71.8468L96.3081 72.1009V71.8206L96.5008 71.7067L96.0672 71.457L95.8701 71.5665Z" fill="#FFEED9"/>
<path d="M84.5708 64.8047L84.1372 65.0587L84.5752 65.3127L85.0088 65.0587L84.5708 64.8047Z" fill="#FFEED9"/>
<path d="M72.8496 58.3784L73.1562 58.1989L72.7226 57.9492L72.4116 58.1244V58.2733L72.8496 58.5274V58.3784Z" fill="#FFEED9"/>
<path d="M108.506 102.398H108.944C108.795 102.398 108.651 102.358 108.506 102.332V102.398Z" fill="#FFEED9"/>
<path d="M108.734 92.357L108.629 92.2957L108.52 92.2344V102.308C108.664 102.334 108.809 102.361 108.958 102.374V92.2388L108.734 92.357Z" fill="#FFEED9"/>
<path d="M108.629 79.2336L108.541 79.181L108.52 79.1941V91.7248L108.743 91.8562L108.958 91.7467V79.4482L119.592 73.2595V73.0098L119.373 72.8828L108.717 79.0803L108.629 79.2336Z" fill="#FFEED9"/>
<path d="M120.026 72.7563V73.0103L130.752 66.7691C130.644 66.6654 130.528 66.5702 130.406 66.4844L119.807 72.6161L120.026 72.7563Z" fill="#FFEED9"/>
<path d="M108.542 79.1828L108.629 79.2353L108.717 79.082L108.629 79.1346L108.542 79.1828Z" fill="#FFEED9"/>
<path d="M120.03 97.1586V97.1367L119.99 97.1586H120.03Z" fill="#FFEED9"/>
<path d="M83.5504 51.6505L73.5337 45.8516L73.0957 46.1056L83.1168 51.9045L83.5504 51.6505Z" fill="#FFEED9"/>
<path d="M119.592 86.716V97.1619H119.99L120.03 97.14V86.4883L119.592 86.716Z" fill="#FFEED9"/>
<path d="M106.461 65.4108L106.895 65.1567L95.8398 58.7578L95.4019 59.0118L106.461 65.4108Z" fill="#FFEED9"/>
<path d="M119.592 86.2218L120.03 85.994V73.0078L119.592 73.2618V86.2218Z" fill="#FFEED9"/>
<path d="M94.968 58.7612L95.4016 58.5071L83.9878 51.9023L83.5542 52.1564L94.968 58.7612Z" fill="#FFEED9"/>
<path d="M119.373 72.8821L119.806 72.6281L107.333 65.4102L106.895 65.6642L119.373 72.8821Z" fill="#FFEED9"/>
<path d="M106.894 65.6643L107.332 65.4103L106.894 65.1562L106.46 65.4103L106.894 65.6643Z" fill="#FFEED9"/>
<path d="M95.4019 59.0115L95.8399 58.7575L95.4019 58.5078L94.9683 58.7618L95.4019 59.0115Z" fill="#FFEED9"/>
<path d="M83.9883 51.9025L83.5503 51.6484L83.1167 51.9025L83.5547 52.1565L83.9883 51.9025Z" fill="#FFEED9"/>
<path d="M119.806 72.6289L119.373 72.8829L119.592 73.0099V73.2596L120.03 73.0056V72.7559L119.806 72.6289Z" fill="#FFEED9"/>
<path d="M72.4126 70.8323L62.2339 64.9414V65.4495L72.4126 71.3403V70.8323Z" fill="#FFEED9"/>
<path d="M108.958 91.7461V92.2366L119.592 86.7137V86.2188L108.958 91.7461Z" fill="#FFEED9"/>
<path d="M120.029 86.4832L131.478 80.531L131.5 80.0273L120.029 85.9883V86.4832Z" fill="#FFEED9"/>
<path d="M72.8501 71.0898V71.5979L83.6639 77.8523V77.3486L72.8501 71.0898Z" fill="#FFEED9"/>
<path d="M96.3086 84.6602V85.1682L108.52 92.2329V91.7248L96.3086 84.6602Z" fill="#FFEED9"/>
<path d="M84.1021 77.5977V78.1013L95.8706 84.912V84.4039L84.1021 77.5977Z" fill="#FFEED9"/>
<path d="M95.8701 84.4062V84.9143L96.3081 85.1683V84.6603L95.8701 84.4062Z" fill="#FFEED9"/>
<path d="M83.6646 77.3438V77.8474L84.1025 78.1015V77.5978L83.6646 77.3438Z" fill="#FFEED9"/>
<path d="M72.4116 70.832V71.3401L72.8496 71.5941V71.0861L72.4116 70.832Z" fill="#FFEED9"/>
<path d="M108.743 91.854L108.52 91.7227V92.2307L108.629 92.292L108.734 92.3534L108.958 92.2351V91.7446L108.743 91.854Z" fill="#FFEED9"/>
<path d="M119.592 86.7149L120.03 86.4871V85.9922L119.592 86.2199V86.7149Z" fill="#FFEED9"/>
<path d="M101.783 46.3749V56.6149L109.772 61.1831L118.786 55.8572V45.6172" fill="#C3CED2"/>
<path d="M101.783 46.3788L111.051 41.1055L118.786 45.6211L109.772 50.9469L101.783 46.3788Z" fill="#8F9EA3"/>
<g style="mix-blend-mode:multiply">
<path d="M109.772 50.9431V61.1831L118.786 55.8572V45.6172L109.772 50.9431Z" fill="#5A6F76"/>
</g>
<path d="M131.421 39.9064C131.421 39.9064 130.383 41.9431 129.779 42.4993C129.175 43.0555 122.688 45.9725 122.088 46.2046C121.488 46.4368 121.392 46.6426 121.068 46.5769C120.743 46.5112 117.918 46.5288 117.778 46.8091C117.699 47.0027 117.699 47.2198 117.778 47.4135C117.778 47.4135 116.902 47.9215 117.082 48.434C117.261 48.9464 117.73 50.2428 118.518 50.2428C119.307 50.2428 121.068 48.7581 121.208 48.3902C121.208 48.3902 128.43 47.7858 131.421 46.1214C134.413 44.4571 134.877 42.1796 134.877 42.1796C134.592 41.5001 134.112 40.9208 133.496 40.5159C132.88 40.111 132.158 39.8988 131.421 39.9064Z" fill="#F2C3BD"/>
<path d="M65.0322 27.4296V37.6696L73.0167 42.2378L82.0347 36.9119V26.6719" fill="#8F9EA3"/>
<path d="M65.0322 27.4296L74.2999 22.1562L82.0347 26.6719L73.0167 32.0021L65.0322 27.4296Z" fill="#C3CED2"/>
<g style="mix-blend-mode:multiply">
<path d="M73.0161 32.0021V42.2378L82.0342 36.9119V26.6719L73.0161 32.0021Z" fill="#5A6F76"/>
</g>
<path d="M62.1633 19.9013C62.1633 19.9013 62.2071 23.3307 62.772 24.4695C63.337 25.6082 66.092 31.3896 66.2234 31.4772C66.3547 31.5648 68.7812 32.8393 68.4614 33.2905C68.1417 33.7416 66.7095 32.9839 66.7095 32.9839C66.7095 32.9839 68.4614 35.6994 67.7563 36.1855C67.0511 36.6717 64.0291 33.9956 64.0115 33.1985C63.994 32.4014 63.9196 31.2232 63.9196 31.2232C63.9196 31.2232 59.5047 25.271 59.1631 24.2636C58.8214 23.2563 58.5762 19.3714 58.5762 19.3714C58.5762 19.3714 60.5602 18.3071 62.1633 19.9013Z" fill="#FFC8A9"/>
<path d="M62.3956 16.7227L62.7109 21.5405C62.273 21.4616 58.5545 21.8339 58.48 21.7244C58.4056 21.6149 58.6946 17.1869 58.6946 17.1869" fill="#A3D0DE"/>
</g>
<defs>
<linearGradient id="paint0_linear_2049_1752" x1="558" y1="4.18959" x2="558" y2="659" gradientUnits="userSpaceOnUse">
<stop stop-color="#FFFFF2"/>
</linearGradient>
<linearGradient id="paint1_linear_2049_1752" x1="558" y1="4.18959" x2="558" y2="659" gradientUnits="userSpaceOnUse">
<stop stop-color="#FFFFF2"/>
</linearGradient>
<linearGradient id="paint2_linear_2049_1752" x1="75.8001" y1="182.247" x2="121.673" y2="-1.5551" gradientUnits="userSpaceOnUse">
<stop offset="0.48" stop-color="#092A35"/>
<stop offset="1" stop-color="#1A7B9B"/>
</linearGradient>
<linearGradient id="paint3_linear_2049_1752" x1="552" y1="32.0839" x2="552" y2="754" gradientUnits="userSpaceOnUse">
<stop stop-color="#FFFFF2"/>
</linearGradient>
<linearGradient id="paint4_linear_2049_1752" x1="75.8001" y1="182.247" x2="121.673" y2="-1.5551" gradientUnits="userSpaceOnUse">
<stop offset="0.48" stop-color="#092A35"/>
<stop offset="1" stop-color="#1A7B9B"/>
</linearGradient>
<linearGradient id="paint5_linear_2049_1752" x1="76.3674" y1="98.0609" x2="84.8949" y2="85.447" gradientUnits="userSpaceOnUse">
<stop stop-color="white" stop-opacity="0"/>
<stop offset="0.99" stop-color="#754C24"/>
</linearGradient>
<linearGradient id="paint6_linear_2049_1752" x1="51.691" y1="71.7821" x2="60.6477" y2="61.9494" gradientUnits="userSpaceOnUse">
<stop stop-color="white" stop-opacity="0"/>
<stop offset="0.99" stop-color="#754C24"/>
</linearGradient>
<clipPath id="clip0_2049_1752">
<rect width="1556" height="4011" fill="white" transform="translate(-226 -2981)"/>
</clipPath>
</defs>
</svg>
