<svg width="182" height="130" viewBox="0 0 182 130" fill="none" xmlns="http://www.w3.org/2000/svg">
<g clip-path="url(#clip0_2049_1752)">
<rect width="1556" height="4011" transform="translate(-1122 -2974)" fill="white"/>
<path d="M-1117 -261H441V666H-1117V-261Z" fill="url(#paint0_linear_2049_1752)"/>
<path fill-rule="evenodd" clip-rule="evenodd" d="M-431.086 387.195C-429.631 387.611 -428.113 387.985 -426.53 388.317C-424.907 388.652 -423.222 388.953 -421.473 389.22C-419.685 389.489 -417.835 389.732 -415.923 389.949C-414.008 390.15 -412.052 390.332 -410.054 390.493C-408.015 390.641 -405.933 390.762 -403.809 390.855C-401.647 390.966 -399.461 391.04 -397.251 391.077C-395.043 391.13 -392.792 391.163 -390.5 391.175C-388.209 391.187 -385.894 391.178 -383.558 391.148C-381.221 391.117 -378.864 391.073 -376.484 391.015C-374.143 390.939 -371.781 390.856 -369.398 390.768C-367.015 390.679 -364.631 390.575 -362.245 390.457C-359.859 390.338 -357.491 390.21 -355.143 390.073C-352.794 389.937 -350.485 389.798 -348.215 389.656C-345.903 389.502 -343.612 389.346 -341.34 389.189C-339.106 389.015 -336.911 388.845 -334.757 388.68C-332.562 388.503 -330.426 388.322 -328.349 388.137C-326.232 387.955 -324.174 387.769 -322.175 387.579C-320.135 387.377 -318.154 387.17 -316.232 386.96C-314.31 386.75 -312.426 386.529 -310.581 386.299C-308.775 386.066 -307.007 385.822 -305.277 385.569C-303.55 385.331 -301.879 385.073 -300.266 384.797C-298.615 384.539 -297.041 384.26 -295.543 383.961C-294.048 383.677 -292.609 383.374 -291.228 383.052C-289.809 382.748 -288.486 382.422 -287.26 382.075C-285.996 381.745 -284.79 381.397 -283.64 381.029C-282.53 380.659 -281.478 380.277 -280.484 379.884C-279.49 379.491 -278.573 379.086 -277.734 378.667C-276.893 378.234 -276.13 377.787 -275.445 377.328C-274.759 376.869 -274.132 376.399 -273.562 375.917C-273.032 375.433 -272.559 374.929 -272.143 374.407C-271.766 373.882 -271.448 373.346 -271.187 372.798C-270.926 372.25 -270.723 371.691 -270.579 371.12C-270.434 370.549 -270.367 369.966 -270.377 369.37C-270.349 368.777 -270.378 368.172 -270.465 367.555C-270.552 366.939 -270.698 366.311 -270.901 365.672C-271.104 365.033 -271.346 364.383 -271.626 363.724C-271.945 363.062 -272.284 362.399 -272.643 361.734C-273.04 361.067 -273.476 360.39 -273.951 359.702C-274.386 359.017 -274.879 358.321 -275.431 357.613C-275.944 356.923 -276.516 356.222 -277.146 355.509C-277.736 354.799 -278.346 354.087 -278.976 353.374C-279.645 352.659 -280.334 351.942 -281.042 351.224C-281.711 350.509 -282.419 349.791 -283.167 349.07C-283.914 348.35 -284.681 347.628 -285.468 346.905C-286.255 346.182 -287.062 345.465 -287.89 344.754C-288.678 344.047 -289.507 343.351 -290.378 342.668C-291.247 341.97 -292.137 341.286 -293.048 340.616C-293.958 339.931 -294.89 339.267 -295.844 338.624C-296.759 337.985 -297.715 337.357 -298.712 336.743C-299.71 336.143 -300.73 335.557 -301.772 334.986C-302.774 334.416 -303.818 333.867 -304.904 333.338C-305.991 332.825 -307.08 332.326 -308.171 331.842C-309.304 331.371 -310.439 330.931 -311.578 330.521C-312.756 330.108 -313.939 329.733 -315.126 329.396C-316.311 329.044 -317.521 328.728 -318.754 328.449C-320.028 328.182 -321.306 327.946 -322.587 327.74C-323.87 327.55 -325.177 327.396 -326.507 327.278C-327.838 327.161 -329.174 327.081 -330.513 327.039C-331.894 327.01 -333.278 327.011 -334.665 327.043C-336.092 327.072 -337.523 327.138 -338.959 327.243C-340.393 327.333 -341.831 327.46 -343.273 327.625C-344.755 327.788 -346.239 327.973 -347.726 328.182C-349.213 328.39 -350.703 328.621 -352.195 328.874C-353.689 329.143 -355.204 329.426 -356.741 329.722C-358.276 330.003 -359.814 330.315 -361.356 330.657C-362.857 330.987 -364.378 331.322 -365.92 331.664C-367.464 332.021 -369.008 332.386 -370.554 332.758C-372.101 333.146 -373.648 333.533 -375.195 333.92C-376.742 334.308 -378.289 334.695 -379.837 335.083C-381.344 335.473 -382.873 335.869 -384.422 336.271C-385.93 336.661 -387.457 337.05 -389.004 337.438C-390.512 337.828 -392.019 338.21 -393.525 338.585C-394.992 338.962 -396.479 339.338 -397.985 339.713C-399.452 340.091 -400.899 340.469 -402.327 340.849C-403.794 341.227 -405.221 341.607 -406.61 341.989C-408.037 342.369 -409.426 342.752 -410.775 343.137C-412.165 343.534 -413.516 343.935 -414.827 344.337C-416.139 344.74 -417.431 345.144 -418.703 345.55C-419.978 345.97 -421.233 346.399 -422.47 346.838C-423.667 347.279 -424.847 347.736 -426.008 348.209C-427.168 348.668 -428.291 349.144 -429.375 349.638C-430.459 350.117 -431.505 350.621 -432.515 351.15C-433.525 351.68 -434.496 352.219 -435.43 352.769C-436.364 353.334 -437.262 353.916 -438.122 354.517C-438.942 355.119 -439.725 355.74 -440.471 356.378C-441.256 357.014 -441.965 357.677 -442.598 358.369C-443.27 359.058 -443.885 359.765 -444.444 360.492C-445 361.204 -445.5 361.942 -445.944 362.707C-446.386 363.457 -446.769 364.21 -447.094 364.968C-447.42 365.74 -447.687 366.516 -447.895 367.297C-448.065 368.079 -448.194 368.857 -448.282 369.63C-448.332 370.405 -448.323 371.184 -448.255 371.967C-448.185 372.735 -448.055 373.499 -447.866 374.26C-447.636 375.008 -447.326 375.753 -446.937 376.496C-446.586 377.221 -446.154 377.936 -445.642 378.641C-445.089 379.334 -444.475 380.015 -443.801 380.685C-443.086 381.343 -442.289 381.975 -441.409 382.582C-440.53 383.189 -439.568 383.763 -438.523 384.305C-437.48 384.861 -436.334 385.379 -435.084 385.857C-433.834 386.336 -432.502 386.782 -431.086 387.195Z" fill="url(#paint1_linear_2049_1752)"/>
<path fill-rule="evenodd" clip-rule="evenodd" d="M-5.26492 112.434C-3.87879 113.14 -2.42295 113.799 -0.897376 114.41C0.666832 115.028 2.29881 115.608 3.99856 116.15C5.73694 116.7 7.54112 117.222 9.41111 117.716C11.285 118.19 13.2035 118.642 15.1664 119.071C17.1719 119.489 19.2239 119.875 21.3224 120.229C23.4556 120.61 25.6179 120.945 27.8094 121.235C29.9969 121.545 32.2289 121.833 34.5055 122.098C36.7821 122.364 39.0839 122.604 41.4108 122.818C43.7378 123.032 46.088 123.229 48.4615 123.411C50.8002 123.566 53.1602 123.714 55.5415 123.857C57.9228 123.999 60.308 124.122 62.6971 124.224C65.0863 124.327 67.458 124.416 69.8124 124.491C72.1669 124.567 74.4826 124.634 76.7597 124.694C79.0794 124.742 81.3798 124.786 83.6608 124.827C85.9072 124.839 88.1129 124.854 90.278 124.872C92.4857 124.877 94.6354 124.87 96.7271 124.853C98.8575 124.842 100.93 124.821 102.944 124.788C105.001 124.742 107 124.686 108.942 124.617C110.883 124.549 112.787 124.463 114.655 124.36C116.484 124.249 118.276 124.12 120.032 123.974C121.784 123.848 123.482 123.69 125.125 123.502C126.804 123.34 128.409 123.144 129.94 122.912C131.468 122.7 132.942 122.457 134.362 122.183C135.816 121.936 137.178 121.65 138.447 121.326C139.751 121.028 141 120.7 142.196 120.34C143.353 119.972 144.454 119.584 145.499 119.173C146.544 118.763 147.514 118.328 148.408 117.867C149.306 117.387 150.129 116.881 150.877 116.35C151.625 115.819 152.316 115.267 152.952 114.693C153.549 114.112 154.092 113.5 154.581 112.856C155.031 112.204 155.425 111.532 155.763 110.838C156.102 110.143 156.384 109.428 156.61 108.691C156.836 107.954 156.987 107.192 157.063 106.404C157.177 105.625 157.235 104.824 157.238 104.001C157.24 103.179 157.186 102.335 157.076 101.47C156.966 100.605 156.82 99.7219 156.637 98.8216C156.415 97.9137 156.174 97.0019 155.913 96.0863C155.614 95.1631 155.278 94.2223 154.906 93.264C154.572 92.3133 154.182 91.3413 153.737 90.3478C153.325 89.3818 152.858 88.3945 152.335 87.3857C151.851 86.3847 151.347 85.3797 150.824 84.371C150.262 83.3546 149.681 82.3344 149.081 81.3104C148.519 80.294 147.918 79.2699 147.279 78.2383C146.64 77.2066 145.982 76.1711 145.304 75.1317C144.627 74.0924 143.928 73.0591 143.207 72.0319C142.526 71.0124 141.802 70.005 141.035 69.0097C140.272 67.9946 139.486 66.9956 138.677 66.0124C137.871 65.0095 137.041 64.0325 136.185 63.0813C135.368 62.1378 134.508 61.2064 133.606 60.2872C132.7 59.3878 131.77 58.5043 130.818 57.6368C129.904 56.7769 128.945 55.9391 127.942 55.1234C126.935 54.3274 125.924 53.5512 124.909 52.7949C123.852 52.0506 122.787 51.346 121.714 50.681C120.602 50.0083 119.481 49.385 118.349 48.8113C117.222 48.2178 116.065 47.67 114.88 47.1678C113.652 46.6777 112.416 46.2273 111.172 45.8164C109.924 45.4253 108.647 45.0799 107.341 44.7802C106.035 44.4805 104.719 44.2302 103.394 44.0294C102.025 43.8408 100.649 43.6918 99.2655 43.5824C97.843 43.4653 96.4107 43.3977 94.9686 43.3796C93.5304 43.3417 92.0824 43.3533 90.6247 43.4143C89.1282 43.4678 87.6259 43.5509 86.1178 43.6637C84.6096 43.7765 83.0955 43.919 81.5756 44.0912C80.0517 44.2832 78.5046 44.4912 76.9343 44.7151C75.3679 44.9192 73.7936 45.163 72.2115 45.4463C70.6719 45.7175 69.1111 45.9947 67.529 46.278C65.943 46.5811 64.355 46.8942 62.7651 47.2171C61.1712 47.5598 59.5774 47.9025 57.9835 48.2452C56.3896 48.5879 54.7958 48.9306 53.2019 49.2733C51.6467 49.6237 50.0702 49.9801 48.4724 50.3426C46.9172 50.693 45.3426 51.0395 43.7488 51.3822C42.1936 51.7326 40.6403 52.073 39.089 52.4036C37.5764 52.7418 36.0444 53.0762 34.4931 53.4068C32.9804 53.745 31.4871 54.087 30.0131 54.4329C28.5004 54.7711 27.0264 55.117 25.591 55.4705C24.117 55.8164 22.6817 56.1699 21.285 56.531C19.8457 56.9044 18.445 57.2853 17.083 57.6739C15.721 58.0625 14.3783 58.455 13.055 58.8513C11.7277 59.2673 10.4178 59.6971 9.12522 60.1406C7.8713 60.5918 6.63278 61.0666 5.40967 61.565C4.19048 62.0436 3.00602 62.5496 1.85626 63.0831C0.710449 63.5968 -0.402613 64.1479 -1.48291 64.7363C-2.5632 65.3247 -3.60681 65.9306 -4.61374 66.5541C-5.62459 67.1974 -6.60072 67.8682 -7.54211 68.5664C-8.44487 69.2722 -9.31291 70.0055 -10.1462 70.7662C-11.0182 71.5193 -11.8187 72.3174 -12.5479 73.1604C-13.3157 73.9959 -14.0294 74.8626 -14.6891 75.7605C-15.3449 76.6387 -15.9486 77.558 -16.5002 78.5185C-17.0479 79.4593 -17.5376 80.4115 -17.9693 81.3751C-18.405 82.3586 -18.7827 83.3535 -19.1025 84.36C-19.3836 85.374 -19.6241 86.3859 -19.824 87.3954C-19.9852 88.4127 -20.0885 89.4414 -20.1339 90.4816C-20.1753 91.502 -20.1567 92.5239 -20.0783 93.5475C-19.9573 94.5589 -19.7571 95.5757 -19.4776 96.5979C-19.2328 97.5927 -18.9068 98.5829 -18.4996 99.5687C-18.0499 100.542 -17.5383 101.508 -16.9647 102.465C-16.3487 103.41 -15.6475 104.33 -14.8611 105.226C-14.0748 106.123 -13.2014 106.985 -12.2409 107.813C-11.2844 108.66 -10.2194 109.468 -9.04608 110.235C-7.87277 111.002 -6.61239 111.735 -5.26492 112.434Z" fill="url(#paint2_linear_2049_1752)"/>
<path style="mix-blend-mode:multiply" opacity="0.63" d="M44.4719 82.4648L33 88.8448L42.0759 94.5692L51.1519 89.1125C50.2517 88.5309 45.3813 83.0373 44.4719 82.4648Z" fill="url(#paint3_linear_2049_1752)"/>
<path style="mix-blend-mode:multiply" opacity="0.63" d="M97.3166 103.359L83.8135 110.072L95.5716 116.784L111.858 105.146C110.4 104.209 98.7892 104.283 97.3166 103.359Z" fill="url(#paint4_linear_2049_1752)"/>
<path style="mix-blend-mode:multiply" opacity="0.63" d="M88.55 77.9727L69.9688 88.3089L77.4105 93.4701L91.6107 83.397C90.1657 82.4552 90.0226 78.8959 88.55 77.9727Z" fill="url(#paint5_linear_2049_1752)"/>
<path style="mix-blend-mode:multiply" opacity="0.63" d="M73.1267 72.5625L60.2007 79.7503L65.408 83.3558L77.2815 73.8505C76.2475 73.1996 74.1516 73.2227 73.1267 72.5625Z" fill="url(#paint6_linear_2049_1752)"/>
<path style="mix-blend-mode:multiply" opacity="0.63" d="M54.6379 89.5234L36.0566 99.8597L45.428 107.191L57.0384 100.151C55.5796 99.2272 56.1151 90.4467 54.6379 89.5234Z" fill="url(#paint7_linear_2049_1752)"/>
<path style="mix-blend-mode:multiply" opacity="0.63" d="M75.7618 85.9531C74.5272 85.7257 73.3124 85.4016 72.1286 84.9836C70.7021 84.4666 69.1602 83.7234 68.297 82.4492L53.9629 90.4218L63.3343 97.7712L76.3111 86.4932C76.0979 86.3466 75.9119 86.1638 75.7618 85.9531Z" fill="url(#paint8_linear_2049_1752)"/>
<path d="M93.2677 71.7227C92.7091 71.7227 91.929 72.3136 91.4212 72.5629L90.0362 73.2507C90.0362 73.2507 89.1129 76.7223 88.5728 77.9918C88.0327 79.2613 86.1215 82.0404 86.7909 83.0699C87.2497 83.7086 87.9339 84.1492 88.7053 84.3026C89.4766 84.456 90.2774 84.3108 90.9457 83.8962C92.7045 82.9314 92.6537 79.7137 93.2954 78.4627C93.8217 77.4286 93.577 75.2312 93.577 74.7695C93.6026 73.7449 93.4986 72.7212 93.2677 71.7227Z" fill="#181816"/>
<path d="M78.7947 65.4258C78.2361 65.4258 77.456 66.0167 76.9481 66.266L75.5632 66.9538C75.5632 66.9538 75.1016 70.7347 74.0998 71.6949C73.098 72.6551 69.3864 74.691 70.0558 75.7251C70.4821 76.3692 71.14 76.8244 71.893 76.9963C72.6459 77.1682 73.4362 77.0436 74.0998 76.6484C75.8587 75.6835 77.0128 73.7031 78.2546 73.1999C79.3349 72.7706 78.8778 69.9684 78.9194 69.0451C79.0433 67.8386 79.0014 66.6209 78.7947 65.4258Z" fill="#181816"/>
<path d="M76.2834 30.0586C76.2834 30.0586 73.8828 42.8369 74.0998 49.8447C74.3168 56.8525 74.4368 65.4345 74.9723 69.2338C74.9723 69.2338 79.6165 69.8801 81.1907 68.4905C81.1907 68.4905 81.6523 43.931 81.6893 44.0695C82.4002 47.301 85.7379 63.8556 86.0933 64.9359C86.4488 66.0161 88.1615 74.7412 88.1615 74.7412C89.2801 75.0182 90.4437 75.0624 91.5801 74.871C92.7165 74.6796 93.8015 74.2568 94.7677 73.6287C94.7677 73.6287 94.1906 61.0581 93.115 57.5311C92.0393 54.0041 88.2862 31.7944 86.4627 30.0586" fill="#68E1FD"/>
<path d="M76.2834 30.0586C76.2834 30.0586 73.8828 42.8369 74.0998 49.8447C74.3168 56.8525 74.4368 65.4345 74.9723 69.2338C74.9723 69.2338 79.6165 69.8801 81.1907 68.4905C81.1907 68.4905 81.6523 43.931 81.6893 44.0695C82.4002 47.301 85.7379 63.8556 86.0933 64.9359C86.4488 66.0161 88.1615 74.7412 88.1615 74.7412C89.2801 75.0182 90.4437 75.0624 91.5801 74.871C92.7165 74.6796 93.8015 74.2568 94.7677 73.6287C94.7677 73.6287 94.1906 61.0581 93.115 57.5311C92.0393 54.0041 88.2862 31.7944 86.4627 30.0586" fill="#155266"/>
<path d="M86.3433 31.0888C86.3433 31.0888 90.4519 19.1415 88.79 16.4085C87.1281 13.6756 80.4804 11.5243 77.2858 11.7921C74.0912 12.0598 76.1409 30.9411 76.6441 31.0796C77.1473 31.2181 81.8607 34.4589 86.3433 31.0888Z" fill="#4F757F"/>
<path d="M87.7002 15.1775L82.7145 13.1094C81.8097 17.4919 80.871 21.8652 79.8984 26.2293L86.86 27.4527C86.86 27.4527 91.0149 25.1722 91.6427 21.5529C92.2705 17.9336 87.8895 15.3437 87.7002 15.1775Z" fill="#4F757F"/>
<path d="M77.651 18.9907C77.651 18.9907 76.9862 12.4631 76.9862 11.8906C75.0474 12.4457 73.2349 13.3723 71.6496 14.6189C70.8393 15.2475 70.0854 15.9457 69.3968 16.7056C68.9235 17.1515 68.5315 17.6764 68.238 18.2567C68.033 18.9456 68.0123 19.6763 68.178 20.3757C68.4853 21.9952 69.0347 23.5592 69.8076 25.0152C70.6189 26.7116 71.621 28.31 72.7945 29.7794C73.1592 30.241 74.3364 31.8891 75.1027 31.6259C76.64 31.0904 77.2817 29.3177 77.2817 29.3177C77.2817 29.3177 76.5707 27.9328 75.8044 26.1924C75.3428 25.1675 73.3069 22.8455 73.0345 21.2574C73.2364 20.9853 73.4554 20.7262 73.6901 20.4818C74.7011 19.4755 76.3907 19.6463 77.651 18.9907Z" fill="#4F757F"/>
<path d="M78.2324 12.2647L79.2573 17.4028L80.6422 15.7502L81.7178 17.8091L84.5985 13.899C84.5985 13.899 80.1806 11.84 78.2324 12.2647Z" fill="white"/>
<path d="M83.7764 9.96834C83.0285 10.7993 81.5882 10.43 80.6418 10.2084C79.4923 9.94988 78.172 9.25279 78.2736 7.90017C78.2736 7.69243 77.9689 7.69705 77.9504 7.90017C77.8443 9.32666 79.1415 10.2084 80.3741 10.4946C81.4682 10.767 83.144 11.1825 83.998 10.213C84.1411 10.0422 83.9149 9.81138 83.7764 9.96834Z" fill="#009245"/>
<path d="M77.6499 7.01401C77.6499 7.01401 77.6499 13.9895 80.2074 14.4465C83.0188 14.9451 84.6023 11.7505 84.6023 11.7505C84.6023 11.7505 84.9624 5.58753 82.1694 5.04279C79.3765 4.49805 77.7284 6.12304 77.6499 7.01401Z" fill="#FBB5AD"/>
<path d="M82.6177 11.056C82.6177 11.056 83.2963 8.37846 84.0442 9.26021C84.792 10.1419 82.83 12.0901 82.83 12.0901" fill="#FBB5AD"/>
<path d="M83.3013 4.17969C83.3013 4.17969 85.7988 4.44744 86.5328 6.43713C87.2668 8.42682 85.3833 12.3831 84.0445 13.0156L85.6649 9.544L85.5864 7.18038L83.3013 4.17969Z" fill="#5C2E2E"/>
<path d="M86.4819 7.32661C86.2788 5.94168 85.3555 5.25844 84.1506 4.55674C84.0521 4.49826 83.9521 4.44441 83.8506 4.39516C84.0825 4.20508 84.2686 3.96526 84.3953 3.69346C84.4114 3.66561 84.4199 3.63403 84.42 3.60187C84.4202 3.5697 84.4119 3.53806 84.396 3.51007C84.3802 3.48209 84.3573 3.45873 84.3296 3.44231C84.302 3.4259 84.2705 3.41699 84.2383 3.41648C84.0811 3.42308 83.9269 3.46217 83.7854 3.53129C83.644 3.60041 83.5184 3.69807 83.4166 3.81811C83.2755 3.53146 83.0848 3.27202 82.8534 3.05178C82.8307 3.02987 82.8028 3.01414 82.7722 3.0061C82.7417 2.99806 82.7097 2.99797 82.6791 3.00584C82.6486 3.01371 82.6205 3.02928 82.5977 3.05106C82.5749 3.07284 82.558 3.1001 82.5487 3.13026C82.4941 3.26507 82.4699 3.41027 82.4779 3.55551C82.4859 3.70075 82.5258 3.84244 82.5949 3.97045C81.3362 3.70454 80.0239 3.90467 78.9017 4.53366C78.4924 4.77347 78.1447 5.10541 77.8861 5.50311C77.5449 5.46835 77.2008 5.53076 76.8936 5.68315C76.567 5.83954 76.3002 6.09805 76.1336 6.41956C75.967 6.74108 75.9097 7.1081 75.9703 7.4651C76.1503 8.30068 77.0413 8.58228 77.8169 8.44841C78.1945 8.36573 78.5453 8.18953 78.8371 7.93598C78.6109 8.31915 78.4955 8.80387 79.2341 8.97007C80.5129 9.26552 81.1222 8.50842 81.2007 9.14088C81.2653 9.66253 81.9855 9.95337 82.5072 9.9626C82.5441 10.0411 82.641 10.2534 82.7565 10.5443C83.0154 10.4581 83.2926 10.4421 83.5597 10.4981C83.5801 10.475 83.6058 10.457 83.6345 10.4458C83.6633 10.4345 83.6943 10.4303 83.725 10.4335C83.7557 10.4366 83.7852 10.4471 83.8111 10.464C83.8369 10.4808 83.8584 10.5036 83.8736 10.5304C84.3353 11.2921 84.2153 12.1231 84.0444 13.0002C84.7357 12.4062 85.3049 11.6834 85.7202 10.872C86.3173 9.79088 86.5823 8.55762 86.4819 7.32661ZM82.8488 3.58729L82.9042 3.66576C82.9009 3.68564 82.9009 3.70591 82.9042 3.72578C82.9042 3.78579 82.9457 3.84119 82.9734 3.9012C82.9057 3.80894 82.8628 3.70086 82.8488 3.58729Z" fill="#5C2E2E"/>
<path d="M79.6118 16.9602L80.3643 18.4283L81.4215 17.2095L80.6597 15.7461L79.6118 16.9602Z" fill="#42754F"/>
<path d="M80.3647 18.4297C80.3647 18.4297 81.4219 25.816 82.359 30.6587L80.9741 33.2393L79.2567 31.0511C79.2567 31.0511 78.5181 26.0007 80.3647 18.4297Z" fill="#42754F"/>
<path d="M80.5169 31.0738L79.5243 20.2852L72.1011 20.456L73.1398 31.0738H80.5169Z" fill="#68E1FD"/>
<path d="M83.0477 26.8238L79.8162 24.4141V25.3374C79.8162 25.3374 76.8939 24.0309 76.7508 24.6033C76.5893 25.245 77.1294 27.0778 77.628 27.2532C78.1265 27.4286 80.1855 28.0888 80.1855 28.0888L81.8151 28.6058L83.0477 26.8238Z" fill="#FBB5AD"/>
<path d="M91.671 20.2852C91.671 20.2852 93.7715 28.3963 92.3265 30.0628C90.8816 31.7293 81.5056 29.9243 81.4179 29.0841C81.3302 28.2439 82.6135 25.5156 82.6135 25.5156L87.8486 26.088" fill="#4F757F"/>
<path d="M75.6932 31.0714C75.6932 31.0714 77.6506 30.739 78.043 31.8239C78.2507 32.3963 76.7412 31.8239 76.7412 31.8239L75.6701 35.0093C75.3456 34.6075 75.1651 34.1084 75.1577 33.592C75.1509 32.8624 75.2174 32.134 75.3562 31.4177L75.6932 31.0714Z" fill="#FBB5AD"/>
<path d="M57.4579 85.4627C57.3056 85.8966 57.4579 89.8022 57.4579 89.8022L53.3862 89.4328L53.5986 82.3789L57.4579 85.4627Z" fill="#FBC76F"/>
<path d="M53.3726 88.5195C53.3726 88.5195 55.607 89.6967 57.7444 88.7919C57.7444 88.7919 57.8875 91.8988 58.1229 92.5682C58.3584 93.2375 59.0831 97.2169 58.6353 98.2233C58.1876 99.2297 56.8673 100.61 56.004 100.61C55.1407 100.61 53.1279 98.3849 53.0633 97.2031C53.0574 95.5765 53.1375 93.9508 53.3033 92.3327C53.4049 91.7095 53.3726 88.5195 53.3726 88.5195Z" fill="#181816"/>
<path d="M68.561 78.0536C68.4456 78.5152 68.898 82.3792 68.898 82.3792L64.8078 82.3423L64.4478 75.293L68.561 78.0536Z" fill="#FBC76F"/>
<path d="M72.2116 83.277C70.7713 82.6722 69.4418 81.989 68.5185 80.6641C68.3607 81.0491 68.1091 81.3885 67.7866 81.6514C67.4641 81.9143 67.0808 82.0922 66.6719 82.169C66.2399 82.2505 65.7952 82.2348 65.3701 82.1229H65.2085V82.0767C65.039 82.0092 64.8827 81.9123 64.7469 81.7905C64.4883 83.0508 64.7792 85.1328 65.13 85.4375C65.5686 85.8206 67.9784 86.31 67.9784 86.31L67.586 85.3313L69.9265 86.7716C70.9098 87.3764 73.8505 87.9627 75.4662 87.2102C75.8157 87.0874 76.107 86.8389 76.2834 86.5131C76.0248 84.2003 73.9244 83.9925 72.2116 83.277Z" fill="#181816"/>
<path d="M46.8869 89.5216C49.8954 89.5216 52.3343 88.0748 52.3343 86.2901C52.3343 84.5054 49.8954 83.0586 46.8869 83.0586C43.8783 83.0586 41.4395 84.5054 41.4395 86.2901C41.4395 88.0748 43.8783 89.5216 46.8869 89.5216Z" fill="#BE9C6F"/>
<path d="M41.4395 85.6133V86.3381H52.3343V85.7472" fill="#E0831E"/>
<path d="M46.8869 88.9318C49.8954 88.9318 52.3343 87.485 52.3343 85.7003C52.3343 83.9155 49.8954 82.4688 46.8869 82.4688C43.8783 82.4688 41.4395 83.9155 41.4395 85.7003C41.4395 87.485 43.8783 88.9318 46.8869 88.9318Z" fill="#EFBF80"/>
<path d="M46.8912 65.4961H46.8865C46.4735 65.4961 46.1387 65.8309 46.1387 66.244V84.7328C46.1387 85.1459 46.4735 85.4807 46.8865 85.4807H46.8912C47.3042 85.4807 47.639 85.1459 47.639 84.7328V66.244C47.639 65.8309 47.3042 65.4961 46.8912 65.4961Z" fill="#946C62"/>
<path d="M46.8864 66.0919C52.493 66.0919 57.038 63.3947 57.038 60.0674C57.038 56.7402 52.493 54.043 46.8864 54.043C41.2799 54.043 36.7349 56.7402 36.7349 60.0674C36.7349 63.3947 41.2799 66.0919 46.8864 66.0919Z" fill="#BE9C6F"/>
<path d="M36.7349 58.8047V60.1573H57.038V59.054" fill="#E0831E"/>
<path d="M46.8864 64.9903C52.493 64.9903 57.038 62.2931 57.038 58.9659C57.038 55.6387 52.493 52.9414 46.8864 52.9414C41.2799 52.9414 36.7349 55.6387 36.7349 58.9659C36.7349 62.2931 41.2799 64.9903 46.8864 64.9903Z" fill="#EFBF80"/>
<path d="M47.8188 58.3799C47.8188 58.3799 54.882 63.5273 62.4022 65.203L63.9303 78.0183C63.9303 78.0183 64.9967 78.8123 68.9437 78.0183C68.9437 78.0183 71.2104 63.6704 68.0712 56.7826C66.0354 52.3278 50.5287 51.5938 50.5287 51.5938" fill="#FFB0C3"/>
<path d="M40.6767 60.7958C40.6767 60.7958 45.1962 57.9289 47.3936 56.8164L53.6397 53.1555L50.5928 51.1797L40.4782 52.8693C40.8383 53.9911 37.9161 56.9503 40.6767 60.7958Z" fill="#FFB0C3"/>
<path d="M58.9819 33.3271C58.9819 33.3271 59.7621 30.9265 59.6975 29.8878C59.6329 28.8491 59.0558 27.3396 59.6975 27.021C60.3392 26.7025 61.124 28.8999 61.124 28.8999C61.124 28.8999 63.0721 24.8236 63.6584 25.0821C63.8409 25.193 63.9927 25.3479 64.0999 25.5326C64.2072 25.7172 64.2665 25.9258 64.2724 26.1393C64.2724 26.1393 64.8956 25.1144 65.1357 25.5391C65.2623 25.9544 65.2623 26.398 65.1357 26.8133C65.1357 26.8133 65.7127 26.9148 65.782 27.2749C65.8512 27.635 64.9464 29.1723 64.9464 29.1723C65.0792 29.1907 65.2019 29.2537 65.2942 29.351C65.3865 29.4483 65.4429 29.5742 65.4542 29.7078C65.4865 30.1694 61.7841 33.8626 61.7841 33.8626" fill="#FBC76F"/>
<path d="M49.25 32.6903C49.25 32.6903 52.5046 35.3817 53.7649 37.4407C55.0252 39.4996 59.1477 32.0117 59.1477 32.0117C59.1477 32.0117 62.0145 32.935 62.9285 33.3413C63.8426 33.7475 58.3121 46.4289 54.4666 45.9949C50.6211 45.561 50.7734 44.8085 50.7734 44.8085" fill="#CFEE91"/>
<path d="M40.4787 52.8667C43.978 53.4576 47.5327 53.0513 50.598 51.1771C51.0597 45.7435 51.4382 40.3145 50.8519 34.8579C50.8466 34.815 50.8466 34.7716 50.8519 34.7286C50.5106 33.9171 49.9573 33.2123 49.25 32.6882C47.4681 31.4879 44.5643 32.0742 42.8424 32.9836C42.426 33.2074 42.0358 33.4768 41.679 33.7869C39.777 40.0006 40.5434 46.459 40.4787 52.8667Z" fill="#CFEE91"/>
<path d="M47.2372 30.1289L44.0795 29.4688L43.8164 32.9588C43.8164 32.9588 46.1985 35.3963 48.5483 35.0593L47.865 32.1509C47.5799 31.5028 47.3693 30.8245 47.2372 30.1289Z" fill="#FCBB5B"/>
<path d="M47.3117 30.4567C46.279 29.9963 45.1937 29.6645 44.0802 29.4688L43.9971 31.3753C43.9971 31.3753 46.3607 33.1111 47.7641 31.8785C47.5754 31.4175 47.4241 30.942 47.3117 30.4567Z" fill="#DB9231"/>
<path d="M49.5181 26.3354C49.5181 26.3354 51.6232 25.0566 51.2031 23.8887C50.783 22.7207 49.1442 22.4022 49.1442 22.4022C49.1442 22.4022 48.8857 20.9111 47.6715 20.7356C46.4574 20.5602 44.3615 21.5527 44.3615 21.5527C44.3615 21.5527 42.5427 21.3819 41.901 22.4022C41.2593 23.4224 41.4901 25.2505 41.4901 25.2505C41.4901 25.2505 43.0089 29.867 43.6829 29.9639C44.3569 30.0609 46.0189 28.3851 46.0189 28.3851" fill="#204A51"/>
<path d="M49.5458 24.886C49.5458 24.886 50.0444 30.9797 47.45 31.3814C44.8555 31.783 43.7568 28.2468 43.7568 28.2468C43.7568 28.2468 42.1872 26.7834 43.1705 26.4602C44.1538 26.1371 44.3015 26.6818 44.3015 26.6818C44.3015 26.6818 43.3367 24.4844 44.3477 24.4844C45.3587 24.4844 48.2717 26.1371 49.5458 24.886Z" fill="#FBC76F"/>
<path d="M43.8162 31.9766C43.8162 31.9766 45.0534 33.1399 45.8659 33.2138L47.1216 33.897L48.1603 34.9773V33.4769C48.1603 33.4769 47.851 32.1243 47.9018 32.1381C47.9526 32.152 49.0282 33.8739 49.0282 33.8739L50.0623 35.6005L48.5527 35.4527L47.8925 36.5561C47.8925 36.5561 44.144 34.8849 42.8145 32.9829L43.8162 31.9766Z" fill="white"/>
<path d="M64.0915 25.8823C63.4298 27.0272 62.7912 28.189 62.1757 29.3677C62.0972 29.5201 62.3281 29.654 62.4065 29.5016C63.0221 28.3198 63.6653 27.1565 64.3362 26.0116C64.3533 25.9791 64.3569 25.9412 64.3461 25.9061C64.3353 25.8711 64.3109 25.8418 64.2785 25.8246C64.2461 25.8075 64.2081 25.8039 64.1731 25.8147C64.138 25.8256 64.1087 25.8499 64.0915 25.8823Z" fill="#204A51"/>
<path d="M64.9458 26.6814L63.1823 29.9129C63.0992 30.0606 63.33 30.1945 63.4131 30.0468L65.1766 26.8152C65.2597 26.6675 65.0289 26.5336 64.9458 26.6814Z" fill="#204A51"/>
<path d="M64.8219 29.1396C64.4714 29.5449 64.1621 29.9841 63.8987 30.4507C63.8843 30.481 63.8818 30.5157 63.8918 30.5478C63.9017 30.5798 63.9234 30.607 63.9524 30.6238C63.9815 30.6407 64.0158 30.646 64.0486 30.6387C64.0814 30.6315 64.1103 30.6121 64.1295 30.5845C64.3793 30.1364 64.6731 29.7142 65.0066 29.3243C65.122 29.195 64.9466 29.0057 64.8219 29.1396Z" fill="#204A51"/>
<path d="M61.3817 29.2663C61.2293 29.1878 61.0955 29.414 61.2478 29.4971C61.6556 29.7542 61.9849 30.1183 62.1998 30.5498C62.4147 30.9813 62.507 31.4635 62.4665 31.9438C62.4723 31.9745 62.4886 32.0022 62.5126 32.0221C62.5367 32.042 62.5669 32.053 62.5981 32.053C62.6293 32.053 62.6596 32.042 62.6836 32.0221C62.7076 32.0022 62.7239 31.9745 62.7297 31.9438C62.7724 31.4168 62.6692 30.8882 62.4314 30.4159C62.1936 29.9436 61.8305 29.5459 61.3817 29.2663Z" fill="#204A51"/>
<path d="M41.6792 33.7852C40.3667 34.6266 39.3023 35.8026 38.5954 37.1921C37.5151 39.4218 34.5006 49.518 38.0414 50.963C41.5822 52.4079 47.736 49.1164 47.736 49.1164L47.3667 43.7382L42.0624 44.4999" fill="#CFEE91"/>
<path d="M48.5117 39.5064C48.4655 39.6772 46.8867 49.5379 46.8867 49.5379L53.1328 47.8668L54.4577 37.7891L48.5117 39.5064Z" fill="#FF7F5C"/>
<path d="M46.0464 44.3452C46.0464 44.3452 47.1497 41.5199 47.7175 41.6953C48.2854 41.8708 48.1146 43.3111 48.1146 43.3111C48.1146 43.3111 50.9398 41.9262 51.6877 42.5632C52.4356 43.2003 50.5567 44.8161 50.0535 45.1577C49.5503 45.4993 46.2864 46.7134 46.2864 46.7134L46.0464 44.3452Z" fill="#FBC76F"/>
<path d="M40.479 51.3301C42.3157 50.9162 44.1294 50.4061 45.9126 49.8021C45.9126 49.8021 46.4019 46.9768 46.425 47.0645C46.4481 47.1522 46.3604 50.693 46.1342 50.9377C45.9079 51.1824 40.479 52.8674 40.479 52.8674V51.3301Z" fill="#363942"/>
<path d="M40.6772 60.7947C40.6772 60.7947 46.1385 66.2421 51.1566 68.5503L50.6949 84.8556C50.6949 84.8556 53.8064 87.3901 57.7489 86.5961C57.7489 86.5961 59.7432 68.5365 58.446 63.8139C57.1487 59.0912 48.5668 55.1211 48.5668 55.1211" fill="#FFB0C3"/>
<path d="M81.8564 45.0767L90.0922 37.7734L95.6319 51.8998L88.024 59.1753L81.8564 45.0767Z" fill="white"/>
<path d="M96.2544 38.3313C95.9379 37.9423 95.6968 37.4977 95.5434 37.0202C95.3218 36.5078 95.151 35.9723 94.8925 35.4783C94.7494 35.206 94.6155 34.555 94.2693 34.5089C94.14 34.4858 94.0015 34.8459 93.9738 34.9428C93.9012 35.19 93.9012 35.4528 93.9738 35.6999C94.0729 36.0252 94.15 36.3568 94.2047 36.6925C94.2047 36.6925 91.8964 34.6243 91.324 34.5504C90.7515 34.4766 90.8623 35.1367 90.8623 35.1367C90.8623 35.1367 90.2114 34.6751 89.8975 34.9613C89.5836 35.2475 90.0498 35.94 90.0498 35.94C90.0498 35.94 89.4035 36.3601 89.7452 36.794C90.0868 37.228 92.0257 38.2851 92.0257 38.2851C92.0257 38.2851 90.6407 37.9481 90.3268 38.1559C90.0129 38.3636 90.1699 38.8253 90.7192 39.033C91.2686 39.2407 92.6443 39.6101 92.6443 39.6101C92.6443 39.6101 94.9294 40.381 95.8758 40.5934C96.8222 40.8057 100.104 42.9016 100.104 42.9016L100.52 39.9055C100.308 39.8778 96.6698 38.7237 96.2544 38.3313Z" fill="#FE6162"/>
<path d="M106.651 40.4354L96.6795 37.25C96.6795 37.25 94.5098 40.0522 95.2069 41.8157L99.5694 44.1931" fill="#A5C2CC"/>
<path d="M108.341 103.8L110.511 103.2L110.169 100.555C110.169 100.555 107.824 100.947 108.341 103.8Z" fill="#42210B"/>
<path d="M111.3 96.109C111.3 96.109 112.066 105.051 111.858 105.153C111.651 105.254 109.55 105.434 109.55 105.282C109.55 105.13 109.426 101.215 109.426 101.215C109.426 101.215 108.382 102.941 108.327 103.805C108.327 103.805 105.834 102.383 105.368 101.243C104.901 100.102 106.434 95.3288 107.016 95.0703" fill="#181816"/>
<path d="M102.971 108.487L105.427 105.879L103.825 103.848C103.825 103.848 102.339 107.139 102.971 108.487Z" fill="#42210B"/>
<path d="M106.624 98.1445L107.773 108.873C107.773 108.873 105.927 109.501 105.58 109.455C105.116 109.293 104.671 109.083 104.251 108.827L103.84 105.249C103.84 105.249 102.774 106.316 102.968 108.481C102.968 108.333 101.273 107.77 101.052 107.673C100.368 107.374 99.711 107.016 99.0897 106.602C98.4388 106.14 96.0105 104.151 97.3124 103.37C98.4203 102.692 102.012 103.02 102.012 103.02L102.063 98.5923" fill="#181816"/>
<path d="M110.917 59.7155C110.908 59.6775 110.909 59.638 110.918 59.6001C110.927 59.5622 110.945 59.527 110.97 59.4971C110.995 59.4672 111.026 59.4434 111.062 59.4277C111.098 59.4119 111.136 59.4046 111.175 59.4062C110.932 58.4633 110.524 57.5709 109.97 56.7702L99.5695 55.5469C99.5695 55.5469 97.4829 62.9701 96.6796 75.7577C96.0564 85.6738 100.922 100.419 100.922 100.419C100.922 100.419 105.959 101.698 108.378 99.2093L108.281 97.0718C109.535 97.0629 110.786 96.961 112.025 96.7672C113.285 84.4505 112.339 71.9676 110.917 59.7155Z" fill="#CFEE91"/>
<path d="M108.678 98.6304L107.376 89.4437C106.961 86.5169 106.324 83.5069 106.31 80.5386C106.296 77.5702 107.311 74.9111 107.805 72.0812C108.273 69.3373 108.392 66.5454 108.161 63.7716C108.11 63.1253 107.182 63.1207 107.238 63.7716C107.496 66.8682 107.305 69.9858 106.67 73.0276C106.088 75.7467 105.285 78.3273 105.396 81.1572C105.506 83.9871 106.079 86.877 106.494 89.7115L107.796 98.8982C107.879 99.5445 108.77 99.2675 108.678 98.6304Z" fill="#42210B"/>
<path d="M93.1804 53.8907C93.2146 53.7872 93.2146 53.6756 93.1804 53.5721H93.245C93.357 53.5911 93.4721 53.5681 93.5682 53.5075L93.6697 53.5352C94.2422 53.7152 94.4776 52.815 93.9052 52.6119C93.4435 52.4688 92.9819 52.3395 92.5202 52.2149H92.4787C91.5351 51.864 90.5735 51.5635 89.598 51.3147C89.2903 51.2039 88.9733 51.1023 88.647 51.01H88.6147C87.7694 50.71 86.8953 50.4981 86.0064 50.3775C85.5171 50.3221 84.9123 50.3129 84.6215 50.7976C84.6012 50.8327 84.5906 50.8725 84.5906 50.9131C84.5906 50.9536 84.6012 50.9934 84.6215 51.0285C84.7877 51.2824 85.0508 51.3008 85.3417 51.3839L86.228 51.6332C85.8765 51.7062 85.5321 51.8097 85.1986 51.9425C84.8289 52.007 84.4822 52.166 84.1922 52.4042C84.1154 52.4796 84.0674 52.5794 84.0564 52.6865C84.0455 52.7935 84.0723 52.9011 84.1322 52.9905C84.1674 53.0477 84.2146 53.0965 84.2707 53.1336C84.111 53.2188 83.9917 53.3639 83.9389 53.537C83.8861 53.7101 83.9041 53.897 83.989 54.0569C84.0477 54.1603 84.133 54.2462 84.2361 54.3055C84.3393 54.3648 84.4564 54.3953 84.5753 54.3939C84.4481 54.4722 84.348 54.5877 84.2886 54.7247C84.2291 54.8618 84.2132 55.0138 84.243 55.1602C84.3307 55.4418 84.6077 55.5157 84.8939 55.5157C84.8637 55.5792 84.8485 55.6487 84.8493 55.719C84.8501 55.7893 84.867 55.8585 84.8986 55.9213C84.9302 55.9841 84.9757 56.0388 85.0317 56.0813C85.0877 56.1238 85.1527 56.153 85.2216 56.1666C85.7915 56.2781 86.3825 56.1639 86.8697 55.848C86.8991 55.8306 86.9243 55.807 86.9436 55.7788C87.3684 55.7416 87.7861 55.6469 88.1854 55.4972C88.3654 55.4187 88.5501 55.331 88.7348 55.2571L89.0579 55.1279C89.1087 55.1279 89.3072 54.994 89.3534 55.0125L91.1999 55.7372C91.7031 55.9311 92.5849 56.5174 93.1435 56.3235C93.7021 56.1296 93.4712 55.2202 92.9034 55.4002C93.0234 55.3587 92.7742 55.3356 92.7049 55.3079L92.1925 55.1094C92.6611 55.2972 93.1603 55.3974 93.6651 55.4049C93.7588 55.4074 93.851 55.3814 93.9295 55.3302C94.008 55.2791 94.0691 55.2053 94.1046 55.1187C94.1402 55.032 94.1486 54.9366 94.1286 54.845C94.1087 54.7535 94.0613 54.6702 93.9929 54.6062C93.7435 54.3444 93.4716 54.105 93.1804 53.8907Z" fill="#FE6162"/>
<path d="M106.651 40.4375C106.651 40.4375 100.871 40.4375 98.8723 44.0753C97.1965 47.1267 97.5104 52.2233 97.5104 52.2233L90.8535 51.697C90.8535 51.697 88.9423 52.4957 89.4178 54.8962C89.6763 56.2027 96.2825 56.8074 99.9295 57.7123C103.576 58.6171 110.16 58.8802 111.194 56.6782C112.228 54.4761 112.117 45.5987 110.894 43.0643C109.67 40.5298 106.651 40.4375 106.651 40.4375Z" fill="#A5C2CC"/>
<path d="M106.032 40.0067C106.032 40.0067 103.724 41.7748 102.288 40.7038C100.853 39.6327 101.199 35.0117 101.199 35.0117C101.199 35.0117 101.933 33.6267 104.656 35.3625C107.38 37.0983 106.032 40.0067 106.032 40.0067Z" fill="#FE6162"/>
<path d="M106.956 40.6264L106.896 40.5156L105.446 40.9773L105.418 41.0511C105.94 40.8988 106.453 40.7557 106.956 40.6264Z" fill="#7F252B"/>
<path d="M109.324 34.9194C109.131 33.8118 108.602 32.7901 107.81 31.9926C106.632 30.8985 104.818 30.9078 103.369 31.3694C102.614 31.5831 101.94 32.0139 101.428 32.6082C100.917 33.2025 100.591 33.934 100.493 34.7117C100.174 36.4567 102.215 35.3811 102.667 36.3782C102.926 36.9569 103.01 37.5991 102.907 38.2248C102.755 39.2635 102.136 40.2653 102.228 41.3363C102.236 41.5963 102.308 41.8504 102.439 42.0753C102.569 42.3002 102.754 42.489 102.976 42.6243C104.234 42.7399 105.5 42.7182 106.752 42.5597C107.731 42.4858 109.707 42.4027 110.058 41.2117C110.469 39.7898 109.324 34.9194 109.324 34.9194Z" fill="#7F252B"/>
<path d="M-1122 -261H434V761H-1122V-261Z" fill="url(#paint9_linear_2049_1752)"/>
<path fill-rule="evenodd" clip-rule="evenodd" d="M20.6821 108.823C22.0264 109.505 23.4383 110.14 24.9177 110.73C26.4345 111.327 28.017 111.887 29.665 112.411C31.3505 112.943 33.0998 113.447 34.9127 113.925C36.7295 114.383 38.5893 114.821 40.4922 115.237C42.4364 115.642 44.4256 116.016 46.4598 116.359C48.5276 116.729 50.6236 117.055 52.7478 117.338C54.8682 117.639 57.0317 117.919 59.2383 118.178C61.4449 118.437 63.6759 118.671 65.9313 118.88C68.1867 119.09 70.4646 119.284 72.7649 119.462C75.0316 119.614 77.3189 119.761 79.6268 119.901C81.9347 120.042 84.2464 120.164 86.5619 120.266C88.8773 120.369 91.1759 120.458 93.4576 120.534C95.7394 120.61 97.9837 120.679 100.191 120.74C102.439 120.79 104.668 120.836 106.878 120.878C109.055 120.894 111.193 120.912 113.291 120.932C115.431 120.94 117.514 120.937 119.541 120.924C121.605 120.917 123.614 120.9 125.566 120.871C127.559 120.831 129.496 120.779 131.377 120.717C133.258 120.654 135.104 120.575 136.914 120.478C138.686 120.374 140.423 120.254 142.124 120.116C143.822 119.997 145.467 119.848 147.059 119.669C148.685 119.517 150.241 119.33 151.725 119.11C153.205 118.909 154.633 118.678 156.008 118.416C157.417 118.181 158.736 117.908 159.966 117.598C161.229 117.314 162.439 117 163.597 116.656C164.718 116.305 165.784 115.933 166.796 115.54C167.808 115.147 168.748 114.73 169.614 114.288C170.483 113.828 171.28 113.343 172.004 112.834C172.727 112.325 173.397 111.795 174.012 111.244C174.589 110.686 175.115 110.098 175.587 109.48C176.023 108.854 176.404 108.208 176.73 107.541C177.057 106.874 177.33 106.187 177.548 105.479C177.766 104.77 177.911 104.038 177.983 103.281C178.092 102.532 178.147 101.761 178.148 100.971C178.149 100.18 178.096 99.3686 177.988 98.5366C177.88 97.7046 177.737 96.8556 177.558 95.9897C177.341 95.1164 177.106 94.2394 176.853 93.3587C176.561 92.4706 176.234 91.5655 175.872 90.6435C175.547 89.729 175.168 88.7937 174.734 87.8379C174.334 86.9085 173.88 85.9584 173.371 84.9877C172.9 84.0245 172.41 83.0575 171.902 82.0868C171.356 81.1087 170.791 80.1269 170.208 79.1413C169.662 78.1632 169.078 77.1777 168.457 76.1848C167.837 75.1918 167.197 74.1952 166.539 73.1948C165.88 72.1945 165.201 71.1999 164.502 70.2112C163.839 69.2298 163.136 68.2601 162.392 67.302C161.651 66.3248 160.887 65.363 160.102 64.4165C159.319 63.451 158.513 62.5103 157.682 61.5944C156.889 60.686 156.054 59.7891 155.179 58.9039C154.299 58.0377 153.397 57.1868 152.472 56.3512C151.585 55.5231 150.655 54.7161 149.682 53.9302C148.705 53.1633 147.724 52.4154 146.739 51.6866C145.713 50.9694 144.68 50.2902 143.639 49.6491C142.56 49.0006 141.473 48.3996 140.375 47.8462C139.282 47.2738 138.16 46.7453 137.011 46.2606C135.82 45.7875 134.621 45.3524 133.415 44.9555C132.205 44.5775 130.967 44.2434 129.701 43.9532C128.435 43.6629 127.159 43.4202 125.874 43.2251C124.548 43.0416 123.215 42.8962 121.873 42.7888C120.495 42.674 119.106 42.6067 117.709 42.5871C116.315 42.5484 114.912 42.5572 113.499 42.6137C112.049 42.6627 110.593 42.7402 109.132 42.8463C107.671 42.9524 106.204 43.0871 104.731 43.2502C103.254 43.4325 101.756 43.63 100.234 43.8428C98.7164 44.0366 97.1912 44.2685 95.6584 44.5384C94.1669 44.7967 92.6547 45.0608 91.122 45.3308C89.5855 45.6197 88.0471 45.9182 86.5068 46.2261C84.9627 46.5531 83.4187 46.8801 81.8746 47.2071C80.3306 47.5341 78.7865 47.8611 77.2424 48.1881C75.7358 48.5226 74.2086 48.8628 72.6608 49.2088C71.1542 49.5432 69.6289 49.8739 68.0848 50.2009C66.5782 50.5353 65.0735 50.8603 63.5707 51.1756C62.1053 51.4985 60.6212 51.8176 59.1184 52.1329C57.6531 52.4557 56.2064 52.7823 54.7785 53.1125C53.3131 53.4353 51.8852 53.7655 50.4948 54.1032C49.0669 54.4334 47.6764 54.771 46.3235 55.1161C44.9292 55.4728 43.5725 55.8368 42.2532 56.2084C40.9339 56.5799 39.6333 56.9551 38.3515 57.334C37.0659 57.7319 35.7972 58.1431 34.5453 58.5675C33.3308 58.9993 32.1313 59.4539 30.9468 59.9311C29.766 60.3894 28.619 60.8741 27.5056 61.3852C26.396 61.8773 25.3182 62.4054 24.2723 62.9694C23.2263 63.5335 22.2159 64.1144 21.2411 64.7123C20.2625 65.3292 19.3176 65.9726 18.4064 66.6424C17.5326 67.3196 16.6926 68.0233 15.8862 68.7534C15.0424 69.4761 14.2678 70.2422 13.5625 71.0516C12.8198 71.8537 12.1295 72.6858 11.4916 73.5482C10.8575 74.3915 10.2739 75.2744 9.74083 76.1971C9.21155 77.1007 8.73846 78.0154 8.32157 78.9413C7.9009 79.8862 7.53642 80.8422 7.22814 81.8093C6.95732 82.7839 6.72584 83.7564 6.5337 84.7267C6.37903 85.7045 6.28054 86.6934 6.23825 87.6934C6.19972 88.6745 6.21927 89.6571 6.29689 90.6413C6.41574 91.6139 6.6114 92.5919 6.88386 93.5752C7.12263 94.532 7.44009 95.4846 7.83624 96.433C8.27361 97.3699 8.77093 98.2988 9.32822 99.2198C9.92674 100.129 10.6077 101.015 11.3711 101.878C12.1346 102.741 12.9823 103.572 13.9144 104.369C14.8428 105.186 15.8761 105.964 17.0143 106.703C18.1526 107.443 19.3751 108.149 20.6821 108.823Z" fill="url(#paint10_linear_2049_1752)"/>
<path style="mix-blend-mode:multiply" opacity="0.63" d="M67.4719 82.4648L56 88.8448L65.0759 94.5692L74.1519 89.1125C73.2517 88.5309 68.3813 83.0373 67.4719 82.4648Z" fill="url(#paint11_linear_2049_1752)"/>
<path style="mix-blend-mode:multiply" opacity="0.63" d="M120.317 103.359L106.813 110.072L118.572 116.784L134.858 105.146C133.4 104.209 121.789 104.283 120.317 103.359Z" fill="url(#paint12_linear_2049_1752)"/>
<path style="mix-blend-mode:multiply" opacity="0.63" d="M111.55 77.9727L92.9688 88.3089L100.41 93.4701L114.611 83.397C113.166 82.4552 113.023 78.8959 111.55 77.9727Z" fill="url(#paint13_linear_2049_1752)"/>
<path style="mix-blend-mode:multiply" opacity="0.63" d="M96.1267 72.5625L83.2007 79.7503L88.408 83.3558L100.282 73.8505C99.2475 73.1996 97.1516 73.2227 96.1267 72.5625Z" fill="url(#paint14_linear_2049_1752)"/>
<path style="mix-blend-mode:multiply" opacity="0.63" d="M77.6379 89.5234L59.0566 99.8597L68.428 107.191L80.0384 100.151C78.5796 99.2272 79.1151 90.4467 77.6379 89.5234Z" fill="url(#paint15_linear_2049_1752)"/>
<path style="mix-blend-mode:multiply" opacity="0.63" d="M98.7618 85.9531C97.5272 85.7257 96.3124 85.4016 95.1286 84.9836C93.7021 84.4666 92.1602 83.7234 91.297 82.4492L76.9629 90.4218L86.3343 97.7712L99.3111 86.4932C99.0979 86.3466 98.9119 86.1638 98.7618 85.9531Z" fill="url(#paint16_linear_2049_1752)"/>
<path d="M116.268 71.7227C115.709 71.7227 114.929 72.3136 114.421 72.5629L113.036 73.2507C113.036 73.2507 112.113 76.7223 111.573 77.9918C111.033 79.2613 109.121 82.0404 109.791 83.0699C110.25 83.7086 110.934 84.1492 111.705 84.3026C112.477 84.456 113.277 84.3108 113.946 83.8962C115.705 82.9314 115.654 79.7137 116.295 78.4627C116.822 77.4286 116.577 75.2312 116.577 74.7695C116.603 73.7449 116.499 72.7212 116.268 71.7227Z" fill="#181816"/>
<path d="M101.795 65.4258C101.236 65.4258 100.456 66.0167 99.9481 66.266L98.5632 66.9538C98.5632 66.9538 98.1016 70.7347 97.0998 71.6949C96.098 72.6551 92.3864 74.691 93.0558 75.7251C93.4821 76.3692 94.14 76.8244 94.893 76.9963C95.6459 77.1682 96.4362 77.0436 97.0998 76.6484C98.8587 75.6835 100.013 73.7031 101.255 73.1999C102.335 72.7706 101.878 69.9684 101.919 69.0451C102.043 67.8386 102.001 66.6209 101.795 65.4258Z" fill="#181816"/>
<path d="M99.2834 30.0586C99.2834 30.0586 96.8828 42.8369 97.0998 49.8447C97.3168 56.8525 97.4368 65.4345 97.9723 69.2338C97.9723 69.2338 102.616 69.8801 104.191 68.4905C104.191 68.4905 104.652 43.931 104.689 44.0695C105.4 47.301 108.738 63.8556 109.093 64.9359C109.449 66.0161 111.162 74.7412 111.162 74.7412C112.28 75.0182 113.444 75.0624 114.58 74.871C115.717 74.6796 116.801 74.2568 117.768 73.6287C117.768 73.6287 117.191 61.0581 116.115 57.5311C115.039 54.0041 111.286 31.7944 109.463 30.0586" fill="#68E1FD"/>
<path d="M99.2834 30.0586C99.2834 30.0586 96.8828 42.8369 97.0998 49.8447C97.3168 56.8525 97.4368 65.4345 97.9723 69.2338C97.9723 69.2338 102.616 69.8801 104.191 68.4905C104.191 68.4905 104.652 43.931 104.689 44.0695C105.4 47.301 108.738 63.8556 109.093 64.9359C109.449 66.0161 111.162 74.7412 111.162 74.7412C112.28 75.0182 113.444 75.0624 114.58 74.871C115.717 74.6796 116.801 74.2568 117.768 73.6287C117.768 73.6287 117.191 61.0581 116.115 57.5311C115.039 54.0041 111.286 31.7944 109.463 30.0586" fill="#155266"/>
<path d="M109.343 31.0888C109.343 31.0888 113.452 19.1415 111.79 16.4085C110.128 13.6756 103.48 11.5243 100.286 11.7921C97.0912 12.0598 99.1409 30.9411 99.6441 31.0796C100.147 31.2181 104.861 34.4589 109.343 31.0888Z" fill="#4F757F"/>
<path d="M110.7 15.1775L105.714 13.1094C104.81 17.4919 103.871 21.8652 102.898 26.2293L109.86 27.4527C109.86 27.4527 114.015 25.1722 114.643 21.5529C115.271 17.9336 110.89 15.3437 110.7 15.1775Z" fill="#4F757F"/>
<path d="M100.651 18.9907C100.651 18.9907 99.9862 12.4631 99.9862 11.8906C98.0474 12.4457 96.2349 13.3723 94.6496 14.6189C93.8393 15.2475 93.0854 15.9457 92.3968 16.7056C91.9235 17.1515 91.5315 17.6764 91.238 18.2567C91.033 18.9456 91.0123 19.6763 91.178 20.3757C91.4853 21.9952 92.0347 23.5592 92.8076 25.0152C93.6189 26.7116 94.621 28.31 95.7945 29.7794C96.1592 30.241 97.3364 31.8891 98.1027 31.6259C99.64 31.0904 100.282 29.3177 100.282 29.3177C100.282 29.3177 99.5707 27.9328 98.8044 26.1924C98.3428 25.1675 96.3069 22.8455 96.0345 21.2574C96.2364 20.9853 96.4554 20.7262 96.6901 20.4818C97.7011 19.4755 99.3907 19.6463 100.651 18.9907Z" fill="#4F757F"/>
<path d="M101.232 12.2647L102.257 17.4028L103.642 15.7502L104.718 17.8091L107.599 13.899C107.599 13.899 103.181 11.84 101.232 12.2647Z" fill="white"/>
<path d="M106.776 9.96834C106.029 10.7993 104.588 10.43 103.642 10.2084C102.492 9.94988 101.172 9.25279 101.274 7.90017C101.274 7.69243 100.969 7.69705 100.95 7.90017C100.844 9.32666 102.141 10.2084 103.374 10.4946C104.468 10.767 106.144 11.1825 106.998 10.213C107.141 10.0422 106.915 9.81138 106.776 9.96834Z" fill="#009245"/>
<path d="M100.65 7.01401C100.65 7.01401 100.65 13.9895 103.207 14.4465C106.019 14.9451 107.602 11.7505 107.602 11.7505C107.602 11.7505 107.962 5.58753 105.169 5.04279C102.376 4.49805 100.728 6.12304 100.65 7.01401Z" fill="#FBB5AD"/>
<path d="M105.618 11.056C105.618 11.056 106.296 8.37846 107.044 9.26021C107.792 10.1419 105.83 12.0901 105.83 12.0901" fill="#FBB5AD"/>
<path d="M106.301 4.17969C106.301 4.17969 108.799 4.44744 109.533 6.43713C110.267 8.42682 108.383 12.3831 107.045 13.0156L108.665 9.544L108.586 7.18038L106.301 4.17969Z" fill="#5C2E2E"/>
<path d="M109.482 7.32661C109.279 5.94168 108.356 5.25844 107.151 4.55674C107.052 4.49826 106.952 4.44441 106.851 4.39516C107.082 4.20508 107.269 3.96526 107.395 3.69346C107.411 3.66561 107.42 3.63403 107.42 3.60187C107.42 3.5697 107.412 3.53806 107.396 3.51007C107.38 3.48209 107.357 3.45873 107.33 3.44231C107.302 3.4259 107.27 3.41699 107.238 3.41648C107.081 3.42308 106.927 3.46217 106.785 3.53129C106.644 3.60041 106.518 3.69807 106.417 3.81811C106.276 3.53146 106.085 3.27202 105.853 3.05178C105.831 3.02987 105.803 3.01414 105.772 3.0061C105.742 2.99806 105.71 2.99797 105.679 3.00584C105.649 3.01371 105.621 3.02928 105.598 3.05106C105.575 3.07284 105.558 3.1001 105.549 3.13026C105.494 3.26507 105.47 3.41027 105.478 3.55551C105.486 3.70075 105.526 3.84244 105.595 3.97045C104.336 3.70454 103.024 3.90467 101.902 4.53366C101.492 4.77347 101.145 5.10541 100.886 5.50311C100.545 5.46835 100.201 5.53076 99.8936 5.68315C99.567 5.83954 99.3002 6.09805 99.1336 6.41956C98.967 6.74108 98.9097 7.1081 98.9703 7.4651C99.1503 8.30068 100.041 8.58228 100.817 8.44841C101.194 8.36573 101.545 8.18953 101.837 7.93598C101.611 8.31915 101.495 8.80387 102.234 8.97007C103.513 9.26552 104.122 8.50842 104.201 9.14088C104.265 9.66253 104.986 9.95337 105.507 9.9626C105.544 10.0411 105.641 10.2534 105.756 10.5443C106.015 10.4581 106.293 10.4421 106.56 10.4981C106.58 10.475 106.606 10.457 106.635 10.4458C106.663 10.4345 106.694 10.4303 106.725 10.4335C106.756 10.4366 106.785 10.4471 106.811 10.464C106.837 10.4808 106.858 10.5036 106.874 10.5304C107.335 11.2921 107.215 12.1231 107.044 13.0002C107.736 12.4062 108.305 11.6834 108.72 10.872C109.317 9.79088 109.582 8.55762 109.482 7.32661ZM105.849 3.58729L105.904 3.66576C105.901 3.68564 105.901 3.70591 105.904 3.72578C105.904 3.78579 105.946 3.84119 105.973 3.9012C105.906 3.80894 105.863 3.70086 105.849 3.58729Z" fill="#5C2E2E"/>
<path d="M102.612 16.9602L103.364 18.4283L104.421 17.2095L103.66 15.7461L102.612 16.9602Z" fill="#42754F"/>
<path d="M103.365 18.4297C103.365 18.4297 104.422 25.816 105.359 30.6587L103.974 33.2393L102.257 31.0511C102.257 31.0511 101.518 26.0007 103.365 18.4297Z" fill="#42754F"/>
<path d="M103.517 31.0738L102.524 20.2852L95.1011 20.456L96.1398 31.0738H103.517Z" fill="#68E1FD"/>
<path d="M106.048 26.8238L102.816 24.4141V25.3374C102.816 25.3374 99.8939 24.0309 99.7508 24.6033C99.5893 25.245 100.129 27.0778 100.628 27.2532C101.127 27.4286 103.185 28.0888 103.185 28.0888L104.815 28.6058L106.048 26.8238Z" fill="#FBB5AD"/>
<path d="M114.671 20.2852C114.671 20.2852 116.771 28.3963 115.327 30.0628C113.882 31.7293 104.506 29.9243 104.418 29.0841C104.33 28.2439 105.614 25.5156 105.614 25.5156L110.849 26.088" fill="#4F757F"/>
<path d="M98.6932 31.0714C98.6932 31.0714 100.651 30.739 101.043 31.8239C101.251 32.3963 99.7412 31.8239 99.7412 31.8239L98.6701 35.0093C98.3456 34.6075 98.1651 34.1084 98.1577 33.592C98.1509 32.8624 98.2174 32.134 98.3562 31.4177L98.6932 31.0714Z" fill="#FBB5AD"/>
<path d="M80.4579 85.4627C80.3056 85.8966 80.4579 89.8022 80.4579 89.8022L76.3862 89.4328L76.5986 82.3789L80.4579 85.4627Z" fill="#FBC76F"/>
<path d="M76.3726 88.5195C76.3726 88.5195 78.607 89.6967 80.7444 88.7919C80.7444 88.7919 80.8875 91.8988 81.1229 92.5682C81.3584 93.2375 82.0831 97.2169 81.6353 98.2233C81.1876 99.2297 79.8673 100.61 79.004 100.61C78.1407 100.61 76.1279 98.3849 76.0633 97.2031C76.0574 95.5765 76.1375 93.9508 76.3033 92.3327C76.4049 91.7095 76.3726 88.5195 76.3726 88.5195Z" fill="#181816"/>
<path d="M91.561 78.0536C91.4456 78.5152 91.898 82.3792 91.898 82.3792L87.8078 82.3423L87.4478 75.293L91.561 78.0536Z" fill="#FBC76F"/>
<path d="M95.2116 83.277C93.7713 82.6722 92.4418 81.989 91.5185 80.6641C91.3607 81.0491 91.1091 81.3885 90.7866 81.6514C90.4641 81.9143 90.0808 82.0922 89.6719 82.169C89.2399 82.2505 88.7952 82.2348 88.3701 82.1229H88.2085V82.0767C88.039 82.0092 87.8827 81.9123 87.7469 81.7905C87.4883 83.0508 87.7792 85.1328 88.13 85.4375C88.5686 85.8206 90.9784 86.31 90.9784 86.31L90.586 85.3313L92.9265 86.7716C93.9098 87.3764 96.8505 87.9627 98.4662 87.2102C98.8157 87.0874 99.107 86.8389 99.2834 86.5131C99.0248 84.2003 96.9244 83.9925 95.2116 83.277Z" fill="#181816"/>
<path d="M69.8869 89.5216C72.8954 89.5216 75.3343 88.0748 75.3343 86.2901C75.3343 84.5054 72.8954 83.0586 69.8869 83.0586C66.8783 83.0586 64.4395 84.5054 64.4395 86.2901C64.4395 88.0748 66.8783 89.5216 69.8869 89.5216Z" fill="#BE9C6F"/>
<path d="M64.4395 85.6133V86.3381H75.3343V85.7472" fill="#E0831E"/>
<path d="M69.8869 88.9318C72.8954 88.9318 75.3343 87.485 75.3343 85.7003C75.3343 83.9155 72.8954 82.4688 69.8869 82.4688C66.8783 82.4688 64.4395 83.9155 64.4395 85.7003C64.4395 87.485 66.8783 88.9318 69.8869 88.9318Z" fill="#EFBF80"/>
<path d="M69.8912 65.4961H69.8865C69.4735 65.4961 69.1387 65.8309 69.1387 66.244V84.7328C69.1387 85.1459 69.4735 85.4807 69.8865 85.4807H69.8912C70.3042 85.4807 70.639 85.1459 70.639 84.7328V66.244C70.639 65.8309 70.3042 65.4961 69.8912 65.4961Z" fill="#946C62"/>
<path d="M69.8864 66.0919C75.493 66.0919 80.038 63.3947 80.038 60.0674C80.038 56.7402 75.493 54.043 69.8864 54.043C64.2799 54.043 59.7349 56.7402 59.7349 60.0674C59.7349 63.3947 64.2799 66.0919 69.8864 66.0919Z" fill="#BE9C6F"/>
<path d="M59.7349 58.8047V60.1573H80.038V59.054" fill="#E0831E"/>
<path d="M69.8864 64.9903C75.493 64.9903 80.038 62.2931 80.038 58.9659C80.038 55.6387 75.493 52.9414 69.8864 52.9414C64.2799 52.9414 59.7349 55.6387 59.7349 58.9659C59.7349 62.2931 64.2799 64.9903 69.8864 64.9903Z" fill="#EFBF80"/>
<path d="M70.8188 58.3799C70.8188 58.3799 77.882 63.5273 85.4022 65.203L86.9303 78.0183C86.9303 78.0183 87.9967 78.8123 91.9437 78.0183C91.9437 78.0183 94.2104 63.6704 91.0712 56.7826C89.0354 52.3278 73.5287 51.5938 73.5287 51.5938" fill="#FFB0C3"/>
<path d="M63.6767 60.7958C63.6767 60.7958 68.1962 57.9289 70.3936 56.8164L76.6397 53.1555L73.5928 51.1797L63.4782 52.8693C63.8383 53.9911 60.9161 56.9503 63.6767 60.7958Z" fill="#FFB0C3"/>
<path d="M81.9819 33.3271C81.9819 33.3271 82.7621 30.9265 82.6975 29.8878C82.6329 28.8491 82.0558 27.3396 82.6975 27.021C83.3392 26.7025 84.124 28.8999 84.124 28.8999C84.124 28.8999 86.0721 24.8236 86.6584 25.0821C86.8409 25.193 86.9927 25.3479 87.0999 25.5326C87.2072 25.7172 87.2665 25.9258 87.2724 26.1393C87.2724 26.1393 87.8956 25.1144 88.1357 25.5391C88.2623 25.9544 88.2623 26.398 88.1357 26.8133C88.1357 26.8133 88.7127 26.9148 88.782 27.2749C88.8512 27.635 87.9464 29.1723 87.9464 29.1723C88.0792 29.1907 88.2019 29.2537 88.2942 29.351C88.3865 29.4483 88.4429 29.5742 88.4542 29.7078C88.4865 30.1694 84.7841 33.8626 84.7841 33.8626" fill="#FBC76F"/>
<path d="M72.25 32.6903C72.25 32.6903 75.5046 35.3817 76.7649 37.4407C78.0252 39.4996 82.1477 32.0117 82.1477 32.0117C82.1477 32.0117 85.0145 32.935 85.9285 33.3413C86.8426 33.7475 81.3121 46.4289 77.4666 45.9949C73.6211 45.561 73.7734 44.8085 73.7734 44.8085" fill="#CFEE91"/>
<path d="M63.4787 52.8667C66.978 53.4576 70.5327 53.0513 73.598 51.1771C74.0597 45.7435 74.4382 40.3145 73.8519 34.8579C73.8466 34.815 73.8466 34.7716 73.8519 34.7286C73.5106 33.9171 72.9573 33.2123 72.25 32.6882C70.4681 31.4879 67.5643 32.0742 65.8424 32.9836C65.426 33.2074 65.0358 33.4768 64.679 33.7869C62.777 40.0006 63.5434 46.459 63.4787 52.8667Z" fill="#CFEE91"/>
<path d="M70.2372 30.1289L67.0795 29.4688L66.8164 32.9588C66.8164 32.9588 69.1985 35.3963 71.5483 35.0593L70.865 32.1509C70.5799 31.5028 70.3693 30.8245 70.2372 30.1289Z" fill="#FCBB5B"/>
<path d="M70.3117 30.4567C69.279 29.9963 68.1937 29.6645 67.0802 29.4688L66.9971 31.3753C66.9971 31.3753 69.3607 33.1111 70.7641 31.8785C70.5754 31.4175 70.4241 30.942 70.3117 30.4567Z" fill="#DB9231"/>
<path d="M72.5181 26.3354C72.5181 26.3354 74.6232 25.0566 74.2031 23.8887C73.783 22.7207 72.1442 22.4022 72.1442 22.4022C72.1442 22.4022 71.8857 20.9111 70.6715 20.7356C69.4574 20.5602 67.3615 21.5527 67.3615 21.5527C67.3615 21.5527 65.5427 21.3819 64.901 22.4022C64.2593 23.4224 64.4901 25.2505 64.4901 25.2505C64.4901 25.2505 66.0089 29.867 66.6829 29.9639C67.3569 30.0609 69.0189 28.3851 69.0189 28.3851" fill="#204A51"/>
<path d="M72.5458 24.886C72.5458 24.886 73.0444 30.9797 70.45 31.3814C67.8555 31.783 66.7568 28.2468 66.7568 28.2468C66.7568 28.2468 65.1872 26.7834 66.1705 26.4602C67.1538 26.1371 67.3015 26.6818 67.3015 26.6818C67.3015 26.6818 66.3367 24.4844 67.3477 24.4844C68.3587 24.4844 71.2717 26.1371 72.5458 24.886Z" fill="#FBC76F"/>
<path d="M66.8162 31.9766C66.8162 31.9766 68.0534 33.1399 68.8659 33.2138L70.1216 33.897L71.1603 34.9773V33.4769C71.1603 33.4769 70.851 32.1243 70.9018 32.1381C70.9526 32.152 72.0282 33.8739 72.0282 33.8739L73.0623 35.6005L71.5527 35.4527L70.8925 36.5561C70.8925 36.5561 67.144 34.8849 65.8145 32.9829L66.8162 31.9766Z" fill="white"/>
<path d="M87.0915 25.8823C86.4298 27.0272 85.7912 28.189 85.1757 29.3677C85.0972 29.5201 85.3281 29.654 85.4065 29.5016C86.0221 28.3198 86.6653 27.1565 87.3362 26.0116C87.3533 25.9791 87.3569 25.9412 87.3461 25.9061C87.3353 25.8711 87.3109 25.8418 87.2785 25.8246C87.2461 25.8075 87.2081 25.8039 87.1731 25.8147C87.138 25.8256 87.1087 25.8499 87.0915 25.8823Z" fill="#204A51"/>
<path d="M87.9458 26.6814L86.1823 29.9129C86.0992 30.0606 86.33 30.1945 86.4131 30.0468L88.1766 26.8152C88.2597 26.6675 88.0289 26.5336 87.9458 26.6814Z" fill="#204A51"/>
<path d="M87.8219 29.1396C87.4714 29.5449 87.1621 29.9841 86.8987 30.4507C86.8843 30.481 86.8818 30.5157 86.8918 30.5478C86.9017 30.5798 86.9234 30.607 86.9524 30.6238C86.9815 30.6407 87.0158 30.646 87.0486 30.6387C87.0814 30.6315 87.1103 30.6121 87.1295 30.5845C87.3793 30.1364 87.6731 29.7142 88.0066 29.3243C88.122 29.195 87.9466 29.0057 87.8219 29.1396Z" fill="#204A51"/>
<path d="M84.3817 29.2663C84.2293 29.1878 84.0955 29.414 84.2478 29.4971C84.6556 29.7542 84.9849 30.1183 85.1998 30.5498C85.4147 30.9813 85.507 31.4635 85.4665 31.9438C85.4723 31.9745 85.4886 32.0022 85.5126 32.0221C85.5367 32.042 85.5669 32.053 85.5981 32.053C85.6293 32.053 85.6596 32.042 85.6836 32.0221C85.7076 32.0022 85.7239 31.9745 85.7297 31.9438C85.7724 31.4168 85.6692 30.8882 85.4314 30.4159C85.1936 29.9436 84.8305 29.5459 84.3817 29.2663Z" fill="#204A51"/>
<path d="M64.6792 33.7852C63.3667 34.6266 62.3023 35.8026 61.5954 37.1921C60.5151 39.4218 57.5006 49.518 61.0414 50.963C64.5822 52.4079 70.736 49.1164 70.736 49.1164L70.3667 43.7382L65.0624 44.4999" fill="#CFEE91"/>
<path d="M71.5117 39.5064C71.4655 39.6772 69.8867 49.5379 69.8867 49.5379L76.1328 47.8668L77.4577 37.7891L71.5117 39.5064Z" fill="#FF7F5C"/>
<path d="M69.0464 44.3452C69.0464 44.3452 70.1497 41.5199 70.7175 41.6953C71.2854 41.8708 71.1146 43.3111 71.1146 43.3111C71.1146 43.3111 73.9398 41.9262 74.6877 42.5632C75.4356 43.2003 73.5567 44.8161 73.0535 45.1577C72.5503 45.4993 69.2864 46.7134 69.2864 46.7134L69.0464 44.3452Z" fill="#FBC76F"/>
<path d="M63.479 51.3301C65.3157 50.9162 67.1294 50.4061 68.9126 49.8021C68.9126 49.8021 69.4019 46.9768 69.425 47.0645C69.4481 47.1522 69.3604 50.693 69.1342 50.9377C68.9079 51.1824 63.479 52.8674 63.479 52.8674V51.3301Z" fill="#363942"/>
<path d="M63.6772 60.7947C63.6772 60.7947 69.1385 66.2421 74.1566 68.5503L73.6949 84.8556C73.6949 84.8556 76.8064 87.3901 80.7489 86.5961C80.7489 86.5961 82.7432 68.5365 81.446 63.8139C80.1487 59.0912 71.5668 55.1211 71.5668 55.1211" fill="#FFB0C3"/>
<path d="M104.856 45.0767L113.092 37.7734L118.632 51.8998L111.024 59.1753L104.856 45.0767Z" fill="white"/>
<path d="M119.254 38.3313C118.938 37.9423 118.697 37.4977 118.543 37.0202C118.322 36.5078 118.151 35.9723 117.893 35.4783C117.749 35.206 117.616 34.555 117.269 34.5089C117.14 34.4858 117.002 34.8459 116.974 34.9428C116.901 35.19 116.901 35.4528 116.974 35.6999C117.073 36.0252 117.15 36.3568 117.205 36.6925C117.205 36.6925 114.896 34.6243 114.324 34.5504C113.752 34.4766 113.862 35.1367 113.862 35.1367C113.862 35.1367 113.211 34.6751 112.898 34.9613C112.584 35.2475 113.05 35.94 113.05 35.94C113.05 35.94 112.404 36.3601 112.745 36.794C113.087 37.228 115.026 38.2851 115.026 38.2851C115.026 38.2851 113.641 37.9481 113.327 38.1559C113.013 38.3636 113.17 38.8253 113.719 39.033C114.269 39.2407 115.644 39.6101 115.644 39.6101C115.644 39.6101 117.929 40.381 118.876 40.5934C119.822 40.8057 123.104 42.9016 123.104 42.9016L123.52 39.9055C123.308 39.8778 119.67 38.7237 119.254 38.3313Z" fill="#FE6162"/>
<path d="M129.651 40.4354L119.68 37.25C119.68 37.25 117.51 40.0522 118.207 41.8157L122.569 44.1931" fill="#A5C2CC"/>
<path d="M131.341 103.8L133.511 103.2L133.169 100.555C133.169 100.555 130.824 100.947 131.341 103.8Z" fill="#42210B"/>
<path d="M134.3 96.109C134.3 96.109 135.066 105.051 134.858 105.153C134.651 105.254 132.55 105.434 132.55 105.282C132.55 105.13 132.426 101.215 132.426 101.215C132.426 101.215 131.382 102.941 131.327 103.805C131.327 103.805 128.834 102.383 128.368 101.243C127.901 100.102 129.434 95.3288 130.016 95.0703" fill="#181816"/>
<path d="M125.971 108.487L128.427 105.879L126.825 103.848C126.825 103.848 125.339 107.139 125.971 108.487Z" fill="#42210B"/>
<path d="M129.624 98.1445L130.773 108.873C130.773 108.873 128.927 109.501 128.58 109.455C128.116 109.293 127.671 109.083 127.251 108.827L126.84 105.249C126.84 105.249 125.774 106.316 125.968 108.481C125.968 108.333 124.273 107.77 124.052 107.673C123.368 107.374 122.711 107.016 122.09 106.602C121.439 106.14 119.011 104.151 120.312 103.37C121.42 102.692 125.012 103.02 125.012 103.02L125.063 98.5923" fill="#181816"/>
<path d="M133.917 59.7155C133.908 59.6775 133.909 59.638 133.918 59.6001C133.927 59.5622 133.945 59.527 133.97 59.4971C133.995 59.4672 134.026 59.4434 134.062 59.4277C134.098 59.4119 134.136 59.4046 134.175 59.4062C133.932 58.4633 133.524 57.5709 132.97 56.7702L122.57 55.5469C122.57 55.5469 120.483 62.9701 119.68 75.7577C119.056 85.6738 123.922 100.419 123.922 100.419C123.922 100.419 128.959 101.698 131.378 99.2093L131.281 97.0718C132.535 97.0629 133.786 96.961 135.025 96.7672C136.285 84.4505 135.339 71.9676 133.917 59.7155Z" fill="#CFEE91"/>
<path d="M131.678 98.6304L130.376 89.4437C129.961 86.5169 129.324 83.5069 129.31 80.5386C129.296 77.5702 130.311 74.9111 130.805 72.0812C131.273 69.3373 131.392 66.5454 131.161 63.7716C131.11 63.1253 130.182 63.1207 130.238 63.7716C130.496 66.8682 130.305 69.9858 129.67 73.0276C129.088 75.7467 128.285 78.3273 128.396 81.1572C128.506 83.9871 129.079 86.877 129.494 89.7115L130.796 98.8982C130.879 99.5445 131.77 99.2675 131.678 98.6304Z" fill="#42210B"/>
<path d="M116.18 53.8907C116.215 53.7872 116.215 53.6756 116.18 53.5721H116.245C116.357 53.5911 116.472 53.5681 116.568 53.5075L116.67 53.5352C117.242 53.7152 117.478 52.815 116.905 52.6119C116.444 52.4688 115.982 52.3395 115.52 52.2149H115.479C114.535 51.864 113.574 51.5635 112.598 51.3147C112.29 51.2039 111.973 51.1023 111.647 51.01H111.615C110.769 50.71 109.895 50.4981 109.006 50.3775C108.517 50.3221 107.912 50.3129 107.622 50.7976C107.601 50.8327 107.591 50.8725 107.591 50.9131C107.591 50.9536 107.601 50.9934 107.622 51.0285C107.788 51.2824 108.051 51.3008 108.342 51.3839L109.228 51.6332C108.877 51.7062 108.532 51.8097 108.199 51.9425C107.829 52.007 107.482 52.166 107.192 52.4042C107.115 52.4796 107.067 52.5794 107.056 52.6865C107.045 52.7935 107.072 52.9011 107.132 52.9905C107.167 53.0477 107.215 53.0965 107.271 53.1336C107.111 53.2188 106.992 53.3639 106.939 53.537C106.886 53.7101 106.904 53.897 106.989 54.0569C107.048 54.1603 107.133 54.2462 107.236 54.3055C107.339 54.3648 107.456 54.3953 107.575 54.3939C107.448 54.4722 107.348 54.5877 107.289 54.7247C107.229 54.8618 107.213 55.0138 107.243 55.1602C107.331 55.4418 107.608 55.5157 107.894 55.5157C107.864 55.5792 107.848 55.6487 107.849 55.719C107.85 55.7893 107.867 55.8585 107.899 55.9213C107.93 55.9841 107.976 56.0388 108.032 56.0813C108.088 56.1238 108.153 56.153 108.222 56.1666C108.792 56.2781 109.382 56.1639 109.87 55.848C109.899 55.8306 109.924 55.807 109.944 55.7788C110.368 55.7416 110.786 55.6469 111.185 55.4972C111.365 55.4187 111.55 55.331 111.735 55.2571L112.058 55.1279C112.109 55.1279 112.307 54.994 112.353 55.0125L114.2 55.7372C114.703 55.9311 115.585 56.5174 116.143 56.3235C116.702 56.1296 116.471 55.2202 115.903 55.4002C116.023 55.3587 115.774 55.3356 115.705 55.3079L115.192 55.1094C115.661 55.2972 116.16 55.3974 116.665 55.4049C116.759 55.4074 116.851 55.3814 116.929 55.3302C117.008 55.2791 117.069 55.2053 117.105 55.1187C117.14 55.032 117.149 54.9366 117.129 54.845C117.109 54.7535 117.061 54.6702 116.993 54.6062C116.743 54.3444 116.472 54.105 116.18 53.8907Z" fill="#FE6162"/>
<path d="M129.651 40.4375C129.651 40.4375 123.871 40.4375 121.872 44.0753C120.197 47.1267 120.51 52.2233 120.51 52.2233L113.854 51.697C113.854 51.697 111.942 52.4957 112.418 54.8962C112.676 56.2027 119.282 56.8074 122.929 57.7123C126.576 58.6171 133.16 58.8802 134.194 56.6782C135.228 54.4761 135.117 45.5987 133.894 43.0643C132.67 40.5298 129.651 40.4375 129.651 40.4375Z" fill="#A5C2CC"/>
<path d="M129.032 40.0067C129.032 40.0067 126.724 41.7748 125.288 40.7038C123.853 39.6327 124.199 35.0117 124.199 35.0117C124.199 35.0117 124.933 33.6267 127.656 35.3625C130.38 37.0983 129.032 40.0067 129.032 40.0067Z" fill="#FE6162"/>
<path d="M129.956 40.6264L129.896 40.5156L128.446 40.9773L128.418 41.0511C128.94 40.8988 129.453 40.7557 129.956 40.6264Z" fill="#7F252B"/>
<path d="M132.324 34.9194C132.131 33.8118 131.602 32.7901 130.81 31.9926C129.632 30.8985 127.818 30.9078 126.369 31.3694C125.614 31.5831 124.94 32.0139 124.428 32.6082C123.917 33.2025 123.591 33.934 123.493 34.7117C123.174 36.4567 125.215 35.3811 125.667 36.3782C125.926 36.9569 126.01 37.5991 125.907 38.2248C125.755 39.2635 125.136 40.2653 125.228 41.3363C125.236 41.5963 125.308 41.8504 125.439 42.0753C125.569 42.3002 125.754 42.489 125.976 42.6243C127.234 42.7399 128.5 42.7182 129.752 42.5597C130.731 42.4858 132.707 42.4027 133.058 41.2117C133.469 39.7898 132.324 34.9194 132.324 34.9194Z" fill="#7F252B"/>
</g>
<defs>
<linearGradient id="paint0_linear_2049_1752" x1="-338" y1="11.1896" x2="-338" y2="666" gradientUnits="userSpaceOnUse">
<stop stop-color="#FFFFF2"/>
</linearGradient>
<linearGradient id="paint1_linear_2049_1752" x1="-338" y1="11.1896" x2="-338" y2="666" gradientUnits="userSpaceOnUse">
<stop stop-color="#FFFFF2"/>
</linearGradient>
<linearGradient id="paint2_linear_2049_1752" x1="84.4982" y1="193.228" x2="47.1641" y2="6.18843" gradientUnits="userSpaceOnUse">
<stop offset="0.48" stop-color="#092A35"/>
<stop offset="1" stop-color="#1A7B9B"/>
</linearGradient>
<linearGradient id="paint3_linear_2049_1752" x1="39.0475" y1="93.8721" x2="44.7627" y2="84.6438" gradientUnits="userSpaceOnUse">
<stop stop-color="white" stop-opacity="0"/>
<stop offset="0.99" stop-color="#754C24"/>
</linearGradient>
<linearGradient id="paint4_linear_2049_1752" x1="91.9846" y1="117.066" x2="101.356" y2="101.928" gradientUnits="userSpaceOnUse">
<stop stop-color="white" stop-opacity="0"/>
<stop offset="0.99" stop-color="#754C24"/>
</linearGradient>
<linearGradient id="paint5_linear_2049_1752" x1="75.587" y1="94.2733" x2="84.9953" y2="79.0714" gradientUnits="userSpaceOnUse">
<stop stop-color="white" stop-opacity="0"/>
<stop offset="0.99" stop-color="#754C24"/>
</linearGradient>
<linearGradient id="paint6_linear_2049_1752" x1="64.2216" y1="84.099" x2="71.3079" y2="72.6502" gradientUnits="userSpaceOnUse">
<stop stop-color="white" stop-opacity="0"/>
<stop offset="0.99" stop-color="#754C24"/>
</linearGradient>
<linearGradient id="paint7_linear_2049_1752" x1="42.1088" y1="107.186" x2="51.9465" y2="91.3008" gradientUnits="userSpaceOnUse">
<stop stop-color="white" stop-opacity="0"/>
<stop offset="0.99" stop-color="#754C24"/>
</linearGradient>
<linearGradient id="paint8_linear_2049_1752" x1="59.558" y1="97.4665" x2="69.3911" y2="81.5813" gradientUnits="userSpaceOnUse">
<stop stop-color="white" stop-opacity="0"/>
<stop offset="0.99" stop-color="#754C24"/>
</linearGradient>
<linearGradient id="paint9_linear_2049_1752" x1="-344" y1="39.0839" x2="-344" y2="761" gradientUnits="userSpaceOnUse">
<stop stop-color="#FFFFF2"/>
</linearGradient>
<linearGradient id="paint10_linear_2049_1752" x1="107.797" y1="186.646" x2="72.4105" y2="6.54031" gradientUnits="userSpaceOnUse">
<stop offset="0.48" stop-color="#092A35"/>
<stop offset="1" stop-color="#1A7B9B"/>
</linearGradient>
<linearGradient id="paint11_linear_2049_1752" x1="62.0475" y1="93.8721" x2="67.7627" y2="84.6438" gradientUnits="userSpaceOnUse">
<stop stop-color="white" stop-opacity="0"/>
<stop offset="0.99" stop-color="#754C24"/>
</linearGradient>
<linearGradient id="paint12_linear_2049_1752" x1="114.985" y1="117.066" x2="124.356" y2="101.928" gradientUnits="userSpaceOnUse">
<stop stop-color="white" stop-opacity="0"/>
<stop offset="0.99" stop-color="#754C24"/>
</linearGradient>
<linearGradient id="paint13_linear_2049_1752" x1="98.587" y1="94.2733" x2="107.995" y2="79.0714" gradientUnits="userSpaceOnUse">
<stop stop-color="white" stop-opacity="0"/>
<stop offset="0.99" stop-color="#754C24"/>
</linearGradient>
<linearGradient id="paint14_linear_2049_1752" x1="87.2216" y1="84.099" x2="94.3079" y2="72.6502" gradientUnits="userSpaceOnUse">
<stop stop-color="white" stop-opacity="0"/>
<stop offset="0.99" stop-color="#754C24"/>
</linearGradient>
<linearGradient id="paint15_linear_2049_1752" x1="65.1088" y1="107.186" x2="74.9465" y2="91.3008" gradientUnits="userSpaceOnUse">
<stop stop-color="white" stop-opacity="0"/>
<stop offset="0.99" stop-color="#754C24"/>
</linearGradient>
<linearGradient id="paint16_linear_2049_1752" x1="82.558" y1="97.4665" x2="92.3911" y2="81.5813" gradientUnits="userSpaceOnUse">
<stop stop-color="white" stop-opacity="0"/>
<stop offset="0.99" stop-color="#754C24"/>
</linearGradient>
<clipPath id="clip0_2049_1752">
<rect width="1556" height="4011" fill="white" transform="translate(-1122 -2974)"/>
</clipPath>
</defs>
</svg>
