<svg width="182" height="130" viewBox="0 0 182 130" fill="none" xmlns="http://www.w3.org/2000/svg">
<g clip-path="url(#clip0_2049_1752)">
<rect width="1556" height="4011" transform="translate(-684 -2977)" fill="white"/>
<path d="M-679 -264H879V663H-679V-264Z" fill="url(#paint0_linear_2049_1752)"/>
<path fill-rule="evenodd" clip-rule="evenodd" d="M6.91382 384.195C8.36859 384.611 9.88739 384.985 11.4703 385.317C13.0925 385.652 14.778 385.953 16.5266 386.22C18.3145 386.489 20.1647 386.732 22.0773 386.949C23.9917 387.15 25.9479 387.332 27.9459 387.493C29.985 387.641 32.0667 387.762 34.1912 387.855C36.3532 387.966 38.5392 388.04 40.7492 388.077C42.9575 388.13 45.2076 388.163 47.4995 388.175C49.7914 388.187 52.1057 388.178 54.4421 388.148C56.7785 388.117 59.1364 388.073 61.5155 388.015C63.8572 387.939 66.2193 387.856 68.6019 387.768C70.9846 387.679 73.369 387.575 75.7551 387.457C78.1412 387.338 80.5086 387.21 82.8572 387.073C85.2059 386.937 87.5153 386.798 89.7854 386.656C92.0966 386.502 94.388 386.346 96.6599 386.189C98.8943 386.015 101.089 385.845 103.243 385.68C105.438 385.503 107.574 385.322 109.651 385.137C111.768 384.955 113.826 384.769 115.825 384.579C117.865 384.377 119.846 384.17 121.768 383.96C123.69 383.75 125.574 383.529 127.419 383.299C129.225 383.066 130.993 382.822 132.723 382.569C134.45 382.331 136.121 382.073 137.734 381.797C139.385 381.539 140.959 381.26 142.457 380.961C143.952 380.677 145.391 380.374 146.772 380.052C148.191 379.748 149.514 379.422 150.74 379.075C152.004 378.745 153.21 378.397 154.36 378.029C155.47 377.659 156.522 377.277 157.516 376.884C158.51 376.491 159.427 376.086 160.266 375.667C161.107 375.234 161.87 374.787 162.555 374.328C163.241 373.869 163.868 373.399 164.438 372.917C164.968 372.433 165.441 371.929 165.857 371.407C166.234 370.882 166.552 370.346 166.813 369.798C167.074 369.25 167.277 368.691 167.421 368.12C167.566 367.549 167.633 366.966 167.623 366.37C167.651 365.777 167.622 365.172 167.535 364.555C167.448 363.939 167.302 363.311 167.099 362.672C166.896 362.033 166.654 361.383 166.374 360.724C166.055 360.062 165.716 359.399 165.357 358.734C164.96 358.067 164.524 357.39 164.049 356.702C163.614 356.017 163.121 355.321 162.569 354.613C162.056 353.923 161.484 353.222 160.854 352.509C160.264 351.799 159.654 351.087 159.024 350.374C158.355 349.659 157.666 348.942 156.958 348.224C156.289 347.509 155.581 346.791 154.833 346.07C154.086 345.35 153.319 344.628 152.532 343.905C151.745 343.182 150.938 342.465 150.11 341.754C149.322 341.047 148.493 340.351 147.622 339.668C146.753 338.97 145.863 338.286 144.952 337.616C144.042 336.931 143.11 336.267 142.156 335.624C141.241 334.985 140.285 334.357 139.288 333.743C138.29 333.143 137.27 332.557 136.228 331.986C135.226 331.416 134.182 330.867 133.096 330.338C132.009 329.825 130.92 329.326 129.829 328.842C128.696 328.371 127.561 327.931 126.422 327.521C125.244 327.108 124.061 326.733 122.874 326.396C121.689 326.044 120.479 325.728 119.246 325.449C117.972 325.182 116.694 324.946 115.413 324.74C114.13 324.55 112.823 324.396 111.493 324.278C110.162 324.161 108.826 324.081 107.487 324.039C106.106 324.01 104.722 324.011 103.335 324.043C101.908 324.072 100.477 324.138 99.0411 324.243C97.6074 324.333 96.1693 324.46 94.7267 324.625C93.245 324.788 91.7607 324.973 90.2737 325.182C88.7868 325.39 87.2972 325.621 85.805 325.874C84.311 326.143 82.7958 326.426 81.2591 326.722C79.7242 327.003 78.1857 327.315 76.6439 327.657C75.1429 327.987 73.6215 328.322 72.0797 328.664C70.536 329.021 68.9915 329.386 67.4461 329.758C65.899 330.146 64.3519 330.533 62.8047 330.92C61.2576 331.308 59.7105 331.695 58.1634 332.083C56.6555 332.473 55.1271 332.869 53.5782 333.271C52.0704 333.661 50.5428 334.05 48.9957 334.438C47.4879 334.828 45.9809 335.21 44.4747 335.585C43.0078 335.962 41.5214 336.338 40.0152 336.713C38.5483 337.091 37.1011 337.469 35.6734 337.849C34.2065 338.227 32.7789 338.607 31.3904 338.989C29.9628 339.369 28.5745 339.752 27.2253 340.137C25.8351 340.534 24.4842 340.935 23.1725 341.337C21.8609 341.74 20.5689 342.144 19.2965 342.55C18.0223 342.97 16.767 343.399 15.5303 343.838C14.3329 344.279 13.1534 344.736 11.9918 345.209C10.8318 345.668 9.70947 346.144 8.62457 346.638C7.54144 347.117 6.49493 347.621 5.48505 348.15C4.47516 348.68 3.5036 349.219 2.5705 349.769C1.63562 350.334 0.738281 350.916 -0.121582 351.517C-0.9422 352.119 -1.72534 352.74 -2.47095 353.378C-3.2558 354.014 -3.96484 354.677 -4.59796 355.369C-5.27032 356.058 -5.8855 356.765 -6.4436 357.492C-6.99994 358.204 -7.50012 358.942 -7.94397 359.707C-8.38611 360.457 -8.76929 361.21 -9.09369 361.968C-9.4198 362.74 -9.68701 363.516 -9.89539 364.297C-10.0645 365.079 -10.1936 365.857 -10.2825 366.63C-10.3321 367.405 -10.3229 368.184 -10.2548 368.967C-10.1849 369.735 -10.0554 370.499 -9.86609 371.26C-9.6358 372.008 -9.32611 372.753 -8.93707 373.496C-8.58557 374.221 -8.15381 374.936 -7.64178 375.641C-7.08881 376.334 -6.47522 377.015 -5.80103 377.685C-5.08582 378.343 -4.28864 378.975 -3.40948 379.582C-2.53033 380.189 -1.56836 380.763 -0.523499 381.305C0.519592 381.861 1.66608 382.379 2.91589 382.857C4.16571 383.336 5.49829 383.782 6.91382 384.195Z" fill="url(#paint1_linear_2049_1752)"/>
<path fill-rule="evenodd" clip-rule="evenodd" d="M2.2937 111.586C3.74845 112.137 5.26729 112.634 6.85024 113.075C8.47242 113.519 10.1578 113.919 11.9065 114.273C13.6944 114.63 15.5446 114.953 17.4572 115.24C19.3715 115.507 21.3277 115.748 23.3258 115.962C25.3648 116.159 27.4466 116.319 29.5711 116.442C31.7331 116.589 33.9191 116.688 36.1291 116.737C38.3374 116.807 40.5874 116.85 42.8794 116.867C45.1714 116.883 47.4856 116.871 49.822 116.831C52.1584 116.79 54.5162 116.731 56.8954 116.654C59.237 116.553 61.5992 116.444 63.9818 116.327C66.3645 116.209 68.7489 116.071 71.135 115.914C73.5211 115.756 75.8885 115.586 78.2371 115.405C80.5858 115.224 82.8952 115.039 85.1653 114.851C87.4764 114.647 89.7679 114.44 92.0398 114.232C94.2742 114 96.4685 113.775 98.6226 113.557C100.818 113.322 102.954 113.082 105.031 112.837C107.148 112.595 109.206 112.348 111.205 112.096C113.245 111.827 115.226 111.553 117.148 111.274C119.07 110.995 120.954 110.703 122.799 110.397C124.605 110.087 126.373 109.765 128.102 109.428C129.83 109.112 131.501 108.771 133.114 108.405C134.765 108.062 136.339 107.692 137.837 107.295C139.332 106.918 140.771 106.516 142.152 106.089C143.571 105.685 144.894 105.253 146.12 104.792C147.384 104.355 148.59 103.892 149.74 103.405C150.85 102.914 151.902 102.407 152.896 101.886C153.89 101.364 154.807 100.826 155.646 100.271C156.487 99.6954 157.25 99.1033 157.935 98.4943C158.621 97.8853 159.248 97.2611 159.818 96.6218C160.348 95.979 160.821 95.3111 161.237 94.618C161.614 93.9214 161.932 93.2097 162.193 92.4829C162.454 91.756 162.656 91.014 162.801 90.2568C162.946 89.4997 163.013 88.7256 163.002 87.9348C163.031 87.1473 163.002 86.3446 162.915 85.5268C162.827 84.709 162.682 83.8761 162.479 83.028C162.276 82.1799 162.034 81.3183 161.754 80.4433C161.435 79.5649 161.096 78.6848 160.737 77.8029C160.34 76.9177 159.904 76.0191 159.429 75.1069C158.994 74.1982 158.501 73.2743 157.949 72.3353C157.436 71.4197 156.864 70.489 156.234 69.5432C155.644 68.6007 155.033 67.6566 154.404 66.7107C153.735 65.7615 153.046 64.8105 152.338 63.8579C151.669 62.9086 150.961 61.956 150.213 60.9999C149.466 60.0439 148.699 59.0861 147.912 58.1266C147.125 57.1672 146.318 56.2161 145.49 55.2733C144.702 54.334 143.872 53.4113 143.002 52.5054C142.133 51.5793 141.243 50.6717 140.332 49.7824C139.422 48.8731 138.49 47.9922 137.536 47.1397C136.621 46.2907 135.665 45.4583 134.668 44.6427C133.67 43.8472 132.65 43.07 131.608 42.3113C130.606 41.556 129.562 40.8274 128.476 40.1256C127.389 39.4439 126.299 38.7823 125.208 38.1408C124.076 37.516 122.941 36.9314 121.802 36.387C120.623 35.8393 119.441 35.3417 118.254 34.8945C117.069 34.4271 115.859 34.0083 114.626 33.6381C113.352 33.2845 112.074 32.9712 110.793 32.6981C109.51 32.4451 108.203 32.2406 106.872 32.0847C105.542 31.9288 104.206 31.8232 102.867 31.7678C101.486 31.7291 100.102 31.7307 98.7145 31.7724C97.2877 31.8108 95.8565 31.8994 94.421 32.0382C92.9873 32.157 91.5491 32.326 90.1066 32.5453C88.6249 32.7612 87.1406 33.0072 85.6536 33.2834C84.1666 33.5596 82.6771 33.866 81.1849 34.2025C79.6909 34.5591 78.1756 34.9341 76.639 35.3275C75.1041 35.7008 73.5656 36.1144 72.0237 36.5681C70.5228 37.0051 69.0014 37.4505 67.4595 37.9042C65.9159 38.3781 64.3714 38.862 62.826 39.3559C61.2789 39.87 59.7318 40.384 58.1846 40.8981C56.6375 41.4121 55.0904 41.9262 53.5432 42.4402C52.0354 42.9577 50.507 43.4835 48.9581 44.0176C47.4503 44.5351 45.9227 45.0508 44.3756 45.5649C42.8677 46.0823 41.3607 46.5897 39.8546 47.087C38.3877 47.5878 36.9012 48.0868 35.3951 48.5842C33.9282 49.0849 32.4809 49.5874 31.0533 50.0915C29.5864 50.5923 28.1587 51.0964 26.7703 51.604C25.3427 52.1081 23.9543 52.6157 22.6052 53.1267C21.215 53.6543 19.8641 54.1854 18.5524 54.7198C17.2408 55.2543 15.9488 55.7905 14.6764 56.3283C13.4022 56.8863 12.1468 57.456 10.9102 58.0375C9.7128 58.6224 8.53328 59.2291 7.37164 59.8576C6.21174 60.4659 5.08935 61.0978 4.00446 61.7532C2.92132 62.3885 1.8748 63.0574 0.864921 63.7598C-0.144959 64.4622 -1.11646 65.1781 -2.0496 65.9074C-2.98448 66.6569 -3.88185 67.4298 -4.74171 68.2262C-5.56234 69.0261 -6.34546 69.8494 -7.09109 70.6963C-7.87595 71.5398 -8.58494 72.4202 -9.21806 73.3376C-9.89042 74.2516 -10.5056 75.1907 -11.0637 76.1551C-11.6201 77.0994 -12.1202 78.079 -12.5641 79.0938C-13.0062 80.0885 -13.3894 81.0883 -13.7138 82.0932C-14.0399 83.1183 -14.3071 84.1484 -14.5155 85.1836C-14.6846 86.2223 -14.8137 87.2542 -14.9026 88.2796C-14.9522 89.3083 -14.943 90.3421 -14.8749 91.3811C-14.8051 92.3999 -14.6755 93.4138 -14.4862 94.4228C-14.2559 95.415 -13.9462 96.404 -13.5572 97.3898C-13.2057 98.352 -12.7739 99.3009 -12.2619 100.237C-11.7089 101.156 -11.0953 102.059 -10.4211 102.948C-9.70593 103.821 -8.90875 104.659 -8.0296 105.465C-7.15044 106.27 -6.18845 107.032 -5.14359 107.751C-4.1005 108.489 -2.95403 109.176 -1.70422 109.811C-0.454423 110.446 0.878217 111.038 2.2937 111.586Z" fill="url(#paint2_linear_2049_1752)"/>
<path d="M107.712 49.6938L99.6351 88.6846C99.6351 88.6846 97.986 90.3839 97.5532 88.2883L104.341 49.0469" fill="#FFC358"/>
<path d="M55.6647 33.9609L56.4027 42.5572C56.4027 42.5572 55.1043 45.6413 52.7992 45.8737C50.4941 46.106 49.6104 35.4233 49.6104 35.4233" fill="#286136"/>
<path d="M68.9217 36.568C68.2339 36.3379 67.5285 36.1642 66.8125 36.0487C67.5443 36.1124 68.2686 36.2436 68.9763 36.4404C69.7189 36.6181 69.8875 35.4473 69.154 35.2697L68.7896 35.1831C68.8648 35.1044 68.9178 35.0071 68.9431 34.9012C68.9685 34.7952 68.9652 34.6845 68.9337 34.5802C68.9022 34.476 68.8436 34.382 68.7638 34.3078C68.6841 34.2336 68.5861 34.182 68.4798 34.1581C66.8519 33.8306 65.1727 33.8554 63.5553 34.231C63.6447 33.6371 63.6797 33.0363 63.66 32.4361C63.6571 32.3331 63.6238 32.2333 63.5644 32.1491C63.5187 32.0241 63.4339 31.9171 63.3227 31.844C63.2115 31.7709 63.0796 31.7355 62.9468 31.7432C62.8139 31.7509 62.687 31.8011 62.5849 31.8866C62.4828 31.972 62.4109 32.088 62.3799 32.2174C62.143 33.1559 62.1203 34.1262 61.8879 35.051C61.8432 35.2187 61.7869 35.3831 61.7194 35.543C60.9328 36.2445 60.1568 36.9567 59.3915 37.6795C58.8494 38.1943 59.7149 38.9141 60.2662 38.4676C60.3339 38.5908 60.437 38.6908 60.5623 38.7547L60.4666 38.864C60.4042 38.9341 60.3615 39.0196 60.3431 39.1117C60.3247 39.2038 60.3312 39.2991 60.3618 39.3879L60.2707 39.4653C59.6876 39.9528 60.3755 40.9231 60.9631 40.4311L61.1681 40.2534C61.2207 40.2989 61.2829 40.3318 61.3501 40.3496C61.4173 40.3673 61.4877 40.3695 61.5558 40.3558C61.624 40.3422 61.6881 40.3132 61.7433 40.2709C61.7985 40.2287 61.8433 40.1744 61.8743 40.1122C62.3822 39.3916 63.0534 38.8016 63.8331 38.3902L64.0746 38.249C64.74 38.0819 65.4251 38.0068 66.1109 38.0258C66.6029 38.1898 67.0949 38.3811 67.5778 38.577C67.7133 38.6276 67.8626 38.6269 67.9975 38.575C68.1325 38.5231 68.2438 38.4236 68.3105 38.2953C68.3772 38.167 68.3946 38.0187 68.3595 37.8784C68.3244 37.7381 68.2392 37.6155 68.1199 37.5338L68.4388 37.6294C69.154 37.8709 69.646 36.7912 68.9217 36.568Z" fill="#FFC388"/>
<path d="M68.8936 35.0103C68.127 34.853 67.348 34.7646 66.5657 34.7461C66.3744 34.7461 66.3242 35.0377 66.5201 35.0468C67.3092 35.0716 68.0944 35.1677 68.8662 35.3338C69.0393 35.352 69.0849 35.0513 68.8936 35.0103Z" fill="#663A12"/>
<path d="M68.9125 36.2167C68.0927 36.0294 67.2596 35.906 66.4207 35.8477C66.2293 35.8477 66.1792 36.1347 66.3751 36.1483C67.214 36.2067 68.0472 36.33 68.867 36.5173C69.0583 36.5674 69.1039 36.2577 68.9125 36.2167Z" fill="#663A12"/>
<path d="M65.5503 36.3574C65.099 36.1896 64.6146 36.1298 64.136 36.1828C63.6574 36.2358 63.1979 36.4001 62.7942 36.6626C62.6256 36.7583 62.7942 36.9997 62.9719 36.9086C63.3313 36.6744 63.7404 36.5273 64.1667 36.4791C64.593 36.4308 65.0246 36.4828 65.4273 36.6307C65.4629 36.6435 65.502 36.6424 65.5368 36.6276C65.5716 36.6128 65.5996 36.5854 65.6151 36.5509C65.6306 36.5164 65.6326 36.4773 65.6206 36.4415C65.6086 36.4056 65.5835 36.3756 65.5503 36.3574Z" fill="#663A12"/>
<path d="M66.0377 36.3201C66.0234 35.9727 65.9236 35.6343 65.7472 35.3347C65.5708 35.0351 65.3232 34.7837 65.0264 34.6027C64.8533 34.5161 64.7303 34.7894 64.9034 34.8805C65.1515 35.0406 65.3571 35.2586 65.5023 35.5157C65.6475 35.7728 65.7281 36.0614 65.737 36.3565C65.7644 36.5661 66.065 36.516 66.0377 36.3201Z" fill="#663A12"/>
<path d="M68.3891 37.2821C67.7965 36.9607 67.1569 36.7347 66.494 36.6124C66.3026 36.576 66.2571 36.8767 66.4484 36.9131C67.0861 37.0313 67.7011 37.2496 68.2706 37.56C68.4529 37.6511 68.5759 37.3732 68.3891 37.2821Z" fill="#663A12"/>
<path d="M61.0222 35.6133C59.0907 36.6201 55.1 39.6677 55.1 39.6677L51.9111 45.3439C51.9111 45.3439 53.3416 47.731 56.4667 46.3644C58.6761 45.394 62.3433 41.5309 64.1382 39.1985C63.8852 38.4228 63.4791 37.7057 62.9438 37.0899C62.4086 36.474 61.7551 35.9719 61.0222 35.6133Z" fill="#286136"/>
<path d="M38.3221 86.7136C38.3221 86.7136 37.9485 90.5904 38.395 90.8637C38.8414 91.137 41.4745 95.1824 41.6339 95.7974C42.1578 97.8382 38.4132 98.435 37.1467 97.656C35.8803 96.877 33.9579 92.9729 33.8713 92.0208C33.7848 91.0687 33.147 85.1875 33.147 85.1875" fill="#5C2D1D"/>
<path d="M44.0888 83.7579C44.0888 83.7579 43.7153 87.6346 44.1617 87.908C44.6082 88.1813 49.1728 91.3839 49.3733 92.008C49.9974 93.9167 46.2117 94.3313 44.9453 93.5569C43.6788 92.7824 39.7155 90.04 39.6335 89.0833C39.5515 88.1266 38.9092 82.25 38.9092 82.25" fill="#5C2D1D"/>
<path d="M32.0444 45.2219C32.0444 45.2219 28.9284 49.3675 29.0013 53.308C29.0741 57.2486 30.6094 88.6636 33.1468 88.5451C35.6842 88.4267 37.1602 88.8959 38.7319 85.707C38.7319 85.707 42.882 86.9871 44.481 83.739C44.481 83.739 45.6928 54.4697 43.6473 49.7046C41.6019 44.9395 32.0444 45.2219 32.0444 45.2219Z" fill="#8EA9B2"/>
<path d="M49.2965 28.9052C48.9867 28.805 46.3627 29.0419 44.0485 29.6022C41.7343 30.1625 30.8693 43.7244 32.0447 45.2323C33.22 46.7402 39.0374 50.0703 42.7274 49.56C46.4174 49.0498 55.9385 35.6019 55.6697 33.9664C55.041 30.2263 52.2075 29.9985 52.2075 29.9985" fill="#42754F"/>
<path d="M56.0247 25.6357C56.0247 25.6357 56.2707 31.0568 54.2663 31.8768C52.2618 32.6968 50.2802 30.5102 49.7472 29.2984C49.2142 28.0866 48.9955 22.1052 52.6217 22.784C56.2479 23.4627 56.0247 25.6357 56.0247 25.6357Z" fill="#FFC388"/>
<path d="M56.4076 22.0805C54.959 21.4473 53.319 20.1945 50.5401 21.7434C47.7612 23.2923 46.5631 28.0893 49.629 29.4878L50.3624 27.7841C50.1136 27.4103 50.0159 26.9561 50.0891 26.5131C50.1078 26.3665 50.1579 26.2256 50.236 26.1001C50.314 25.9746 50.4181 25.8673 50.5413 25.7856C50.6645 25.7039 50.8038 25.6497 50.9498 25.6267C51.0958 25.6036 51.2451 25.6123 51.3874 25.6521C51.7358 25.4315 52.0288 25.1338 52.2439 24.782C52.8589 23.7615 53.4237 24.3264 54.139 25.3332C54.8542 26.34 56.4987 26.75 57.378 26.2124C58.2572 25.6749 58.2481 22.9005 56.4076 22.0805Z" fill="#663A12"/>
<mask id="path-18-inside-1_2049_1752" fill="white">
<path d="M46.4219 31.2193L47.2555 29.0235C47.2555 29.0235 47.2145 26.7457 47.4378 26.6683C47.661 26.5908 48.1666 28.8231 48.1666 28.8231C48.1666 28.8231 49.5925 26.2355 50.0982 26.5453C50.6039 26.8551 51.1915 28.9597 51.2006 29.3333C51.2097 29.7068 47.5562 32.5222 47.5562 32.5222"/>
</mask>
<path d="M46.4219 31.2193L47.2555 29.0235C47.2555 29.0235 47.2145 26.7457 47.4378 26.6683C47.661 26.5908 48.1666 28.8231 48.1666 28.8231C48.1666 28.8231 49.5925 26.2355 50.0982 26.5453C50.6039 26.8551 51.1915 28.9597 51.2006 29.3333C51.2097 29.7068 47.5562 32.5222 47.5562 32.5222" fill="#FFC388"/>
<path d="M47.2555 29.0235L48.1904 29.3784L48.2588 29.1982L48.2554 29.0055L47.2555 29.0235ZM48.1666 28.8231L47.1914 29.044L47.7726 31.61L49.0425 29.3057L48.1666 28.8231ZM47.3568 31.5742L48.1904 29.3784L46.3207 28.6685L45.487 30.8643L47.3568 31.5742ZM47.2555 29.0235C48.2554 29.0055 48.2554 29.0055 48.2554 29.0056C48.2554 29.0056 48.2554 29.0056 48.2554 29.0056C48.2554 29.0056 48.2554 29.0055 48.2554 29.0055C48.2554 29.0053 48.2554 29.005 48.2554 29.0046C48.2553 29.0038 48.2553 29.0024 48.2553 29.0006C48.2552 28.9968 48.2551 28.991 48.255 28.9832C48.2548 28.9676 48.2545 28.9444 48.2542 28.9145C48.2535 28.8547 48.2528 28.7685 48.2526 28.6647C48.2523 28.4561 48.2541 28.1805 48.2625 27.9054C48.2711 27.624 48.2858 27.3687 48.3077 27.1908C48.3193 27.0962 48.3283 27.0633 48.3262 27.0706C48.3259 27.0715 48.3108 27.1274 48.2672 27.2036C48.2402 27.2509 48.0976 27.4978 47.7655 27.613L47.11 25.7235C46.75 25.8484 46.5816 26.1222 46.5306 26.2114C46.4632 26.3295 46.426 26.4423 46.4055 26.5128C46.3629 26.6595 46.3385 26.8172 46.3226 26.9471C46.2893 27.218 46.2725 27.5467 46.2634 27.8445C46.2541 28.1485 46.2523 28.4471 46.2526 28.668C46.2528 28.779 46.2536 28.8714 46.2543 28.9364C46.2546 28.969 46.255 28.9947 46.2552 29.0126C46.2554 29.0215 46.2555 29.0285 46.2556 29.0334C46.2556 29.0358 46.2556 29.0377 46.2557 29.0391C46.2557 29.0397 46.2557 29.0403 46.2557 29.0407C46.2557 29.0409 46.2557 29.0411 46.2557 29.0412C46.2557 29.0413 46.2557 29.0413 46.2557 29.0414C46.2557 29.0414 46.2557 29.0415 47.2555 29.0235ZM47.7655 27.613C47.3376 27.7615 47.0014 27.5697 46.8789 27.4768C46.7613 27.3877 46.704 27.2978 46.6971 27.2873C46.6751 27.2538 46.6833 27.2581 46.7165 27.3414C46.7754 27.4897 46.8482 27.7206 46.9233 27.9875C46.9962 28.2467 47.0634 28.5112 47.1128 28.7131C47.1373 28.8135 47.1572 28.8971 47.1708 28.9554C47.1777 28.9845 47.1829 29.0071 47.1864 29.0223C47.1881 29.0298 47.1894 29.0355 47.1903 29.0392C47.1907 29.041 47.191 29.0424 47.1912 29.0432C47.1913 29.0436 47.1913 29.0438 47.1914 29.044C47.1914 29.044 47.1914 29.0441 47.1914 29.0441C47.1914 29.0441 47.1914 29.0441 47.1914 29.0441C47.1914 29.044 47.1914 29.044 48.1666 28.8231C49.1419 28.6021 49.1419 28.6021 49.1419 28.602C49.1419 28.602 49.1419 28.6019 49.1419 28.6018C49.1418 28.6017 49.1418 28.6015 49.1418 28.6013C49.1417 28.6009 49.1415 28.6004 49.1414 28.5997C49.1411 28.5984 49.1407 28.5965 49.1401 28.5941C49.139 28.5893 49.1375 28.5825 49.1354 28.5737C49.1314 28.5562 49.1256 28.531 49.1181 28.4992C49.1032 28.4357 49.0819 28.3455 49.0555 28.2379C49.0031 28.0236 48.9299 27.735 48.8485 27.4457C48.7693 27.1642 48.6739 26.8516 48.5752 26.6031C48.5295 26.4881 48.4616 26.3308 48.3692 26.19C48.3271 26.1259 48.2361 25.9959 48.0866 25.8826C47.9321 25.7656 47.5659 25.5654 47.11 25.7235L47.7655 27.613ZM48.1666 28.8231C49.0425 29.3057 49.0424 29.3058 49.0424 29.3058C49.0424 29.3058 49.0424 29.3059 49.0423 29.3059C49.0423 29.3059 49.0423 29.3059 49.0424 29.3059C49.0424 29.3058 49.0425 29.3056 49.0427 29.3052C49.0432 29.3044 49.0439 29.3031 49.045 29.3011C49.0472 29.2972 49.0507 29.2909 49.0554 29.2825C49.0648 29.2657 49.0791 29.2403 49.0977 29.2076C49.135 29.1421 49.1895 29.0478 49.2565 28.9352C49.3917 28.7083 49.5732 28.4151 49.7658 28.136C49.9663 27.8455 50.1473 27.6165 50.28 27.4876C50.3518 27.4178 50.3556 27.4309 50.2957 27.4591C50.237 27.4867 49.9225 27.6104 49.5758 27.398L50.6206 25.6926C50.1475 25.4028 49.6778 25.5395 49.4443 25.6493C49.2096 25.7598 49.0191 25.9241 48.8861 26.0534C48.6092 26.3225 48.339 26.6824 48.1197 27C47.8927 27.3291 47.6861 27.6634 47.5382 27.9119C47.4636 28.0371 47.4027 28.1425 47.3601 28.2173C47.3387 28.2548 47.3219 28.2847 47.3102 28.3056C47.3043 28.3161 47.2997 28.3243 47.2965 28.3302C47.2949 28.3331 47.2936 28.3354 47.2926 28.3372C47.2922 28.338 47.2918 28.3387 47.2915 28.3393C47.2913 28.3395 47.2912 28.3398 47.2911 28.34C47.291 28.3401 47.291 28.3402 47.2909 28.3402C47.2909 28.3403 47.2908 28.3404 48.1666 28.8231ZM49.5758 27.398C49.4792 27.3388 49.4527 27.2874 49.484 27.3301C49.5066 27.3609 49.5439 27.4201 49.5924 27.5149C49.6893 27.704 49.7929 27.9597 49.8904 28.2419C49.9865 28.5201 50.0686 28.8005 50.126 29.0283C50.1936 29.2959 50.2018 29.3927 50.2009 29.3577L52.2003 29.3089C52.1949 29.0871 52.1263 28.7807 52.0652 28.5389C51.9942 28.2573 51.896 27.9222 51.7808 27.5889C51.667 27.2595 51.5284 26.9075 51.3726 26.6032C51.2948 26.4513 51.2031 26.2923 51.0968 26.1473C50.9991 26.0142 50.8437 25.8292 50.6206 25.6926L49.5758 27.398ZM50.2009 29.3577C50.1965 29.1766 50.2456 29.0453 50.2651 28.9974C50.2887 28.9397 50.3117 28.903 50.3183 28.8926C50.3312 28.8723 50.3298 28.8784 50.2954 28.9176C50.23 28.992 50.1172 29.1056 49.955 29.2559C49.6359 29.5519 49.1983 29.9238 48.7465 30.2956C48.2977 30.6648 47.8472 31.0237 47.508 31.291C47.3387 31.4244 47.1976 31.5345 47.0991 31.6112C47.0499 31.6495 47.0113 31.6794 46.9851 31.6997C46.9721 31.7098 46.9621 31.7175 46.9555 31.7226C46.9522 31.7252 46.9497 31.7271 46.9481 31.7283C46.9473 31.7289 46.9467 31.7294 46.9463 31.7297C46.9461 31.7298 46.946 31.7299 46.9459 31.73C46.9459 31.73 46.9458 31.73 46.9458 31.7301C46.9458 31.7301 46.9458 31.73 47.5562 32.5222C48.1666 33.3143 48.1666 33.3142 48.1667 33.3142C48.1667 33.3142 48.1668 33.3141 48.1669 33.3141C48.167 33.3139 48.1672 33.3138 48.1675 33.3136C48.168 33.3132 48.1687 33.3126 48.1696 33.3119C48.1715 33.3104 48.1743 33.3083 48.1779 33.3055C48.1851 33.3 48.1956 33.2918 48.2093 33.2812C48.2367 33.26 48.2766 33.2291 48.3272 33.1897C48.4285 33.1109 48.5728 32.9982 48.7458 32.8619C49.0914 32.5896 49.5537 32.2213 50.0172 31.84C50.4776 31.4612 50.9517 31.0593 51.315 30.7223C51.4941 30.5562 51.6653 30.3885 51.7979 30.2375C51.8626 30.164 51.9387 30.0712 52.0041 29.9687C52.037 29.9172 52.08 29.8434 52.1168 29.7532C52.1497 29.6727 52.2053 29.5133 52.2003 29.3089L50.2009 29.3577Z" fill="black" mask="url(#path-18-inside-1_2049_1752)"/>
<path d="M45.2921 30.2656C42.963 31.1119 40.7205 32.1797 38.5955 33.4545C35.8621 35.4589 33.0468 38.2925 35.4066 41.0623C38.026 44.1418 46.2715 36.7117 48.5721 34.5251C47.9651 32.7895 46.8149 31.2959 45.2921 30.2656Z" fill="#286136"/>
<path d="M39.2739 54.8733C39.2739 54.4678 38.6361 54.4177 38.6406 54.8232L39.1691 85.7052C39.1691 86.1106 39.8069 86.1607 39.8023 85.7553L39.2739 54.8733Z" fill="#663A12"/>
<path d="M89.5993 36.5664C89.5993 36.5664 91.0844 37.6233 91.4215 42.9032C91.7586 48.183 92.0866 51.4904 92.4875 52.4197C92.8884 53.349 98.2639 56.8249 98.2639 56.8249L95.6126 59.9272L87.522 54.989" fill="#FFFFF2"/>
<path d="M80.5791 75.2205V93.7935H79.2033L78.9072 74.7422" fill="#C59237"/>
<path d="M72.7618 68.082L70.0103 88.2722H71.386L74.2606 68.8291" fill="#C59237"/>
<path d="M100.523 82.1992C100.523 82.1992 101.803 86.3994 102.09 86.8277C102.377 87.2559 106.573 90.0165 106.505 90.8866C106.436 91.7567 104.851 92.0984 103.862 92.0255C102.874 91.9526 97.1794 89.5792 96.8241 88.8822C96.4687 88.1852 96.4688 82.2038 96.4688 82.2038L100.523 82.1992Z" fill="#5C2D1D"/>
<path d="M93.7717 87.1328C93.7717 87.1328 95.0518 91.333 95.3388 91.7612C95.6258 92.1895 99.8215 94.9501 99.7531 95.8202C99.6848 96.6903 98.0995 97.032 97.1109 96.9591C96.1224 96.8862 90.4279 94.5128 90.0726 93.8158C89.7173 93.1188 89.7173 87.1374 89.7173 87.1374L93.7717 87.1328Z" fill="#5C2D1D"/>
<path d="M72.0327 48.8672C72.3972 49.8876 74.4563 65.3764 74.4563 65.3764L76.5245 64.684L73.8276 48.7852" fill="#C59237"/>
<path d="M72.7615 68.0824L72.7251 65.5859L74.9345 66.3422L74.2603 68.8295" fill="#A9CBF8"/>
<path d="M77.7547 64.2148C77.7547 64.2148 72.2106 66.3423 72.7436 68.4378C73.2766 70.5334 77.7274 75.6629 80.5609 75.221C83.3945 74.7791 86.8567 72.31 86.8567 72.31" fill="#A5C2CC"/>
<path d="M77.7547 61.668C77.7547 61.668 72.2106 63.7954 72.7436 65.891C73.2766 67.9865 77.7274 73.116 80.5609 72.6742C83.3945 72.2323 86.8567 69.7632 86.8567 69.7632" fill="#CBE3FF"/>
<path d="M75.5585 42.2188C75.5585 42.2188 70.2011 43.5535 69.6362 46.6376C69.0714 49.7217 68.9347 55.407 76.5424 53.1976C84.1502 50.9882 80.5559 45.2755 80.5559 45.2755" fill="#A5C2CC"/>
<path d="M88.5285 54.5011C88.5285 54.5011 99.4937 62.0268 100.91 65.858C102.327 69.6892 103.252 84.7863 103.252 84.7863C103.252 84.7863 99.4163 87.1689 94.9518 85.7657L91.5898 68.6597C91.5898 68.6597 83.6176 65.2521 82.2145 60.9973C80.8114 56.7424 82.702 48.793 82.702 48.793" fill="#895851"/>
<path d="M82.3836 58.8884C82.3836 58.8884 93.3534 66.4324 94.7656 70.2773C96.1778 74.1222 97.0889 89.1965 97.0889 89.1965C97.0889 89.1965 93.2532 91.579 88.7887 90.1759L85.4267 73.0698C85.4267 73.0698 77.4545 69.6623 76.0514 65.4074C74.6483 61.1525 76.5389 53.2031 76.5389 53.2031" fill="#895851"/>
<path d="M78.0285 59.0664C76.1562 54.5109 74.4661 41.2998 75.5958 39.8648C76.9215 38.161 84.4564 35.3822 84.4564 35.3822C85.3449 35.1415 86.2792 35.1237 87.1763 35.3303C88.0734 35.5369 88.9057 35.9615 89.5996 36.5666C91.4218 38.12 90.1417 50.1786 89.5996 56.2283C86.4061 59.1712 82.625 59.8955 78.0285 59.0664Z" fill="#FFFFF2"/>
<path d="M85.8863 60.4243C87.8588 62.3968 89.9863 64.2919 91.8085 66.392C93.4029 68.2143 94.0316 70.5285 94.6511 72.8245C96.0952 78.1681 96.7376 83.6803 97.3845 89.1652C97.4255 89.4977 96.9016 89.4932 96.8651 89.1652C96.2501 83.8899 95.626 78.5918 94.2867 73.4395C93.6261 70.9157 92.9701 68.401 91.1616 66.4376C89.353 64.4742 87.4078 62.6656 85.5309 60.7887C85.4972 60.7392 85.4816 60.6795 85.4868 60.6199C85.492 60.5602 85.5178 60.5041 85.5596 60.4612C85.6014 60.4183 85.6568 60.3912 85.7163 60.3845C85.7759 60.3777 85.8359 60.3918 85.8863 60.4243Z" fill="#5C2D1D"/>
<path d="M90.0685 59.8008C90.0685 59.8008 95.3894 61.0809 95.2117 61.5592C95.0341 62.0376 93.2893 61.5592 93.2893 61.5592C93.2893 61.5592 96.8563 63.0489 96.1274 64.5249C95.6718 65.4815 92.2688 64.8301 91.3486 64.5249C90.4284 64.2197 87.9229 61.7916 87.9229 61.7916L90.0685 59.8008Z" fill="#FFD8C6"/>
<path d="M80.5795 45.28C80.5795 45.28 81.723 53.562 82.5931 54.6781C83.4632 55.7942 92.4786 59.7667 92.4786 59.7667C92.4786 59.7667 89.5357 61.0878 89.6041 64.2129C89.6041 64.2129 78.2517 61.3793 77.131 58.7736C76.0103 56.1678 72.703 43.0478 75.6003 39.8635C78.4977 36.6792 80.5795 45.28 80.5795 45.28Z" fill="#FFFFF2"/>
<path d="M87.2718 35.3505C87.2718 35.3505 88.8389 38.9949 85.4496 40.3616C82.0602 41.7283 78.311 38.0246 78.311 38.0246C78.311 38.0246 83.3495 34.8494 87.2718 35.3505Z" fill="#9DBB60"/>
<path d="M81.4264 36.5168L80.1235 37.0498L83.7179 39.7056L84.3739 38.4711L86.2462 38.8173C86.2462 38.8173 85.8635 35.5646 85.7906 35.4918C85.7177 35.4189 81.4264 36.5168 81.4264 36.5168Z" fill="#67862A"/>
<path d="M77.3036 30.1344C77.6817 28.458 79.0165 27.8566 80.5244 27.8566C80.8012 27.5521 81.1336 27.3031 81.5038 27.1232C82.6518 26.5765 84.2371 26.6357 85.1938 27.4967C85.5755 27.3642 85.9848 27.3312 86.3828 27.4011C87.5672 27.6243 87.9453 28.7677 87.9089 29.8201C87.9089 29.8611 87.9089 29.9021 87.9089 29.9476C88.1777 31.7698 86.5924 32.8905 86.5924 32.8905L81.5813 36.9039C80.8949 36.6957 80.2737 36.3145 79.7773 35.7969C79.6076 35.5913 79.4765 35.3567 79.39 35.1045C79.3417 35.0785 79.296 35.048 79.2534 35.0134C77.8366 33.8654 76.889 31.9703 77.3036 30.1344Z" fill="#895851"/>
<path d="M86.4102 31.4148C86.4102 32.0435 86.6061 37.9657 83.932 38.0386C81.2579 38.1115 80.2876 34.3486 80.2876 34.3486C80.2876 34.3486 82.4834 33.2188 82.4834 32.3032C82.4834 31.3875 82.3057 31.023 83.3945 30.5493C84.4833 30.0755 86.433 30.3625 86.4102 31.4148Z" fill="#FFE0CE"/>
<path d="M81.2354 44.6545C81.3447 46.2307 81.4495 47.8115 81.577 49.3877C81.7228 51.1507 81.9552 52.8545 83.0485 54.3031C84.9208 56.7859 88.0277 57.7198 90.884 58.5626C90.9444 58.5789 90.9959 58.6185 91.0271 58.6728C91.0583 58.727 91.0666 58.7914 91.0503 58.8518C91.034 58.9122 90.9944 58.9637 90.9401 58.9949C90.8859 59.0261 90.8214 59.0344 90.761 59.0181C87.8136 58.148 84.6202 57.164 82.684 54.5992C81.8508 53.4287 81.3502 52.0544 81.2354 50.6222C80.9985 48.6497 80.9165 46.6498 80.7798 44.6682C80.7616 44.3629 81.2172 44.3629 81.2354 44.6545Z" fill="#B6BBBF"/>
<path d="M89.4532 44.0368L89.8359 55.9769C89.8359 56.2684 89.3804 56.2684 89.3804 55.9769L88.9977 44.0368C88.9886 43.7407 89.4441 43.7452 89.4532 44.0368Z" fill="#B6BBBF"/>
<path d="M77.6636 65.1641L71.8052 99.0391C72.238 101.135 73.8871 99.4354 73.8871 99.4354L80.7204 66.5034C79.6277 66.249 78.5914 65.7949 77.6636 65.1641Z" fill="#FFC358"/>
<path d="M127.679 91.6888C127.679 91.6888 121.005 67.3986 118.326 57.6953C117.577 58.63 116.665 59.4217 115.634 60.0323L125.487 92.9552C128.089 92.7229 127.679 91.6888 127.679 91.6888Z" fill="#FFC358"/>
<path d="M90.0909 67.1744C89.8404 67.6299 90.674 107.532 90.674 107.532C90.674 107.532 91.7446 109.354 92.8516 107.532L93.4438 65.2383" fill="#FFC358"/>
<path d="M78.9845 63.351C82.5924 65.0387 85.9497 67.2172 88.9611 69.8244C98.9406 66.3421 109.106 63.4175 119.41 61.0641C119.925 60.9457 120.144 61.6518 119.629 61.7702C109.367 64.1116 99.243 67.0195 89.3028 70.4804C89.2483 70.5588 89.1707 70.6181 89.0808 70.6499C88.9909 70.6818 88.8933 70.6847 88.8016 70.6581L88.0227 70.936L88.7288 75.036C88.8062 75.4915 88.0135 75.692 87.9315 75.2319L87.2391 71.223C86.6924 71.4143 86.1458 71.6056 85.5991 71.8061C85.5527 71.8204 85.504 71.8255 85.4557 71.8211C85.4073 71.8166 85.3604 71.8026 85.3174 71.78C85.2745 71.7574 85.2364 71.7265 85.2054 71.6891C85.1744 71.6518 85.1511 71.6087 85.1367 71.5624C85.1224 71.516 85.1173 71.4673 85.1217 71.4189C85.1262 71.3706 85.1402 71.3236 85.1628 71.2807C85.1854 71.2378 85.2163 71.1997 85.2536 71.1687C85.291 71.1377 85.3341 71.1143 85.3804 71.1C86.2915 70.7674 87.2027 70.4485 88.1138 70.1251C85.2131 67.663 81.9956 65.6007 78.5471 63.9933C78.0961 63.761 78.5152 63.1323 78.9845 63.351Z" fill="#659AC6"/>
<path d="M77.6546 64.6846L81.864 69.3905C82.192 69.7549 81.6088 70.2742 81.2808 69.9052L77.0715 65.1994C76.7435 64.8395 77.3266 64.3156 77.6546 64.6846Z" fill="#659AC6"/>
<path d="M124.235 56.9805V62.3742L90.4421 79.535L71.8008 70.0367V65.6314" fill="#8EA9B3"/>
<path d="M90.4373 74.6627L71.8052 65.5516L104.933 47.2656C104.933 47.2656 123.98 57.1193 124.235 56.9644L90.4373 74.6627Z" fill="#A5C2CC"/>
<path d="M96.1269 59.4961V69.3087C96.1269 69.3087 86.6924 69.8326 86.6924 69.3087V59.4961" fill="#FFFFF2"/>
<path d="M91.4122 71.3799C94.0163 71.3799 96.1272 70.4151 96.1272 69.2251C96.1272 68.035 94.0163 67.0703 91.4122 67.0703C88.8082 67.0703 86.6973 68.035 86.6973 69.2251C86.6973 70.4151 88.8082 71.3799 91.4122 71.3799Z" fill="#FFFFF2"/>
<path d="M91.4122 61.6494C94.0163 61.6494 96.1272 60.6847 96.1272 59.4946C96.1272 58.3046 94.0163 57.3398 91.4122 57.3398C88.8082 57.3398 86.6973 58.3046 86.6973 59.4946C86.6973 60.6847 88.8082 61.6494 91.4122 61.6494Z" fill="#A0A094"/>
<path d="M94.3551 61.1701H94.3232C94.141 61.2339 93.9587 61.2886 93.772 61.3387L95.0566 50.5922C95.1667 50.5506 95.2862 50.5401 95.4019 50.5618C95.5176 50.5835 95.6251 50.6365 95.7126 50.7152L94.3915 61.1701H94.3551Z" fill="#F78B72"/>
<path d="M92.8882 61.5005L92.4873 51.4145C92.5881 51.3529 92.704 51.3203 92.8221 51.3203C92.9403 51.3203 93.0561 51.3529 93.157 51.4145L93.485 61.4002C93.2881 61.445 93.0889 61.4785 92.8882 61.5005Z" fill="#F78B72"/>
<path d="M91.4126 61.6496L90.1142 51.1445L87.4902 52.5112L88.5517 61.3444C89.4791 61.6177 90.4483 61.7211 91.4126 61.6496Z" fill="#FCB749"/>
<path d="M109.097 61.2139L115.634 57.3918V55.4648L109.087 59.2459L109.097 61.2139Z" fill="#1E7D9E"/>
<path d="M100.19 54.082V56.0227C100.19 56.0227 109.115 61.257 109.097 61.2115C109.078 61.1659 109.097 59.2435 109.097 59.2435L100.19 54.082Z" fill="#074960"/>
<path d="M100.19 54.0832L109.087 59.2446L115.634 55.4635L106.823 50.293L100.19 54.0832Z" fill="#06577A"/>
<path d="M114.212 54.6295L115.174 54.4609L114.103 56.3469L114.212 54.6295Z" fill="#1E7D9E"/>
<path d="M114.103 56.3471L115.634 55.4633L114.868 54.9258L114.103 56.3471Z" fill="#074960"/>
<path d="M109.097 58.7068L115.634 54.8801V52.9531L109.087 56.7342L109.097 58.7068Z" fill="#1E7D9E"/>
<path d="M100.19 51.5742V53.5149C100.19 53.5149 109.115 58.7492 109.097 58.7036C109.078 58.6581 109.097 56.7356 109.097 56.7356L100.19 51.5742Z" fill="#074960"/>
<path d="M100.19 51.5799L109.087 56.7368L115.634 52.9557L106.823 47.7852L100.19 51.5799Z" fill="#06577A"/>
<path d="M114.212 52.121L115.174 51.957L114.103 53.8385L114.212 52.121Z" fill="#1E7D9E"/>
<path d="M114.103 53.8347L115.634 52.951L114.868 52.418L114.103 53.8347Z" fill="#074960"/>
<path d="M-684 -264H872V758H-684V-264Z" fill="url(#paint3_linear_2049_1752)"/>
<path fill-rule="evenodd" clip-rule="evenodd" d="M19.2937 111.586C20.7484 112.137 22.2673 112.634 23.8502 113.075C25.4724 113.519 27.1578 113.919 28.9065 114.273C30.6944 114.63 32.5446 114.953 34.4572 115.24C36.3715 115.507 38.3277 115.748 40.3258 115.962C42.3648 116.159 44.4466 116.319 46.5711 116.442C48.7331 116.589 50.9191 116.688 53.1291 116.737C55.3374 116.807 57.5874 116.85 59.8794 116.867C62.1714 116.883 64.4856 116.871 66.822 116.831C69.1584 116.79 71.5162 116.731 73.8954 116.654C76.237 116.553 78.5992 116.444 80.9818 116.327C83.3645 116.209 85.7489 116.071 88.135 115.914C90.5211 115.756 92.8885 115.586 95.2371 115.405C97.5858 115.224 99.8952 115.039 102.165 114.851C104.476 114.647 106.768 114.44 109.04 114.232C111.274 114 113.468 113.775 115.623 113.557C117.818 113.322 119.954 113.082 122.031 112.837C124.148 112.595 126.206 112.348 128.205 112.096C130.245 111.827 132.226 111.553 134.148 111.274C136.07 110.995 137.954 110.703 139.799 110.397C141.605 110.087 143.373 109.765 145.102 109.428C146.83 109.112 148.501 108.771 150.114 108.405C151.765 108.062 153.339 107.692 154.837 107.295C156.332 106.918 157.771 106.516 159.152 106.089C160.571 105.685 161.894 105.253 163.12 104.792C164.384 104.355 165.59 103.892 166.74 103.405C167.85 102.914 168.902 102.407 169.896 101.886C170.89 101.364 171.807 100.826 172.646 100.271C173.487 99.6954 174.25 99.1033 174.935 98.4943C175.621 97.8853 176.248 97.2611 176.818 96.6218C177.348 95.979 177.821 95.3111 178.237 94.618C178.614 93.9214 178.932 93.2097 179.193 92.4829C179.454 91.756 179.656 91.014 179.801 90.2568C179.946 89.4997 180.013 88.7256 180.002 87.9348C180.031 87.1473 180.002 86.3446 179.915 85.5268C179.827 84.709 179.682 83.8761 179.479 83.028C179.276 82.1799 179.034 81.3183 178.754 80.4433C178.435 79.5649 178.096 78.6848 177.737 77.8029C177.34 76.9177 176.904 76.0191 176.429 75.1069C175.994 74.1982 175.501 73.2743 174.949 72.3353C174.436 71.4197 173.864 70.489 173.234 69.5432C172.644 68.6007 172.033 67.6566 171.404 66.7107C170.735 65.7615 170.046 64.8105 169.338 63.8579C168.669 62.9086 167.961 61.956 167.213 60.9999C166.466 60.0439 165.699 59.0861 164.912 58.1266C164.125 57.1672 163.318 56.2161 162.49 55.2733C161.702 54.334 160.872 53.4113 160.002 52.5054C159.133 51.5793 158.243 50.6717 157.332 49.7824C156.422 48.8731 155.49 47.9922 154.536 47.1397C153.621 46.2907 152.665 45.4583 151.668 44.6427C150.67 43.8472 149.65 43.07 148.608 42.3113C147.606 41.556 146.562 40.8274 145.476 40.1256C144.389 39.4439 143.299 38.7823 142.208 38.1408C141.076 37.516 139.941 36.9314 138.802 36.387C137.623 35.8393 136.441 35.3417 135.254 34.8945C134.069 34.4271 132.859 34.0083 131.626 33.6381C130.352 33.2845 129.074 32.9712 127.793 32.6981C126.51 32.4451 125.203 32.2406 123.872 32.0847C122.542 31.9288 121.206 31.8232 119.867 31.7678C118.486 31.7291 117.102 31.7307 115.715 31.7724C114.288 31.8108 112.857 31.8994 111.421 32.0382C109.987 32.157 108.549 32.326 107.107 32.5453C105.625 32.7612 104.141 33.0072 102.654 33.2834C101.167 33.5596 99.6771 33.866 98.1849 34.2025C96.6909 34.5591 95.1756 34.9341 93.639 35.3275C92.1041 35.7008 90.5656 36.1144 89.0237 36.5681C87.5228 37.0051 86.0014 37.4505 84.4595 37.9042C82.9159 38.3781 81.3714 38.862 79.826 39.3559C78.2789 39.87 76.7318 40.384 75.1846 40.8981C73.6375 41.4121 72.0904 41.9262 70.5432 42.4402C69.0354 42.9577 67.507 43.4835 65.9581 44.0176C64.4503 44.5351 62.9227 45.0508 61.3756 45.5649C59.8677 46.0823 58.3607 46.5897 56.8546 47.087C55.3877 47.5878 53.9012 48.0868 52.3951 48.5842C50.9282 49.0849 49.4809 49.5874 48.0533 50.0915C46.5864 50.5923 45.1587 51.0964 43.7703 51.604C42.3427 52.1081 40.9543 52.6157 39.6052 53.1267C38.215 53.6543 36.8641 54.1854 35.5524 54.7198C34.2408 55.2543 32.9488 55.7905 31.6764 56.3283C30.4022 56.8863 29.1468 57.456 27.9102 58.0375C26.7128 58.6224 25.5333 59.2291 24.3716 59.8576C23.2117 60.4659 22.0894 61.0978 21.0045 61.7532C19.9213 62.3885 18.8748 63.0574 17.8649 63.7598C16.855 64.4622 15.8835 65.1781 14.9504 65.9074C14.0155 66.6569 13.1182 67.4298 12.2583 68.2262C11.4377 69.0261 10.6545 69.8494 9.90891 70.6963C9.12405 71.5398 8.41506 72.4202 7.78194 73.3376C7.10958 74.2516 6.49438 75.1907 5.93626 76.1551C5.3799 77.0994 4.87978 78.079 4.43593 79.0938C3.99382 80.0885 3.61059 81.0883 3.28622 82.0932C2.96011 83.1183 2.69285 84.1484 2.48448 85.1836C2.31535 86.2223 2.18633 87.2542 2.09744 88.2796C2.04779 89.3083 2.05701 90.3421 2.1251 91.3811C2.19492 92.3999 2.32451 93.4138 2.51381 94.4228C2.74412 95.415 3.05379 96.404 3.44282 97.3898C3.79433 98.352 4.2261 99.3009 4.73809 100.237C5.29108 101.156 5.90467 102.059 6.57888 102.948C7.29407 103.821 8.09125 104.659 8.9704 105.465C9.84956 106.27 10.8116 107.032 11.8564 107.751C12.8995 108.489 14.046 109.176 15.2958 109.811C16.5456 110.446 17.8782 111.038 19.2937 111.586Z" fill="url(#paint4_linear_2049_1752)"/>
<path d="M124.712 49.6938L116.635 88.6846C116.635 88.6846 114.986 90.3839 114.553 88.2883L121.341 49.0469" fill="#FFC358"/>
<path d="M72.6647 33.9609L73.4027 42.5572C73.4027 42.5572 72.1043 45.6413 69.7992 45.8737C67.4941 46.106 66.6104 35.4233 66.6104 35.4233" fill="#286136"/>
<path d="M85.9217 36.568C85.2339 36.3379 84.5285 36.1642 83.8125 36.0487C84.5443 36.1124 85.2686 36.2436 85.9763 36.4404C86.7189 36.6181 86.8875 35.4473 86.154 35.2697L85.7896 35.1831C85.8648 35.1044 85.9178 35.0071 85.9431 34.9012C85.9685 34.7952 85.9652 34.6845 85.9337 34.5802C85.9022 34.476 85.8436 34.382 85.7638 34.3078C85.6841 34.2336 85.5861 34.182 85.4798 34.1581C83.8519 33.8306 82.1727 33.8554 80.5553 34.231C80.6447 33.6371 80.6797 33.0363 80.66 32.4361C80.6571 32.3331 80.6238 32.2333 80.5644 32.1491C80.5187 32.0241 80.4339 31.9171 80.3227 31.844C80.2115 31.7709 80.0796 31.7355 79.9468 31.7432C79.8139 31.7509 79.687 31.8011 79.5849 31.8866C79.4828 31.972 79.4109 32.088 79.3799 32.2174C79.143 33.1559 79.1203 34.1262 78.8879 35.051C78.8432 35.2187 78.7869 35.3831 78.7194 35.543C77.9328 36.2445 77.1568 36.9567 76.3915 37.6795C75.8494 38.1943 76.7149 38.9141 77.2662 38.4676C77.3339 38.5908 77.437 38.6908 77.5623 38.7547L77.4666 38.864C77.4042 38.9341 77.3615 39.0196 77.3431 39.1117C77.3247 39.2038 77.3312 39.2991 77.3618 39.3879L77.2707 39.4653C76.6876 39.9528 77.3755 40.9231 77.9631 40.4311L78.1681 40.2534C78.2207 40.2989 78.2829 40.3318 78.3501 40.3496C78.4173 40.3673 78.4877 40.3695 78.5558 40.3558C78.624 40.3422 78.6881 40.3132 78.7433 40.2709C78.7985 40.2287 78.8433 40.1744 78.8743 40.1122C79.3822 39.3916 80.0534 38.8016 80.8331 38.3902L81.0746 38.249C81.74 38.0819 82.4251 38.0068 83.1109 38.0258C83.6029 38.1898 84.0949 38.3811 84.5778 38.577C84.7133 38.6276 84.8626 38.6269 84.9975 38.575C85.1325 38.5231 85.2438 38.4236 85.3105 38.2953C85.3772 38.167 85.3946 38.0187 85.3595 37.8784C85.3244 37.7381 85.2392 37.6155 85.1199 37.5338L85.4388 37.6294C86.154 37.8709 86.646 36.7912 85.9217 36.568Z" fill="#FFC388"/>
<path d="M85.8936 35.0103C85.127 34.853 84.348 34.7646 83.5657 34.7461C83.3744 34.7461 83.3242 35.0377 83.5201 35.0468C84.3092 35.0716 85.0944 35.1677 85.8662 35.3338C86.0393 35.352 86.0849 35.0513 85.8936 35.0103Z" fill="#663A12"/>
<path d="M85.9125 36.2167C85.0927 36.0294 84.2596 35.906 83.4207 35.8477C83.2293 35.8477 83.1792 36.1347 83.3751 36.1483C84.214 36.2067 85.0472 36.33 85.867 36.5173C86.0583 36.5674 86.1039 36.2577 85.9125 36.2167Z" fill="#663A12"/>
<path d="M82.5503 36.3574C82.099 36.1896 81.6146 36.1298 81.136 36.1828C80.6574 36.2358 80.1979 36.4001 79.7942 36.6626C79.6256 36.7583 79.7942 36.9997 79.9719 36.9086C80.3313 36.6744 80.7404 36.5273 81.1667 36.4791C81.593 36.4308 82.0246 36.4828 82.4273 36.6307C82.4629 36.6435 82.502 36.6424 82.5368 36.6276C82.5716 36.6128 82.5996 36.5854 82.6151 36.5509C82.6306 36.5164 82.6326 36.4773 82.6206 36.4415C82.6086 36.4056 82.5835 36.3756 82.5503 36.3574Z" fill="#663A12"/>
<path d="M83.0377 36.3201C83.0234 35.9727 82.9236 35.6343 82.7472 35.3347C82.5708 35.0351 82.3232 34.7837 82.0264 34.6027C81.8533 34.5161 81.7303 34.7894 81.9034 34.8805C82.1515 35.0406 82.3571 35.2586 82.5023 35.5157C82.6475 35.7728 82.7281 36.0614 82.737 36.3565C82.7644 36.5661 83.065 36.516 83.0377 36.3201Z" fill="#663A12"/>
<path d="M85.3891 37.2821C84.7965 36.9607 84.1569 36.7347 83.494 36.6124C83.3026 36.576 83.2571 36.8767 83.4484 36.9131C84.0861 37.0313 84.7011 37.2496 85.2706 37.56C85.4529 37.6511 85.5759 37.3732 85.3891 37.2821Z" fill="#663A12"/>
<path d="M78.0222 35.6133C76.0907 36.6201 72.1 39.6677 72.1 39.6677L68.9111 45.3439C68.9111 45.3439 70.3416 47.731 73.4667 46.3644C75.6761 45.394 79.3433 41.5309 81.1382 39.1985C80.8852 38.4228 80.4791 37.7057 79.9438 37.0899C79.4086 36.474 78.7551 35.9719 78.0222 35.6133Z" fill="#286136"/>
<path d="M55.3221 86.7136C55.3221 86.7136 54.9485 90.5904 55.395 90.8637C55.8414 91.137 58.4745 95.1824 58.6339 95.7974C59.1578 97.8382 55.4132 98.435 54.1467 97.656C52.8803 96.877 50.9579 92.9729 50.8713 92.0208C50.7848 91.0687 50.147 85.1875 50.147 85.1875" fill="#5C2D1D"/>
<path d="M61.0888 83.7579C61.0888 83.7579 60.7153 87.6346 61.1617 87.908C61.6082 88.1813 66.1728 91.3839 66.3733 92.008C66.9974 93.9167 63.2117 94.3313 61.9453 93.5569C60.6788 92.7824 56.7155 90.04 56.6335 89.0833C56.5515 88.1266 55.9092 82.25 55.9092 82.25" fill="#5C2D1D"/>
<path d="M49.0444 45.2219C49.0444 45.2219 45.9284 49.3675 46.0013 53.308C46.0741 57.2486 47.6094 88.6636 50.1468 88.5451C52.6842 88.4267 54.1602 88.8959 55.7319 85.707C55.7319 85.707 59.882 86.9871 61.481 83.739C61.481 83.739 62.6928 54.4697 60.6473 49.7046C58.6019 44.9395 49.0444 45.2219 49.0444 45.2219Z" fill="#8EA9B2"/>
<path d="M66.2965 28.9052C65.9867 28.805 63.3627 29.0419 61.0485 29.6022C58.7343 30.1625 47.8693 43.7244 49.0447 45.2323C50.22 46.7402 56.0374 50.0703 59.7274 49.56C63.4174 49.0498 72.9385 35.6019 72.6697 33.9664C72.041 30.2263 69.2075 29.9985 69.2075 29.9985" fill="#42754F"/>
<path d="M73.0247 25.6357C73.0247 25.6357 73.2707 31.0568 71.2663 31.8768C69.2618 32.6968 67.2802 30.5102 66.7472 29.2984C66.2142 28.0866 65.9955 22.1052 69.6217 22.784C73.2479 23.4627 73.0247 25.6357 73.0247 25.6357Z" fill="#FFC388"/>
<path d="M73.4076 22.0805C71.959 21.4473 70.319 20.1945 67.5401 21.7434C64.7612 23.2923 63.5631 28.0893 66.629 29.4878L67.3624 27.7841C67.1136 27.4103 67.0159 26.9561 67.0891 26.5131C67.1078 26.3665 67.1579 26.2256 67.236 26.1001C67.314 25.9746 67.4181 25.8673 67.5413 25.7856C67.6645 25.7039 67.8038 25.6497 67.9498 25.6267C68.0958 25.6036 68.2451 25.6123 68.3874 25.6521C68.7358 25.4315 69.0288 25.1338 69.2439 24.782C69.8589 23.7615 70.4237 24.3264 71.139 25.3332C71.8542 26.34 73.4987 26.75 74.378 26.2124C75.2572 25.6749 75.2481 22.9005 73.4076 22.0805Z" fill="#663A12"/>
<mask id="path-84-inside-2_2049_1752" fill="white">
<path d="M63.4219 31.2193L64.2555 29.0235C64.2555 29.0235 64.2145 26.7457 64.4378 26.6683C64.661 26.5908 65.1666 28.8231 65.1666 28.8231C65.1666 28.8231 66.5925 26.2355 67.0982 26.5453C67.6039 26.8551 68.1915 28.9597 68.2006 29.3333C68.2097 29.7068 64.5562 32.5222 64.5562 32.5222"/>
</mask>
<path d="M63.4219 31.2193L64.2555 29.0235C64.2555 29.0235 64.2145 26.7457 64.4378 26.6683C64.661 26.5908 65.1666 28.8231 65.1666 28.8231C65.1666 28.8231 66.5925 26.2355 67.0982 26.5453C67.6039 26.8551 68.1915 28.9597 68.2006 29.3333C68.2097 29.7068 64.5562 32.5222 64.5562 32.5222" fill="#FFC388"/>
<path d="M64.2555 29.0235L65.1904 29.3784L65.2588 29.1982L65.2554 29.0055L64.2555 29.0235ZM65.1666 28.8231L64.1914 29.044L64.7726 31.61L66.0425 29.3057L65.1666 28.8231ZM64.3568 31.5742L65.1904 29.3784L63.3207 28.6685L62.487 30.8643L64.3568 31.5742ZM64.2555 29.0235C65.2554 29.0055 65.2554 29.0055 65.2554 29.0056C65.2554 29.0056 65.2554 29.0056 65.2554 29.0056C65.2554 29.0056 65.2554 29.0055 65.2554 29.0055C65.2554 29.0053 65.2554 29.005 65.2554 29.0046C65.2553 29.0038 65.2553 29.0024 65.2553 29.0006C65.2552 28.9968 65.2551 28.991 65.255 28.9832C65.2548 28.9676 65.2545 28.9444 65.2542 28.9145C65.2535 28.8547 65.2528 28.7685 65.2526 28.6647C65.2523 28.4561 65.2541 28.1805 65.2625 27.9054C65.2711 27.624 65.2858 27.3687 65.3077 27.1908C65.3193 27.0962 65.3283 27.0633 65.3262 27.0706C65.3259 27.0715 65.3108 27.1274 65.2672 27.2036C65.2402 27.2509 65.0976 27.4978 64.7655 27.613L64.11 25.7235C63.75 25.8484 63.5816 26.1222 63.5306 26.2114C63.4632 26.3295 63.426 26.4423 63.4055 26.5128C63.3629 26.6595 63.3385 26.8172 63.3226 26.9471C63.2893 27.218 63.2725 27.5467 63.2634 27.8445C63.2541 28.1485 63.2523 28.4471 63.2526 28.668C63.2528 28.779 63.2536 28.8714 63.2543 28.9364C63.2546 28.969 63.255 28.9947 63.2552 29.0126C63.2554 29.0215 63.2555 29.0285 63.2556 29.0334C63.2556 29.0358 63.2556 29.0377 63.2557 29.0391C63.2557 29.0397 63.2557 29.0403 63.2557 29.0407C63.2557 29.0409 63.2557 29.0411 63.2557 29.0412C63.2557 29.0413 63.2557 29.0413 63.2557 29.0414C63.2557 29.0414 63.2557 29.0415 64.2555 29.0235ZM64.7655 27.613C64.3376 27.7615 64.0014 27.5697 63.8789 27.4768C63.7613 27.3877 63.704 27.2978 63.6971 27.2873C63.6751 27.2538 63.6833 27.2581 63.7165 27.3414C63.7754 27.4897 63.8482 27.7206 63.9233 27.9875C63.9962 28.2467 64.0634 28.5112 64.1128 28.7131C64.1373 28.8135 64.1572 28.8971 64.1708 28.9554C64.1777 28.9845 64.1829 29.0071 64.1864 29.0223C64.1881 29.0298 64.1894 29.0355 64.1903 29.0392C64.1907 29.041 64.191 29.0424 64.1912 29.0432C64.1913 29.0436 64.1913 29.0438 64.1914 29.044C64.1914 29.044 64.1914 29.0441 64.1914 29.0441C64.1914 29.0441 64.1914 29.0441 64.1914 29.0441C64.1914 29.044 64.1914 29.044 65.1666 28.8231C66.1419 28.6021 66.1419 28.6021 66.1419 28.602C66.1419 28.602 66.1419 28.6019 66.1419 28.6018C66.1418 28.6017 66.1418 28.6015 66.1418 28.6013C66.1417 28.6009 66.1415 28.6004 66.1414 28.5997C66.1411 28.5984 66.1407 28.5965 66.1401 28.5941C66.139 28.5893 66.1375 28.5825 66.1354 28.5737C66.1314 28.5562 66.1256 28.531 66.1181 28.4992C66.1032 28.4357 66.0819 28.3455 66.0555 28.2379C66.0031 28.0236 65.9299 27.735 65.8485 27.4457C65.7693 27.1642 65.6739 26.8516 65.5752 26.6031C65.5295 26.4881 65.4616 26.3308 65.3692 26.19C65.3271 26.1259 65.2361 25.9959 65.0866 25.8826C64.9321 25.7656 64.5659 25.5654 64.11 25.7235L64.7655 27.613ZM65.1666 28.8231C66.0425 29.3057 66.0424 29.3058 66.0424 29.3058C66.0424 29.3058 66.0424 29.3059 66.0423 29.3059C66.0423 29.3059 66.0423 29.3059 66.0424 29.3059C66.0424 29.3058 66.0425 29.3056 66.0427 29.3052C66.0432 29.3044 66.0439 29.3031 66.045 29.3011C66.0472 29.2972 66.0507 29.2909 66.0554 29.2825C66.0648 29.2657 66.0791 29.2403 66.0977 29.2076C66.135 29.1421 66.1895 29.0478 66.2565 28.9352C66.3917 28.7083 66.5732 28.4151 66.7658 28.136C66.9663 27.8455 67.1473 27.6165 67.28 27.4876C67.3518 27.4178 67.3556 27.4309 67.2957 27.4591C67.237 27.4867 66.9225 27.6104 66.5758 27.398L67.6206 25.6926C67.1475 25.4028 66.6778 25.5395 66.4443 25.6493C66.2096 25.7598 66.0191 25.9241 65.8861 26.0534C65.6092 26.3225 65.339 26.6824 65.1197 27C64.8927 27.3291 64.6861 27.6634 64.5382 27.9119C64.4636 28.0371 64.4027 28.1425 64.3601 28.2173C64.3387 28.2548 64.3219 28.2847 64.3102 28.3056C64.3043 28.3161 64.2997 28.3243 64.2965 28.3302C64.2949 28.3331 64.2936 28.3354 64.2926 28.3372C64.2922 28.338 64.2918 28.3387 64.2915 28.3393C64.2913 28.3395 64.2912 28.3398 64.2911 28.34C64.291 28.3401 64.291 28.3402 64.2909 28.3402C64.2909 28.3403 64.2908 28.3404 65.1666 28.8231ZM66.5758 27.398C66.4792 27.3388 66.4527 27.2874 66.484 27.3301C66.5066 27.3609 66.5439 27.4201 66.5924 27.5149C66.6893 27.704 66.7929 27.9597 66.8904 28.2419C66.9865 28.5201 67.0686 28.8005 67.126 29.0283C67.1936 29.2959 67.2018 29.3927 67.2009 29.3577L69.2003 29.3089C69.1949 29.0871 69.1263 28.7807 69.0652 28.5389C68.9942 28.2573 68.896 27.9222 68.7808 27.5889C68.667 27.2595 68.5284 26.9075 68.3726 26.6032C68.2948 26.4513 68.2031 26.2923 68.0968 26.1473C67.9991 26.0142 67.8437 25.8292 67.6206 25.6926L66.5758 27.398ZM67.2009 29.3577C67.1965 29.1766 67.2456 29.0453 67.2651 28.9974C67.2887 28.9397 67.3117 28.903 67.3183 28.8926C67.3312 28.8723 67.3298 28.8784 67.2954 28.9176C67.23 28.992 67.1172 29.1056 66.955 29.2559C66.6359 29.5519 66.1983 29.9238 65.7465 30.2956C65.2977 30.6648 64.8472 31.0237 64.508 31.291C64.3387 31.4244 64.1976 31.5345 64.0991 31.6112C64.0499 31.6495 64.0113 31.6794 63.9851 31.6997C63.9721 31.7098 63.9621 31.7175 63.9555 31.7226C63.9522 31.7252 63.9497 31.7271 63.9481 31.7283C63.9473 31.7289 63.9467 31.7294 63.9463 31.7297C63.9461 31.7298 63.946 31.7299 63.9459 31.73C63.9459 31.73 63.9458 31.73 63.9458 31.7301C63.9458 31.7301 63.9458 31.73 64.5562 32.5222C65.1666 33.3143 65.1666 33.3142 65.1667 33.3142C65.1667 33.3142 65.1668 33.3141 65.1669 33.3141C65.167 33.3139 65.1672 33.3138 65.1675 33.3136C65.168 33.3132 65.1687 33.3126 65.1696 33.3119C65.1715 33.3104 65.1743 33.3083 65.1779 33.3055C65.1851 33.3 65.1956 33.2918 65.2093 33.2812C65.2367 33.26 65.2766 33.2291 65.3272 33.1897C65.4285 33.1109 65.5728 32.9982 65.7458 32.8619C66.0914 32.5896 66.5537 32.2213 67.0172 31.84C67.4776 31.4612 67.9517 31.0593 68.315 30.7223C68.4941 30.5562 68.6653 30.3885 68.7979 30.2375C68.8626 30.164 68.9387 30.0712 69.0041 29.9687C69.037 29.9172 69.08 29.8434 69.1168 29.7532C69.1497 29.6727 69.2053 29.5133 69.2003 29.3089L67.2009 29.3577Z" fill="black" mask="url(#path-84-inside-2_2049_1752)"/>
<path d="M62.2921 30.2656C59.963 31.1119 57.7205 32.1797 55.5955 33.4545C52.8621 35.4589 50.0468 38.2925 52.4066 41.0623C55.026 44.1418 63.2715 36.7117 65.5721 34.5251C64.9651 32.7895 63.8149 31.2959 62.2921 30.2656Z" fill="#286136"/>
<path d="M56.2739 54.8733C56.2739 54.4678 55.6361 54.4177 55.6406 54.8232L56.1691 85.7052C56.1691 86.1106 56.8069 86.1607 56.8023 85.7553L56.2739 54.8733Z" fill="#663A12"/>
<path d="M106.599 36.5664C106.599 36.5664 108.084 37.6233 108.422 42.9032C108.759 48.183 109.087 51.4904 109.488 52.4197C109.888 53.349 115.264 56.8249 115.264 56.8249L112.613 59.9272L104.522 54.989" fill="#FFFFF2"/>
<path d="M97.5791 75.2205V93.7935H96.2033L95.9072 74.7422" fill="#C59237"/>
<path d="M89.7618 68.082L87.0103 88.2722H88.386L91.2606 68.8291" fill="#C59237"/>
<path d="M117.523 82.1992C117.523 82.1992 118.803 86.3994 119.09 86.8277C119.377 87.2559 123.573 90.0165 123.505 90.8866C123.436 91.7567 121.851 92.0984 120.862 92.0255C119.874 91.9526 114.179 89.5792 113.824 88.8822C113.469 88.1852 113.469 82.2038 113.469 82.2038L117.523 82.1992Z" fill="#5C2D1D"/>
<path d="M110.772 87.1328C110.772 87.1328 112.052 91.333 112.339 91.7612C112.626 92.1895 116.821 94.9501 116.753 95.8202C116.685 96.6903 115.099 97.032 114.111 96.9591C113.122 96.8862 107.428 94.5128 107.073 93.8158C106.717 93.1188 106.717 87.1374 106.717 87.1374L110.772 87.1328Z" fill="#5C2D1D"/>
<path d="M89.0327 48.8672C89.3972 49.8876 91.4563 65.3764 91.4563 65.3764L93.5245 64.684L90.8276 48.7852" fill="#C59237"/>
<path d="M89.7615 68.0824L89.7251 65.5859L91.9345 66.3422L91.2603 68.8295" fill="#A9CBF8"/>
<path d="M94.7547 64.2148C94.7547 64.2148 89.2106 66.3423 89.7436 68.4378C90.2766 70.5334 94.7274 75.6629 97.5609 75.221C100.394 74.7791 103.857 72.31 103.857 72.31" fill="#A5C2CC"/>
<path d="M94.7547 61.668C94.7547 61.668 89.2106 63.7954 89.7436 65.891C90.2766 67.9865 94.7274 73.116 97.5609 72.6742C100.394 72.2323 103.857 69.7632 103.857 69.7632" fill="#CBE3FF"/>
<path d="M92.5585 42.2188C92.5585 42.2188 87.2011 43.5535 86.6362 46.6376C86.0714 49.7217 85.9347 55.407 93.5424 53.1976C101.15 50.9882 97.5559 45.2755 97.5559 45.2755" fill="#A5C2CC"/>
<path d="M105.529 54.5011C105.529 54.5011 116.494 62.0268 117.91 65.858C119.327 69.6892 120.252 84.7863 120.252 84.7863C120.252 84.7863 116.416 87.1689 111.952 85.7657L108.59 68.6597C108.59 68.6597 100.618 65.2521 99.2145 60.9973C97.8114 56.7424 99.702 48.793 99.702 48.793" fill="#895851"/>
<path d="M99.3836 58.8884C99.3836 58.8884 110.353 66.4324 111.766 70.2773C113.178 74.1222 114.089 89.1965 114.089 89.1965C114.089 89.1965 110.253 91.579 105.789 90.1759L102.427 73.0698C102.427 73.0698 94.4545 69.6623 93.0514 65.4074C91.6483 61.1525 93.5389 53.2031 93.5389 53.2031" fill="#895851"/>
<path d="M95.0285 59.0664C93.1562 54.5109 91.4661 41.2998 92.5958 39.8648C93.9215 38.161 101.456 35.3822 101.456 35.3822C102.345 35.1415 103.279 35.1237 104.176 35.3303C105.073 35.5369 105.906 35.9615 106.6 36.5666C108.422 38.12 107.142 50.1786 106.6 56.2283C103.406 59.1712 99.625 59.8955 95.0285 59.0664Z" fill="#FFFFF2"/>
<path d="M102.886 60.4243C104.859 62.3968 106.986 64.2919 108.808 66.392C110.403 68.2143 111.032 70.5285 111.651 72.8245C113.095 78.1681 113.738 83.6803 114.384 89.1652C114.425 89.4977 113.902 89.4932 113.865 89.1652C113.25 83.8899 112.626 78.5918 111.287 73.4395C110.626 70.9157 109.97 68.401 108.162 66.4376C106.353 64.4742 104.408 62.6656 102.531 60.7887C102.497 60.7392 102.482 60.6795 102.487 60.6199C102.492 60.5602 102.518 60.5041 102.56 60.4612C102.601 60.4183 102.657 60.3912 102.716 60.3845C102.776 60.3777 102.836 60.3918 102.886 60.4243Z" fill="#5C2D1D"/>
<path d="M107.069 59.8008C107.069 59.8008 112.389 61.0809 112.212 61.5592C112.034 62.0376 110.289 61.5592 110.289 61.5592C110.289 61.5592 113.856 63.0489 113.127 64.5249C112.672 65.4815 109.269 64.8301 108.349 64.5249C107.428 64.2197 104.923 61.7916 104.923 61.7916L107.069 59.8008Z" fill="#FFD8C6"/>
<path d="M97.5795 45.28C97.5795 45.28 98.723 53.562 99.5931 54.6781C100.463 55.7942 109.479 59.7667 109.479 59.7667C109.479 59.7667 106.536 61.0878 106.604 64.2129C106.604 64.2129 95.2517 61.3793 94.131 58.7736C93.0103 56.1678 89.703 43.0478 92.6003 39.8635C95.4977 36.6792 97.5795 45.28 97.5795 45.28Z" fill="#FFFFF2"/>
<path d="M104.272 35.3505C104.272 35.3505 105.839 38.9949 102.45 40.3616C99.0602 41.7283 95.311 38.0246 95.311 38.0246C95.311 38.0246 100.349 34.8494 104.272 35.3505Z" fill="#9DBB60"/>
<path d="M98.4264 36.5168L97.1235 37.0498L100.718 39.7056L101.374 38.4711L103.246 38.8173C103.246 38.8173 102.864 35.5646 102.791 35.4918C102.718 35.4189 98.4264 36.5168 98.4264 36.5168Z" fill="#67862A"/>
<path d="M94.3036 30.1344C94.6817 28.458 96.0165 27.8566 97.5244 27.8566C97.8012 27.5521 98.1336 27.3031 98.5038 27.1232C99.6518 26.5765 101.237 26.6357 102.194 27.4967C102.576 27.3642 102.985 27.3312 103.383 27.4011C104.567 27.6243 104.945 28.7677 104.909 29.8201C104.909 29.8611 104.909 29.9021 104.909 29.9476C105.178 31.7698 103.592 32.8905 103.592 32.8905L98.5813 36.9039C97.8949 36.6957 97.2737 36.3145 96.7773 35.7969C96.6076 35.5913 96.4765 35.3567 96.39 35.1045C96.3417 35.0785 96.296 35.048 96.2534 35.0134C94.8366 33.8654 93.889 31.9703 94.3036 30.1344Z" fill="#895851"/>
<path d="M103.41 31.4148C103.41 32.0435 103.606 37.9657 100.932 38.0386C98.2579 38.1115 97.2876 34.3486 97.2876 34.3486C97.2876 34.3486 99.4834 33.2188 99.4834 32.3032C99.4834 31.3875 99.3057 31.023 100.394 30.5493C101.483 30.0755 103.433 30.3625 103.41 31.4148Z" fill="#FFE0CE"/>
<path d="M98.2354 44.6545C98.3447 46.2307 98.4495 47.8115 98.577 49.3877C98.7228 51.1507 98.9552 52.8545 100.048 54.3031C101.921 56.7859 105.028 57.7198 107.884 58.5626C107.944 58.5789 107.996 58.6185 108.027 58.6728C108.058 58.727 108.067 58.7914 108.05 58.8518C108.034 58.9122 107.994 58.9637 107.94 58.9949C107.886 59.0261 107.821 59.0344 107.761 59.0181C104.814 58.148 101.62 57.164 99.684 54.5992C98.8508 53.4287 98.3502 52.0544 98.2354 50.6222C97.9985 48.6497 97.9165 46.6498 97.7798 44.6682C97.7616 44.3629 98.2172 44.3629 98.2354 44.6545Z" fill="#B6BBBF"/>
<path d="M106.453 44.0368L106.836 55.9769C106.836 56.2684 106.38 56.2684 106.38 55.9769L105.998 44.0368C105.989 43.7407 106.444 43.7452 106.453 44.0368Z" fill="#B6BBBF"/>
<path d="M94.6636 65.1641L88.8052 99.0391C89.238 101.135 90.8871 99.4354 90.8871 99.4354L97.7204 66.5034C96.6277 66.249 95.5914 65.7949 94.6636 65.1641Z" fill="#FFC358"/>
<path d="M144.679 91.6888C144.679 91.6888 138.005 67.3986 135.326 57.6953C134.577 58.63 133.665 59.4217 132.634 60.0323L142.487 92.9552C145.089 92.7229 144.679 91.6888 144.679 91.6888Z" fill="#FFC358"/>
<path d="M107.091 67.1744C106.84 67.6299 107.674 107.532 107.674 107.532C107.674 107.532 108.745 109.354 109.852 107.532L110.444 65.2383" fill="#FFC358"/>
<path d="M95.9845 63.351C99.5924 65.0387 102.95 67.2172 105.961 69.8244C115.941 66.3421 126.106 63.4175 136.41 61.0641C136.925 60.9457 137.144 61.6518 136.629 61.7702C126.367 64.1116 116.243 67.0195 106.303 70.4804C106.248 70.5588 106.171 70.6181 106.081 70.6499C105.991 70.6818 105.893 70.6847 105.802 70.6581L105.023 70.936L105.729 75.036C105.806 75.4915 105.014 75.692 104.932 75.2319L104.239 71.223C103.692 71.4143 103.146 71.6056 102.599 71.8061C102.553 71.8204 102.504 71.8255 102.456 71.8211C102.407 71.8166 102.36 71.8026 102.317 71.78C102.274 71.7574 102.236 71.7265 102.205 71.6891C102.174 71.6518 102.151 71.6087 102.137 71.5624C102.122 71.516 102.117 71.4673 102.122 71.4189C102.126 71.3706 102.14 71.3236 102.163 71.2807C102.185 71.2378 102.216 71.1997 102.254 71.1687C102.291 71.1377 102.334 71.1143 102.38 71.1C103.292 70.7674 104.203 70.4485 105.114 70.1251C102.213 67.663 98.9956 65.6007 95.5471 63.9933C95.0961 63.761 95.5152 63.1323 95.9845 63.351Z" fill="#659AC6"/>
<path d="M94.6546 64.6846L98.864 69.3905C99.192 69.7549 98.6088 70.2742 98.2808 69.9052L94.0715 65.1994C93.7435 64.8395 94.3266 64.3156 94.6546 64.6846Z" fill="#659AC6"/>
<path d="M141.235 56.9805V62.3742L107.442 79.535L88.8008 70.0367V65.6314" fill="#8EA9B3"/>
<path d="M107.437 74.6627L88.8052 65.5516L121.933 47.2656C121.933 47.2656 140.98 57.1193 141.235 56.9644L107.437 74.6627Z" fill="#A5C2CC"/>
<path d="M113.127 59.4961V69.3087C113.127 69.3087 103.692 69.8326 103.692 69.3087V59.4961" fill="#FFFFF2"/>
<path d="M108.412 71.3799C111.016 71.3799 113.127 70.4151 113.127 69.2251C113.127 68.035 111.016 67.0703 108.412 67.0703C105.808 67.0703 103.697 68.035 103.697 69.2251C103.697 70.4151 105.808 71.3799 108.412 71.3799Z" fill="#FFFFF2"/>
<path d="M108.412 61.6494C111.016 61.6494 113.127 60.6847 113.127 59.4946C113.127 58.3046 111.016 57.3398 108.412 57.3398C105.808 57.3398 103.697 58.3046 103.697 59.4946C103.697 60.6847 105.808 61.6494 108.412 61.6494Z" fill="#A0A094"/>
<path d="M111.355 61.1701H111.323C111.141 61.2339 110.959 61.2886 110.772 61.3387L112.057 50.5922C112.167 50.5506 112.286 50.5401 112.402 50.5618C112.518 50.5835 112.625 50.6365 112.713 50.7152L111.392 61.1701H111.355Z" fill="#F78B72"/>
<path d="M109.888 61.5005L109.487 51.4145C109.588 51.3529 109.704 51.3203 109.822 51.3203C109.94 51.3203 110.056 51.3529 110.157 51.4145L110.485 61.4002C110.288 61.445 110.089 61.4785 109.888 61.5005Z" fill="#F78B72"/>
<path d="M108.413 61.6496L107.114 51.1445L104.49 52.5112L105.552 61.3444C106.479 61.6177 107.448 61.7211 108.413 61.6496Z" fill="#FCB749"/>
<path d="M126.097 61.2139L132.634 57.3918V55.4648L126.087 59.2459L126.097 61.2139Z" fill="#1E7D9E"/>
<path d="M117.19 54.082V56.0227C117.19 56.0227 126.115 61.257 126.097 61.2115C126.078 61.1659 126.097 59.2435 126.097 59.2435L117.19 54.082Z" fill="#074960"/>
<path d="M117.19 54.0832L126.087 59.2446L132.634 55.4635L123.823 50.293L117.19 54.0832Z" fill="#06577A"/>
<path d="M131.212 54.6295L132.174 54.4609L131.103 56.3469L131.212 54.6295Z" fill="#1E7D9E"/>
<path d="M131.103 56.3471L132.634 55.4633L131.868 54.9258L131.103 56.3471Z" fill="#074960"/>
<path d="M126.097 58.7068L132.634 54.8801V52.9531L126.087 56.7342L126.097 58.7068Z" fill="#1E7D9E"/>
<path d="M117.19 51.5742V53.5149C117.19 53.5149 126.115 58.7492 126.097 58.7036C126.078 58.6581 126.097 56.7356 126.097 56.7356L117.19 51.5742Z" fill="#074960"/>
<path d="M117.19 51.5799L126.087 56.7368L132.634 52.9557L123.823 47.7852L117.19 51.5799Z" fill="#06577A"/>
<path d="M131.212 52.121L132.174 51.957L131.103 53.8385L131.212 52.121Z" fill="#1E7D9E"/>
<path d="M131.103 53.8347L132.634 52.951L131.868 52.418L131.103 53.8347Z" fill="#074960"/>
</g>
<defs>
<linearGradient id="paint0_linear_2049_1752" x1="100" y1="8.18959" x2="100" y2="663" gradientUnits="userSpaceOnUse">
<stop stop-color="#FFFFF2"/>
</linearGradient>
<linearGradient id="paint1_linear_2049_1752" x1="100" y1="8.18959" x2="100" y2="663" gradientUnits="userSpaceOnUse">
<stop stop-color="#FFFFF2"/>
</linearGradient>
<linearGradient id="paint2_linear_2049_1752" x1="100.313" y1="182.137" x2="42.8547" y2="0.267741" gradientUnits="userSpaceOnUse">
<stop offset="0.48" stop-color="#092A35"/>
<stop offset="1" stop-color="#1A7B9B"/>
</linearGradient>
<linearGradient id="paint3_linear_2049_1752" x1="94.0001" y1="36.0839" x2="94.0001" y2="758" gradientUnits="userSpaceOnUse">
<stop stop-color="#FFFFF2"/>
</linearGradient>
<linearGradient id="paint4_linear_2049_1752" x1="117.313" y1="182.137" x2="59.8547" y2="0.267741" gradientUnits="userSpaceOnUse">
<stop offset="0.48" stop-color="#092A35"/>
<stop offset="1" stop-color="#1A7B9B"/>
</linearGradient>
<clipPath id="clip0_2049_1752">
<rect width="1556" height="4011" fill="white" transform="translate(-684 -2977)"/>
</clipPath>
</defs>
</svg>
