<svg width="182" height="130" viewBox="0 0 182 130" fill="none" xmlns="http://www.w3.org/2000/svg">
<g clip-path="url(#clip0_2049_1752)">
<rect width="1556" height="4011" transform="translate(-675 -3295)" fill="white"/>
<path d="M-670 -582H888V345H-670V-582Z" fill="url(#paint0_linear_2049_1752)"/>
<path fill-rule="evenodd" clip-rule="evenodd" d="M15.9138 66.1949C17.3686 66.6105 18.8874 66.9846 20.4703 67.317C22.0925 67.652 23.778 67.9529 25.5266 68.2198C27.3145 68.4893 29.1647 68.7324 31.0773 68.9489C32.9917 69.1503 34.9479 69.3316 36.9459 69.4927C38.985 69.6412 41.0667 69.7619 43.1912 69.8549C45.3532 69.9657 47.5392 70.0399 49.7492 70.0774C51.9575 70.1301 54.2076 70.1626 56.4995 70.175C58.7914 70.1873 61.1057 70.1782 63.4421 70.1477C65.7785 70.1172 68.1364 70.0728 70.5155 70.0145C72.8572 69.9385 75.2193 69.8563 77.6019 69.7677C79.9846 69.6791 82.369 69.5754 84.7551 69.4565C87.1412 69.3376 89.5086 69.2099 91.8572 69.0734C94.2059 68.9368 96.5153 68.7977 98.7854 68.6559C101.097 68.5016 103.388 68.346 105.66 68.1891C107.894 68.0145 110.089 67.845 112.243 67.6804C114.438 67.5032 116.574 67.3223 118.651 67.1375C120.768 66.9551 122.826 66.769 124.825 66.5791C126.865 66.3765 128.846 66.1701 130.768 65.9598C132.69 65.7496 134.574 65.5292 136.419 65.2987C138.225 65.0656 139.993 64.8223 141.723 64.5689C143.45 64.3307 145.121 64.0735 146.734 63.7972C148.385 63.5388 149.959 63.26 151.457 62.9609C152.952 62.6771 154.391 62.3741 155.772 62.0522C157.191 61.748 158.514 61.4222 159.74 61.0749C161.004 60.7453 162.21 60.3966 163.36 60.029C164.47 59.6589 165.522 59.2773 166.516 58.8843C167.51 58.4913 168.427 58.0856 169.266 57.6672C170.107 57.2336 170.87 56.7873 171.555 56.3283C172.241 55.8693 172.868 55.3989 173.438 54.9171C173.968 54.4326 174.441 53.9293 174.857 53.4069C175.234 52.882 175.552 52.3455 175.813 51.7977C176.074 51.2499 176.277 50.6907 176.421 50.1201C176.566 49.5494 176.633 48.9661 176.623 48.37C176.651 47.7766 176.622 47.1716 176.535 46.5553C176.448 45.939 176.302 45.3112 176.099 44.672C175.896 44.0328 175.654 43.3835 175.374 42.7241C175.055 42.062 174.716 41.3987 174.357 40.7341C173.96 40.0669 173.524 39.3896 173.049 38.7022C172.614 38.0173 172.121 37.321 171.569 36.6133C171.056 35.9233 170.484 35.2219 169.854 34.509C169.264 33.7988 168.654 33.0872 168.024 32.3744C167.355 31.6589 166.666 30.9423 165.958 30.2243C165.289 29.5089 164.581 28.791 163.833 28.0704C163.086 27.3499 162.319 26.628 161.532 25.9049C160.745 25.1818 159.938 24.465 159.11 23.7545C158.322 23.0465 157.493 22.3511 156.622 21.6684C155.753 20.9705 154.863 20.2864 153.952 19.6162C153.042 18.9308 152.11 18.2669 151.156 17.6245C150.241 16.9846 149.285 16.3573 148.288 15.7426C147.29 15.143 146.27 14.5573 145.228 13.9855C144.226 13.4163 143.182 12.8672 142.096 12.3383C141.009 11.8245 139.92 11.3259 138.829 10.8423C137.696 10.3715 136.561 9.93091 135.422 9.52063C134.244 9.10779 133.061 8.73291 131.874 8.39581C130.689 8.04358 129.479 7.72791 128.246 7.44885C126.972 7.18243 125.694 6.94623 124.413 6.74042C123.13 6.54974 121.823 6.39569 120.493 6.2782C119.162 6.16071 117.826 6.08105 116.487 6.03931C115.106 6.01019 113.722 6.01129 112.335 6.04279C110.908 6.07166 109.477 6.13849 108.041 6.24316C106.607 6.33264 105.169 6.46002 103.727 6.62524C102.245 6.78796 100.761 6.97345 99.2737 7.18158C97.7868 7.38977 96.2972 7.62061 94.805 7.87421C93.311 8.14294 91.7958 8.4256 90.2591 8.72211C88.7242 9.00348 87.1857 9.31519 85.6439 9.6571C84.1429 9.98651 82.6215 10.3221 81.0797 10.6641C79.536 11.0212 77.9915 11.3859 76.4461 11.7582C74.899 12.1456 73.3519 12.533 71.8047 12.9204C70.2576 13.3078 68.7105 13.6953 67.1634 14.0827C65.6555 14.4727 64.1271 14.8689 62.5782 15.2715C61.0704 15.6614 59.5428 16.0502 57.9957 16.4376C56.4879 16.8276 54.9809 17.21 53.4747 17.5848C52.0078 17.9622 50.5214 18.3383 49.0152 18.7131C47.5483 19.0905 46.1011 19.4692 44.6734 19.8492C43.2065 20.2266 41.7789 20.6065 40.3904 20.9891C38.9628 21.369 37.5745 21.7515 36.2253 22.1366C34.8351 22.5342 33.4842 22.9346 32.1725 23.3373C30.8609 23.7402 29.5689 24.1442 28.2965 24.5496C27.0223 24.97 25.767 25.3995 24.5303 25.8377C23.3329 26.2785 22.1534 26.7357 20.9918 27.2094C19.8318 27.6679 18.7095 28.1442 17.6246 28.6381C16.5414 29.1169 15.4949 29.621 14.485 30.1504C13.4752 30.6797 12.5036 31.2192 11.5705 31.7689C10.6356 32.3337 9.73828 32.9163 8.87842 33.5165C8.0578 34.1194 7.27466 34.7399 6.52905 35.3781C5.7442 36.0138 5.03516 36.6774 4.40204 37.3688C3.72968 38.0576 3.1145 38.7654 2.5564 39.4922C2.00006 40.2039 1.49988 40.9421 1.05603 41.707C0.613892 42.4566 0.230713 43.2101 -0.093689 43.9675C-0.4198 44.7401 -0.687012 45.5164 -0.895386 46.2966C-1.06451 47.0794 -1.1936 47.8572 -1.28247 48.6299C-1.33209 49.4053 -1.32288 50.1844 -1.25476 50.9674C-1.18494 51.7352 -1.05542 52.4994 -0.866089 53.2598C-0.635803 54.0076 -0.326111 54.7529 0.0629272 55.4958C0.414429 56.2211 0.846191 56.9363 1.35822 57.6414C1.91119 58.334 2.52478 59.0152 3.19897 59.6852C3.91418 60.3425 4.71136 60.9747 5.59052 61.5818C6.46967 62.1888 7.43164 62.7631 8.4765 63.3046C9.51959 63.8613 10.6661 64.3788 11.9159 64.8574C13.1657 65.336 14.4983 65.7818 15.9138 66.1949Z" fill="url(#paint1_linear_2049_1752)"/>
<path fill-rule="evenodd" clip-rule="evenodd" d="M10.9138 110.062C12.3686 110.614 13.8874 111.11 15.4704 111.551C17.0925 111.996 18.7779 112.395 20.5266 112.749C22.3145 113.107 24.1647 113.429 26.0773 113.717C27.9916 113.984 29.9479 114.224 31.9459 114.438C33.985 114.635 36.0667 114.795 38.1912 114.919C40.3533 115.066 42.5393 115.164 44.7492 115.214C46.9575 115.284 49.2076 115.327 51.4995 115.343C53.7915 115.36 56.1057 115.348 58.4421 115.307C60.7785 115.267 63.1363 115.208 65.5155 115.131C67.8571 115.03 70.2193 114.921 72.6019 114.803C74.9846 114.686 77.369 114.548 79.7551 114.39C82.1413 114.232 84.5086 114.063 86.8573 113.882C89.2059 113.701 91.5153 113.516 93.7854 113.328C96.0965 113.123 98.3881 112.917 100.66 112.709C102.894 112.477 105.089 112.252 107.243 112.034C109.438 111.798 111.574 111.558 113.652 111.313C115.768 111.071 117.826 110.824 119.825 110.572C121.865 110.303 123.846 110.03 125.768 109.751C127.69 109.472 129.574 109.179 131.419 108.873C133.225 108.564 134.993 108.241 136.723 107.905C138.45 107.589 140.121 107.248 141.734 106.881C143.385 106.538 144.959 106.168 146.457 105.771C147.952 105.395 149.391 104.993 150.772 104.566C152.191 104.162 153.514 103.73 154.74 103.269C156.004 102.832 157.21 102.369 158.36 101.881C159.47 101.39 160.522 100.884 161.516 100.362C162.511 99.8408 163.427 99.3025 164.266 98.7473C165.107 98.172 165.87 97.5798 166.555 96.9708C167.241 96.3618 167.868 95.7377 168.438 95.0983C168.968 94.4556 169.441 93.7877 169.857 93.0945C170.234 92.398 170.552 91.6863 170.813 90.9594C171.074 90.2326 171.277 89.4906 171.421 88.7334C171.566 87.9762 171.633 87.2022 171.623 86.4113C171.651 85.6238 171.622 84.8212 171.535 84.0034C171.448 83.1856 171.302 82.3527 171.099 81.5046C170.896 80.6565 170.654 79.7949 170.374 78.9199C170.055 78.0415 169.716 77.1613 169.357 76.2795C168.96 75.3943 168.524 74.4956 168.049 73.5835C167.614 72.6747 167.121 71.7509 166.569 70.8118C166.056 69.8963 165.484 68.9656 164.854 68.0197C164.264 67.0773 163.654 66.1331 163.024 65.1873C162.355 64.238 161.666 63.2871 160.958 62.3344C160.289 61.3852 159.581 60.4325 158.833 59.4765C158.086 58.5204 157.319 57.5627 156.532 56.6032C155.745 55.6437 154.938 54.6926 154.11 53.7499C153.322 52.8105 152.493 51.8879 151.622 50.9819C150.753 50.0559 149.863 49.1482 148.952 48.259C148.042 47.3496 147.11 46.4687 146.156 45.6163C145.241 44.7672 144.285 43.9349 143.288 43.1193C142.29 42.3237 141.27 41.5466 140.228 40.7879C139.226 40.0326 138.182 39.304 137.097 38.6022C136.009 37.9205 134.92 37.2589 133.829 36.6174C132.696 35.9926 131.561 35.408 130.422 34.8636C129.244 34.3158 128.061 33.8183 126.874 33.3711C125.689 32.9037 124.479 32.4849 123.246 32.1146C121.972 31.7611 120.694 31.4478 119.413 31.1746C118.13 30.9216 116.823 30.7172 115.493 30.5613C114.162 30.4054 112.826 30.2997 111.487 30.2444C110.106 30.2057 108.722 30.2072 107.335 30.249C105.908 30.2873 104.477 30.3759 103.041 30.5148C101.607 30.6336 100.169 30.8026 98.7268 31.0219C97.245 31.2377 95.7607 31.4838 94.2737 31.76C92.7868 32.0362 91.2972 32.3425 89.805 32.679C88.3111 33.0356 86.7958 33.4107 85.2591 33.8041C83.7242 34.1774 82.1858 34.5909 80.6439 35.0447C79.143 35.4817 77.6215 35.9271 76.0797 36.3808C74.536 36.8546 72.9915 37.3385 71.4461 37.8325C69.899 38.3465 68.3519 38.8606 66.8048 39.3746C65.2576 39.8887 63.7105 40.4027 62.1634 40.9168C60.6555 41.4342 59.1271 41.96 57.5783 42.4942C56.0704 43.0116 54.5429 43.5274 52.9957 44.0414C51.4879 44.5589 49.9809 45.0663 48.4747 45.5636C47.0078 46.0644 45.5213 46.5634 44.0152 47.0608C42.5483 47.5615 41.101 48.064 39.6734 48.5681C38.2065 49.0689 36.7788 49.573 35.3904 50.0806C33.9628 50.5847 32.5744 51.0923 31.2253 51.6032C29.8351 52.1309 28.4842 52.6619 27.1726 53.1964C25.8609 53.7309 24.5689 54.267 23.2965 54.8049C22.0223 55.3629 20.767 55.9326 19.5303 56.5141C18.3329 57.0989 17.1534 57.7056 15.9918 58.3341C14.8319 58.9425 13.7095 59.5744 12.6246 60.2298C11.5414 60.8651 10.4949 61.534 9.48504 62.2364C8.47516 62.9388 7.50366 63.6547 6.57052 64.384C5.63564 65.1334 4.73827 65.9064 3.87841 66.7028C3.05778 67.5027 2.27466 68.326 1.52903 69.1729C0.744166 70.0163 0.0351744 70.8968 -0.597945 71.8141C-1.2703 72.7281 -1.88551 73.6673 -2.44362 74.6317C-2.99998 75.576 -3.5001 76.5555 -3.94395 77.5704C-4.38606 78.5651 -4.76929 79.5649 -5.09366 80.5698C-5.41978 81.5948 -5.68703 82.625 -5.89541 83.6602C-6.06453 84.6988 -6.19355 85.7308 -6.28244 86.7561C-6.33209 87.7849 -6.32287 88.8187 -6.25478 89.8577C-6.18496 90.8765 -6.05538 91.8904 -5.86607 92.8993C-5.63576 93.8916 -5.32609 94.8806 -4.93707 95.8663C-4.58555 96.8285 -4.15378 97.7775 -3.64179 98.7131C-3.0888 99.6321 -2.47521 100.536 -1.801 101.425C-1.08581 102.297 -0.28863 103.136 0.590521 103.941C1.46967 104.747 2.43167 105.509 3.47652 106.227C4.51962 106.966 5.66609 107.653 6.9159 108.288C8.16569 108.923 9.49833 109.514 10.9138 110.062Z" fill="url(#paint2_linear_2049_1752)"/>
<path d="M138.036 21.0938L34.5029 44.0948V74.6087L74.9377 98.8908L138.036 61.9042V21.0938Z" fill="#CFEE91"/>
<path opacity="0.81" d="M138.402 21.0391L74.3309 65.1051L34.5029 44.0979L64.5353 27.7236" fill="#1E5534"/>
<path d="M27 37.8438L65.1809 59.8913C76.8447 58.028 88.0761 54.0732 98.334 48.2174C115.421 38.4603 139 20.3234 139 20.3234L103.892 0L54.2391 29.3196C54.2391 29.3196 40.4847 36.0138 27 37.8438Z" fill="#CFEE91"/>
<path d="M31.3452 38.4824L65.8564 58.4494C76.9033 56.0121 87.5385 51.9858 97.4298 46.4962C112.841 37.6829 134.147 21.2894 134.147 21.2894L102.4 2.88281L57.5152 29.3802C49.1294 33.3094 40.3593 36.3597 31.3452 38.4824Z" stroke="#36723E" stroke-miterlimit="10"/>
<path opacity="0.54" d="M74.332 65.103V98.8918L138.038 61.9052L138.962 20.3242L74.332 65.103Z" fill="#3099AA"/>
<path opacity="0.5" d="M77.7607 22.5892L101.388 7.91016L127.211 21.5779C127.211 21.5779 100.242 37.8943 98.2093 39.0309C96.1769 40.1675 73.7442 52.5156 63.91 51.9762L41.4194 39.4547L77.7607 22.5892Z" fill="white"/>
<path opacity="0.54" d="M85.4952 43.0752C96.7407 43.0752 105.857 38.6809 105.857 33.2602C105.857 27.8396 96.7407 23.4453 85.4952 23.4453C74.2496 23.4453 65.1333 27.8396 65.1333 33.2602C65.1333 38.6809 74.2496 43.0752 85.4952 43.0752Z" fill="#12582F"/>
<path opacity="0.68" d="M34.5029 50.5073C41.2067 54.1032 47.8913 57.7313 54.5566 61.3914C61.2219 65.0515 67.8808 68.7245 74.5332 72.4103H74.1094L90.0213 61.9886L105.981 51.7017L121.98 41.4244C127.323 38.0019 132.675 34.5922 138.036 31.1953C132.79 34.7527 127.528 38.2844 122.25 41.7904L106.396 52.2988L90.4933 62.7302L74.5525 73.1134L74.3502 73.2483L74.1383 73.1327C67.4987 69.4148 60.8655 65.6648 54.2387 61.8826C47.612 58.1005 41.0334 54.3087 34.5029 50.5073Z" fill="#437B51"/>
<path opacity="0.68" d="M34.5029 58.5149C41.2067 62.1108 47.8913 65.7388 54.5566 69.3989C61.2219 73.0591 67.8808 76.732 74.5332 80.4179H74.1094L90.0213 70.0057L105.981 59.6514L121.98 49.3742C127.316 45.9645 132.668 42.5676 138.036 39.1836C132.79 42.741 127.528 46.2727 122.25 49.7787L106.396 60.2871L90.4933 70.7185L74.5525 81.121L74.3502 81.2558L74.1383 81.1402C67.4987 77.4223 60.8655 73.6723 54.2387 69.8902C47.612 66.108 41.0334 62.3163 34.5029 58.5149Z" fill="#437B51"/>
<path opacity="0.68" d="M34.6865 64.632C41.3903 68.228 48.0749 71.856 54.7402 75.5161C61.4055 79.1763 68.0643 82.8492 74.7168 86.535H74.293L90.2049 76.1133L106.165 65.759L122.164 55.4817C127.506 52.0656 132.861 48.672 138.23 45.3008C132.983 48.8582 127.721 52.3899 122.443 55.8959L106.589 66.4043L90.6865 76.8357L74.7361 87.2382L74.5338 87.373L74.3219 87.2574C67.6887 83.5395 61.0716 79.7927 54.4705 76.017C47.8694 72.2413 41.2748 68.4463 34.6865 64.632Z" fill="#437B51"/>
<path opacity="0.68" d="M34.5029 70.6125C41.2067 74.2084 47.8913 77.8365 54.5566 81.4966C61.2219 85.1567 67.8808 88.8297 74.5332 92.5155H74.1094L90.0213 82.0938L105.981 71.7395L121.98 61.4622C127.323 58.0461 132.678 54.6524 138.046 51.2812C132.8 54.8386 127.538 58.3703 122.259 61.8764L106.396 72.4137L90.4933 82.8451L74.5525 93.2187L74.3502 93.3535L74.1383 93.2379C67.4987 89.52 60.8655 85.7732 54.2387 81.9975C47.612 78.2217 41.0334 74.4268 34.5029 70.6125Z" fill="#437B51"/>
<path d="M58.439 26.8151L98.3344 48.2076V85.1749L113.36 76.2365V38.2578L74.3316 17.4336L58.439 26.8151Z" fill="#A5C2CC"/>
<path opacity="0.54" d="M74.1958 65.0054V98.7942L137.901 61.8076L138.826 20.2266L74.1958 65.0054Z" fill="#42754F"/>
<path d="M98.335 48.2076L113.361 38.2578V76.2365L98.335 85.1749V48.2076Z" fill="#3E6370"/>
<path d="M124.235 21.9219C124.235 21.9219 124.678 28.8087 119.322 29.2325C119.322 29.2325 123.859 31.1589 124.61 34.7131C124.61 34.7131 125.169 29.6852 129.773 29.1651C128.144 28.8038 126.696 27.879 125.682 26.5538C124.669 25.2286 124.156 23.5882 124.235 21.9219Z" fill="white"/>
<path d="M-675 -582H881V440H-675V-582Z" fill="url(#paint3_linear_2049_1752)"/>
<path fill-rule="evenodd" clip-rule="evenodd" d="M18.9138 110.062C20.3686 110.614 21.8874 111.11 23.4704 111.551C25.0925 111.996 26.778 112.395 28.5266 112.749C30.3145 113.107 32.1647 113.429 34.0773 113.717C35.9916 113.984 37.9479 114.224 39.9459 114.438C41.985 114.635 44.0667 114.795 46.1912 114.919C48.3533 115.066 50.5393 115.164 52.7492 115.214C54.9575 115.284 57.2076 115.327 59.4995 115.343C61.7915 115.36 64.1057 115.348 66.4421 115.307C68.7785 115.267 71.1363 115.208 73.5155 115.131C75.8571 115.03 78.2193 114.921 80.6019 114.803C82.9846 114.686 85.369 114.548 87.7551 114.39C90.1413 114.232 92.5086 114.063 94.8573 113.882C97.2059 113.701 99.5153 113.516 101.785 113.328C104.097 113.123 106.388 112.917 108.66 112.709C110.894 112.477 113.089 112.252 115.243 112.034C117.438 111.798 119.574 111.558 121.652 111.313C123.768 111.071 125.826 110.824 127.825 110.572C129.865 110.303 131.846 110.03 133.768 109.751C135.69 109.472 137.574 109.179 139.419 108.873C141.225 108.564 142.993 108.241 144.723 107.905C146.45 107.589 148.121 107.248 149.734 106.881C151.385 106.538 152.959 106.168 154.457 105.771C155.952 105.395 157.391 104.993 158.772 104.566C160.191 104.162 161.514 103.73 162.74 103.269C164.004 102.832 165.21 102.369 166.36 101.881C167.47 101.39 168.522 100.884 169.516 100.362C170.511 99.8408 171.427 99.3025 172.266 98.7473C173.107 98.172 173.87 97.5798 174.555 96.9708C175.241 96.3618 175.868 95.7377 176.438 95.0983C176.968 94.4556 177.441 93.7877 177.857 93.0945C178.234 92.398 178.552 91.6863 178.813 90.9594C179.074 90.2326 179.277 89.4906 179.421 88.7334C179.566 87.9762 179.633 87.2022 179.623 86.4113C179.651 85.6238 179.622 84.8212 179.535 84.0034C179.448 83.1856 179.302 82.3527 179.099 81.5046C178.896 80.6565 178.654 79.7949 178.374 78.9199C178.055 78.0415 177.716 77.1613 177.357 76.2795C176.96 75.3943 176.524 74.4956 176.049 73.5835C175.614 72.6747 175.121 71.7509 174.569 70.8118C174.056 69.8963 173.484 68.9656 172.854 68.0197C172.264 67.0773 171.654 66.1331 171.024 65.1873C170.355 64.238 169.666 63.2871 168.958 62.3344C168.289 61.3852 167.581 60.4325 166.833 59.4765C166.086 58.5204 165.319 57.5627 164.532 56.6032C163.745 55.6437 162.938 54.6926 162.11 53.7499C161.322 52.8105 160.493 51.8879 159.622 50.9819C158.753 50.0559 157.863 49.1482 156.952 48.259C156.042 47.3496 155.11 46.4687 154.156 45.6163C153.241 44.7672 152.285 43.9349 151.288 43.1193C150.29 42.3237 149.27 41.5466 148.228 40.7879C147.226 40.0326 146.182 39.304 145.097 38.6022C144.009 37.9205 142.92 37.2589 141.829 36.6174C140.696 35.9926 139.561 35.408 138.422 34.8636C137.244 34.3158 136.061 33.8183 134.874 33.3711C133.689 32.9037 132.479 32.4849 131.246 32.1146C129.972 31.7611 128.694 31.4478 127.413 31.1746C126.13 30.9216 124.823 30.7172 123.493 30.5613C122.162 30.4054 120.826 30.2997 119.487 30.2444C118.106 30.2057 116.722 30.2072 115.335 30.249C113.908 30.2873 112.477 30.3759 111.041 30.5148C109.607 30.6336 108.169 30.8026 106.727 31.0219C105.245 31.2377 103.761 31.4838 102.274 31.76C100.787 32.0362 99.2972 32.3425 97.805 32.679C96.3111 33.0356 94.7958 33.4107 93.2591 33.8041C91.7242 34.1774 90.1857 34.5909 88.6439 35.0447C87.1429 35.4817 85.6215 35.9271 84.0797 36.3808C82.536 36.8546 80.9915 37.3385 79.4461 37.8325C77.899 38.3465 76.3519 38.8606 74.8048 39.3746C73.2576 39.8887 71.7105 40.4027 70.1634 40.9168C68.6555 41.4342 67.1271 41.96 65.5783 42.4942C64.0704 43.0116 62.5429 43.5274 60.9957 44.0414C59.4879 44.5589 57.9809 45.0663 56.4747 45.5636C55.0078 46.0644 53.5213 46.5634 52.0152 47.0608C50.5483 47.5615 49.101 48.064 47.6734 48.5681C46.2065 49.0688 44.7788 49.573 43.3904 50.0806C41.9628 50.5847 40.5744 51.0923 39.2253 51.6032C37.8351 52.1309 36.4842 52.6619 35.1726 53.1964C33.8609 53.7309 32.5689 54.267 31.2965 54.8049C30.0223 55.3629 28.767 55.9326 27.5303 56.5141C26.3329 57.0989 25.1534 57.7056 23.9918 58.3341C22.8319 58.9425 21.7095 59.5744 20.6246 60.2298C19.5414 60.8651 18.4949 61.534 17.485 62.2364C16.4752 62.9388 15.5037 63.6547 14.5705 64.384C13.6356 65.1334 12.7383 65.9064 11.8784 66.7028C11.0578 67.5026 10.2746 68.326 9.52903 69.1729C8.74417 70.0163 8.03516 70.8967 7.40206 71.8141C6.7297 72.7281 6.11448 73.6673 5.55638 74.6317C5.00002 75.576 4.4999 76.5555 4.05605 77.5704C3.61394 78.5651 3.23071 79.5649 2.90634 80.5698C2.58022 81.5948 2.31297 82.625 2.1046 83.6602C1.93547 84.6988 1.80645 85.7308 1.71756 86.7561C1.66791 87.7849 1.67713 88.8187 1.74522 89.8576C1.81506 90.8765 1.94461 91.8904 2.13393 92.8993C2.36422 93.8916 2.67391 94.8806 3.06293 95.8663C3.41445 96.8285 3.84622 97.7775 4.35821 98.7131C4.9112 99.6321 5.52479 100.536 6.199 101.425C6.91419 102.297 7.71137 103.136 8.59052 103.941C9.46967 104.747 10.4317 105.509 11.4765 106.227C12.5196 106.966 13.6661 107.653 14.9159 108.288C16.1657 108.923 17.4983 109.514 18.9138 110.062Z" fill="url(#paint4_linear_2049_1752)"/>
<path d="M146.036 21.0938L42.5029 44.0948V74.6087L82.9377 98.8908L146.036 61.9042V21.0938Z" fill="#CFEE91"/>
<path opacity="0.81" d="M146.402 21.0391L82.3309 65.1051L42.5029 44.0979L72.5353 27.7236" fill="#1E5534"/>
<path d="M35 37.8438L73.1809 59.8913C84.8447 58.028 96.0761 54.0732 106.334 48.2174C123.421 38.4603 147 20.3234 147 20.3234L111.892 0L62.2391 29.3196C62.2391 29.3196 48.4847 36.0138 35 37.8438Z" fill="#CFEE91"/>
<path d="M39.3452 38.4824L73.8564 58.4494C84.9033 56.0121 95.5385 51.9858 105.43 46.4962C120.841 37.6829 142.147 21.2894 142.147 21.2894L110.4 2.88281L65.5152 29.3802C57.1294 33.3094 48.3593 36.3597 39.3452 38.4824Z" stroke="#36723E" stroke-miterlimit="10"/>
<path opacity="0.54" d="M82.332 65.103V98.8918L146.038 61.9052L146.962 20.3242L82.332 65.103Z" fill="#3099AA"/>
<path opacity="0.5" d="M85.7607 22.5892L109.388 7.91016L135.211 21.5779C135.211 21.5779 108.242 37.8943 106.209 39.0309C104.177 40.1675 81.7442 52.5156 71.91 51.9762L49.4194 39.4547L85.7607 22.5892Z" fill="white"/>
<path opacity="0.54" d="M93.4952 43.0752C104.741 43.0752 113.857 38.6809 113.857 33.2602C113.857 27.8396 104.741 23.4453 93.4952 23.4453C82.2496 23.4453 73.1333 27.8396 73.1333 33.2602C73.1333 38.6809 82.2496 43.0752 93.4952 43.0752Z" fill="#12582F"/>
<path opacity="0.68" d="M42.5029 50.5073C49.2067 54.1032 55.8913 57.7313 62.5566 61.3914C69.2219 65.0515 75.8808 68.7245 82.5332 72.4103H82.1094L98.0213 61.9886L113.981 51.7017L129.98 41.4244C135.323 38.0019 140.675 34.5922 146.036 31.1953C140.79 34.7527 135.528 38.2844 130.25 41.7904L114.396 52.2988L98.4933 62.7302L82.5525 73.1134L82.3502 73.2483L82.1383 73.1327C75.4987 69.4148 68.8655 65.6648 62.2387 61.8826C55.612 58.1005 49.0334 54.3087 42.5029 50.5073Z" fill="#437B51"/>
<path opacity="0.68" d="M42.5029 58.5149C49.2067 62.1108 55.8913 65.7388 62.5566 69.3989C69.2219 73.0591 75.8808 76.732 82.5332 80.4179H82.1094L98.0213 70.0057L113.981 59.6514L129.98 49.3742C135.316 45.9645 140.668 42.5676 146.036 39.1836C140.79 42.741 135.528 46.2727 130.25 49.7787L114.396 60.2871L98.4933 70.7185L82.5525 81.121L82.3502 81.2558L82.1383 81.1402C75.4987 77.4223 68.8655 73.6723 62.2387 69.8902C55.612 66.108 49.0334 62.3163 42.5029 58.5149Z" fill="#437B51"/>
<path opacity="0.68" d="M42.6865 64.632C49.3903 68.228 56.0749 71.856 62.7402 75.5161C69.4055 79.1763 76.0643 82.8492 82.7168 86.535H82.293L98.2049 76.1133L114.165 65.759L130.164 55.4817C135.506 52.0656 140.861 48.672 146.23 45.3008C140.983 48.8582 135.721 52.3899 130.443 55.8959L114.589 66.4043L98.6865 76.8357L82.7361 87.2382L82.5338 87.373L82.3219 87.2574C75.6887 83.5395 69.0716 79.7927 62.4705 76.017C55.8694 72.2413 49.2748 68.4463 42.6865 64.632Z" fill="#437B51"/>
<path opacity="0.68" d="M42.5029 70.6125C49.2067 74.2084 55.8913 77.8365 62.5566 81.4966C69.2219 85.1567 75.8808 88.8297 82.5332 92.5155H82.1094L98.0213 82.0938L113.981 71.7395L129.98 61.4622C135.323 58.0461 140.678 54.6524 146.046 51.2812C140.8 54.8386 135.538 58.3703 130.259 61.8764L114.396 72.4137L98.4933 82.8451L82.5525 93.2187L82.3502 93.3535L82.1383 93.2379C75.4987 89.52 68.8655 85.7732 62.2387 81.9975C55.612 78.2217 49.0334 74.4268 42.5029 70.6125Z" fill="#437B51"/>
<path d="M66.439 26.8151L106.334 48.2076V85.1749L121.36 76.2365V38.2578L82.3316 17.4336L66.439 26.8151Z" fill="#A5C2CC"/>
<path opacity="0.54" d="M82.1958 65.0054V98.7942L145.901 61.8076L146.826 20.2266L82.1958 65.0054Z" fill="#42754F"/>
<path d="M106.335 48.2076L121.361 38.2578V76.2365L106.335 85.1749V48.2076Z" fill="#3E6370"/>
<path d="M132.235 21.9219C132.235 21.9219 132.678 28.8087 127.322 29.2325C127.322 29.2325 131.859 31.1589 132.61 34.7131C132.61 34.7131 133.169 29.6852 137.773 29.1651C136.144 28.8038 134.696 27.879 133.682 26.5538C132.669 25.2286 132.156 23.5882 132.235 21.9219Z" fill="white"/>
</g>
<defs>
<linearGradient id="paint0_linear_2049_1752" x1="109" y1="-309.81" x2="109" y2="345" gradientUnits="userSpaceOnUse">
<stop stop-color="#FFFFF2"/>
</linearGradient>
<linearGradient id="paint1_linear_2049_1752" x1="109" y1="-309.81" x2="109" y2="345" gradientUnits="userSpaceOnUse">
<stop stop-color="#FFFFF2"/>
</linearGradient>
<linearGradient id="paint2_linear_2049_1752" x1="108.933" y1="180.613" x2="51.4748" y2="-1.2557" gradientUnits="userSpaceOnUse">
<stop offset="0.48" stop-color="#092A35"/>
<stop offset="1" stop-color="#1A7B9B"/>
</linearGradient>
<linearGradient id="paint3_linear_2049_1752" x1="103" y1="-281.916" x2="103" y2="440" gradientUnits="userSpaceOnUse">
<stop stop-color="#FFFFF2"/>
</linearGradient>
<linearGradient id="paint4_linear_2049_1752" x1="116.933" y1="180.613" x2="59.4748" y2="-1.2557" gradientUnits="userSpaceOnUse">
<stop offset="0.48" stop-color="#092A35"/>
<stop offset="1" stop-color="#1A7B9B"/>
</linearGradient>
<clipPath id="clip0_2049_1752">
<rect width="1556" height="4011" fill="white" transform="translate(-675 -3295)"/>
</clipPath>
</defs>
</svg>
