<svg width="387" height="191" viewBox="0 0 387 191" fill="none" xmlns="http://www.w3.org/2000/svg">
<line y1="-1" x2="174.377" y2="-1" transform="matrix(0.920564 0.390592 0.501503 -0.865156 1 117.24)" stroke="white" stroke-opacity="0.2" stroke-width="2"/>
<line y1="-1" x2="173.944" y2="-1" transform="matrix(0.922856 0.385146 0.495311 -0.868716 58.4233 110.539)" stroke="white" stroke-opacity="0.2" stroke-width="2"/>
<line y1="-1" x2="180.494" y2="-1" transform="matrix(0.918288 0.395914 0.507523 -0.861638 220.253 16.748)" stroke="white" stroke-opacity="0.2" stroke-width="2"/>
<line y1="-1" x2="135.407" y2="-1" transform="matrix(0.925268 0.379315 0.488649 -0.872481 174.576 59.1777)" stroke="white" stroke-opacity="0.2" stroke-width="2"/>
<line y1="-1" x2="132.112" y2="-1" transform="matrix(-0.921834 0.387586 0.498088 0.867126 339.016 129.521)" stroke="white" stroke-opacity="0.2" stroke-width="2"/>
<line y1="-1" x2="127.639" y2="-1" transform="matrix(-0.923469 0.383674 0.493633 0.86967 362.508 87.0918)" stroke="white" stroke-opacity="0.2" stroke-width="2"/>
<path d="M138.763 1.23047L21.8812 51.3615" stroke="white" stroke-opacity="0.2" stroke-width="2"/>
<path d="M177.186 60.2949L58.0102 110.383" stroke="white" stroke-opacity="0.2" stroke-width="2"/>
<line y1="-1" x2="72.5832" y2="-1" transform="matrix(0.521435 0.853291 0.912843 -0.40831 139.338 0)" stroke="white" stroke-opacity="0.2" stroke-width="2"/>
<line y1="-1" x2="72.4226" y2="-1" transform="matrix(0.50457 0.863371 0.91941 -0.393301 23.186 49.1289)" stroke="white" stroke-opacity="0.2" stroke-width="2"/>
<line y1="-1" x2="57.8131" y2="-1" transform="matrix(0.993263 -0.11588 -0.1574 -0.987535 1 117.24)" stroke="white" stroke-opacity="0.2" stroke-width="2"/>
<path d="M160.396 186.457L220.254 179.768" stroke="white" stroke-opacity="0.2" stroke-width="2"/>
<path d="M245.05 133.988L218.949 179.767" stroke="white" stroke-opacity="0.2" stroke-width="2"/>
<path d="M361.203 85.9746L337.711 129.521" stroke="white" stroke-opacity="0.2" stroke-width="2"/>
<path d="M385.999 88.209L337.711 129.522" stroke="white" stroke-opacity="0.2" stroke-width="2"/>
<path d="M221.558 16.748L174.575 61.4106" stroke="white" stroke-opacity="0.2" stroke-width="2"/>
<line y1="-1" x2="110.54" y2="-1" transform="matrix(-5.00594e-08 1 1 3.66418e-08 340.321 128.404)" stroke="white" stroke-opacity="0.2" stroke-width="2"/>
<line y1="-1" x2="110.54" y2="-1" transform="matrix(-5.10916e-08 1 1 3.73973e-08 221.558 178.65)" stroke="white" stroke-opacity="0.2" stroke-width="2"/>
<line y1="-1" x2="100.491" y2="-1" transform="matrix(-5.10916e-08 1 1 3.73973e-08 177.186 59.1777)" stroke="white" stroke-opacity="0.2" stroke-width="2"/>
<line y1="-1" x2="79.276" y2="-1" transform="matrix(-4.96523e-08 1 1 3.63438e-08 58.4233 141.803)" stroke="white" stroke-opacity="0.2" stroke-width="2"/>
</svg>
