<svg width="189" height="26" viewBox="0 0 189 26" fill="none" xmlns="http://www.w3.org/2000/svg">
<path d="M30.6503 19.4775V5.1401H42.5233V8.06184H34.3986V10.754H41.4972V13.6131H34.3986V16.5558H42.6699V19.4775H30.6503Z" fill="#1F573F"/>
<path d="M48.4843 15.2201V12.361H53.7821V15.2201H48.4843Z" fill="#1F573F"/>
<path d="M60.1576 19.4775V5.1401H63.9058V10.6497H69.7481V5.1401H73.4963V19.4775H69.7481V13.6966H63.9058V19.4775H60.1576Z" fill="#1F573F"/>
<path d="M83.2567 19.7279C81.8746 19.7279 80.6811 19.5123 79.6759 19.081C78.6848 18.6497 77.924 18.0027 77.3935 17.1401C76.863 16.2775 76.5977 15.2062 76.5977 13.9262V5.1401H80.367V13.8427C80.367 14.761 80.6113 15.4845 81.0999 16.0131C81.5885 16.5418 82.3074 16.8062 83.2567 16.8062C84.206 16.8062 84.9319 16.5418 85.4344 16.0131C85.937 15.4845 86.1883 14.761 86.1883 13.8427V5.1401H89.9365V13.9262C89.9365 15.2062 89.6713 16.2775 89.1408 17.1401C88.6103 18.0027 87.8495 18.6497 86.8584 19.081C85.8672 19.5123 84.6666 19.7279 83.2567 19.7279Z" fill="#1F573F"/>
<path d="M93.0399 19.4775V5.1401H101.835C102.575 5.1401 103.245 5.28619 103.845 5.57837C104.445 5.87054 104.92 6.28097 105.269 6.80967C105.632 7.33836 105.813 7.9575 105.813 8.66706C105.813 9.29315 105.702 9.8288 105.478 10.274C105.269 10.7192 104.983 11.081 104.62 11.3592C104.271 11.6375 103.873 11.8462 103.426 11.9853V12.0688C103.943 12.1801 104.41 12.3818 104.829 12.674C105.248 12.9523 105.576 13.3349 105.813 13.8218C106.065 14.3088 106.19 14.9001 106.19 15.5958C106.19 16.4166 105.995 17.1192 105.604 17.7036C105.213 18.274 104.697 18.7123 104.054 19.0184C103.412 19.3245 102.693 19.4775 101.898 19.4775H93.0399ZM96.7882 16.5975H100.871C101.318 16.5975 101.674 16.4653 101.939 16.201C102.219 15.9366 102.358 15.5331 102.358 14.9905C102.358 14.6984 102.295 14.441 102.17 14.2184C102.058 13.9818 101.884 13.801 101.646 13.6758C101.423 13.5505 101.144 13.4879 100.809 13.4879H96.7882V16.5975ZM96.7882 10.8375H100.536C100.844 10.8375 101.102 10.7749 101.311 10.6497C101.535 10.5245 101.702 10.3505 101.814 10.1279C101.939 9.90532 102.002 9.64097 102.002 9.33489C102.002 8.88967 101.87 8.54185 101.604 8.29141C101.339 8.04098 101.004 7.91576 100.599 7.91576H96.7882V10.8375Z" fill="#1F573F"/>
<path d="M111.207 19.4775L116.609 5.1401H121.111L126.514 19.4775H122.514L121.656 16.994H115.918L115.06 19.4775H111.207ZM116.819 14.1975H120.735L119.708 11.1714C119.653 11.0184 119.583 10.8305 119.499 10.6079C119.429 10.3714 119.353 10.1279 119.269 9.87749C119.199 9.61315 119.129 9.3488 119.059 9.08445C118.99 8.8201 118.92 8.59054 118.85 8.39576H118.703C118.648 8.66011 118.564 8.95924 118.452 9.29315C118.354 9.62706 118.25 9.96097 118.138 10.2949C118.04 10.6288 117.95 10.921 117.866 11.1714L116.819 14.1975Z" fill="#1F573F"/>
<path d="M134.419 19.7279C132.102 19.7279 130.336 19.1158 129.121 17.8914C127.921 16.6671 127.321 14.8027 127.321 12.2984C127.321 10.6427 127.614 9.27228 128.2 8.18706C128.8 7.08793 129.666 6.26706 130.797 5.72445C131.941 5.16793 133.316 4.88967 134.922 4.88967C135.885 4.88967 136.792 5.00097 137.644 5.22358C138.496 5.44619 139.249 5.7801 139.905 6.22532C140.562 6.65663 141.071 7.20619 141.434 7.87402C141.797 8.52793 141.979 9.3001 141.979 10.1905H138.293C138.293 9.81489 138.209 9.48097 138.042 9.1888C137.874 8.88271 137.637 8.63228 137.33 8.43749C137.037 8.2288 136.695 8.07576 136.304 7.97836C135.913 7.86706 135.501 7.81141 135.068 7.81141C134.426 7.81141 133.854 7.89489 133.351 8.06184C132.863 8.2288 132.458 8.48619 132.137 8.83402C131.816 9.18184 131.571 9.60619 131.404 10.1071C131.25 10.6079 131.173 11.1923 131.173 11.8601V12.7784C131.173 13.6688 131.313 14.4131 131.592 15.0114C131.871 15.6097 132.29 16.0618 132.849 16.3679C133.421 16.6601 134.119 16.8062 134.943 16.8062C135.585 16.8062 136.157 16.7088 136.66 16.514C137.176 16.3192 137.581 16.041 137.874 15.6792C138.181 15.3036 138.335 14.8584 138.335 14.3436V14.2392H134.461V11.6097H141.979V19.4775H139.801L139.445 17.9749C139.012 18.3645 138.544 18.6914 138.042 18.9558C137.553 19.2201 137.009 19.4149 136.408 19.5401C135.822 19.6653 135.159 19.7279 134.419 19.7279Z" fill="#1F573F"/>
<path d="M144.94 19.4775V5.1401H150.95C152.513 5.1401 153.833 5.3975 154.908 5.91228C155.996 6.42706 156.82 7.21315 157.378 8.27054C157.951 9.31402 158.237 10.6566 158.237 12.2984C158.237 13.9262 157.951 15.2758 157.378 16.3471C156.82 17.4045 155.996 18.1905 154.908 18.7053C153.833 19.2201 152.513 19.4775 150.95 19.4775H144.94ZM148.688 16.5558H150.908C151.494 16.5558 152.004 16.4723 152.437 16.3053C152.869 16.1384 153.232 15.8949 153.525 15.5749C153.819 15.2549 154.035 14.8584 154.175 14.3853C154.314 13.9123 154.384 13.3697 154.384 12.7575V11.881C154.384 11.2549 154.314 10.7053 154.175 10.2323C154.035 9.75924 153.819 9.36271 153.525 9.04271C153.232 8.72271 152.869 8.47923 152.437 8.31228C152.004 8.14532 151.494 8.06184 150.908 8.06184H148.688V16.5558Z" fill="#1F573F"/>
<path d="M160.789 19.4775V5.1401H172.662V8.06184H164.537V10.754H171.636V13.6131H164.537V16.5558H172.809V19.4775H160.789Z" fill="#1F573F"/>
<path d="M175.389 19.4775V5.1401H183.744C184.805 5.1401 185.691 5.34184 186.403 5.74532C187.115 6.13489 187.646 6.6775 187.995 7.37315C188.358 8.05489 188.539 8.8201 188.539 9.6688C188.539 10.5871 188.323 11.4079 187.89 12.1314C187.471 12.841 186.878 13.3975 186.11 13.801L189 19.4775H184.812L182.425 14.4271H179.137V19.4775H175.389ZM179.137 11.6514H183.011C183.528 11.6514 183.939 11.4845 184.247 11.1505C184.568 10.8027 184.728 10.3436 184.728 9.77315C184.728 9.3975 184.658 9.07749 184.519 8.81315C184.379 8.5488 184.184 8.34706 183.932 8.20793C183.681 8.05489 183.374 7.97836 183.011 7.97836H179.137V11.6514Z" fill="#1F573F"/>
<path d="M13.0875 25.9992V12.7228L0 6.43402V19.3685L13.0875 25.9992Z" fill="#1F573F"/>
<path d="M13.087 12.3261L24.8663 6.43402C24.8663 6.43402 24.9958 19.3933 24.6724 19.6081C24.349 19.8229 13.0875 25.9992 13.0875 25.9992L13.087 12.3261Z" fill="#358261"/>
<path d="M24.8663 6.43402L12.4331 0.564453L0 6.43402L13.0875 12.9558L24.8663 6.43402Z" fill="#8DB4A3"/>
<path d="M19.6313 3.82532L7.46506 10.3471V15.5645L3.92625 13.813V8.39054L15.705 1.8688L19.6313 3.82532Z" fill="white"/>
</svg>
