<svg width="122" height="38" viewBox="0 0 122 38" fill="none" xmlns="http://www.w3.org/2000/svg">
<mask id="mask0_1798_4120" style="mask-type:luminance" maskUnits="userSpaceOnUse" x="0" y="0" width="122" height="38">
<path d="M122 0H0V38H122V0Z" fill="white"/>
</mask>
<g mask="url(#mask0_1798_4120)">
<path d="M3.8694 19.3215C3.8948 20.2655 4.0598 21.2003 4.3589 22.0946C4.60076 22.8112 4.98083 23.4719 5.47697 24.0381C5.93654 24.5491 6.50817 24.9434 7.14573 25.1892C7.84048 25.4492 8.57644 25.5776 9.31696 25.568C9.98642 25.5811 10.654 25.4911 11.2968 25.301C11.7965 25.146 12.2826 24.9489 12.75 24.7116C13.1619 24.496 13.5131 24.2996 13.8036 24.1222C14.0415 23.9613 14.318 23.869 14.6037 23.8553C14.7456 23.8489 14.8868 23.8795 15.0138 23.944C15.1408 24.0084 15.2495 24.1047 15.3296 24.2237L16.4375 25.6784C15.9882 26.221 15.4617 26.6926 14.8753 27.0777C14.2942 27.4583 13.6721 27.7706 13.0211 28.0083C12.3675 28.2482 11.6918 28.4214 11.0043 28.5253C10.337 28.6278 9.66318 28.6801 8.98831 28.6818C7.76857 28.6941 6.55754 28.4724 5.41903 28.0285C4.34124 27.6047 3.36792 26.947 2.56731 26.1014C1.72727 25.1972 1.08348 24.1244 0.67744 22.9524C0.201853 21.561 -0.0275723 20.0954 -0.000260771 18.6231C-0.0105466 17.3807 0.195814 16.1463 0.609299 14.9767C0.990269 13.886 1.58273 12.8837 2.35176 12.0288C3.12682 11.1821 4.0672 10.5082 5.11309 10.0501C6.27515 9.54871 7.52813 9.30051 8.79084 9.32155C9.86968 9.31134 10.9412 9.50253 11.9517 9.88556C12.8956 10.244 13.751 10.8066 14.4586 11.5344C15.1838 12.2946 15.7439 13.2005 16.1028 14.1937C16.5127 15.3412 16.7127 16.5549 16.6929 17.7752C16.7293 18.1969 16.6608 18.6211 16.4935 19.009C16.4092 19.1202 16.2979 19.2075 16.1704 19.2621C16.043 19.3168 15.9037 19.3371 15.7662 19.3211L3.8694 19.3215ZM13.1866 16.8916C13.1918 16.2627 13.0967 15.6372 12.9048 15.0392C12.7293 14.4918 12.4486 13.9851 12.0788 13.5484C11.7066 13.1185 11.2443 12.7787 10.7257 12.5538C10.1361 12.3045 9.50181 12.1824 8.86315 12.1952C8.25287 12.1608 7.64206 12.2524 7.06768 12.4643C6.49329 12.6762 5.96728 13.0041 5.52147 13.428C4.6495 14.382 4.10737 15.5977 3.97694 16.8916H13.1866Z" fill="white" fill-opacity="0.5"/>
<path d="M28.8967 16.3496H19.687V19.7027H28.8967V16.3496Z" fill="white" fill-opacity="0.5"/>
<path d="M57.7831 9.61686L51.8432 28.4023H48.7375C48.375 28.4023 48.1191 28.164 47.9745 27.6851L44.2879 15.9898C44.1901 15.6575 44.1025 15.3275 44.0232 14.9952C43.944 14.6629 43.8763 14.3372 43.8142 14.0195C43.6807 14.6816 43.5178 15.3444 43.3256 16.0081L39.5825 27.6851C39.5505 27.8893 39.4462 28.0748 39.2891 28.2068C39.1321 28.3388 38.933 28.4083 38.7291 28.4023H35.7671L29.8286 9.61686H32.9167C33.1861 9.60711 33.451 9.68828 33.67 9.84764C33.8554 9.98032 33.9927 10.171 34.0608 10.3905L37.1489 21.3314C37.2699 21.8344 37.3765 22.3232 37.4669 22.7946C37.5573 23.266 37.6389 23.7374 37.7116 24.2046C37.8328 23.7381 37.9601 23.268 38.0936 22.7946C38.2257 22.3246 38.3657 21.8339 38.5108 21.3314L41.9804 10.3355C42.0386 10.1166 42.1696 9.92487 42.3512 9.79265C42.5495 9.64742 42.7896 9.57287 43.034 9.58067H44.7408C44.9933 9.57261 45.2418 9.64691 45.4496 9.79265C45.6366 9.92144 45.7719 10.1141 45.8306 10.3355L49.2103 21.3314C49.3562 21.8328 49.4921 22.324 49.6182 22.8049C49.7457 23.2825 49.863 23.7619 49.9742 24.2408C50.057 23.7743 50.1473 23.3016 50.2449 22.8228C50.3426 22.344 50.458 21.847 50.5912 21.3319L53.7326 10.3905C53.8055 10.1688 53.9453 9.97592 54.1322 9.83918C54.3377 9.6876 54.587 9.60956 54.841 9.61733L57.7831 9.61686Z" fill="white" fill-opacity="0.5"/>
<path d="M93.7054 19.3107C93.7308 20.2547 93.8958 21.1895 94.1949 22.0838C94.4367 22.8004 94.8168 23.4611 95.3129 24.0273C95.7725 24.5383 96.3441 24.9326 96.9817 25.1784C97.6763 25.4374 98.412 25.5648 99.152 25.5544C99.8214 25.5675 100.489 25.4775 101.132 25.2874C101.632 25.1324 102.118 24.9353 102.585 24.698C102.997 24.4824 103.348 24.286 103.639 24.1086C103.876 23.9477 104.153 23.8554 104.439 23.8417C104.581 23.8353 104.722 23.8659 104.849 23.9304C104.976 23.9948 105.085 24.0911 105.165 24.2101L106.272 25.6648C105.823 26.2074 105.297 26.679 104.71 27.0641C104.129 27.4447 103.507 27.757 102.856 27.9947C102.202 28.2346 101.527 28.4078 100.839 28.5117C100.172 28.6142 99.4982 28.6665 98.8233 28.6682C97.6036 28.6805 96.3926 28.4588 95.2541 28.0149C94.1763 27.5911 93.203 26.9334 92.4023 26.0878C91.5623 25.1836 90.9185 24.1108 90.5125 22.9388C90.0358 21.5482 89.8052 20.0833 89.8311 18.6114C89.8208 17.369 90.0271 16.1346 90.4406 14.965C90.8216 13.8743 91.4141 12.872 92.1831 12.0171C92.9581 11.1704 93.8985 10.4965 94.9444 10.0383C96.1065 9.53699 97.3595 9.28879 98.6222 9.30983C99.701 9.29963 100.772 9.49081 101.783 9.87384C102.727 10.2322 103.582 10.7949 104.29 11.5226C105.015 12.2838 105.575 13.1907 105.934 14.1848C106.344 15.3323 106.544 16.546 106.524 17.7663C106.56 18.188 106.492 18.6122 106.324 19.0001C106.24 19.1113 106.129 19.1986 106.001 19.2532C105.874 19.3079 105.735 19.3282 105.597 19.3122L93.7054 19.3107ZM103.023 16.8808C103.028 16.252 102.933 15.6264 102.741 15.0285C102.565 14.4815 102.284 13.9753 101.915 13.539C101.543 13.1087 101.081 12.7682 100.563 12.5426C99.9734 12.2933 99.3392 12.1712 98.7005 12.184C98.0902 12.1496 97.4794 12.2411 96.905 12.4531C96.3306 12.665 95.8046 12.9928 95.3588 13.4168C94.4869 14.3707 93.9447 15.5864 93.8143 16.8803L103.023 16.8808Z" fill="white" fill-opacity="0.5"/>
<path d="M120.875 13.0128C120.798 13.1613 120.685 13.2876 120.547 13.3804C120.409 13.4599 120.251 13.4984 120.092 13.4918C119.856 13.4825 119.626 13.4163 119.42 13.2986C119.178 13.1684 118.895 13.0251 118.568 12.8648C118.196 12.6888 117.81 12.5442 117.415 12.4324C116.908 12.2951 116.385 12.2301 115.861 12.2392C115.416 12.2343 114.972 12.293 114.543 12.4136C114.182 12.5139 113.844 12.6828 113.545 12.9113C113.283 13.1126 113.069 13.3705 112.918 13.6662C112.772 13.954 112.697 14.2733 112.7 14.5968C112.688 15.0032 112.83 15.3988 113.098 15.7013C113.4 16.0207 113.758 16.28 114.153 16.466C114.634 16.6979 115.132 16.8917 115.642 17.0455C116.198 17.2185 116.767 17.4029 117.35 17.5987C117.931 17.7945 118.501 18.0219 119.057 18.2798C119.594 18.5252 120.095 18.8447 120.546 19.2292C120.985 19.6064 121.343 20.0701 121.599 20.5923C121.882 21.1984 122.02 21.8642 122 22.5348C122.008 23.3755 121.847 24.209 121.528 24.985C121.215 25.7307 120.744 26.3974 120.148 26.9374C119.489 27.5198 118.719 27.9586 117.885 28.2267C116.884 28.5481 115.839 28.7035 114.79 28.6868C114.164 28.6881 113.54 28.6293 112.926 28.511C112.345 28.4004 111.774 28.2406 111.219 28.0335C110.695 27.8385 110.191 27.5946 109.711 27.305C109.268 27.0401 108.851 26.7319 108.467 26.3847L109.376 24.875C109.476 24.6999 109.616 24.5512 109.783 24.4412C109.968 24.3316 110.179 24.2773 110.393 24.2847C110.663 24.2906 110.925 24.3774 111.147 24.5342C111.395 24.6997 111.685 24.8816 112.017 25.0771C112.402 25.2961 112.807 25.4783 113.226 25.6214C113.796 25.8014 114.391 25.8853 114.987 25.8695C115.498 25.8794 116.007 25.8079 116.496 25.6576C116.882 25.5379 117.24 25.3405 117.549 25.0771C117.815 24.8496 118.027 24.563 118.167 24.2395C118.301 23.9223 118.37 23.5804 118.367 23.2351C118.383 22.8055 118.241 22.3853 117.968 22.0563C117.668 21.7251 117.307 21.4564 116.905 21.2653C116.419 21.0267 115.914 20.8291 115.396 20.6745C114.832 20.504 114.261 20.3201 113.681 20.1227C113.098 19.9262 112.525 19.6992 111.964 19.4426C111.416 19.1935 110.908 18.8611 110.458 18.457C110.011 18.0495 109.649 17.5548 109.395 17.0023C109.111 16.3443 108.974 15.6303 108.995 14.9122C108.991 14.1687 109.146 13.4332 109.449 12.756C109.751 12.0788 110.195 11.4759 110.748 10.9885C111.372 10.4445 112.094 10.0283 112.874 9.76318C113.814 9.44659 114.799 9.29402 115.789 9.31196C116.949 9.29638 118.102 9.50272 119.186 9.92016C120.144 10.2866 121.016 10.8511 121.747 11.5779L120.875 13.0128Z" fill="white" fill-opacity="0.5"/>
<path d="M4.69672 32.7877V37.7397H4.32959C4.28152 37.7412 4.23381 37.7309 4.19053 37.7096C4.1471 37.6834 4.10864 37.6495 4.07696 37.6095L1.31656 33.9914L1.32768 34.1733C1.33139 34.2334 1.33278 34.2898 1.33278 34.3425V37.7392H0.697266V32.7877H1.07088C1.11979 32.7848 1.16871 32.793 1.21412 32.8116C1.25705 32.8363 1.29346 32.8711 1.32027 32.9132L4.08438 36.5322C4.07835 36.4669 4.07325 36.4021 4.06954 36.3377C4.06584 36.2733 4.06445 36.215 4.06445 36.1595V32.7877H4.69672Z" fill="white" fill-opacity="0.5"/>
<path d="M8.4991 37.2417C8.41722 37.3385 8.32179 37.4225 8.21587 37.4913C8.10921 37.561 7.99506 37.6183 7.87563 37.6619C7.75521 37.7055 7.63107 37.7377 7.5048 37.7582C7.37921 37.7782 7.25228 37.7882 7.12516 37.7883C6.89893 37.7911 6.67431 37.7494 6.46368 37.6656C6.26429 37.5872 6.08436 37.4652 5.93663 37.3084C5.78136 37.1402 5.66289 36.9407 5.58897 36.7228C5.50232 36.4633 5.46045 36.1906 5.46521 35.9167C5.46322 35.6846 5.5015 35.4539 5.57831 35.2352C5.64857 35.0323 5.7574 34.8453 5.89862 34.6848C6.04061 34.5266 6.21451 34.4013 6.40852 34.3173C6.62317 34.2238 6.85497 34.1777 7.08854 34.1819C7.28785 34.1797 7.4858 34.2154 7.67214 34.2872C7.84518 34.3541 8.00201 34.458 8.13197 34.5918C8.26634 34.7333 8.37035 34.9015 8.43745 35.0857C8.51387 35.2999 8.5511 35.5264 8.54731 35.7541C8.55334 35.8252 8.54188 35.8968 8.51393 35.9623C8.49893 35.9815 8.47937 35.9966 8.45707 36.006C8.43478 36.0155 8.41048 36.019 8.38646 36.0164H6.12483C6.1282 36.202 6.15818 36.3861 6.21383 36.563C6.25858 36.706 6.33232 36.8379 6.43031 36.9503C6.51959 37.0532 6.63199 37.1329 6.75803 37.1825C6.89354 37.2342 7.0374 37.2597 7.18217 37.2577C7.3118 37.2607 7.44111 37.2434 7.56552 37.2064C7.66109 37.1765 7.7541 37.1388 7.84365 37.0936C7.91102 37.06 7.97663 37.0228 8.04019 36.9822C8.08081 36.9521 8.12905 36.9344 8.17926 36.931C8.20367 36.9298 8.22799 36.9348 8.25002 36.9455C8.27204 36.9563 8.29106 36.9725 8.30534 36.9926L8.4991 37.2417ZM7.95165 35.599C7.95283 35.4739 7.93405 35.3495 7.89603 35.2305C7.86102 35.1226 7.80454 35.0231 7.73008 34.9382C7.65767 34.8536 7.56713 34.7871 7.4654 34.7436C7.35093 34.696 7.22798 34.6729 7.1043 34.6759C6.984 34.6688 6.86356 34.6869 6.75042 34.7289C6.63728 34.771 6.53385 34.8361 6.44653 34.9203C6.27605 35.1075 6.16944 35.3452 6.14244 35.5985L7.95165 35.599Z" fill="white" fill-opacity="0.5"/>
<path d="M10.3189 37.7959C10.2013 37.8039 10.0834 37.7871 9.9725 37.7467C9.86162 37.7062 9.76018 37.643 9.67458 37.5609C9.51376 37.3734 9.43246 37.1291 9.44837 36.8812V34.7826H9.04694C9.0283 34.7832 9.00975 34.7798 8.99251 34.7726C8.97527 34.7654 8.95972 34.7546 8.94689 34.7409C8.93406 34.7272 8.92424 34.7109 8.91808 34.693C8.91191 34.6752 8.90954 34.6562 8.91112 34.6374V34.3652L9.47247 34.2849L9.6222 33.2405C9.62949 33.2048 9.64824 33.1726 9.6755 33.1489C9.70421 33.1268 9.73965 33.1157 9.77563 33.1174H10.1131V34.2924H11.6891L11.8426 33.2405C11.8465 33.2053 11.863 33.1727 11.8889 33.1489C11.9182 33.1268 11.954 33.1156 11.9904 33.1174H12.3307V34.2924H13.3115V34.7826H12.3321V36.8328C12.3275 36.8885 12.3339 36.9445 12.3509 36.9977C12.3678 37.0509 12.395 37.1001 12.4308 37.1425C12.4647 37.1766 12.5052 37.2032 12.5497 37.2207C12.5942 37.2381 12.6418 37.2461 12.6895 37.2441C12.7428 37.2455 12.796 37.2373 12.8466 37.2201C12.8866 37.2061 12.9251 37.188 12.9616 37.166C12.9926 37.1458 13.0195 37.1299 13.0431 37.112C13.0604 37.098 13.0818 37.0901 13.1039 37.0894C13.1217 37.0883 13.1395 37.0931 13.1544 37.1031C13.1704 37.1177 13.1841 37.1346 13.1952 37.1534L13.3931 37.4781C13.2802 37.5822 13.1478 37.6621 13.0037 37.7131C12.8541 37.7687 12.6959 37.7967 12.5365 37.7959C12.4187 37.8038 12.3006 37.787 12.1895 37.7466C12.0784 37.7061 11.9767 37.6429 11.8908 37.5609C11.7308 37.373 11.6499 37.1289 11.6655 36.8812V34.7826H10.1131V36.8328C10.1087 36.8886 10.1154 36.9447 10.1325 36.9978C10.1497 37.051 10.1772 37.1002 10.2132 37.1425C10.247 37.1763 10.2873 37.2027 10.3315 37.2202C10.3758 37.2376 10.423 37.2457 10.4705 37.2441C10.5241 37.2453 10.5776 37.2372 10.6285 37.2201C10.668 37.2058 10.7061 37.1877 10.7421 37.166C10.7732 37.1458 10.8014 37.1299 10.8237 37.112C10.841 37.098 10.8623 37.0901 10.8844 37.0894C10.9032 37.0877 10.922 37.0925 10.9377 37.1031C10.9523 37.1186 10.9649 37.136 10.9753 37.1548L11.1718 37.4795C11.0593 37.5836 10.9271 37.6635 10.7834 37.7145C10.635 37.7701 10.478 37.7981 10.3198 37.7973" fill="white" fill-opacity="0.5"/>
<path d="M16.9166 34.2349L15.5154 37.7384H14.9169L13.5156 34.2349H14.0635C14.1092 34.233 14.1543 34.2462 14.1919 34.2725C14.2247 34.2959 14.2487 34.3299 14.2601 34.3689L15.0875 36.5206C15.1158 36.6108 15.1417 36.7001 15.164 36.7875C15.1862 36.875 15.2048 36.9643 15.2219 37.0522C15.2405 36.9643 15.2613 36.8764 15.2836 36.7899C15.3058 36.7034 15.3332 36.6118 15.3652 36.5201L16.1995 34.3684C16.2142 34.3301 16.239 34.2967 16.2714 34.272C16.3072 34.2466 16.3501 34.2334 16.3938 34.2344L16.9166 34.2349Z" fill="white" fill-opacity="0.5"/>
<path d="M20.1847 37.2412C20.1028 37.338 20.0074 37.4221 19.9015 37.4908C19.7948 37.5606 19.6807 37.6178 19.5613 37.6614C19.4408 37.705 19.3167 37.7373 19.1904 37.7578C19.0653 37.7776 18.9388 37.7877 18.8122 37.7878C18.5859 37.7906 18.3613 37.7489 18.1507 37.6652C17.9513 37.5867 17.7714 37.4648 17.6236 37.308C17.4684 37.1398 17.3499 36.9402 17.276 36.7223C17.1893 36.4628 17.1475 36.1902 17.1522 35.9163C17.1501 35.6843 17.1883 35.4538 17.2649 35.2352C17.3351 35.0323 17.4439 34.8453 17.5852 34.6848C17.7272 34.5266 17.9011 34.4013 18.0951 34.3173C18.3097 34.2238 18.5415 34.1777 18.7751 34.1819C18.9744 34.1797 19.1723 34.2154 19.3587 34.2872C19.5317 34.3541 19.6886 34.458 19.8185 34.5918C19.9529 34.7333 20.0569 34.9015 20.124 35.0857C20.2004 35.2999 20.2376 35.5264 20.2339 35.7541C20.2399 35.8252 20.2284 35.8968 20.2005 35.9623C20.1855 35.9815 20.1659 35.9966 20.1436 36.006C20.1213 36.0155 20.097 36.019 20.073 36.0164H17.8105C17.8138 36.202 17.8438 36.3861 17.8995 36.563C17.9442 36.706 18.0179 36.8379 18.1159 36.9503C18.2052 37.0532 18.3176 37.1329 18.4437 37.1825C18.5792 37.2342 18.723 37.2597 18.8678 37.2577C18.9974 37.2607 19.1267 37.2434 19.2511 37.2064C19.3467 37.1765 19.4397 37.1388 19.5293 37.0936C19.5966 37.06 19.6622 37.0228 19.7258 36.9822C19.7664 36.9521 19.8147 36.9344 19.8649 36.931C19.8893 36.9298 19.9136 36.9348 19.9356 36.9455C19.9577 36.9563 19.9767 36.9725 19.991 36.9926L20.1847 37.2412ZM19.6368 35.5985C19.638 35.4735 19.6192 35.349 19.5812 35.23C19.5462 35.1221 19.4897 35.0226 19.4152 34.9377C19.3428 34.8532 19.2523 34.7866 19.1506 34.7431C19.0361 34.6955 18.9131 34.6725 18.7895 34.6754C18.6692 34.6684 18.5487 34.6864 18.4356 34.7285C18.3224 34.7705 18.219 34.8356 18.1317 34.9198C17.9612 35.107 17.8546 35.3448 17.8276 35.5981L19.6368 35.5985Z" fill="white" fill-opacity="0.5"/>
<path d="M21.5765 34.909C21.6706 34.7016 21.8072 34.5169 21.977 34.3671C22.1362 34.2353 22.3366 34.1655 22.5421 34.1701C22.6139 34.1696 22.6855 34.1789 22.7548 34.1979C22.817 34.2126 22.876 34.2385 22.9291 34.2745L22.886 34.7812C22.8821 34.8082 22.8684 34.8328 22.8476 34.8502C22.8268 34.8676 22.8003 34.8765 22.7734 34.8752C22.7254 34.8732 22.6777 34.8664 22.6311 34.8549C22.5633 34.8421 22.4946 34.8358 22.4257 34.8361C22.3298 34.835 22.2344 34.8509 22.1439 34.8831C22.0624 34.9149 21.988 34.9628 21.9251 35.0241C21.8559 35.0889 21.7978 35.1648 21.7531 35.2488C21.6995 35.3455 21.653 35.446 21.614 35.5496V37.7427H20.9512V34.2369H21.3322C21.3842 34.2315 21.4364 34.2454 21.4791 34.2759C21.5112 34.3163 21.531 34.3653 21.5362 34.4169L21.5765 34.909Z" fill="white" fill-opacity="0.5"/>
<path d="M24.1067 32.6504V35.626H24.2624C24.3035 35.6272 24.3443 35.62 24.3825 35.6049C24.4214 35.586 24.455 35.5576 24.4803 35.5222L25.514 34.3673C25.5421 34.3274 25.5783 34.2941 25.6202 34.2696C25.6651 34.2459 25.7155 34.2347 25.7662 34.2372H26.372L25.1506 35.5936C25.0926 35.671 25.0213 35.7373 24.9401 35.7891C24.9819 35.819 25.0201 35.8539 25.0537 35.893C25.0857 35.932 25.1181 35.9734 25.1501 36.0208L26.448 37.7411H25.8552C25.8062 37.7427 25.7575 37.7329 25.7129 37.7124C25.6691 37.69 25.6323 37.6557 25.6067 37.6132L24.5382 36.2046C24.5145 36.1617 24.4793 36.1265 24.4367 36.1031C24.3875 36.0856 24.3354 36.078 24.2833 36.0805H24.1062V37.7397H23.4434V32.6504H24.1067Z" fill="white" fill-opacity="0.5"/>
<path d="M28.888 37.739V34.7874L28.5269 34.7404C28.4804 34.732 28.4366 34.7122 28.3994 34.6826C28.3828 34.6689 28.3697 34.6514 28.361 34.6315C28.3524 34.6117 28.3486 34.59 28.3498 34.5683V34.2887H28.888V33.9714C28.8851 33.7893 28.914 33.6081 28.9733 33.4361C29.0255 33.2877 29.1081 33.1521 29.2157 33.0385C29.3233 32.9284 29.4533 32.8437 29.5968 32.7903C29.7577 32.7316 29.9278 32.7028 30.0988 32.7052C30.2455 32.7038 30.3914 32.7275 30.5304 32.7753L30.5169 33.1127C30.5166 33.138 30.5068 33.1622 30.4896 33.1804C30.4718 33.1968 30.45 33.208 30.4265 33.2128C30.3953 33.2198 30.3635 33.2236 30.3315 33.2241C30.2944 33.2241 30.2536 33.2265 30.2114 33.2265C30.1173 33.2253 30.0236 33.2385 29.9333 33.2655C29.8522 33.2878 29.7784 33.3314 29.7192 33.3919C29.6561 33.4582 29.6095 33.5387 29.5833 33.6269C29.5489 33.7449 29.5333 33.8677 29.537 33.9907V34.2868H30.5067V34.7827H29.5546V37.739H28.888Z" fill="white" fill-opacity="0.5"/>
<path d="M32.4248 34.1819C32.6604 34.1779 32.8944 34.2209 33.1136 34.3083C33.3126 34.3872 33.4915 34.5106 33.637 34.6693C33.7853 34.8338 33.8986 35.0276 33.9698 35.2385C34.1231 35.7246 34.1231 36.2471 33.9698 36.7331C33.8995 36.9442 33.7861 37.1378 33.637 37.3014C33.4911 37.4596 33.3124 37.583 33.1136 37.6623C32.6679 37.8295 32.178 37.8295 31.7323 37.6623C31.5334 37.5827 31.3544 37.4594 31.208 37.3014C31.0577 37.1382 30.9435 36.9445 30.8729 36.7331C30.7162 36.2476 30.7162 35.724 30.8729 35.2385C30.9444 35.0272 31.0585 34.8334 31.208 34.6693C31.3541 34.5109 31.5332 34.3876 31.7323 34.3083C31.9528 34.2208 32.188 34.1778 32.4248 34.1819ZM32.4248 37.2642C32.5644 37.2742 32.7043 37.2488 32.8319 37.1904C32.9595 37.132 33.0708 37.0424 33.1558 36.9296C33.3333 36.6504 33.4183 36.3211 33.3982 35.9896C33.4179 35.6572 33.333 35.3271 33.1558 35.0467C33.0708 34.9339 32.9595 34.8443 32.8319 34.7859C32.7043 34.7275 32.5644 34.7021 32.4248 34.7121C32.2835 34.7014 32.1419 34.7264 32.0124 34.7848C31.883 34.8432 31.7699 34.9332 31.6831 35.0467C31.5059 35.3271 31.4211 35.6572 31.4407 35.9896C31.4207 36.3211 31.5056 36.6504 31.6831 36.9296C31.7699 37.0432 31.883 37.1331 32.0124 37.1915C32.1419 37.2499 32.2835 37.2749 32.4248 37.2642Z" fill="white" fill-opacity="0.5"/>
<path d="M35.4486 34.909C35.5427 34.7016 35.6792 34.5169 35.8491 34.3671C36.0083 34.2353 36.2087 34.1655 36.4141 34.1701C36.486 34.1696 36.5575 34.1789 36.6269 34.1979C36.689 34.2126 36.7481 34.2385 36.8012 34.2745L36.7581 34.7812C36.7542 34.8082 36.7405 34.8328 36.7197 34.8502C36.6988 34.8676 36.6724 34.8765 36.6454 34.8752C36.5975 34.8732 36.5498 34.8664 36.5031 34.8549C36.4354 34.8421 36.3667 34.8358 36.2978 34.8361C36.2018 34.835 36.1065 34.8509 36.0159 34.8831C35.9345 34.9149 35.8601 34.9628 35.7971 35.0241C35.728 35.0889 35.6699 35.1648 35.6252 35.2488C35.5716 35.3455 35.5251 35.446 35.4861 35.5496V37.7427H34.8232V34.2369H35.2043C35.2563 34.2315 35.3085 34.2454 35.3512 34.2759C35.3833 34.3163 35.4031 34.3653 35.4082 34.4169L35.4486 34.909Z" fill="white" fill-opacity="0.5"/>
<path d="M42.0556 37.1432L42.0519 37.7401H39.0259V32.7871H42.0519V33.384H39.7541V34.9539H41.6046V35.5296H39.7541V37.1437L42.0556 37.1432Z" fill="white" fill-opacity="0.5"/>
<path d="M44.4639 35.3828H42.7637V35.9548H44.4639V35.3828Z" fill="white" fill-opacity="0.5"/>
<path d="M46.0095 34.6804C46.1499 34.5344 46.3127 34.4125 46.4916 34.3194C46.6794 34.2241 46.8874 34.1768 47.0974 34.1817C47.2696 34.1777 47.4406 34.2105 47.5994 34.278C47.7394 34.3385 47.8635 34.4312 47.9619 34.5488C48.0626 34.672 48.138 34.8143 48.1835 34.9676C48.2347 35.1429 48.2598 35.3251 48.2577 35.5081V37.7387H47.5892V35.5081C47.6018 35.2993 47.5419 35.0926 47.42 34.9238C47.3547 34.8511 47.2738 34.7944 47.1836 34.7581C47.0934 34.7218 46.9962 34.7068 46.8995 34.7142C46.7324 34.7141 46.568 34.7563 46.4211 34.8369C46.2661 34.9241 46.1265 35.0369 46.0081 35.1706V37.7387H45.3452V32.6504H46.0095V34.6804Z" fill="white" fill-opacity="0.5"/>
<path d="M49.0613 34.7253C49.2418 34.5464 49.4548 34.4046 49.6885 34.3079C49.9247 34.2142 50.1765 34.1674 50.4302 34.1702C50.6095 34.1665 50.7876 34.2003 50.9535 34.2694C51.1004 34.3306 51.2321 34.424 51.3392 34.5429C51.4457 34.6647 51.5258 34.8079 51.5742 34.9631C51.629 35.1383 51.6557 35.3213 51.6535 35.505V37.7395H51.3577C51.3063 37.7426 51.255 37.7314 51.2094 37.707C51.1692 37.6768 51.1404 37.6335 51.1278 37.5844L51.056 37.2784C50.9726 37.356 50.885 37.4288 50.7936 37.4965C50.709 37.5599 50.6183 37.6145 50.5229 37.6596C50.4266 37.7042 50.3259 37.7382 50.2225 37.7611C50.1061 37.7847 49.9876 37.796 49.8688 37.7949C49.7389 37.7964 49.6096 37.7774 49.4855 37.7385C49.3716 37.7027 49.2663 37.6434 49.1763 37.5642C49.0851 37.4838 49.0131 37.3836 48.9659 37.2709C48.9126 37.1411 48.8866 37.0015 48.8894 36.861C48.8899 36.7207 48.9284 36.5831 49.0006 36.4634C49.0894 36.3191 49.2133 36.2003 49.3603 36.1184C49.5645 36.0032 49.7847 35.9198 50.0135 35.8712C50.3394 35.7995 50.6719 35.7625 51.0054 35.7607V35.505C51.0213 35.2935 50.9621 35.0831 50.8386 34.9119C50.7765 34.8442 50.7004 34.7915 50.6157 34.7574C50.5311 34.7234 50.44 34.7088 50.3491 34.7149C50.2248 34.7118 50.1009 34.7304 49.9829 34.7699C49.8941 34.8023 49.8087 34.8434 49.7279 34.8926C49.6561 34.9396 49.593 34.9777 49.5397 35.0143C49.4924 35.0497 49.4353 35.0689 49.3766 35.0693C49.3343 35.0711 49.2928 35.0578 49.2593 35.0317C49.2266 35.0078 49.1989 34.9777 49.1777 34.9429L49.0613 34.7253ZM51.0082 36.1823C50.7779 36.1879 50.5483 36.2093 50.3208 36.2462C50.1629 36.2699 50.0086 36.3141 49.8619 36.3778C49.762 36.4206 49.674 36.4877 49.606 36.5734C49.5549 36.6467 49.5281 36.7346 49.5295 36.8244C49.5267 36.9015 49.5411 36.9783 49.5717 37.049C49.5971 37.1099 49.6371 37.1633 49.6881 37.2046C49.7379 37.2463 49.7961 37.2766 49.8586 37.2934C49.9286 37.3115 50.0006 37.3204 50.0728 37.3197C50.1673 37.3206 50.2615 37.3105 50.3537 37.2897C50.4359 37.2697 50.5156 37.24 50.591 37.2013C50.6673 37.1624 50.7391 37.1151 50.8052 37.0603C50.877 37.0024 50.9449 36.9396 51.0082 36.8723V36.1823Z" fill="white" fill-opacity="0.5"/>
<path d="M53.1689 34.7219C53.2424 34.643 53.3209 34.5692 53.404 34.501C53.4846 34.4353 53.5716 34.3782 53.6635 34.3304C53.8605 34.2303 54.0779 34.1788 54.2981 34.1799C54.4704 34.1764 54.6415 34.2097 54.8002 34.2777C54.94 34.3379 55.0641 34.4303 55.1626 34.5475C55.2631 34.6709 55.3384 34.8132 55.3842 34.9663C55.4359 35.1421 55.4614 35.3248 55.4598 35.5082V37.7389H54.7914V35.5077C54.8045 35.2988 54.7444 35.0919 54.6217 34.9235C54.5563 34.8508 54.4755 34.7941 54.3853 34.7578C54.2951 34.7214 54.1979 34.7064 54.1011 34.7139C53.934 34.7132 53.7695 34.7554 53.6228 34.8366C53.4681 34.9237 53.3286 35.0359 53.2097 35.1689V37.7389H52.5469V34.2349H52.9451C52.9854 34.2315 53.0256 34.2435 53.0576 34.2685C53.0897 34.2936 53.1114 34.3299 53.1184 34.3703L53.1689 34.7219Z" fill="white" fill-opacity="0.5"/>
<path d="M59.2474 32.6504V37.7387H58.8474C58.8072 37.7421 58.7671 37.7304 58.735 37.7056C58.7028 37.6809 58.6808 37.645 58.6731 37.6048L58.6156 37.201C58.475 37.3714 58.3053 37.5147 58.1145 37.6241C57.9159 37.7344 57.692 37.7897 57.4656 37.7843C57.2809 37.787 57.0979 37.7476 56.9302 37.6692C56.7687 37.5887 56.6285 37.4704 56.5209 37.3242C56.3983 37.1569 56.3092 36.9669 56.2585 36.7649C56.1934 36.5142 56.1622 36.2556 56.1658 35.9964C56.1635 35.751 56.1977 35.5067 56.2673 35.2716C56.3293 35.0611 56.4296 34.8642 56.5631 34.6912C56.6912 34.5311 56.8514 34.4003 57.0331 34.3077C57.2267 34.2118 57.4398 34.1635 57.6552 34.1666C57.8382 34.1616 58.0201 34.1971 58.1883 34.2705C58.3368 34.3407 58.4701 34.44 58.5804 34.5629V32.6504H59.2474ZM58.5809 35.0841C58.4905 34.9548 58.3697 34.8505 58.2295 34.7805C58.0959 34.7209 57.9513 34.6909 57.8054 34.6926C57.6699 34.686 57.535 34.7129 57.4121 34.771C57.2893 34.8292 57.1823 34.9168 57.1003 35.0263C56.9152 35.3142 56.8275 35.6554 56.8505 35.9983C56.8467 36.19 56.8654 36.3816 56.9061 36.5689C56.9349 36.7067 56.99 36.8375 57.0683 36.9538C57.1354 37.0504 57.2268 37.127 57.333 37.1757C57.4444 37.2236 57.5644 37.2474 57.6853 37.2457C57.8612 37.2505 58.0349 37.2049 58.1864 37.1141C58.339 37.0167 58.4726 36.8918 58.5809 36.7456V35.0841Z" fill="white" fill-opacity="0.5"/>
<path d="M63.0115 37.2412C62.9304 37.3383 62.8354 37.4224 62.7296 37.4908C62.6228 37.5603 62.5087 37.6175 62.3894 37.6614C62.2689 37.7049 62.1448 37.7371 62.0185 37.7578C61.8929 37.7776 61.766 37.7877 61.6389 37.7878C61.413 37.7905 61.1887 37.7489 60.9784 37.6652C60.7787 37.5867 60.5985 37.4648 60.4504 37.308C60.296 37.1393 60.178 36.9399 60.1041 36.7223C60.0165 36.4631 59.9743 36.1903 59.9794 35.9163C59.9779 35.6843 60.016 35.4539 60.0921 35.2352C60.1633 35.0324 60.2725 34.8455 60.4138 34.6848C60.5557 34.5266 60.7296 34.4013 60.9237 34.3173C61.1383 34.2238 61.3701 34.1777 61.6037 34.1819C61.8027 34.1796 62.0004 34.2153 62.1863 34.2872C62.3608 34.3535 62.519 34.4574 62.6499 34.5918C62.7843 34.7333 62.8883 34.9015 62.9554 35.0857C63.0315 35.3 63.0684 35.5264 63.0643 35.7541C63.071 35.8253 63.0595 35.897 63.0309 35.9623C63.0163 35.9816 62.997 35.9967 62.9749 36.0062C62.9528 36.0156 62.9287 36.0191 62.9048 36.0164H60.6386C60.6413 36.202 60.6713 36.3863 60.7276 36.563C60.7723 36.706 60.8461 36.8379 60.9441 36.9503C61.0325 37.0526 61.1438 37.1322 61.2685 37.1825C61.4045 37.2341 61.5488 37.2596 61.6941 37.2577C61.8237 37.2606 61.953 37.2434 62.0774 37.2064C62.173 37.1766 62.266 37.1389 62.3555 37.0936C62.4231 37.0603 62.4887 37.0231 62.5521 36.9822C62.5936 36.9516 62.6431 36.9338 62.6944 36.931C62.7186 36.9298 62.7427 36.9348 62.7645 36.9456C62.7863 36.9564 62.8051 36.9725 62.8191 36.9926L63.0115 37.2412ZM62.4649 35.5985C62.4657 35.4734 62.4464 35.3489 62.4079 35.23C62.3739 35.122 62.3178 35.0224 62.2434 34.9377C62.1705 34.8531 62.0794 34.7866 61.9773 34.7431C61.8073 34.6769 61.6229 34.6584 61.4435 34.6895C61.264 34.7206 61.0961 34.8002 60.9575 34.9198C60.7861 35.1064 60.6793 35.3445 60.6534 35.5981L62.4649 35.5985Z" fill="white" fill-opacity="0.5"/>
<path d="M64.4576 32.6504H63.791V37.7402H64.4576V32.6504Z" fill="white" fill-opacity="0.5"/>
</g>
<mask id="mask1_1798_4120" style="mask-type:luminance" maskUnits="userSpaceOnUse" x="0" y="0" width="122" height="38">
<path d="M122 0H0V38H122V0Z" fill="white"/>
</mask>
<g mask="url(#mask1_1798_4120)">
<path d="M87.0655 15.5141L78.0728 37.9999H74.2323L67.542 21.2271H71.058C71.3533 21.2159 71.6442 21.3016 71.8877 21.4715C72.0978 21.6223 72.2516 21.8405 72.3244 22.0909L75.3226 30.1878C75.5105 30.7634 75.6738 31.3353 75.8125 31.9034C75.9516 32.4716 76.0772 33.0342 76.1945 33.5954C76.3118 33.0314 76.442 32.473 76.5876 31.9128C76.7331 31.3525 76.9065 30.7768 77.1109 30.186L82.4825 16.3779C82.5688 16.1284 82.7291 15.912 82.9414 15.7585C83.1701 15.5929 83.4457 15.5072 83.7266 15.5141H87.0655Z" fill="white" fill-opacity="0.5"/>
<path d="M57.3604 22.4858L66.3522 0H70.1936L76.8839 16.7728H73.3693C73.074 16.784 72.783 16.6983 72.5395 16.5284C72.3294 16.3776 72.1756 16.1594 72.1029 15.909L69.1014 7.81207C68.9136 7.23646 68.7502 6.66461 68.6115 6.09653C68.4724 5.52828 68.3468 4.96568 68.2295 4.40448C68.1122 4.9685 67.982 5.52687 67.8364 6.08713C67.6909 6.64738 67.5175 7.22314 67.3131 7.81395L61.9434 21.6206C61.8571 21.8701 61.6968 22.0865 61.4845 22.24C61.2557 22.4055 60.9802 22.4913 60.6993 22.4844L57.3604 22.4858Z" fill="white" fill-opacity="0.5"/>
</g>
</svg>
