<svg width="69" height="47" viewBox="0 0 69 47" fill="none" xmlns="http://www.w3.org/2000/svg">
<g clip-path="url(#clip0_2526_1737)">
<path d="M2.30721 7.58772L8.59256 2.08186C8.64767 2.04076 8.73746 1.97912 8.86194 1.89693C9.01895 1.80636 9.19937 1.76349 9.38078 1.77365H9.71289C9.82204 1.77634 9.92597 1.82048 10.0032 1.89694C10.0804 1.9734 10.125 2.07633 10.1277 2.18443C10.1297 2.23355 10.1215 2.28255 10.1037 2.32843C10.0859 2.3743 10.0588 2.41609 10.0241 2.45123L2.9938 8.65586L10.4593 15.4562C10.5162 15.5137 10.5548 15.5865 10.5703 15.6655C10.5857 15.7446 10.5774 15.8264 10.5463 15.9008C10.5152 15.9752 10.4628 16.0389 10.3954 16.084C10.3281 16.1291 10.2488 16.1536 10.1675 16.1545H9.81501C9.63376 16.1645 9.45353 16.1217 9.29666 16.0312C9.17217 15.949 9.08222 15.8874 9.02678 15.8463L2.30721 9.76541V15.7013C2.30721 16.0028 2.1482 16.1534 1.83019 16.153H1.45626C1.3943 16.1618 1.33113 16.1562 1.27175 16.1366C1.21237 16.117 1.15842 16.084 1.11416 16.0401C1.0699 15.9963 1.03656 15.9429 1.01677 15.8841C0.996983 15.8252 0.991293 15.7627 1.00015 15.7013V2.24608C1.00015 1.93145 1.15219 1.77397 1.45626 1.77365H1.82971C1.89449 1.76458 1.96051 1.77054 2.02256 1.79107C2.08461 1.81161 2.141 1.84615 2.18726 1.89196C2.23352 1.93778 2.2684 1.99362 2.28913 2.05508C2.30986 2.11653 2.31589 2.18192 2.30672 2.24608L2.30721 7.58772Z" fill="white" fill-opacity="0.5"/>
<path d="M18.2179 1.77288C19.461 1.70872 20.6884 2.07156 21.6927 2.80008C22.5569 3.48521 22.989 4.52605 22.989 5.92263C23.0408 6.87103 22.7504 7.80676 22.1697 8.56263C21.568 9.24597 20.7542 9.71211 19.8561 9.88792L23.1957 15.5171C23.2338 15.5866 23.2551 15.6639 23.2579 15.7429C23.2553 15.8511 23.2108 15.9542 23.1336 16.0307C23.0564 16.1073 22.9524 16.1515 22.8431 16.1542H22.5942C22.5029 16.1625 22.4109 16.1522 22.3238 16.1239C22.2367 16.0956 22.1565 16.0498 22.088 15.9895C21.978 15.8718 21.8839 15.7405 21.8079 15.5989L18.5082 10.0728H14.2349V15.7006C14.2349 16.0017 14.0759 16.1523 13.7579 16.1523H13.384C13.322 16.161 13.2589 16.1554 13.1995 16.1358C13.1401 16.1162 13.0862 16.0832 13.0419 16.0394C12.9976 15.9955 12.9643 15.9421 12.9445 15.8833C12.9247 15.8245 12.919 15.7619 12.9279 15.7006V2.24531C12.9279 1.93004 13.0799 1.77256 13.384 1.77288H18.2179ZM14.2349 8.84001H18.1138C20.4922 8.84001 21.6816 7.86755 21.682 5.92263C21.6823 3.9777 20.4929 3.0054 18.1138 3.00572H14.2349V8.84001Z" fill="white" fill-opacity="0.5"/>
<path d="M30.4564 1.56773C31.1832 1.55265 31.9069 1.66682 32.593 1.90483C33.1464 2.09921 33.6594 2.39163 34.1072 2.76782C34.4869 3.09013 34.7973 3.48483 35.0199 3.92841C35.2163 4.31168 35.3293 4.73152 35.3515 5.16077C35.3534 5.26631 35.3166 5.36896 35.2479 5.44971C35.2055 5.49357 35.1537 5.52742 35.0963 5.54876C35.0389 5.5701 34.9774 5.57838 34.9163 5.573H34.501C34.4093 5.56642 34.3205 5.53836 34.2419 5.49113C34.1851 5.45559 34.1376 5.40727 34.1033 5.35011C34.069 5.29295 34.0489 5.22857 34.0444 5.16221C33.9999 4.81779 33.8792 4.48734 33.691 4.19435C33.5029 3.90136 33.2518 3.65304 32.9557 3.46706C32.212 2.99488 31.3389 2.76254 30.4564 2.80201C29.9824 2.7984 29.5094 2.84686 29.0462 2.94648C28.6542 3.0269 28.2812 3.18018 27.9468 3.3982C27.6359 3.60052 27.383 3.87892 27.2126 4.20644C27.0422 4.53396 26.9601 4.89951 26.9743 5.26768C26.963 5.63115 27.045 5.99152 27.2125 6.31511C27.3986 6.63127 27.6582 6.8989 27.9696 7.09574C28.3798 7.36147 28.8181 7.58191 29.2767 7.75309C29.8022 7.95857 30.4384 8.17768 31.1853 8.41044C31.9597 8.65701 32.634 8.90021 33.2081 9.14003C33.7202 9.34468 34.2017 9.61769 34.6391 9.95149C35.0011 10.2305 35.2924 10.5893 35.4896 10.9994C35.6877 11.4528 35.7833 11.9436 35.7697 12.4374C35.7962 12.9961 35.6833 13.5527 35.4409 14.058C35.1985 14.5632 34.8341 15.0015 34.38 15.3341C33.4532 16.0189 32.1808 16.3613 30.5629 16.3613C29.8038 16.3736 29.0476 16.2662 28.3227 16.0429C27.7294 15.8598 27.1717 15.5784 26.6733 15.2108C26.2465 14.8947 25.8929 14.492 25.6361 14.0295C25.4013 13.6105 25.2698 13.1426 25.2525 12.6637C25.2521 12.6097 25.2629 12.5561 25.2844 12.5064C25.3058 12.4567 25.3373 12.4119 25.3769 12.3748C25.4176 12.3343 25.4661 12.3024 25.5196 12.2812C25.5732 12.26 25.6305 12.2499 25.6881 12.2515H26.1034C26.1613 12.2473 26.2194 12.2562 26.2734 12.2776C26.3273 12.299 26.3756 12.3322 26.4146 12.3748C26.4848 12.4588 26.5347 12.5577 26.5605 12.6637C26.609 12.9713 26.7145 13.2673 26.8717 13.5368C27.0554 13.8508 27.3068 14.1208 27.6079 14.3276C27.9792 14.5829 28.3897 14.777 28.8235 14.9026C29.3894 15.0646 29.9768 15.1409 30.5658 15.1289C31.9211 15.1289 32.9099 14.8857 33.5319 14.3993C33.8341 14.1696 34.0764 13.8716 34.2388 13.5304C34.4012 13.1891 34.4789 12.8144 34.4655 12.4374C34.478 12.073 34.3845 11.7128 34.1962 11.3996C33.9817 11.0868 33.6977 10.8269 33.3661 10.6397C32.9183 10.3792 32.4461 10.1625 31.956 9.99242C31.3887 9.78727 30.718 9.56125 29.9439 9.31436C29.2905 9.11648 28.6497 8.87976 28.0251 8.60548C27.544 8.39807 27.0967 8.1212 26.6976 7.78391C26.3575 7.49305 26.091 7.1272 25.9196 6.71578C25.7433 6.25345 25.6587 5.76175 25.6706 5.26768C25.6657 4.76493 25.7751 4.26753 25.9906 3.8123C26.206 3.35707 26.5221 2.95566 26.9154 2.63779C27.359 2.28661 27.8657 2.02173 28.4087 1.85715C29.0737 1.65482 29.7666 1.55732 30.4622 1.56821" fill="white" fill-opacity="0.5"/>
<path d="M31.3719 34.6917C31.3317 34.7618 31.2827 34.8266 31.226 34.8844C31.1853 34.9242 31.1365 34.9549 31.0828 34.9744C31.0291 34.9939 30.9718 35.0018 30.9148 34.9975H30.5622C30.4531 34.9948 30.3492 34.9507 30.2719 34.8742C30.1947 34.7978 30.1502 34.6948 30.1475 34.5867C30.1544 34.5018 30.1752 34.4185 30.2092 34.3402L37.4097 17.25L38.5368 17.7484L31.3719 34.6917Z" fill="white" fill-opacity="0.5"/>
<path d="M41.5139 33.2732C41.4519 33.282 41.3887 33.2763 41.3294 33.2567C41.27 33.2371 41.216 33.2041 41.1718 33.1603C41.1275 33.1165 41.0942 33.063 41.0744 33.0042C41.0546 32.9454 41.0489 32.8828 41.0578 32.8215V19.3662C41.0578 19.0516 41.2098 18.8941 41.5139 18.8938H46.9283C47.5637 18.8801 48.1962 18.9809 48.7951 19.1914C49.2839 19.3671 49.7294 19.6437 50.1021 20.0029C50.4394 20.3326 50.6981 20.7327 50.8592 21.1741C51.0198 21.6224 51.1004 22.095 51.0975 22.5706C51.1035 22.9672 51.0476 23.3622 50.9317 23.7418C50.8308 24.0626 50.6834 24.3671 50.4941 24.6458C50.33 24.889 50.1308 25.107 49.9028 25.293C49.7092 25.4514 49.497 25.586 49.2706 25.6937C49.5581 25.8382 49.8264 26.0176 50.0691 26.2277C50.3308 26.4541 50.5579 26.7171 50.743 27.0084C50.9425 27.3223 51.0995 27.6609 51.2098 28.0154C51.3298 28.4012 51.3893 28.803 51.3863 29.2068C51.3872 29.7229 51.2922 30.2348 51.1062 30.717C50.9218 31.2001 50.6442 31.643 50.2889 32.0211C49.9105 32.4179 49.4507 32.7299 48.9405 32.9361C48.3472 33.1715 47.7122 33.2862 47.0732 33.2732H41.5139ZM42.3643 20.1262V25.1389H46.6585C47.4952 25.1998 48.3264 24.9631 49.0027 24.4714C49.2699 24.2338 49.4795 23.9395 49.6159 23.6104C49.7523 23.2814 49.8119 22.9262 49.7904 22.5711C49.7904 20.9415 48.7463 20.1265 46.658 20.1262H42.3643ZM42.3643 26.3717V32.0418H46.8661C47.2974 32.0706 47.7303 32.0146 48.1397 31.8771C48.5491 31.7396 48.927 31.5232 49.2517 31.2405C49.7839 30.6926 50.0812 29.9618 50.0812 29.2015C50.0812 28.4412 49.7839 27.7104 49.2517 27.1625C48.5927 26.5979 47.7354 26.3137 46.8661 26.3717H42.3643Z" fill="white" fill-opacity="0.5"/>
<path d="M55.9111 19.5418C55.9111 19.1843 55.6185 18.8945 55.2575 18.8945C54.8966 18.8945 54.604 19.1843 54.604 19.5418V32.6281C54.604 32.9856 54.8966 33.2754 55.2575 33.2754C55.6185 33.2754 55.9111 32.9856 55.9111 32.6281V19.5418Z" fill="white" fill-opacity="0.5"/>
<path d="M68.5228 32.0413C68.5876 32.0322 68.6536 32.0382 68.7157 32.0587C68.7777 32.0792 68.8341 32.1138 68.8804 32.1596C68.9266 32.2054 68.9615 32.2612 68.9822 32.3227C69.003 32.3842 69.009 32.4495 68.9998 32.5137V32.8219C68.9998 33.1234 68.8408 33.2741 68.5228 33.2741H59.1867C58.8823 33.2741 58.7301 33.1166 58.7301 32.8017V32.3909C58.7215 32.2179 58.7648 32.0463 58.8546 31.8978C58.9376 31.7745 58.9998 31.6782 59.0413 31.6088L67.2157 20.1256H59.3749C59.3128 20.1344 59.2496 20.1288 59.1902 20.1092C59.1308 20.0895 59.0768 20.0565 59.0325 20.0126C58.9883 19.9687 58.9549 19.9152 58.9352 19.8563C58.9154 19.7974 58.9098 19.7348 58.9188 19.6734V19.3652C58.9188 19.0503 59.0708 18.8928 59.3749 18.8928H68.3157C68.3804 18.8837 68.4465 18.8897 68.5085 18.9102C68.5706 18.9307 68.6269 18.9653 68.6732 19.0111C68.7195 19.0569 68.7543 19.1128 68.7751 19.1742C68.7958 19.2357 68.8018 19.3011 68.7927 19.3652V19.776C68.7989 19.9249 68.7705 20.0732 68.7095 20.2094C68.6556 20.3169 68.5932 20.4199 68.5228 20.5176L60.3911 32.0432L68.5228 32.0413Z" fill="white" fill-opacity="0.5"/>
<path d="M44.6218 0.308832C44.6619 0.237927 44.7109 0.172383 44.7677 0.113793C44.8084 0.0741793 44.8572 0.0436328 44.9108 0.0241986C44.9643 0.00476429 45.0215 -0.00310937 45.0784 0.00110461H45.4309C45.4855 0.0007628 45.5396 0.0115296 45.5898 0.0327371C45.6399 0.0539445 45.6852 0.0851401 45.7227 0.124388C45.7623 0.161553 45.7938 0.206373 45.8152 0.256074C45.8366 0.305775 45.8475 0.359299 45.8472 0.413334C45.8472 0.468234 45.8268 0.550583 45.8093 0.668088L38.5373 17.7515L37.4097 17.2531L44.6218 0.308832Z" fill="white" fill-opacity="0.5"/>
</g>
<path d="M1.26134 42.1067C1.50368 42.1067 1.71055 42.1293 1.88314 42.1758C2.05574 42.2235 2.19641 42.2902 2.30753 42.376C2.41865 42.463 2.49904 42.5691 2.55105 42.6943C2.60188 42.8194 2.62907 42.9601 2.62907 43.115C2.62907 43.2044 2.61489 43.2926 2.5877 43.3773C2.56051 43.4607 2.51913 43.5394 2.46121 43.6133C2.40447 43.6872 2.33236 43.7527 2.24724 43.8111C2.16213 43.8695 2.05928 43.9172 1.94107 43.9566C2.47894 44.071 2.74729 44.3582 2.74729 44.8195C2.74729 44.9816 2.71655 45.1318 2.65626 45.2665C2.59597 45.4012 2.5085 45.5192 2.39383 45.6169C2.27916 45.7147 2.1373 45.791 1.96826 45.8458C1.80039 45.9018 1.60771 45.9292 1.39138 45.9292H0V42.1055H1.26134V42.1067ZM0.615893 42.5918V43.7861H1.23297C1.4954 43.7861 1.69282 43.736 1.82286 43.6323C1.95289 43.5298 2.01791 43.3832 2.01791 43.1889C2.01791 42.9792 1.95762 42.8266 1.83468 42.7324C1.71292 42.6395 1.52259 42.5918 1.26252 42.5918H0.617076H0.615893ZM1.37955 45.4393C1.51786 45.4393 1.6349 45.4226 1.73065 45.3893C1.8264 45.3571 1.90561 45.313 1.96471 45.2558C2.025 45.1997 2.06992 45.133 2.09711 45.0555C2.1243 44.9792 2.1373 44.8958 2.1373 44.8076C2.1373 44.6276 2.07702 44.4858 1.95526 44.3821C1.83231 44.2784 1.63962 44.2271 1.37719 44.2271H0.615893V45.4405H1.37955V45.4393Z" fill="white" fill-opacity="0.6"/>
<path d="M5.54525 43.2238V45.9319H5.20361C5.12795 45.9319 5.07949 45.895 5.05939 45.8223L5.01801 45.5696C4.96127 45.6292 4.90217 45.684 4.84069 45.7341C4.77804 45.7829 4.71184 45.8259 4.6421 45.8604C4.57235 45.8962 4.49669 45.9236 4.41749 45.9427C4.33829 45.9629 4.25199 45.9725 4.16097 45.9725C4.0132 45.9725 3.88316 45.9474 3.77204 45.8974C3.65856 45.8485 3.56517 45.7782 3.48833 45.6888C3.41149 45.597 3.35475 45.4897 3.31574 45.3634C3.27673 45.237 3.25781 45.0976 3.25781 44.945V43.2227H3.82406V44.945C3.82406 45.1274 3.86543 45.2692 3.94818 45.3705C4.03211 45.4718 4.1586 45.5219 4.32883 45.5219C4.45414 45.5219 4.56999 45.4933 4.67756 45.4361C4.78632 45.3777 4.8868 45.2978 4.98137 45.1977V43.2238H5.54761H5.54525Z" fill="white" fill-opacity="0.6"/>
<path d="M7.83876 43.7152C7.82458 43.7402 7.80921 43.7569 7.79148 43.7688C7.77375 43.7808 7.75129 43.7843 7.72528 43.7843C7.69573 43.7843 7.66263 43.776 7.62834 43.7569C7.59406 43.7378 7.5515 43.7176 7.50422 43.6937C7.45693 43.6699 7.40137 43.6496 7.33754 43.633C7.2737 43.6139 7.19805 43.6043 7.11293 43.6043C7.04319 43.6043 6.97935 43.6127 6.92261 43.6306C6.86468 43.6473 6.8174 43.6699 6.7772 43.7009C6.73819 43.7319 6.70746 43.7676 6.68618 43.8106C6.6649 43.8511 6.65426 43.8964 6.65426 43.9441C6.65426 44.0084 6.67436 44.0609 6.71219 44.1038C6.75002 44.1467 6.80085 44.1824 6.86468 44.2146C6.92734 44.2456 6.99945 44.273 7.07983 44.2981C7.1614 44.3231 7.24297 44.3493 7.3269 44.3779C7.41083 44.4053 7.49358 44.4375 7.57397 44.4757C7.65553 44.5126 7.72646 44.5579 7.7903 44.6115C7.85295 44.6664 7.90378 44.7319 7.94279 44.8082C7.9818 44.8857 8.00072 44.9787 8.00072 45.0895C8.00072 45.2159 7.97826 45.3339 7.93215 45.4423C7.88605 45.5496 7.81985 45.6438 7.73237 45.7236C7.64489 45.8035 7.53614 45.8655 7.40492 45.9096C7.27488 45.9549 7.12475 45.9763 6.95571 45.9763C6.8635 45.9763 6.77366 45.968 6.68618 45.9501C6.59988 45.9334 6.51595 45.9108 6.43911 45.8822C6.36109 45.8524 6.2878 45.8178 6.22042 45.7773C6.15304 45.7367 6.09275 45.6926 6.03955 45.645L6.17195 45.4268C6.18732 45.3994 6.20741 45.3792 6.23106 45.3637C6.2547 45.3482 6.28425 45.3422 6.31972 45.3422C6.35518 45.3422 6.39301 45.3529 6.42847 45.378C6.46512 45.4006 6.50649 45.428 6.55496 45.4554C6.60343 45.484 6.66136 45.5103 6.72992 45.5341C6.79848 45.5567 6.8836 45.5699 6.98526 45.5699C7.06919 45.5699 7.14248 45.5603 7.20396 45.5401C7.26543 45.5198 7.31626 45.4912 7.35645 45.4554C7.39664 45.4197 7.4262 45.3803 7.44629 45.335C7.46521 45.2898 7.47467 45.2409 7.47467 45.1908C7.47467 45.1217 7.45575 45.0645 7.41674 45.0204C7.37773 44.9751 7.3269 44.9381 7.26306 44.906C7.19923 44.875 7.12594 44.8464 7.04437 44.8213C6.9628 44.7963 6.87887 44.7701 6.79612 44.7415C6.71219 44.714 6.62826 44.6819 6.54787 44.6437C6.4663 44.6068 6.39301 44.5591 6.32917 44.5019C6.26534 44.4447 6.21451 44.3755 6.1755 44.2921C6.13649 44.2099 6.11757 44.1097 6.11757 43.9905C6.11757 43.8833 6.13885 43.7808 6.18141 43.6842C6.22515 43.5865 6.2878 43.5007 6.37173 43.4268C6.45448 43.3517 6.55733 43.2933 6.67909 43.2491C6.80203 43.205 6.94152 43.1836 7.10111 43.1836C7.28198 43.1836 7.44629 43.2134 7.59406 43.2718C7.74183 43.3302 7.86477 43.4101 7.96525 43.5102L7.83876 43.7176V43.7152Z" fill="white" fill-opacity="0.6"/>
<path d="M9.21799 42.4053C9.21799 42.4565 9.20735 42.5054 9.18726 42.5507C9.16716 42.596 9.13879 42.6365 9.10451 42.6723C9.06904 42.7068 9.02885 42.7331 8.98157 42.7545C8.93428 42.776 8.88581 42.7843 8.83262 42.7843C8.77942 42.7843 8.73332 42.7748 8.68958 42.7545C8.64584 42.7343 8.60565 42.7068 8.57255 42.6723C8.53826 42.6365 8.51226 42.5972 8.49216 42.5507C8.47206 42.5042 8.46143 42.4565 8.46143 42.4053C8.46143 42.354 8.47206 42.3028 8.49216 42.2563C8.51226 42.2098 8.53826 42.1705 8.57255 42.1347C8.60565 42.1002 8.64466 42.0739 8.68958 42.0525C8.7345 42.031 8.78178 42.0215 8.83262 42.0215C8.88345 42.0215 8.93428 42.0322 8.98157 42.0525C9.02885 42.0727 9.06904 42.1002 9.10451 42.1347C9.13997 42.1705 9.16716 42.2098 9.18726 42.2563C9.20735 42.3028 9.21799 42.3517 9.21799 42.4053ZM9.12342 43.223V45.9311H8.55718V43.223H9.12342Z" fill="white" fill-opacity="0.6"/>
<path d="M10.3661 43.5802C10.424 43.5206 10.4843 43.4658 10.547 43.4181C10.6096 43.3692 10.6758 43.3263 10.7456 43.2917C10.8153 43.2572 10.8898 43.2286 10.969 43.2095C11.0482 43.1904 11.1345 43.1797 11.2267 43.1797C11.3745 43.1797 11.5045 43.2059 11.6156 43.2548C11.7267 43.3037 11.8213 43.3752 11.8982 43.4646C11.9738 43.554 12.0317 43.6636 12.0707 43.7888C12.1098 43.9151 12.1287 44.0546 12.1287 44.2071V45.9307H11.566V44.2071C11.566 44.0248 11.5246 43.8829 11.4407 43.7816C11.3567 43.6803 11.2302 43.6302 11.06 43.6302C10.9335 43.6302 10.8165 43.66 10.7089 43.7184C10.6013 43.7768 10.4997 43.8567 10.4051 43.9568V45.9295H9.83887V43.2214H10.1805C10.2585 43.2214 10.307 43.2572 10.3283 43.3287L10.3673 43.5778L10.3661 43.5802Z" fill="white" fill-opacity="0.6"/>
<path d="M13.2026 44.6219C13.2096 44.7757 13.2333 44.908 13.2735 45.0212C13.3137 45.1333 13.3681 45.2274 13.4354 45.3013C13.5028 45.3764 13.5844 45.4313 13.6778 45.4682C13.7712 45.5052 13.8764 45.523 13.9922 45.523C14.1081 45.523 14.1979 45.5099 14.2795 45.4849C14.361 45.4587 14.4308 45.4301 14.4899 45.3991C14.549 45.3693 14.601 45.3407 14.6424 45.3145C14.6838 45.2882 14.7228 45.2763 14.7582 45.2763C14.8043 45.2763 14.8398 45.2942 14.8635 45.3299L15.0242 45.5397C14.9568 45.6184 14.8812 45.6851 14.7973 45.7412C14.7133 45.796 14.6235 45.8413 14.5277 45.8747C14.4332 45.9092 14.3362 45.9331 14.2357 45.9486C14.1353 45.9641 14.0383 45.9712 13.9438 45.9712C13.7582 45.9712 13.5856 45.9402 13.426 45.8771C13.2664 45.8139 13.1293 45.7221 13.0122 45.5993C12.8964 45.4777 12.8042 45.3264 12.738 45.1452C12.673 44.9652 12.6387 44.7566 12.6387 44.5218C12.6387 44.3335 12.6682 44.1595 12.7273 43.995C12.7864 43.8329 12.8704 43.691 12.9803 43.5706C13.0902 43.4491 13.2226 43.3549 13.3799 43.2846C13.5371 43.2154 13.7156 43.1797 13.913 43.1797C14.0785 43.1797 14.231 43.2071 14.3717 43.2619C14.5112 43.3156 14.6329 43.3954 14.7346 43.4991C14.8363 43.604 14.9155 43.7327 14.9734 43.8817C15.0301 44.0331 15.0585 44.2059 15.0585 44.399C15.0585 44.4872 15.049 44.548 15.029 44.5778C15.01 44.6076 14.9746 44.6231 14.9237 44.6231H13.199L13.2026 44.6219ZM14.5537 44.2715C14.5537 44.1762 14.5395 44.0856 14.5124 44.0045C14.4852 43.9235 14.445 43.8507 14.393 43.7888C14.3398 43.7292 14.2747 43.6815 14.1967 43.6457C14.1187 43.6112 14.0289 43.5945 13.9272 43.5945C13.7215 43.5945 13.5596 43.6541 13.4425 43.7733C13.3255 43.8925 13.251 44.0581 13.2191 44.2727H14.5549L14.5537 44.2715Z" fill="white" fill-opacity="0.6"/>
<path d="M17.1918 43.7152C17.1776 43.7402 17.1622 43.7569 17.1445 43.7688C17.1268 43.7808 17.1043 43.7843 17.0783 43.7843C17.0488 43.7843 17.0157 43.776 16.9814 43.7569C16.9471 43.7378 16.9045 43.7176 16.8572 43.6937C16.81 43.6699 16.7544 43.6496 16.6906 43.633C16.6267 43.6139 16.5511 43.6043 16.466 43.6043C16.3962 43.6043 16.3324 43.6127 16.2756 43.6306C16.2177 43.6473 16.1704 43.6699 16.1302 43.7009C16.0912 43.7319 16.0605 43.7676 16.0392 43.8106C16.0179 43.8511 16.0073 43.8964 16.0073 43.9441C16.0073 44.0084 16.0274 44.0609 16.0652 44.1038C16.103 44.1467 16.1539 44.1824 16.2177 44.2146C16.2804 44.2456 16.3525 44.273 16.4329 44.2981C16.5144 44.3231 16.596 44.3493 16.6799 44.3779C16.7639 44.4053 16.8466 44.4375 16.927 44.4757C17.0086 44.5126 17.0795 44.5579 17.1433 44.6115C17.206 44.6664 17.2568 44.7319 17.2958 44.8082C17.3348 44.8857 17.3537 44.9787 17.3537 45.0895C17.3537 45.2159 17.3313 45.3339 17.2852 45.4423C17.2391 45.5496 17.1729 45.6438 17.0854 45.7236C16.9979 45.8035 16.8892 45.8655 16.7579 45.9096C16.6279 45.9549 16.4778 45.9763 16.3087 45.9763C16.2165 45.9763 16.1267 45.968 16.0392 45.9501C15.9529 45.9334 15.869 45.9108 15.7921 45.8822C15.7141 45.8524 15.6408 45.8178 15.5734 45.7773C15.5061 45.7367 15.4458 45.6926 15.3926 45.645L15.525 45.4268C15.5403 45.3994 15.5604 45.3792 15.5841 45.3637C15.6077 45.3482 15.6373 45.3422 15.6727 45.3422C15.7082 45.3422 15.746 45.3529 15.7815 45.378C15.8181 45.4006 15.8595 45.428 15.908 45.4554C15.9565 45.484 16.0144 45.5103 16.0829 45.5341C16.1515 45.5567 16.2366 45.5699 16.3383 45.5699C16.4222 45.5699 16.4955 45.5603 16.557 45.5401C16.6185 45.5198 16.6693 45.4912 16.7095 45.4554C16.7497 45.4197 16.7792 45.3803 16.7993 45.335C16.8182 45.2898 16.8277 45.2409 16.8277 45.1908C16.8277 45.1217 16.8088 45.0645 16.7698 45.0204C16.7308 44.9751 16.6799 44.9381 16.6161 44.906C16.5523 44.875 16.479 44.8464 16.3974 44.8213C16.3158 44.7963 16.2319 44.7701 16.1491 44.7415C16.0652 44.714 15.9813 44.6819 15.9009 44.6437C15.8193 44.6068 15.746 44.5591 15.6822 44.5019C15.6184 44.4447 15.5675 44.3755 15.5285 44.2921C15.4895 44.2099 15.4706 44.1097 15.4706 43.9905C15.4706 43.8833 15.4919 43.7808 15.5344 43.6842C15.5782 43.5865 15.6408 43.5007 15.7248 43.4268C15.8075 43.3517 15.9104 43.2933 16.0321 43.2491C16.1551 43.205 16.2945 43.1836 16.4541 43.1836C16.635 43.1836 16.7993 43.2134 16.9471 43.2718C17.0949 43.3302 17.2178 43.4101 17.3183 43.5102L17.1918 43.7176V43.7152Z" fill="white" fill-opacity="0.6"/>
<path d="M19.4901 43.7152C19.4759 43.7402 19.4606 43.7569 19.4428 43.7688C19.4251 43.7808 19.4027 43.7843 19.3766 43.7843C19.3471 43.7843 19.314 43.776 19.2797 43.7569C19.2454 43.7378 19.2029 43.7176 19.1556 43.6937C19.1083 43.6699 19.0527 43.6496 18.9889 43.633C18.9251 43.6139 18.8494 43.6043 18.7643 43.6043C18.6946 43.6043 18.6307 43.6127 18.574 43.6306C18.516 43.6473 18.4688 43.6699 18.4286 43.7009C18.3896 43.7319 18.3588 43.7676 18.3375 43.8106C18.3163 43.8511 18.3056 43.8964 18.3056 43.9441C18.3056 44.0084 18.3257 44.0609 18.3636 44.1038C18.4014 44.1467 18.4522 44.1824 18.516 44.2146C18.5787 44.2456 18.6508 44.273 18.7312 44.2981C18.8128 44.3231 18.8943 44.3493 18.9783 44.3779C19.0622 44.4053 19.1449 44.4375 19.2253 44.4757C19.3069 44.5126 19.3778 44.5579 19.4417 44.6115C19.5043 44.6664 19.5551 44.7319 19.5942 44.8082C19.6332 44.8857 19.6521 44.9787 19.6521 45.0895C19.6521 45.2159 19.6296 45.3339 19.5835 45.4423C19.5374 45.5496 19.4712 45.6438 19.3837 45.7236C19.2963 45.8035 19.1875 45.8655 19.0563 45.9096C18.9263 45.9549 18.7761 45.9763 18.6071 45.9763C18.5149 45.9763 18.425 45.968 18.3375 45.9501C18.2513 45.9334 18.1673 45.9108 18.0905 45.8822C18.0125 45.8524 17.9392 45.8178 17.8718 45.7773C17.8044 45.7367 17.7441 45.6926 17.6909 45.645L17.8233 45.4268C17.8387 45.3994 17.8588 45.3792 17.8824 45.3637C17.9061 45.3482 17.9356 45.3422 17.9711 45.3422C18.0065 45.3422 18.0444 45.3529 18.0798 45.378C18.1165 45.4006 18.1579 45.428 18.2063 45.4554C18.2548 45.484 18.3127 45.5103 18.3813 45.5341C18.4498 45.5567 18.535 45.5699 18.6366 45.5699C18.7206 45.5699 18.7939 45.5603 18.8553 45.5401C18.9168 45.5198 18.9676 45.4912 19.0078 45.4554C19.048 45.4197 19.0776 45.3803 19.0977 45.335C19.1166 45.2898 19.126 45.2409 19.126 45.1908C19.126 45.1217 19.1071 45.0645 19.0681 45.0204C19.0291 44.9751 18.9783 44.9381 18.9144 44.906C18.8506 44.875 18.7773 44.8464 18.6957 44.8213C18.6142 44.7963 18.5302 44.7701 18.4475 44.7415C18.3636 44.714 18.2796 44.6819 18.1992 44.6437C18.1177 44.6068 18.0444 44.5591 17.9805 44.5019C17.9167 44.4447 17.8659 44.3755 17.8269 44.2921C17.7879 44.2099 17.7689 44.1097 17.7689 43.9905C17.7689 43.8833 17.7902 43.7808 17.8328 43.6842C17.8765 43.5865 17.9392 43.5007 18.0231 43.4268C18.1058 43.3517 18.2087 43.2933 18.3305 43.2491C18.4534 43.205 18.5929 43.1836 18.7525 43.1836C18.9333 43.1836 19.0977 43.2134 19.2454 43.2718C19.3932 43.3302 19.5161 43.4101 19.6166 43.5102L19.4901 43.7176V43.7152Z" fill="white" fill-opacity="0.6"/>
<path d="M24.4881 45.9312H23.9373C23.8285 45.9312 23.7493 45.8895 23.7008 45.8024L22.8154 44.5151C22.7859 44.4698 22.7528 44.4389 22.7185 44.4198C22.6842 44.4007 22.631 44.39 22.5601 44.39H22.2184V45.9312H21.6025V42.1074H22.7185C22.9679 42.1074 23.1819 42.1336 23.3627 42.1837C23.5424 42.235 23.6902 42.3077 23.8072 42.403C23.9231 42.4972 24.0082 42.6116 24.0637 42.7439C24.1193 42.8762 24.1465 43.0252 24.1465 43.1873C24.1465 43.3208 24.1264 43.4448 24.0874 43.5592C24.0484 43.6736 23.9905 43.7785 23.916 43.8727C23.8415 43.9657 23.7493 44.0467 23.6405 44.117C23.5318 44.185 23.4077 44.2398 23.2694 44.2791C23.345 44.3244 23.41 44.39 23.4644 44.4722L24.4893 45.93L24.4881 45.9312ZM22.7031 43.9394C22.8426 43.9394 22.9655 43.9227 23.0719 43.8882C23.1771 43.8536 23.2658 43.8059 23.3344 43.744C23.4041 43.6832 23.4573 43.6093 23.4928 43.5234C23.5282 43.4376 23.546 43.3423 23.546 43.2374C23.546 43.0288 23.4774 42.8691 23.3403 42.7606C23.2032 42.6498 22.9963 42.5961 22.7185 42.5961H22.2184V43.9418H22.7031V43.9394Z" fill="white" fill-opacity="0.6"/>
<path d="M25.0776 44.6219C25.0846 44.7757 25.1083 44.908 25.1485 45.0212C25.1887 45.1333 25.243 45.2274 25.3104 45.3013C25.3778 45.3764 25.4594 45.4313 25.5528 45.4682C25.6462 45.5052 25.7514 45.523 25.8672 45.523C25.9831 45.523 26.0729 45.5099 26.1545 45.4849C26.236 45.4587 26.3058 45.4301 26.3649 45.3991C26.424 45.3693 26.476 45.3407 26.5174 45.3145C26.5588 45.2882 26.5978 45.2763 26.6332 45.2763C26.6793 45.2763 26.7148 45.2942 26.7385 45.3299L26.8992 45.5397C26.8318 45.6184 26.7562 45.6851 26.6723 45.7412C26.5883 45.796 26.4985 45.8413 26.4027 45.8747C26.3082 45.9092 26.2112 45.9331 26.1107 45.9486C26.0103 45.9641 25.9133 45.9712 25.8188 45.9712C25.6332 45.9712 25.4606 45.9402 25.301 45.8771C25.1414 45.8139 25.0043 45.7221 24.8872 45.5993C24.7714 45.4777 24.6792 45.3264 24.613 45.1452C24.548 44.9652 24.5137 44.7566 24.5137 44.5218C24.5137 44.3335 24.5432 44.1595 24.6023 43.995C24.6614 43.8329 24.7454 43.691 24.8553 43.5706C24.9652 43.4491 25.0976 43.3549 25.2549 43.2846C25.4121 43.2154 25.5906 43.1797 25.788 43.1797C25.9535 43.1797 26.106 43.2071 26.2467 43.2619C26.3862 43.3156 26.5079 43.3954 26.6096 43.4991C26.7113 43.604 26.7905 43.7327 26.8484 43.8817C26.9051 44.0331 26.9335 44.2059 26.9335 44.399C26.9335 44.4872 26.924 44.548 26.904 44.5778C26.885 44.6076 26.8496 44.6231 26.7987 44.6231H25.074L25.0776 44.6219ZM26.4287 44.2715C26.4287 44.1762 26.4145 44.0856 26.3874 44.0045C26.3602 43.9235 26.32 43.8507 26.268 43.7888C26.2148 43.7292 26.1497 43.6815 26.0717 43.6457C25.9937 43.6112 25.9039 43.5945 25.8022 43.5945C25.5965 43.5945 25.4346 43.6541 25.3175 43.7733C25.2005 43.8925 25.126 44.0581 25.0941 44.2727H26.4299L26.4287 44.2715Z" fill="white" fill-opacity="0.6"/>
<path d="M29.7781 43.3204V43.5314C29.7781 43.6017 29.7367 43.6458 29.6516 43.6625L29.3832 43.7078C29.4293 43.8103 29.4518 43.9248 29.4518 44.0499C29.4518 44.1822 29.4258 44.3038 29.375 44.4111C29.323 44.5183 29.2508 44.6113 29.1598 44.6864C29.0688 44.7627 28.96 44.8211 28.8336 44.8628C28.7071 44.9045 28.5711 44.9236 28.4233 44.9236C28.3678 44.9236 28.3122 44.9212 28.2578 44.9141C28.2035 44.9069 28.1526 44.8986 28.1018 44.8878C28.051 44.9188 28.0131 44.951 27.9883 44.9844C27.9635 45.0166 27.9517 45.0523 27.9517 45.0869C27.9517 45.1453 27.9765 45.1894 28.0285 45.218C28.0793 45.2466 28.1467 45.2669 28.2295 45.2788C28.3134 45.2907 28.4092 45.2991 28.5156 45.3014C28.6219 45.305 28.7307 45.311 28.8418 45.3205C28.9518 45.3289 29.0605 45.3432 29.1681 45.3646C29.2745 45.3849 29.3702 45.4194 29.453 45.4659C29.5369 45.5124 29.6043 45.5768 29.654 45.6555C29.7048 45.7353 29.7308 45.839 29.7308 45.9666C29.7308 46.0834 29.7012 46.1966 29.6445 46.3086C29.5866 46.4207 29.5026 46.5196 29.3927 46.6054C29.2828 46.6924 29.1492 46.7628 28.9908 46.814C28.8324 46.8653 28.6527 46.8927 28.4517 46.8927C28.2508 46.8927 28.077 46.8724 27.9292 46.8343C27.7803 46.7949 27.6561 46.7425 27.5568 46.6758C27.4575 46.609 27.3842 46.5327 27.3358 46.4457C27.2873 46.3599 27.2637 46.2693 27.2637 46.1763C27.2637 46.0476 27.3039 45.9403 27.3831 45.8485C27.4623 45.7592 27.5722 45.6876 27.7082 45.6376C27.6349 45.6018 27.5758 45.5529 27.5308 45.4898C27.4859 45.429 27.4635 45.3467 27.4635 45.2454C27.4635 45.1668 27.493 45.0833 27.5509 44.9963C27.6089 44.9105 27.6952 44.8366 27.811 44.777C27.6774 44.7019 27.5722 44.6042 27.4954 44.4814C27.4185 44.3574 27.3795 44.2144 27.3795 44.0487C27.3795 43.9152 27.4055 43.7936 27.4564 43.6852C27.5084 43.5779 27.5805 43.4861 27.6739 43.4098C27.7661 43.3335 27.8772 43.2751 28.0037 43.2334C28.1314 43.1941 28.2697 43.1738 28.421 43.1738C28.6527 43.1738 28.8548 43.2215 29.0262 43.3192H29.7769L29.7781 43.3204ZM29.2095 46.0619C29.2095 46.0023 29.1929 45.9546 29.1586 45.9177C29.1244 45.8807 29.0783 45.8533 29.0203 45.833C28.9624 45.8128 28.895 45.7973 28.817 45.7878C28.7402 45.777 28.6574 45.7699 28.5711 45.7663C28.4836 45.7627 28.395 45.758 28.3051 45.7532C28.2153 45.7496 28.1278 45.7413 28.0439 45.7282C27.96 45.7723 27.8902 45.8247 27.837 45.8879C27.7838 45.9487 27.7566 46.0214 27.7566 46.1024C27.7566 46.1561 27.7708 46.2061 27.798 46.2514C27.8252 46.2979 27.8666 46.3372 27.9245 46.3718C27.9812 46.4064 28.0545 46.4314 28.1432 46.4505C28.2318 46.4707 28.3382 46.4803 28.4635 46.4803C28.713 46.4803 28.8997 46.4409 29.0251 46.3635C29.1492 46.286 29.2118 46.1859 29.2118 46.0631L29.2095 46.0619ZM28.4222 44.5517C28.5971 44.5517 28.7295 44.5064 28.817 44.417C28.9045 44.3276 28.9494 44.2084 28.9494 44.0642C28.9494 43.92 28.9057 43.7984 28.817 43.7114C28.7283 43.6244 28.5971 43.5803 28.4222 43.5803C28.2472 43.5803 28.1172 43.6244 28.0285 43.7114C27.9399 43.7984 27.8949 43.9164 27.8949 44.0642C27.8949 44.1345 27.9068 44.2001 27.9292 44.2609C27.9517 44.3205 27.986 44.3729 28.0297 44.4158C28.0734 44.4599 28.129 44.4921 28.1952 44.5171C28.2602 44.5398 28.3371 44.5529 28.4233 44.5529L28.4222 44.5517Z" fill="white" fill-opacity="0.6"/>
<path d="M30.9109 42.4053C30.9109 42.4565 30.9014 42.5054 30.8813 42.5507C30.8612 42.596 30.8328 42.6365 30.7974 42.6723C30.7619 42.7068 30.7217 42.7331 30.6756 42.7545C30.6283 42.7748 30.5799 42.7843 30.5267 42.7843C30.4735 42.7843 30.4274 42.7748 30.3836 42.7545C30.3399 42.7343 30.2997 42.7068 30.2654 42.6723C30.2311 42.6365 30.2051 42.5972 30.185 42.5507C30.1649 42.5042 30.1543 42.4565 30.1543 42.4053C30.1543 42.354 30.1649 42.3028 30.185 42.2563C30.2051 42.2098 30.2311 42.1705 30.2654 42.1347C30.2997 42.1002 30.3387 42.0739 30.3836 42.0525C30.4286 42.031 30.4758 42.0215 30.5267 42.0215C30.5775 42.0215 30.6283 42.0322 30.6756 42.0525C30.7217 42.0727 30.7619 42.1002 30.7974 42.1347C30.8328 42.1705 30.8612 42.2098 30.8813 42.2563C30.9014 42.3028 30.9109 42.3517 30.9109 42.4053ZM30.8163 43.223V45.9311H30.2501V43.223H30.8163Z" fill="white" fill-opacity="0.6"/>
<path d="M32.6897 43.1777C32.8883 43.1777 33.0668 43.2099 33.2276 43.2779C33.3883 43.3434 33.5255 43.4364 33.6389 43.5556C33.7524 43.6748 33.8387 43.8214 33.9014 43.993C33.9617 44.1647 33.9936 44.3589 33.9936 44.5723C33.9936 44.7857 33.9629 44.9788 33.9014 45.1504C33.8387 45.322 33.7524 45.4698 33.6389 45.589C33.5255 45.7106 33.3883 45.8048 33.2276 45.8703C33.0668 45.9359 32.8883 45.9681 32.6897 45.9681C32.4911 45.9681 32.3102 45.9359 32.1483 45.8703C31.9863 45.8048 31.8504 45.7106 31.7357 45.589C31.6222 45.4686 31.5347 45.322 31.4721 45.1504C31.4118 44.9788 31.3799 44.7869 31.3799 44.5723C31.3799 44.3578 31.4106 44.1647 31.4721 43.993C31.5347 43.8214 31.6222 43.6748 31.7357 43.5556C31.8504 43.4352 31.9875 43.3434 32.1483 43.2779C32.309 43.2111 32.4887 43.1777 32.6897 43.1777ZM32.6897 45.5235C32.932 45.5235 33.1129 45.4412 33.2311 45.2779C33.3505 45.1146 33.4096 44.8798 33.4096 44.5759C33.4096 44.2719 33.3505 44.0359 33.2311 43.8714C33.1129 43.7046 32.932 43.6235 32.6897 43.6235C32.4474 43.6235 32.2606 43.7058 32.1424 43.8714C32.023 44.0359 31.9639 44.2707 31.9639 44.5759C31.9639 44.881 32.023 45.1146 32.1424 45.2779C32.2618 45.4412 32.4438 45.5235 32.6897 45.5235Z" fill="white" fill-opacity="0.6"/>
<path d="M35.0657 43.5802C35.1237 43.5206 35.1839 43.4658 35.2454 43.4181C35.3081 43.3692 35.3743 43.3263 35.444 43.2917C35.5138 43.2572 35.5882 43.2286 35.6686 43.2095C35.7466 43.1904 35.8341 43.1797 35.9251 43.1797C36.0729 43.1797 36.2029 43.2059 36.3141 43.2548C36.4252 43.3037 36.5198 43.3752 36.5954 43.4646C36.6711 43.554 36.729 43.6636 36.768 43.7888C36.8058 43.9151 36.8248 44.0546 36.8248 44.2071V45.9307H36.2621V44.2071C36.2621 44.0248 36.2207 43.8829 36.1367 43.7816C36.054 43.6803 35.9275 43.6302 35.7573 43.6302C35.6296 43.6302 35.5138 43.66 35.4062 43.7184C35.2986 43.7768 35.1969 43.8567 35.1024 43.9568V45.9295H34.5361V43.2214H34.8778C34.9558 43.2214 35.0054 43.2572 35.0267 43.3287L35.0657 43.5778V43.5802Z" fill="white" fill-opacity="0.6"/>
<path d="M39.5238 43.7428H39.7C39.7673 43.7428 39.8217 43.7332 39.8631 43.7154C39.9045 43.6963 39.9423 43.6665 39.9766 43.6271L41.1244 42.2457C41.1646 42.1944 41.206 42.1587 41.2486 42.1384C41.2911 42.1181 41.3455 42.1086 41.4105 42.1086H41.9366L40.5818 43.7225C40.544 43.7678 40.5085 43.8071 40.4754 43.8369C40.44 43.8679 40.4033 43.8941 40.3631 43.9132C40.4163 43.9323 40.4636 43.9597 40.505 43.9931C40.5464 44.0288 40.5889 44.0729 40.6291 44.1313L42.0347 45.9312H41.498C41.4602 45.9312 41.4259 45.9288 41.3987 45.9228C41.3715 45.9169 41.349 45.9097 41.3289 45.8978C41.3088 45.8883 41.2911 45.8751 41.2757 45.8585C41.2604 45.8418 41.2474 45.8263 41.2356 45.8048L40.0499 44.3447C40.0321 44.322 40.0144 44.303 39.9967 44.2863C39.9789 44.2708 39.9588 44.2577 39.9364 44.247C39.9116 44.2362 39.8856 44.2291 39.8548 44.2255C39.8253 44.2195 39.7898 44.2183 39.7496 44.2183H39.5238V45.9312H38.9067V42.1074H39.5238V43.7428Z" fill="white" fill-opacity="0.6"/>
<path d="M42.889 43.7249C42.973 43.5533 43.0746 43.4186 43.1928 43.3197C43.3134 43.2219 43.4565 43.1719 43.6231 43.1719C43.6811 43.1719 43.7354 43.1778 43.7863 43.1909C43.8359 43.2041 43.882 43.2255 43.9234 43.2505L43.8844 43.6796C43.8761 43.7106 43.8655 43.7309 43.8501 43.7428C43.8347 43.7547 43.8158 43.7607 43.791 43.7607C43.7662 43.7607 43.7272 43.7547 43.6787 43.7452C43.629 43.7357 43.577 43.7297 43.5227 43.7297C43.4434 43.7297 43.3737 43.7416 43.3134 43.7655C43.2531 43.7893 43.1987 43.8215 43.1503 43.8668C43.103 43.9109 43.0593 43.9645 43.0226 44.0289C42.986 44.0921 42.9505 44.1648 42.9198 44.2458V45.93H42.3535V43.2219H42.6833C42.7424 43.2219 42.7838 43.2327 42.8063 43.2541C42.8287 43.2756 42.8453 43.3137 42.8536 43.3697L42.889 43.7226V43.7249Z" fill="white" fill-opacity="0.6"/>
<path d="M44.9824 42.4053C44.9824 42.4565 44.9718 42.5054 44.9517 42.5507C44.9316 42.596 44.9044 42.6365 44.869 42.6723C44.8335 42.7068 44.7933 42.7331 44.746 42.7545C44.6999 42.7748 44.6503 42.7843 44.5971 42.7843C44.5439 42.7843 44.4978 42.7748 44.454 42.7545C44.4103 42.7343 44.3701 42.7068 44.3382 42.6723C44.3039 42.6365 44.2779 42.5972 44.2566 42.5507C44.2353 42.5042 44.2271 42.4565 44.2271 42.4053C44.2271 42.354 44.2365 42.3028 44.2566 42.2563C44.2767 42.2098 44.3039 42.1705 44.3382 42.1347C44.3701 42.1002 44.4103 42.0739 44.454 42.0525C44.4978 42.031 44.5474 42.0215 44.5971 42.0215C44.6503 42.0215 44.6999 42.0322 44.746 42.0525C44.7933 42.0727 44.8335 42.1002 44.869 42.1347C44.9044 42.1705 44.9316 42.2098 44.9517 42.2563C44.9718 42.3028 44.9824 42.3517 44.9824 42.4053ZM44.8879 43.223V45.9311H44.3216V43.223H44.8879Z" fill="white" fill-opacity="0.6"/>
<path d="M47.2038 43.7152C47.1884 43.7402 47.1742 43.7569 47.1565 43.7688C47.1388 43.7808 47.1163 43.7843 47.0903 43.7843C47.0608 43.7843 47.0277 43.776 46.9934 43.7569C46.9591 43.7378 46.9165 43.7176 46.8692 43.6937C46.822 43.6699 46.7664 43.6496 46.7026 43.633C46.6375 43.6139 46.5631 43.6043 46.4768 43.6043C46.407 43.6043 46.3432 43.6127 46.2865 43.6306C46.2297 43.6473 46.1812 43.6699 46.1422 43.7009C46.1032 43.7319 46.0725 43.7676 46.0512 43.8106C46.0299 43.8511 46.0193 43.8964 46.0193 43.9441C46.0193 44.0084 46.0394 44.0609 46.0772 44.1038C46.1162 44.1455 46.1659 44.1824 46.2297 44.2146C46.2935 44.2468 46.3645 44.273 46.446 44.2981C46.5276 44.3231 46.6092 44.3493 46.6931 44.3779C46.777 44.4053 46.8598 44.4375 46.9402 44.4757C47.0217 44.5126 47.0927 44.5579 47.1565 44.6115C47.2192 44.6664 47.27 44.7319 47.309 44.8082C47.3468 44.8857 47.3657 44.9787 47.3657 45.0895C47.3657 45.2159 47.3445 45.3339 47.2984 45.4423C47.2523 45.5496 47.1861 45.6438 47.0986 45.7236C47.0111 45.8035 46.9012 45.8655 46.7699 45.9096C46.6399 45.9549 46.4898 45.9763 46.3207 45.9763C46.2285 45.9763 46.1387 45.968 46.0512 45.9501C45.9649 45.9334 45.881 45.9108 45.8041 45.8822C45.7261 45.8524 45.6528 45.8178 45.5854 45.7773C45.5181 45.7367 45.4578 45.6926 45.4058 45.645L45.537 45.4268C45.5535 45.3994 45.5724 45.3792 45.5961 45.3637C45.6185 45.3482 45.6493 45.3422 45.6836 45.3422C45.7178 45.3422 45.7569 45.3529 45.7935 45.378C45.8301 45.4006 45.8715 45.428 45.9188 45.4554C45.9673 45.484 46.0252 45.5103 46.0949 45.5341C46.1635 45.5567 46.2474 45.5699 46.3503 45.5699C46.4342 45.5699 46.5075 45.5603 46.5678 45.5401C46.6305 45.5198 46.6801 45.4912 46.7203 45.4554C46.7605 45.4197 46.79 45.3803 46.8113 45.335C46.8302 45.2898 46.8397 45.2409 46.8397 45.1908C46.8397 45.1217 46.8208 45.0645 46.7818 45.0204C46.7439 44.9751 46.6931 44.9381 46.6281 44.906C46.5643 44.875 46.491 44.8464 46.4106 44.8213C46.3278 44.7963 46.2451 44.7701 46.1623 44.7415C46.0772 44.714 45.9945 44.6819 45.9141 44.6437C45.8313 44.6068 45.758 44.5591 45.6954 44.5019C45.6327 44.4447 45.5807 44.3755 45.5417 44.2921C45.5027 44.2099 45.4838 44.1097 45.4838 43.9905C45.4838 43.8833 45.5051 43.7808 45.5488 43.6842C45.5925 43.5865 45.654 43.5007 45.7379 43.4268C45.8219 43.3517 45.9247 43.2933 46.0465 43.2491C46.1682 43.205 46.3089 43.1836 46.4685 43.1836C46.6494 43.1836 46.8149 43.2134 46.9626 43.2718C47.1104 43.3302 47.2333 43.4101 47.3326 43.5102L47.2073 43.7176L47.2038 43.7152Z" fill="white" fill-opacity="0.6"/>
<path d="M50.5068 45.9329H49.9406V43.6741H48.6319V45.2106C48.6319 45.3083 48.6567 45.3822 48.704 45.4346C48.7513 45.4847 48.8152 45.5109 48.8932 45.5109C48.9369 45.5109 48.9747 45.505 49.0067 45.493C49.0374 45.4823 49.0646 45.4704 49.0882 45.4561C49.1119 45.4418 49.1296 45.4299 49.1473 45.4191C49.1639 45.4084 49.1793 45.4013 49.1958 45.4013C49.2265 45.4013 49.2525 45.4191 49.2715 45.4549L49.4405 45.735C49.353 45.8125 49.249 45.8733 49.1296 45.9138C49.0102 45.9555 48.8873 45.977 48.762 45.977C48.5385 45.977 48.3671 45.9138 48.2465 45.7875C48.126 45.6611 48.0669 45.4823 48.0669 45.2511V43.6753H47.7701C47.7394 43.6753 47.7122 43.6646 47.6886 43.6443C47.6649 43.6241 47.6543 43.5943 47.6543 43.5526V43.3225L48.0881 43.2582L48.2123 42.4751C48.2205 42.4453 48.2347 42.4202 48.2572 42.4012C48.2773 42.3821 48.3057 42.3737 48.3411 42.3737H48.6307V43.2629H50.5068V45.9341V45.9329ZM50.6215 42.3928C50.6215 42.4441 50.612 42.4929 50.5919 42.537C50.5718 42.5811 50.5434 42.6229 50.508 42.6574C50.4737 42.692 50.4323 42.7182 50.3862 42.7397C50.3401 42.7611 50.2916 42.7707 50.2396 42.7707C50.1876 42.7707 50.1403 42.7599 50.0966 42.7397C50.0529 42.7194 50.0115 42.692 49.9772 42.6574C49.9429 42.6229 49.9169 42.5823 49.8956 42.537C49.8744 42.4917 49.8649 42.4441 49.8649 42.3928C49.8649 42.3416 49.8755 42.2903 49.8956 42.2426C49.9157 42.1961 49.9429 42.1556 49.9772 42.121C50.0115 42.0853 50.0517 42.0579 50.0966 42.0376C50.1415 42.0173 50.1888 42.0078 50.2396 42.0078C50.2905 42.0078 50.3401 42.0173 50.3862 42.0376C50.4323 42.0579 50.4737 42.0853 50.508 42.121C50.5434 42.1556 50.5718 42.1961 50.5919 42.2426C50.612 42.2903 50.6215 42.3392 50.6215 42.3928Z" fill="white" fill-opacity="0.6"/>
<path d="M51.1544 43.6005C51.4571 43.3157 51.82 43.1738 52.2385 43.1738C52.3921 43.1738 52.5305 43.1989 52.651 43.2489C52.7716 43.299 52.8709 43.3705 52.9537 43.4635C53.0352 43.5552 53.0967 43.6649 53.1404 43.7913C53.1842 43.9176 53.2055 44.0582 53.2055 44.212V45.9332H52.9525C52.8969 45.9332 52.8567 45.9248 52.8284 45.9069C52.8 45.8903 52.7775 45.8569 52.7562 45.8044L52.7019 45.5851C52.6333 45.6459 52.5647 45.7019 52.4985 45.7496C52.4312 45.7985 52.3614 45.839 52.2917 45.8736C52.2196 45.9081 52.1439 45.932 52.0623 45.9487C51.9808 45.9665 51.8921 45.9749 51.7928 45.9749C51.6829 45.9749 51.5824 45.9594 51.489 45.9296C51.3944 45.8998 51.3129 45.8533 51.2455 45.7937C51.1769 45.7329 51.1225 45.6554 51.0835 45.5661C51.0445 45.4767 51.0244 45.3694 51.0244 45.2466C51.0244 45.1429 51.0528 45.0404 51.1083 44.9415C51.1627 44.8437 51.2549 44.7543 51.3814 44.6757C51.5079 44.597 51.6758 44.5314 51.885 44.4802C52.0931 44.4289 52.3508 44.4003 52.6558 44.392V44.212C52.6558 44.0165 52.6144 43.8723 52.5316 43.777C52.4489 43.6816 52.3271 43.6327 52.1675 43.6327C52.0588 43.6327 51.9678 43.6482 51.8945 43.6744C51.82 43.7019 51.7562 43.7317 51.703 43.7626C51.6474 43.7936 51.6001 43.8234 51.5587 43.8509C51.515 43.8783 51.4713 43.8914 51.424 43.8914C51.3861 43.8914 51.3519 43.8818 51.3247 43.8616C51.2975 43.8413 51.2762 43.8163 51.2585 43.7853L51.1556 43.5993L51.1544 43.6005ZM52.6558 44.7472C52.4524 44.7555 52.2822 44.7722 52.1451 44.7961C52.0056 44.8223 51.8933 44.8545 51.8082 44.8938C51.7219 44.9343 51.6592 44.9808 51.6214 45.0368C51.5836 45.0917 51.5647 45.1513 51.5647 45.2168C51.5647 45.2824 51.5753 45.336 51.5954 45.3801C51.6155 45.4242 51.6427 45.4624 51.6793 45.491C51.716 45.5208 51.7573 45.541 51.807 45.5553C51.8543 45.5684 51.9087 45.5756 51.9654 45.5756C52.1132 45.5756 52.2397 45.547 52.3472 45.491C52.4524 45.4361 52.5565 45.3551 52.6569 45.2478V44.746L52.6558 44.7472Z" fill="white" fill-opacity="0.6"/>
<path d="M54.3958 43.5802C54.4537 43.5206 54.514 43.4658 54.5755 43.4181C54.6381 43.3692 54.7043 43.3263 54.7741 43.2917C54.8438 43.2572 54.9183 43.2286 54.9987 43.2095C55.0767 43.1904 55.1642 43.1797 55.2552 43.1797C55.403 43.1797 55.533 43.2059 55.6441 43.2548C55.7553 43.3037 55.8498 43.3752 55.9255 43.4646C56.0011 43.554 56.0591 43.6636 56.0981 43.7888C56.1359 43.9151 56.1548 44.0546 56.1548 44.2071V45.9307H55.5921V44.2071C55.5921 44.0248 55.5508 43.8829 55.4668 43.7816C55.3841 43.6803 55.2576 43.6302 55.0874 43.6302C54.9597 43.6302 54.8438 43.66 54.7363 43.7184C54.6287 43.7768 54.527 43.8567 54.4325 43.9568V45.9295H53.8662V43.2214H54.2078C54.2859 43.2214 54.3355 43.2572 54.3568 43.3287L54.3958 43.5778V43.5802Z" fill="white" fill-opacity="0.6"/>
<path d="M58.4235 43.7152C58.4082 43.7402 58.394 43.7569 58.3762 43.7688C58.3585 43.7808 58.336 43.7843 58.31 43.7843C58.2805 43.7843 58.2474 43.776 58.2131 43.7569C58.1788 43.7378 58.1363 43.7176 58.089 43.6937C58.0417 43.6699 57.9861 43.6496 57.9223 43.633C57.8573 43.6139 57.7828 43.6043 57.6965 43.6043C57.6268 43.6043 57.5629 43.6127 57.5062 43.6306C57.4494 43.6473 57.401 43.6699 57.362 43.7009C57.323 43.7319 57.2922 43.7676 57.2709 43.8106C57.2497 43.8511 57.239 43.8964 57.239 43.9441C57.239 44.0084 57.2591 44.0609 57.2969 44.1038C57.336 44.1455 57.3856 44.1824 57.4494 44.2146C57.5133 44.2468 57.5842 44.273 57.6658 44.2981C57.7473 44.3231 57.8289 44.3493 57.9128 44.3779C57.9968 44.4053 58.0795 44.4375 58.1599 44.4757C58.2415 44.5126 58.3124 44.5579 58.3762 44.6115C58.4389 44.6664 58.4897 44.7319 58.5287 44.8082C58.5666 44.8857 58.5855 44.9787 58.5855 45.0895C58.5855 45.2159 58.5642 45.3339 58.5181 45.4423C58.472 45.5496 58.4058 45.6438 58.3183 45.7236C58.2308 45.8035 58.1209 45.8655 57.9897 45.9096C57.8596 45.9549 57.7095 45.9763 57.5405 45.9763C57.4483 45.9763 57.3584 45.968 57.2709 45.9501C57.1846 45.9334 57.1007 45.9108 57.0239 45.8822C56.9458 45.8524 56.8726 45.8178 56.8052 45.7773C56.7378 45.7367 56.6775 45.6926 56.6255 45.645L56.7567 45.4268C56.7733 45.3994 56.7922 45.3792 56.8158 45.3637C56.8383 45.3482 56.869 45.3422 56.9033 45.3422C56.9376 45.3422 56.9766 45.3529 57.0132 45.378C57.0499 45.4006 57.0912 45.428 57.1385 45.4554C57.187 45.484 57.2449 45.5103 57.3147 45.5341C57.3832 45.5567 57.4672 45.5699 57.57 45.5699C57.6539 45.5699 57.7272 45.5603 57.7875 45.5401C57.8502 45.5198 57.8998 45.4912 57.94 45.4554C57.9802 45.4197 58.0098 45.3803 58.031 45.335C58.05 45.2898 58.0594 45.2409 58.0594 45.1908C58.0594 45.1217 58.0405 45.0645 58.0015 45.0204C57.9637 44.9751 57.9128 44.9381 57.8478 44.906C57.784 44.875 57.7107 44.8464 57.6303 44.8213C57.5476 44.7963 57.4648 44.7701 57.3821 44.7415C57.2969 44.714 57.2142 44.6819 57.1338 44.6437C57.0511 44.6068 56.9778 44.5591 56.9151 44.5019C56.8525 44.4447 56.8004 44.3755 56.7614 44.2921C56.7224 44.2099 56.7035 44.1097 56.7035 43.9905C56.7035 43.8833 56.7248 43.7808 56.7685 43.6842C56.8123 43.5865 56.8737 43.5007 56.9577 43.4268C57.0416 43.3517 57.1444 43.2933 57.2662 43.2491C57.388 43.205 57.5286 43.1836 57.6882 43.1836C57.8691 43.1836 58.0346 43.2134 58.1824 43.2718C58.3301 43.3302 58.4531 43.4101 58.5524 43.5102L58.4271 43.7176L58.4235 43.7152Z" fill="white" fill-opacity="0.6"/>
<path d="M59.0527 43.6005C59.3565 43.3157 59.7182 43.1738 60.1367 43.1738C60.2927 43.1738 60.4287 43.1989 60.5493 43.2489C60.6698 43.299 60.7715 43.3705 60.8519 43.4635C60.9335 43.5552 60.9949 43.6649 61.0387 43.7913C61.0824 43.9176 61.1037 44.0582 61.1037 44.212V45.9332H60.8507C60.7963 45.9332 60.755 45.9248 60.7278 45.9069C60.6994 45.8903 60.6746 45.8569 60.6557 45.8044L60.6001 45.5851C60.5315 45.6459 60.463 45.7019 60.3968 45.7496C60.3306 45.7985 60.262 45.839 60.1899 45.8736C60.1202 45.9081 60.0421 45.932 59.9617 45.9487C59.8802 45.9665 59.7903 45.9749 59.691 45.9749C59.5823 45.9749 59.4818 45.9594 59.3872 45.9296C59.2938 45.8998 59.2123 45.8533 59.1437 45.7937C59.0763 45.7329 59.0219 45.6554 58.9829 45.5661C58.9427 45.4767 58.9238 45.3694 58.9238 45.2466C58.9238 45.1429 58.951 45.0404 59.0066 44.9415C59.0621 44.8437 59.1532 44.7543 59.2808 44.6757C59.4085 44.597 59.5752 44.5314 59.7821 44.4802C59.9901 44.4289 60.2478 44.4003 60.5528 44.392V44.212C60.5528 44.0165 60.5126 43.8723 60.4299 43.777C60.3459 43.6816 60.2254 43.6327 60.0658 43.6327C59.9558 43.6327 59.866 43.6482 59.7915 43.6744C59.7182 43.7019 59.6532 43.7317 59.6 43.7626C59.5468 43.7936 59.4972 43.8234 59.4558 43.8509C59.4144 43.8783 59.3695 43.8914 59.3222 43.8914C59.2832 43.8914 59.2501 43.8818 59.2229 43.8616C59.1957 43.8413 59.1733 43.8163 59.1555 43.7853L59.0527 43.5993V43.6005ZM60.554 44.7472C60.353 44.7555 60.1816 44.7722 60.0433 44.7961C59.905 44.8223 59.7927 44.8545 59.7064 44.8938C59.6201 44.9343 59.5586 44.9808 59.5208 45.0368C59.483 45.0917 59.4641 45.1513 59.4641 45.2168C59.4641 45.2824 59.4735 45.336 59.4936 45.3801C59.5137 45.4242 59.5421 45.4624 59.5787 45.491C59.6142 45.5208 59.6556 45.541 59.704 45.5553C59.7525 45.5696 59.8057 45.5756 59.8636 45.5756C60.0114 45.5756 60.1379 45.547 60.2431 45.491C60.3495 45.4361 60.4523 45.3551 60.5528 45.2478V44.746L60.554 44.7472Z" fill="white" fill-opacity="0.6"/>
<path d="M62.2938 43.5802C62.3517 43.5206 62.4132 43.4658 62.4746 43.4181C62.5373 43.3692 62.6035 43.3263 62.6732 43.2917C62.743 43.2572 62.8174 43.2286 62.8966 43.2095C62.9759 43.1904 63.0621 43.1797 63.1544 43.1797C63.3021 43.1797 63.4322 43.2059 63.5421 43.2548C63.6544 43.3037 63.7478 43.3752 63.8246 43.4646C63.9003 43.554 63.957 43.6636 63.996 43.7888C64.035 43.9151 64.054 44.0546 64.054 44.2071V45.9307H63.4901V44.2071C63.4901 44.0248 63.4487 43.8829 63.366 43.7816C63.282 43.6803 63.1555 43.6302 62.9841 43.6302C62.8588 43.6302 62.7406 43.66 62.633 43.7184C62.5266 43.7768 62.425 43.8567 62.3292 43.9568V45.9295H61.7642V43.2214H62.1058C62.1826 43.2214 62.2311 43.2572 62.2536 43.3287L62.2926 43.5778L62.2938 43.5802Z" fill="white" fill-opacity="0.6"/>
<path d="M67.0002 42.0012V45.931H66.6562C66.5818 45.931 66.5333 45.8941 66.512 45.8214L66.4624 45.527C66.3501 45.6593 66.2236 45.7665 66.0794 45.8476C65.9363 45.9298 65.7696 45.9704 65.5805 45.9704C65.4292 45.9704 65.2921 45.9406 65.1691 45.8786C65.0462 45.8166 64.9422 45.7284 64.8535 45.6116C64.7648 45.4948 64.6963 45.3494 64.649 45.1777C64.6005 45.0049 64.5757 44.807 64.5757 44.5841C64.5757 44.3827 64.6029 44.1956 64.6573 44.0239C64.7104 43.8523 64.7873 43.7021 64.8866 43.5769C64.9871 43.4506 65.1088 43.3505 65.2519 43.2778C65.3937 43.2074 65.5545 43.1717 65.7318 43.1717C65.8902 43.1717 66.0238 43.1967 66.1349 43.2468C66.246 43.2968 66.3442 43.3683 66.4328 43.4577V42H66.9991L67.0002 42.0012ZM66.434 43.888C66.356 43.7855 66.2673 43.7152 66.1728 43.6735C66.0782 43.6318 65.9753 43.6127 65.8642 43.6127C65.6443 43.6127 65.4706 43.6949 65.3464 43.8582C65.2223 44.0215 65.1597 44.2647 65.1597 44.5853C65.1597 44.7522 65.1727 44.894 65.201 45.0108C65.2282 45.1277 65.2684 45.2254 65.3216 45.2981C65.3748 45.3732 65.4398 45.4268 65.5131 45.4602C65.5888 45.4948 65.6739 45.5103 65.7685 45.5103C65.9127 45.5103 66.038 45.4793 66.142 45.4161C66.246 45.3529 66.343 45.2647 66.4328 45.1491V43.888H66.434Z" fill="white" fill-opacity="0.6"/>
<defs>
<clipPath id="clip0_2526_1737">
<rect width="68" height="35" fill="white" transform="translate(1)"/>
</clipPath>
</defs>
</svg>
