<svg width="22" height="21" viewBox="0 0 22 21" fill="none" xmlns="http://www.w3.org/2000/svg">
<path d="M11 0C8.01487 0 7.6395 0.013125 6.46663 0.063C5.29375 0.1155 4.49488 0.291375 3.795 0.55125C3.06054 0.814177 2.39544 1.22771 1.84663 1.76269C1.28617 2.28656 0.852948 2.92142 0.5775 3.6225C0.30525 4.28925 0.119625 5.05312 0.066 6.16875C0.01375 7.29094 0 7.64794 0 10.5013C0 13.3521 0.01375 13.7091 0.066 14.8286C0.121 15.9469 0.30525 16.7094 0.5775 17.3775C0.859375 18.0679 1.23475 18.6532 1.84663 19.2373C2.45713 19.8214 3.07038 20.181 3.79363 20.4487C4.49488 20.7086 5.29238 20.8858 6.46388 20.937C7.63813 20.9869 8.01213 21 11 21C13.9879 21 14.3605 20.9869 15.5348 20.937C16.7049 20.8845 17.5065 20.7086 18.2064 20.4487C18.9403 20.1857 19.605 19.7721 20.1534 19.2373C20.7652 18.6532 21.1406 18.0679 21.4225 17.3775C21.6934 16.7094 21.879 15.9469 21.934 14.8286C21.9863 13.7091 22 13.3521 22 10.5C22 7.64794 21.9863 7.29094 21.934 6.17006C21.879 5.05313 21.6934 4.28925 21.4225 3.6225C21.1471 2.92142 20.7138 2.28656 20.1534 1.76269C19.6046 1.22771 18.9395 0.814177 18.205 0.55125C17.5038 0.291375 16.7035 0.114187 15.5334 0.063C14.3591 0.013125 13.9865 0 10.9972 0H11ZM10.0141 1.89262H11.0014C13.9384 1.89262 14.2862 1.90181 15.4454 1.953C16.5179 1.99894 17.1009 2.17088 17.4886 2.31394C18.0015 2.50425 18.3686 2.73262 18.7536 3.10012C19.1386 3.46762 19.3765 3.81675 19.5759 4.30763C19.7271 4.67644 19.9059 5.23294 19.954 6.25669C20.0076 7.36312 20.0186 7.69519 20.0186 10.4974C20.0186 13.2996 20.0076 13.6329 19.954 14.7394C19.9059 15.7631 19.7258 16.3183 19.5759 16.6884C19.3983 17.1437 19.117 17.5557 18.7522 17.8946C18.3672 18.2621 18.0015 18.4892 17.4873 18.6795C17.1023 18.8239 16.5192 18.9945 15.4454 19.0417C14.2862 19.0916 13.9384 19.1034 11.0014 19.1034C8.06438 19.1034 7.71513 19.0916 6.556 19.0417C5.4835 18.9945 4.90187 18.8239 4.51412 18.6795C4.03677 18.5105 3.6047 18.2424 3.24912 17.8946C2.88375 17.5555 2.60195 17.143 2.42413 16.6871C2.27425 16.3183 2.09413 15.7618 2.046 14.7381C1.99375 13.6316 1.98275 13.2996 1.98275 10.4947C1.98275 7.68994 1.99375 7.3605 2.046 6.25406C2.0955 5.23031 2.27425 4.67381 2.4255 4.30369C2.62488 3.81412 2.86412 3.46369 3.24912 3.09619C3.63412 2.72869 3.99987 2.50162 4.51412 2.31131C4.90187 2.16694 5.4835 1.99631 6.556 1.94906C7.57075 1.90444 7.964 1.89131 10.0141 1.89V1.89262ZM16.8726 3.63562C16.6993 3.63562 16.5276 3.66822 16.3675 3.73154C16.2073 3.79486 16.0618 3.88767 15.9392 4.00467C15.8167 4.12167 15.7194 4.26057 15.6531 4.41344C15.5868 4.56631 15.5526 4.73016 15.5526 4.89562C15.5526 5.06109 15.5868 5.22494 15.6531 5.37781C15.7194 5.53068 15.8167 5.66958 15.9392 5.78658C16.0618 5.90358 16.2073 5.99639 16.3675 6.05971C16.5276 6.12303 16.6993 6.15562 16.8726 6.15562C17.2227 6.15562 17.5585 6.02288 17.806 5.78658C18.0536 5.55028 18.1926 5.2298 18.1926 4.89562C18.1926 4.56145 18.0536 4.24097 17.806 4.00467C17.5585 3.76837 17.2227 3.63562 16.8726 3.63562ZM11.0014 5.10825C10.2521 5.09709 9.50798 5.22832 8.81235 5.49431C8.11671 5.7603 7.48346 6.15572 6.94946 6.65756C6.41546 7.15939 5.99138 7.75762 5.70191 8.4174C5.41244 9.07719 5.26336 9.78535 5.26336 10.5007C5.26336 11.216 5.41244 11.9241 5.70191 12.5839C5.99138 13.2437 6.41546 13.8419 6.94946 14.3438C7.48346 14.8456 8.11671 15.241 8.81235 15.507C9.50798 15.773 10.2521 15.9042 11.0014 15.8931C12.4844 15.871 13.8988 15.2931 14.9393 14.2843C15.9799 13.2754 16.5631 11.9164 16.5631 10.5007C16.5631 9.0849 15.9799 7.72592 14.9393 6.71705C13.8988 5.70818 12.4844 5.13034 11.0014 5.10825ZM11.0014 6.99956C11.4829 6.99956 11.9598 7.0901 12.4047 7.26602C12.8496 7.44193 13.2539 7.69977 13.5944 8.02482C13.9349 8.34986 14.2051 8.73575 14.3894 9.16044C14.5736 9.58513 14.6685 10.0403 14.6685 10.5C14.6685 10.9597 14.5736 11.4149 14.3894 11.8396C14.2051 12.2643 13.9349 12.6501 13.5944 12.9752C13.2539 13.3002 12.8496 13.5581 12.4047 13.734C11.9598 13.9099 11.4829 14.0004 11.0014 14.0004C10.0288 14.0004 9.09605 13.6316 8.40833 12.9752C7.72061 12.3187 7.33425 11.4284 7.33425 10.5C7.33425 9.57163 7.72061 8.68128 8.40833 8.02482C9.09605 7.36836 10.0288 6.99956 11.0014 6.99956Z" fill="#FFFFF2"/>
</svg>
