<svg width="56" height="42" viewBox="0 0 56 42" fill="none" xmlns="http://www.w3.org/2000/svg">
<g clip-path="url(#clip0_2424_1705)">
<path d="M1.07666 6.35964L6.25261 1.74333C6.29805 1.70847 6.37213 1.65767 6.47486 1.58796C6.57759 1.51923 6.71983 1.48438 6.90158 1.48438H7.17519C7.26607 1.48438 7.34608 1.51923 7.41424 1.58796C7.48239 1.65668 7.51696 1.73735 7.51696 1.82898C7.51696 1.92061 7.48832 1.99531 7.43103 2.05307L1.6397 7.25502L7.78959 12.9569C7.85775 13.0257 7.89232 13.1063 7.89232 13.198C7.89232 13.2896 7.85775 13.3703 7.78959 13.439C7.72143 13.5077 7.64143 13.5426 7.55055 13.5426H7.26014C7.0774 13.5426 6.93516 13.5077 6.83342 13.439C6.7307 13.3703 6.65661 13.3185 6.61117 13.2836L1.07666 8.18525V13.1631C1.07666 13.4161 0.945291 13.5416 0.68353 13.5416H0.376331C0.125436 13.5416 0.000976562 13.4151 0.000976562 13.1631V1.88077C0.000976562 1.61684 0.126424 1.48438 0.376331 1.48438H0.68353C0.945291 1.48438 1.07666 1.61684 1.07666 1.88077V6.35865V6.35964Z" fill="#092A35"/>
<path d="M14.1793 1.48537C15.3755 1.48537 16.3287 1.77221 17.0409 2.34688C17.7521 2.92156 18.1087 3.79403 18.1087 4.96529C18.1087 5.89552 17.8835 6.63353 17.4341 7.17833C16.9836 7.72412 16.3495 8.09462 15.5296 8.28883L18.2796 13.0087C18.3142 13.0774 18.331 13.1412 18.331 13.198C18.331 13.2896 18.2964 13.3703 18.2282 13.439C18.1601 13.5077 18.0801 13.5426 17.9892 13.5426H17.7837C17.5901 13.5426 17.4509 13.4968 17.3649 13.4051C17.28 13.3135 17.2029 13.2039 17.1348 13.0774L14.4184 8.4442H10.8989V13.1641C10.8989 13.4171 10.7676 13.5426 10.5058 13.5426H10.1986C9.9477 13.5426 9.82324 13.4161 9.82324 13.1641V1.88077C9.82324 1.61684 9.94869 1.48438 10.1986 1.48438H14.1793V1.48537ZM10.8989 7.41039H14.0934C16.0522 7.41039 17.032 6.59469 17.032 4.96429C17.032 3.33389 16.0522 2.51819 14.0934 2.51819H10.8989V7.41039Z" fill="#092A35"/>
<path d="M24.2577 1.31449C24.9294 1.31449 25.5161 1.40911 26.0169 1.59834C26.5177 1.78758 26.9336 2.0286 27.2635 2.32142C27.5934 2.61423 27.8443 2.93892 28.0152 3.29448C28.1861 3.65004 28.2769 3.99464 28.2888 4.32829C28.2888 4.41992 28.2602 4.5006 28.2039 4.56932C28.1466 4.63804 28.0557 4.6729 27.9302 4.6729H27.5885C27.5312 4.6729 27.4601 4.64999 27.3751 4.60418C27.2902 4.55836 27.2358 4.46673 27.2131 4.32829C27.145 3.75462 26.8457 3.28053 26.3162 2.90705C25.7868 2.53356 25.1003 2.34731 24.2577 2.34731C23.8359 2.34731 23.4487 2.38815 23.0961 2.46782C22.7434 2.5485 22.4412 2.67399 22.1903 2.84629C21.9394 3.01859 21.7428 3.23372 21.6006 3.49268C21.4583 3.75063 21.3872 4.05839 21.3872 4.41395C21.3872 4.76951 21.4524 5.05137 21.5838 5.29239C21.7142 5.53342 21.9226 5.75153 22.2071 5.94674C22.4915 6.14195 22.8501 6.32521 23.2837 6.49751C23.7164 6.66982 24.2399 6.85307 24.8553 7.04828C25.4934 7.25545 26.0485 7.45862 26.5207 7.65981C26.9928 7.86099 27.386 8.08808 27.6991 8.34006C28.0122 8.59303 28.2453 8.88585 28.3994 9.2185C28.5535 9.55215 28.6296 9.95353 28.6296 10.4246C28.6296 11.4694 28.2483 12.2791 27.4848 12.8528C26.7212 13.4275 25.6742 13.7143 24.3416 13.7143C23.6472 13.7143 23.0319 13.6257 22.4965 13.4474C21.9611 13.2691 21.5087 13.037 21.1383 12.7502C20.7679 12.4634 20.4834 12.1327 20.2839 11.7602C20.0843 11.3867 19.9786 11.0053 19.9678 10.6148C19.9678 10.5232 20.0023 10.4425 20.0705 10.3738C20.1387 10.3051 20.2246 10.2702 20.3263 10.2702H20.6681C20.7817 10.2702 20.8676 10.3051 20.9239 10.3738C20.9812 10.4425 21.0207 10.5232 21.0435 10.6148C21.078 10.8559 21.163 11.0999 21.2993 11.3469C21.4356 11.5939 21.6381 11.815 21.9058 12.0102C22.1735 12.2054 22.5064 12.3668 22.9054 12.4922C23.3035 12.6187 23.7826 12.6815 24.3407 12.6815C25.4568 12.6815 26.2708 12.4773 26.7834 12.07C27.2961 11.6626 27.5519 11.1138 27.5519 10.4246C27.5519 10.08 27.4778 9.79019 27.3297 9.55514C27.1815 9.32009 26.9543 9.10695 26.6461 8.91772C26.3389 8.72848 25.9517 8.54722 25.4845 8.37491C25.0173 8.20261 24.4651 8.01338 23.827 7.80622C23.2116 7.61101 22.6851 7.41281 22.2466 7.21162C21.808 7.01044 21.4435 6.78136 21.1531 6.52241C20.8627 6.26446 20.6493 5.96567 20.512 5.62704C20.3757 5.28841 20.3066 4.88404 20.3066 4.41295C20.3066 3.97672 20.3945 3.56937 20.5713 3.1899C20.7481 2.81143 21.001 2.48376 21.3319 2.20788C21.6618 1.93199 22.0717 1.71388 22.5617 1.55352C23.0516 1.39317 23.6146 1.3125 24.2527 1.3125L24.2577 1.31449Z" fill="#092A35"/>
<path d="M25.0114 29.0857C24.9887 29.1315 24.9482 29.1863 24.8919 29.249C24.8346 29.3118 24.7497 29.3437 24.6361 29.3437H24.3457C24.2548 29.3437 24.1748 29.3088 24.1066 29.2401C24.0385 29.1714 24.0039 29.0907 24.0039 28.9991C24.0039 28.9532 24.0207 28.8845 24.0553 28.7919L29.9849 14.4629L30.9134 14.8812L25.0114 29.0847V29.0857Z" fill="#092A35"/>
<path d="M33.3651 27.899C33.1142 27.899 32.9897 27.7725 32.9897 27.5205V16.2382C32.9897 15.9743 33.1152 15.8418 33.3651 15.8418H37.8239C38.4156 15.8418 38.9283 15.9255 39.3609 16.0918C39.7935 16.2581 40.1521 16.4852 40.4376 16.772C40.7221 17.0589 40.9305 17.3865 41.0609 17.7541C41.1913 18.1216 41.2574 18.512 41.2574 18.9253C41.2574 19.2928 41.212 19.6205 41.1211 19.9073C41.0302 20.1942 40.9107 20.4472 40.7626 20.6653C40.6144 20.8834 40.4524 21.0647 40.2756 21.2081C40.0988 21.3515 39.9259 21.464 39.755 21.5437C39.9832 21.6583 40.2015 21.8076 40.4129 21.9919C40.6233 22.1762 40.808 22.3943 40.968 22.6463C41.127 22.8992 41.2555 23.1801 41.3523 23.4898C41.4491 23.7996 41.4975 24.1332 41.4975 24.4888C41.4975 24.925 41.4204 25.3473 41.2673 25.7547C41.1132 26.162 40.889 26.5265 40.5927 26.8482C40.2963 27.1699 39.9269 27.4249 39.4824 27.6151C39.0379 27.8044 38.5252 27.899 37.9444 27.899H33.3661H33.3651ZM34.0654 16.8756V21.0786H37.6017C38.4561 21.0786 39.0991 20.8924 39.5318 20.5189C39.9644 20.1454 40.1808 19.6145 40.1808 18.9253C40.1808 17.5588 39.3204 16.8756 37.6017 16.8756H34.0654ZM34.0654 22.1124V26.8662H37.7726C38.627 26.8662 39.2819 26.6421 39.7372 26.1949C40.1926 25.7467 40.4208 25.179 40.4208 24.4898C40.4208 23.8006 40.1926 23.2179 39.7372 22.7757C39.2819 22.3335 38.627 22.1124 37.7726 22.1124H34.0654Z" fill="#092A35"/>
<path d="M45.2202 27.5195C45.2202 27.7725 45.0948 27.898 44.8449 27.898H44.5199C44.269 27.898 44.1445 27.7715 44.1445 27.5195V16.2203C44.1445 15.9673 44.27 15.8418 44.5199 15.8418H44.8449C45.0948 15.8418 45.2202 15.9683 45.2202 16.2203V27.5195Z" fill="#092A35"/>
<path d="M55.6067 26.8652C55.8684 26.8652 55.9998 26.9977 55.9998 27.2616V27.5196C55.9998 27.7725 55.8684 27.898 55.6067 27.898H47.9188C47.6679 27.898 47.5425 27.7666 47.5425 27.5016V27.157C47.5425 26.9847 47.5771 26.8473 47.6452 26.7437C47.7134 26.6401 47.7647 26.5605 47.7993 26.5027L54.53 16.8737H48.0729C47.822 16.8737 47.6976 16.7472 47.6976 16.4942V16.2362C47.6976 15.9723 47.823 15.8398 48.0729 15.8398H55.4358C55.6976 15.8398 55.8289 15.9723 55.8289 16.2362V16.5808C55.8289 16.7302 55.8062 16.8508 55.7608 16.9424C55.7153 17.034 55.664 17.1207 55.6067 17.2003L48.9096 26.8632H55.6067V26.8652Z" fill="#092A35"/>
<path d="M35.9234 0.257956C35.9461 0.212141 35.9866 0.157363 36.0429 0.094617C36.1002 0.031871 36.1852 0 36.2988 0H36.5892C36.68 0 36.76 0.0348589 36.8282 0.103581C36.8964 0.172303 36.9309 0.252976 36.9309 0.344605C36.9309 0.39042 36.9141 0.459142 36.8993 0.557742L30.9114 14.8828L29.9829 14.4645L35.9234 0.257956Z" fill="#092A35"/>
<path d="M1.06861 37.999C1.2711 37.999 1.44396 38.018 1.58818 38.0568C1.73239 38.0966 1.84994 38.1524 1.94279 38.2241C2.03564 38.2968 2.10281 38.3855 2.14627 38.4901C2.18874 38.5946 2.21146 38.7122 2.21146 38.8416C2.21146 38.9163 2.19961 38.99 2.17689 39.0607C2.15417 39.1305 2.1196 39.1962 2.0712 39.2579C2.02379 39.3197 1.96353 39.3745 1.89241 39.4233C1.82129 39.4721 1.73535 39.5119 1.63658 39.5448C2.08602 39.6404 2.31024 39.8804 2.31024 40.2659C2.31024 40.4013 2.28456 40.5268 2.23418 40.6394C2.18381 40.7519 2.11071 40.8505 2.0149 40.9322C1.91908 41.0138 1.80055 41.0776 1.6593 41.1234C1.51903 41.1702 1.35802 41.1931 1.17726 41.1931H0.0146484V37.998H1.06861V37.999ZM0.52928 38.4044V39.4024H1.0449C1.26419 39.4024 1.42914 39.3605 1.5378 39.2739C1.64645 39.1882 1.70078 39.0657 1.70078 38.9034C1.70078 38.7281 1.65041 38.6006 1.54768 38.5219C1.44594 38.4442 1.2869 38.4044 1.06959 38.4044H0.530268H0.52928ZM1.16738 40.7838C1.28295 40.7838 1.38074 40.7698 1.46075 40.7419C1.54076 40.715 1.60694 40.6782 1.65633 40.6304C1.70671 40.5836 1.74424 40.5278 1.76696 40.4631C1.78968 40.3993 1.80055 40.3296 1.80055 40.2559C1.80055 40.1055 1.75017 39.987 1.64843 39.9003C1.5457 39.8137 1.38469 39.7709 1.16541 39.7709H0.52928V40.7848H1.16738V40.7838Z" fill="#092A35"/>
<path d="M4.64816 38.9326V41.1955H4.3627C4.29948 41.1955 4.25898 41.1646 4.24219 41.1038L4.20762 40.8927C4.1602 40.9425 4.11081 40.9883 4.05945 41.0301C4.0071 41.071 3.95178 41.1068 3.8935 41.1357C3.83522 41.1656 3.77201 41.1885 3.70583 41.2044C3.63964 41.2214 3.56754 41.2293 3.49148 41.2293C3.36801 41.2293 3.25935 41.2084 3.1665 41.1666C3.07167 41.1258 2.99364 41.067 2.92943 40.9923C2.86523 40.9156 2.81781 40.826 2.78522 40.7204C2.75262 40.6148 2.73682 40.4983 2.73682 40.3708V38.9316H3.20996V40.3708C3.20996 40.5232 3.24453 40.6417 3.31368 40.7264C3.38381 40.811 3.4895 40.8529 3.63174 40.8529C3.73645 40.8529 3.83325 40.829 3.92314 40.7812C4.01401 40.7323 4.09797 40.6656 4.17699 40.582V38.9326H4.65014H4.64816Z" fill="#092A35"/>
<path d="M6.56443 39.3426C6.55258 39.3636 6.53974 39.3775 6.52492 39.3875C6.5101 39.3974 6.49134 39.4004 6.4696 39.4004C6.44491 39.4004 6.41725 39.3934 6.38861 39.3775C6.35996 39.3616 6.3244 39.3446 6.28489 39.3247C6.24538 39.3048 6.19895 39.2879 6.14561 39.2739C6.09227 39.258 6.02906 39.25 5.95794 39.25C5.89966 39.25 5.84632 39.257 5.7989 39.2719C5.7505 39.2859 5.71099 39.3048 5.67741 39.3307C5.64481 39.3566 5.61913 39.3865 5.60135 39.4223C5.58357 39.4562 5.57468 39.494 5.57468 39.5339C5.57468 39.5876 5.59147 39.6315 5.62308 39.6673C5.65469 39.7032 5.69716 39.7331 5.7505 39.7599C5.80286 39.7858 5.86311 39.8088 5.93028 39.8297C5.99843 39.8506 6.06659 39.8725 6.13672 39.8964C6.20686 39.9193 6.276 39.9462 6.34317 39.9781C6.41133 40.0089 6.47059 40.0468 6.52393 40.0916C6.57628 40.1374 6.61876 40.1922 6.65135 40.2559C6.68395 40.3207 6.69976 40.3984 6.69976 40.491C6.69976 40.5966 6.68099 40.6952 6.64246 40.7858C6.60394 40.8754 6.54863 40.9541 6.47553 41.0208C6.40244 41.0876 6.31156 41.1394 6.20192 41.1762C6.09326 41.2141 5.96781 41.232 5.82656 41.232C5.74952 41.232 5.67444 41.225 5.60135 41.2101C5.52924 41.1961 5.45911 41.1772 5.3949 41.1533C5.32971 41.1284 5.26847 41.0995 5.21216 41.0657C5.15586 41.0318 5.10549 40.995 5.06104 40.9551L5.17167 40.7729C5.18451 40.7499 5.2013 40.733 5.22105 40.7201C5.24081 40.7071 5.2655 40.7021 5.29514 40.7021C5.32477 40.7021 5.35638 40.7111 5.38601 40.732C5.41663 40.7509 5.45121 40.7738 5.49171 40.7968C5.5322 40.8207 5.58061 40.8426 5.6379 40.8625C5.69519 40.8814 5.76631 40.8924 5.85126 40.8924C5.92139 40.8924 5.98263 40.8844 6.03399 40.8675C6.08536 40.8505 6.12783 40.8266 6.16142 40.7968C6.195 40.7669 6.2197 40.734 6.23649 40.6962C6.25229 40.6583 6.2602 40.6175 6.2602 40.5756C6.2602 40.5179 6.24439 40.4701 6.21179 40.4332C6.1792 40.3954 6.13672 40.3645 6.08338 40.3376C6.03004 40.3117 5.9688 40.2878 5.90065 40.2669C5.83249 40.246 5.76236 40.2241 5.69321 40.2002C5.62308 40.1773 5.55295 40.1504 5.48578 40.1185C5.41762 40.0876 5.35638 40.0478 5.30304 40C5.2497 39.9522 5.20723 39.8944 5.17463 39.8247C5.14203 39.756 5.12623 39.6723 5.12623 39.5727C5.12623 39.4831 5.14401 39.3974 5.17957 39.3167C5.21612 39.2351 5.26847 39.1634 5.3386 39.1016C5.40774 39.0389 5.49368 38.9901 5.59542 38.9532C5.69815 38.9164 5.81471 38.8984 5.94806 38.8984C6.09919 38.8984 6.23649 38.9233 6.35996 38.9721C6.48343 39.0209 6.58616 39.0877 6.67012 39.1713L6.56443 39.3446V39.3426Z" fill="#092A35"/>
<path d="M7.71714 38.2484C7.71714 38.2913 7.70825 38.3321 7.69146 38.3699C7.67466 38.4078 7.65096 38.4417 7.62231 38.4715C7.59268 38.5004 7.55909 38.5223 7.51958 38.5403C7.48007 38.5582 7.43957 38.5652 7.39512 38.5652C7.35067 38.5652 7.31215 38.5572 7.2756 38.5403C7.23905 38.5233 7.20547 38.5004 7.17781 38.4715C7.14917 38.4417 7.12743 38.4088 7.11064 38.3699C7.09385 38.3311 7.08496 38.2913 7.08496 38.2484C7.08496 38.2056 7.09385 38.1628 7.11064 38.1239C7.12743 38.0851 7.14917 38.0522 7.17781 38.0224C7.20547 37.9935 7.23807 37.9716 7.2756 37.9536C7.31314 37.9357 7.35265 37.9277 7.39512 37.9277C7.4376 37.9277 7.48007 37.9367 7.51958 37.9536C7.55909 37.9706 7.59268 37.9935 7.62231 38.0224C7.65194 38.0522 7.67466 38.0851 7.69146 38.1239C7.70825 38.1628 7.71714 38.2036 7.71714 38.2484ZM7.63812 38.9317V41.1945H7.16497V38.9317H7.63812Z" fill="#092A35"/>
<path d="M8.67639 39.2311C8.72479 39.1813 8.77517 39.1355 8.82752 39.0957C8.87987 39.0548 8.93519 39.019 8.99346 38.9901C9.05174 38.9612 9.11397 38.9373 9.18015 38.9214C9.24634 38.9054 9.31844 38.8965 9.39549 38.8965C9.51896 38.8965 9.62762 38.9184 9.72047 38.9592C9.81332 39.0001 9.89234 39.0598 9.95655 39.1345C10.0198 39.2092 10.0682 39.3008 10.1008 39.4054C10.1334 39.511 10.1492 39.6275 10.1492 39.755V41.1952H9.67898V39.755C9.67898 39.6026 9.64441 39.4841 9.57428 39.3994C9.50414 39.3148 9.39845 39.273 9.25621 39.273C9.15052 39.273 9.05273 39.2979 8.96284 39.3467C8.87296 39.3955 8.78801 39.4622 8.70898 39.5459V41.1942H8.23584V38.9313H8.52131C8.5865 38.9313 8.627 38.9612 8.64478 39.021L8.67738 39.2291L8.67639 39.2311Z" fill="#092A35"/>
<path d="M11.0464 40.1016C11.0523 40.2301 11.072 40.3406 11.1056 40.4353C11.1392 40.5289 11.1847 40.6076 11.241 40.6693C11.2973 40.7321 11.3654 40.7779 11.4435 40.8087C11.5215 40.8396 11.6094 40.8546 11.7062 40.8546C11.803 40.8546 11.8781 40.8436 11.9462 40.8227C12.0144 40.8008 12.0727 40.7769 12.1221 40.751C12.1714 40.7261 12.2149 40.7022 12.2495 40.6803C12.284 40.6584 12.3166 40.6484 12.3463 40.6484C12.3848 40.6484 12.4144 40.6633 12.4342 40.6932L12.5685 40.8685C12.5122 40.9342 12.449 40.99 12.3789 41.0368C12.3087 41.0826 12.2337 41.1205 12.1537 41.1484C12.0746 41.1773 11.9936 41.1972 11.9097 41.2101C11.8257 41.2231 11.7447 41.229 11.6657 41.229C11.5106 41.229 11.3664 41.2031 11.2331 41.1504C11.0997 41.0976 10.9851 41.0209 10.8873 40.9183C10.7905 40.8167 10.7135 40.6902 10.6582 40.5388C10.6038 40.3884 10.5752 40.2141 10.5752 40.0179C10.5752 39.8606 10.5999 39.7152 10.6493 39.5777C10.6987 39.4423 10.7688 39.3238 10.8607 39.2232C10.9525 39.1216 11.0632 39.0429 11.1945 38.9841C11.3259 38.9264 11.4751 38.8965 11.64 38.8965C11.7783 38.8965 11.9057 38.9194 12.0233 38.9652C12.1398 39.01 12.2416 39.0768 12.3265 39.1634C12.4115 39.251 12.4777 39.3586 12.5261 39.4831C12.5735 39.6096 12.5972 39.754 12.5972 39.9154C12.5972 39.9891 12.5893 40.0399 12.5725 40.0648C12.5567 40.0897 12.527 40.1026 12.4846 40.1026H11.0434L11.0464 40.1016ZM12.1754 39.8088C12.1754 39.7291 12.1635 39.6534 12.1408 39.5857C12.1181 39.518 12.0845 39.4572 12.0411 39.4054C11.9966 39.3556 11.9423 39.3158 11.8771 39.2859C11.8119 39.257 11.7368 39.2431 11.6519 39.2431C11.48 39.2431 11.3447 39.2929 11.2469 39.3925C11.1491 39.4921 11.0869 39.6305 11.0602 39.8098H12.1764L12.1754 39.8088Z" fill="#092A35"/>
<path d="M14.3799 39.3426C14.368 39.3636 14.3552 39.3775 14.3403 39.3875C14.3255 39.3974 14.3068 39.4004 14.285 39.4004C14.2603 39.4004 14.2327 39.3934 14.204 39.3775C14.1754 39.3616 14.1398 39.3446 14.1003 39.3247C14.0608 39.3048 14.0144 39.2879 13.961 39.2739C13.9077 39.258 13.8445 39.25 13.7734 39.25C13.7151 39.25 13.6617 39.257 13.6143 39.2719C13.5659 39.2859 13.5264 39.3048 13.4928 39.3307C13.4602 39.3566 13.4346 39.3865 13.4168 39.4223C13.399 39.4562 13.3901 39.494 13.3901 39.5339C13.3901 39.5876 13.4069 39.6315 13.4385 39.6673C13.4701 39.7032 13.5126 39.7331 13.5659 39.7599C13.6183 39.7858 13.6785 39.8088 13.7457 39.8297C13.8139 39.8506 13.882 39.8725 13.9522 39.8964C14.0223 39.9193 14.0914 39.9462 14.1586 39.9781C14.2268 40.0089 14.286 40.0468 14.3394 40.0916C14.3917 40.1374 14.4342 40.1922 14.4668 40.2559C14.4994 40.3207 14.5152 40.3984 14.5152 40.491C14.5152 40.5966 14.4964 40.6952 14.4579 40.7858C14.4194 40.8754 14.3641 40.9541 14.291 41.0208C14.2179 41.0876 14.127 41.1394 14.0173 41.1762C13.9087 41.2141 13.7832 41.232 13.642 41.232C13.5649 41.232 13.4899 41.225 13.4168 41.2101C13.3447 41.1961 13.2745 41.1772 13.2103 41.1533C13.1451 41.1284 13.0839 41.0995 13.0276 41.0657C12.9713 41.0318 12.9209 40.995 12.8765 40.9551L12.9871 40.7729C12.9999 40.7499 13.0167 40.733 13.0365 40.7201C13.0562 40.7071 13.0809 40.7021 13.1106 40.7021C13.1402 40.7021 13.1718 40.7111 13.2014 40.732C13.2321 40.7509 13.2666 40.7738 13.3071 40.7968C13.3476 40.8207 13.396 40.8426 13.4533 40.8625C13.5106 40.8814 13.5817 40.8924 13.6667 40.8924C13.7368 40.8924 13.7981 40.8844 13.8494 40.8675C13.9008 40.8505 13.9433 40.8266 13.9768 40.7968C14.0104 40.7669 14.0351 40.734 14.0519 40.6962C14.0677 40.6583 14.0756 40.6175 14.0756 40.5756C14.0756 40.5179 14.0598 40.4701 14.0272 40.4332C13.9946 40.3954 13.9522 40.3645 13.8988 40.3376C13.8455 40.3117 13.7842 40.2878 13.7161 40.2669C13.6479 40.246 13.5778 40.2241 13.5086 40.2002C13.4385 40.1773 13.3684 40.1504 13.3012 40.1185C13.2331 40.0876 13.1718 40.0478 13.1185 40C13.0651 39.9522 13.0227 39.8944 12.9901 39.8247C12.9575 39.756 12.9417 39.6723 12.9417 39.5727C12.9417 39.4831 12.9594 39.3974 12.995 39.3167C13.0315 39.2351 13.0839 39.1634 13.154 39.1016C13.2232 39.0389 13.3091 38.9901 13.4109 38.9532C13.5136 38.9164 13.6301 38.8984 13.7635 38.8984C13.9146 38.8984 14.0519 38.9233 14.1754 38.9721C14.2989 39.0209 14.4016 39.0877 14.4856 39.1713L14.3799 39.3446V39.3426Z" fill="#092A35"/>
<path d="M16.3003 39.3426C16.2884 39.3636 16.2756 39.3775 16.2608 39.3875C16.2459 39.3974 16.2272 39.4004 16.2054 39.4004C16.1807 39.4004 16.1531 39.3934 16.1244 39.3775C16.0958 39.3616 16.0602 39.3446 16.0207 39.3247C15.9812 39.3048 15.9348 39.2879 15.8815 39.2739C15.8281 39.258 15.7649 39.25 15.6938 39.25C15.6355 39.25 15.5822 39.257 15.5347 39.2719C15.4863 39.2859 15.4468 39.3048 15.4132 39.3307C15.3806 39.3566 15.355 39.3865 15.3372 39.4223C15.3194 39.4562 15.3105 39.494 15.3105 39.5339C15.3105 39.5876 15.3273 39.6315 15.3589 39.6673C15.3905 39.7032 15.433 39.7331 15.4863 39.7599C15.5387 39.7858 15.5989 39.8088 15.6661 39.8297C15.7343 39.8506 15.8024 39.8725 15.8726 39.8964C15.9427 39.9193 16.0118 39.9462 16.079 39.9781C16.1472 40.0089 16.2064 40.0468 16.2598 40.0916C16.3121 40.1374 16.3546 40.1922 16.3872 40.2559C16.4198 40.3207 16.4356 40.3984 16.4356 40.491C16.4356 40.5966 16.4168 40.6952 16.3783 40.7858C16.3398 40.8754 16.2845 40.9541 16.2114 41.0208C16.1383 41.0876 16.0474 41.1394 15.9378 41.1762C15.8291 41.2141 15.7037 41.232 15.5624 41.232C15.4854 41.232 15.4103 41.225 15.3372 41.2101C15.2651 41.1961 15.1949 41.1772 15.1307 41.1533C15.0655 41.1284 15.0043 41.0995 14.948 41.0657C14.8917 41.0318 14.8413 40.995 14.7969 40.9551L14.9075 40.7729C14.9203 40.7499 14.9371 40.733 14.9569 40.7201C14.9766 40.7071 15.0013 40.7021 15.031 40.7021C15.0606 40.7021 15.0922 40.7111 15.1219 40.732C15.1525 40.7509 15.187 40.7738 15.2275 40.7968C15.268 40.8207 15.3164 40.8426 15.3737 40.8625C15.431 40.8814 15.5021 40.8924 15.5871 40.8924C15.6572 40.8924 15.7185 40.8844 15.7698 40.8675C15.8212 40.8505 15.8637 40.8266 15.8973 40.7968C15.9308 40.7669 15.9555 40.734 15.9723 40.6962C15.9881 40.6583 15.996 40.6175 15.996 40.5756C15.996 40.5179 15.9802 40.4701 15.9476 40.4332C15.915 40.3954 15.8726 40.3645 15.8192 40.3376C15.7659 40.3117 15.7046 40.2878 15.6365 40.2669C15.5683 40.246 15.4982 40.2241 15.4291 40.2002C15.3589 40.1773 15.2888 40.1504 15.2216 40.1185C15.1535 40.0876 15.0922 40.0478 15.0389 40C14.9855 39.9522 14.9431 39.8944 14.9105 39.8247C14.8779 39.756 14.8621 39.6723 14.8621 39.5727C14.8621 39.4831 14.8798 39.3974 14.9154 39.3167C14.952 39.2351 15.0043 39.1634 15.0744 39.1016C15.1436 39.0389 15.2295 38.9901 15.3313 38.9532C15.434 38.9164 15.5505 38.8984 15.6839 38.8984C15.835 38.8984 15.9723 38.9233 16.0958 38.9721C16.2193 39.0209 16.322 39.0877 16.406 39.1713L16.3003 39.3446V39.3426Z" fill="#092A35"/>
<path d="M20.4766 41.1951H20.0163C19.9254 41.1951 19.8592 41.1602 19.8187 41.0875L19.0789 40.0119C19.0542 39.974 19.0265 39.9481 18.9979 39.9322C18.9692 39.9162 18.9248 39.9073 18.8655 39.9073H18.5801V41.1951H18.0654V38H18.9979C19.2063 38 19.3851 38.0219 19.5362 38.0637C19.6864 38.1066 19.8098 38.1673 19.9076 38.247C20.0044 38.3257 20.0756 38.4213 20.122 38.5318C20.1684 38.6424 20.1911 38.7669 20.1911 38.9023C20.1911 39.0139 20.1743 39.1175 20.1417 39.2131C20.1091 39.3087 20.0607 39.3963 19.9985 39.475C19.9363 39.5527 19.8592 39.6204 19.7684 39.6792C19.6775 39.736 19.5738 39.7818 19.4582 39.8147C19.5214 39.8525 19.5757 39.9073 19.6212 39.976L20.4776 41.1941L20.4766 41.1951ZM18.985 39.5308C19.1016 39.5308 19.2043 39.5169 19.2932 39.488C19.3811 39.4591 19.4552 39.4193 19.5125 39.3675C19.5708 39.3167 19.6153 39.2549 19.6449 39.1832C19.6745 39.1115 19.6893 39.0318 19.6893 38.9442C19.6893 38.7699 19.632 38.6364 19.5175 38.5458C19.4029 38.4532 19.23 38.4083 18.9979 38.4083H18.5801V39.5328H18.985V39.5308Z" fill="#092A35"/>
<path d="M20.9692 40.1016C20.9751 40.2301 20.9949 40.3406 21.0285 40.4353C21.0621 40.5289 21.1075 40.6076 21.1638 40.6693C21.2201 40.7321 21.2883 40.7779 21.3663 40.8087C21.4443 40.8396 21.5322 40.8546 21.6291 40.8546C21.7259 40.8546 21.8009 40.8436 21.8691 40.8227C21.9372 40.8008 21.9955 40.7769 22.0449 40.751C22.0943 40.7261 22.1378 40.7022 22.1723 40.6803C22.2069 40.6584 22.2395 40.6484 22.2691 40.6484C22.3077 40.6484 22.3373 40.6633 22.357 40.6932L22.4914 40.8685C22.4351 40.9342 22.3719 40.99 22.3017 41.0368C22.2316 41.0826 22.1565 41.1205 22.0765 41.1484C21.9975 41.1773 21.9165 41.1972 21.8325 41.2101C21.7486 41.2231 21.6676 41.229 21.5886 41.229C21.4335 41.229 21.2893 41.2031 21.1559 41.1504C21.0226 41.0976 20.908 41.0209 20.8102 40.9183C20.7134 40.8167 20.6363 40.6902 20.581 40.5388C20.5267 40.3884 20.498 40.2141 20.498 40.0179C20.498 39.8606 20.5227 39.7152 20.5721 39.5777C20.6215 39.4423 20.6917 39.3238 20.7835 39.2232C20.8754 39.1216 20.986 39.0429 21.1174 38.9841C21.2488 38.9264 21.3979 38.8965 21.5629 38.8965C21.7012 38.8965 21.8286 38.9194 21.9461 38.9652C22.0627 39.01 22.1644 39.0768 22.2494 39.1634C22.3343 39.251 22.4005 39.3586 22.4489 39.4831C22.4963 39.6096 22.52 39.754 22.52 39.9154C22.52 39.9891 22.5121 40.0399 22.4953 40.0648C22.4795 40.0897 22.4499 40.1026 22.4074 40.1026H20.9663L20.9692 40.1016ZM22.0982 39.8088C22.0982 39.7291 22.0864 39.6534 22.0637 39.5857C22.041 39.518 22.0074 39.4572 21.9639 39.4054C21.9195 39.3556 21.8651 39.3158 21.7999 39.2859C21.7347 39.257 21.6597 39.2431 21.5747 39.2431C21.4028 39.2431 21.2675 39.2929 21.1697 39.3925C21.0719 39.4921 21.0097 39.6305 20.983 39.8098H22.0992L22.0982 39.8088Z" fill="#092A35"/>
<path d="M24.8969 39.0131V39.1894C24.8969 39.2482 24.8623 39.285 24.7912 39.299L24.567 39.3368C24.6055 39.4225 24.6243 39.5181 24.6243 39.6227C24.6243 39.7332 24.6025 39.8348 24.5601 39.9244C24.5166 40.0141 24.4564 40.0918 24.3803 40.1545C24.3042 40.2183 24.2134 40.2671 24.1077 40.3019C24.002 40.3368 23.8884 40.3527 23.7649 40.3527C23.7185 40.3527 23.6721 40.3507 23.6266 40.3447C23.5812 40.3388 23.5387 40.3318 23.4962 40.3228C23.4538 40.3487 23.4221 40.3756 23.4014 40.4035C23.3807 40.4304 23.3708 40.4603 23.3708 40.4892C23.3708 40.538 23.3915 40.5748 23.435 40.5987C23.4775 40.6226 23.5338 40.6395 23.6029 40.6495C23.673 40.6595 23.7531 40.6664 23.842 40.6684C23.9309 40.6714 24.0217 40.6764 24.1146 40.6844C24.2064 40.6913 24.2973 40.7033 24.3872 40.7212C24.4761 40.7381 24.5561 40.767 24.6253 40.8059C24.6954 40.8447 24.7517 40.8985 24.7932 40.9642C24.8357 41.031 24.8574 41.1176 24.8574 41.2242C24.8574 41.3218 24.8327 41.4164 24.7853 41.51C24.7369 41.6036 24.6667 41.6863 24.5749 41.758C24.483 41.8307 24.3714 41.8895 24.239 41.9323C24.1067 41.9751 23.9565 41.998 23.7886 41.998C23.6207 41.998 23.4755 41.9811 23.352 41.9492C23.2276 41.9164 23.1238 41.8726 23.0409 41.8168C22.9579 41.761 22.8967 41.6973 22.8562 41.6246C22.8157 41.5529 22.7959 41.4772 22.7959 41.3995C22.7959 41.2919 22.8295 41.2023 22.8957 41.1256C22.9618 41.0509 23.0537 40.9911 23.1673 40.9493C23.1061 40.9194 23.0567 40.8786 23.0191 40.8258C22.9816 40.775 22.9628 40.7063 22.9628 40.6216C22.9628 40.5559 22.9875 40.4862 23.0359 40.4135C23.0843 40.3418 23.1564 40.28 23.2532 40.2302C23.1416 40.1675 23.0537 40.0858 22.9895 39.9832C22.9253 39.8796 22.8927 39.7601 22.8927 39.6217C22.8927 39.5101 22.9144 39.4085 22.9569 39.3179C23.0004 39.2283 23.0606 39.1516 23.1387 39.0878C23.2157 39.0241 23.3086 38.9753 23.4142 38.9404C23.5209 38.9076 23.6365 38.8906 23.7629 38.8906C23.9565 38.8906 24.1254 38.9305 24.2687 39.0121H24.8959L24.8969 39.0131ZM24.4218 41.3039C24.4218 41.2541 24.4079 41.2142 24.3793 41.1833C24.3507 41.1525 24.3121 41.1296 24.2637 41.1126C24.2153 41.0957 24.159 41.0828 24.0938 41.0748C24.0296 41.0658 23.9605 41.0598 23.8884 41.0569C23.8153 41.0539 23.7412 41.0499 23.6661 41.0459C23.5911 41.0429 23.518 41.0359 23.4478 41.025C23.3777 41.0618 23.3194 41.1057 23.275 41.1584C23.2305 41.2092 23.2078 41.27 23.2078 41.3377C23.2078 41.3825 23.2197 41.4244 23.2424 41.4622C23.2651 41.5011 23.2997 41.5339 23.3481 41.5628C23.3955 41.5917 23.4567 41.6126 23.5308 41.6285C23.6049 41.6455 23.6938 41.6534 23.7985 41.6534C24.0069 41.6534 24.163 41.6206 24.2677 41.5558C24.3714 41.4911 24.4238 41.4074 24.4238 41.3049L24.4218 41.3039ZM23.7639 40.042C23.9101 40.042 24.0207 40.0041 24.0938 39.9294C24.1669 39.8547 24.2045 39.7551 24.2045 39.6346C24.2045 39.5141 24.1679 39.4125 24.0938 39.3398C24.0198 39.2671 23.9101 39.2303 23.7639 39.2303C23.6177 39.2303 23.5091 39.2671 23.435 39.3398C23.3609 39.4125 23.3234 39.5111 23.3234 39.6346C23.3234 39.6934 23.3332 39.7482 23.352 39.7989C23.3708 39.8487 23.3994 39.8926 23.436 39.9284C23.4725 39.9653 23.519 39.9922 23.5743 40.0131C23.6286 40.032 23.6928 40.043 23.7649 40.043L23.7639 40.042Z" fill="#092A35"/>
<path d="M25.8431 38.2484C25.8431 38.2913 25.8352 38.3321 25.8184 38.3699C25.8016 38.4078 25.7779 38.4417 25.7483 38.4715C25.7187 38.5004 25.6851 38.5223 25.6465 38.5403C25.607 38.5572 25.5665 38.5652 25.5221 38.5652C25.4776 38.5652 25.4391 38.5572 25.4026 38.5403C25.366 38.5233 25.3324 38.5004 25.3038 38.4715C25.2751 38.4417 25.2534 38.4088 25.2366 38.3699C25.2198 38.3311 25.2109 38.2913 25.2109 38.2484C25.2109 38.2056 25.2198 38.1628 25.2366 38.1239C25.2534 38.0851 25.2751 38.0522 25.3038 38.0224C25.3324 37.9935 25.365 37.9716 25.4026 37.9536C25.4401 37.9357 25.4796 37.9277 25.5221 37.9277C25.5646 37.9277 25.607 37.9367 25.6465 37.9536C25.6851 37.9706 25.7187 37.9935 25.7483 38.0224C25.7779 38.0522 25.8016 38.0851 25.8184 38.1239C25.8352 38.1628 25.8431 38.2036 25.8431 38.2484ZM25.7641 38.9317V41.1945H25.2909V38.9317H25.7641Z" fill="#092A35"/>
<path d="M27.3298 38.8945C27.4958 38.8945 27.6449 38.9214 27.7792 38.9782C27.9136 39.033 28.0282 39.1107 28.123 39.2103C28.2178 39.3099 28.2899 39.4324 28.3423 39.5758C28.3927 39.7192 28.4193 39.8815 28.4193 40.0598C28.4193 40.2381 28.3936 40.3994 28.3423 40.5429C28.2899 40.6863 28.2178 40.8098 28.123 40.9094C28.0282 41.011 27.9136 41.0896 27.7792 41.1444C27.6449 41.1992 27.4958 41.2261 27.3298 41.2261C27.1639 41.2261 27.0127 41.1992 26.8774 41.1444C26.7421 41.0896 26.6285 41.011 26.5327 40.9094C26.4378 40.8088 26.3648 40.6863 26.3124 40.5429C26.262 40.3994 26.2354 40.2391 26.2354 40.0598C26.2354 39.8805 26.261 39.7192 26.3124 39.5758C26.3648 39.4324 26.4378 39.3099 26.5327 39.2103C26.6285 39.1097 26.7431 39.033 26.8774 38.9782C27.0117 38.9224 27.1619 38.8945 27.3298 38.8945ZM27.3298 40.8546C27.5323 40.8546 27.6834 40.7859 27.7822 40.6494C27.882 40.513 27.9314 40.3168 27.9314 40.0628C27.9314 39.8088 27.882 39.6116 27.7822 39.4742C27.6834 39.3348 27.5323 39.267 27.3298 39.267C27.1273 39.267 26.9712 39.3357 26.8725 39.4742C26.7727 39.6116 26.7233 39.8078 26.7233 40.0628C26.7233 40.3178 26.7727 40.513 26.8725 40.6494C26.9722 40.7859 27.1243 40.8546 27.3298 40.8546Z" fill="#092A35"/>
<path d="M29.3151 39.2311C29.3635 39.1813 29.4139 39.1355 29.4652 39.0957C29.5176 39.0548 29.5729 39.019 29.6312 38.9901C29.6895 38.9612 29.7517 38.9373 29.8188 38.9214C29.884 38.9054 29.9571 38.8965 30.0332 38.8965C30.1567 38.8965 30.2653 38.9184 30.3582 38.9592C30.451 39.0001 30.53 39.0598 30.5933 39.1345C30.6565 39.2092 30.7049 39.3008 30.7375 39.4054C30.7691 39.511 30.7849 39.6275 30.7849 39.755V41.1952H30.3147V39.755C30.3147 39.6026 30.2801 39.4841 30.21 39.3994C30.1409 39.3148 30.0352 39.273 29.8929 39.273C29.7863 39.273 29.6895 39.2979 29.5996 39.3467C29.5097 39.3955 29.4247 39.4622 29.3457 39.5459V41.1942H28.8726V38.9313H29.158C29.2232 38.9313 29.2647 38.9612 29.2825 39.021L29.3151 39.2291V39.2311Z" fill="#092A35"/>
<path d="M33.04 39.3665H33.1872C33.2435 39.3665 33.289 39.3585 33.3235 39.3436C33.3581 39.3276 33.3897 39.3027 33.4184 39.2699L34.3775 38.1155C34.4111 38.0727 34.4456 38.0428 34.4812 38.0259C34.5168 38.009 34.5622 38.001 34.6165 38.001H35.0561L33.9241 39.3495C33.8925 39.3874 33.8629 39.4202 33.8352 39.4451C33.8056 39.471 33.7749 39.493 33.7414 39.5089C33.7858 39.5248 33.8253 39.5477 33.8599 39.5756C33.8945 39.6055 33.93 39.6424 33.9636 39.6912L35.1381 41.1951H34.6896C34.658 41.1951 34.6294 41.1931 34.6066 41.1881C34.5839 41.1831 34.5652 41.1771 34.5484 41.1672C34.5316 41.1592 34.5168 41.1483 34.5039 41.1343C34.4911 41.1204 34.4802 41.1074 34.4703 41.0895L33.4796 39.8694C33.4648 39.8505 33.45 39.8346 33.4351 39.8206C33.4203 39.8077 33.4035 39.7967 33.3848 39.7878C33.364 39.7788 33.3423 39.7728 33.3166 39.7698C33.2919 39.7649 33.2623 39.7639 33.2287 39.7639H33.04V41.1951H32.5244V38H33.04V39.3665Z" fill="#092A35"/>
<path d="M35.8522 39.3508C35.9224 39.2074 36.0073 39.0948 36.1061 39.0122C36.2069 38.9305 36.3264 38.8887 36.4657 38.8887C36.5141 38.8887 36.5595 38.8937 36.602 38.9046C36.6435 38.9156 36.682 38.9335 36.7166 38.9544L36.684 39.313C36.677 39.3389 36.6682 39.3558 36.6553 39.3657C36.6425 39.3757 36.6267 39.3807 36.6059 39.3807C36.5852 39.3807 36.5526 39.3757 36.5121 39.3677C36.4706 39.3598 36.4271 39.3548 36.3817 39.3548C36.3155 39.3548 36.2572 39.3647 36.2069 39.3847C36.1565 39.4046 36.111 39.4315 36.0705 39.4693C36.031 39.5062 35.9945 39.551 35.9639 39.6048C35.9332 39.6576 35.9036 39.7183 35.8779 39.786V41.1933H35.4048V38.9305H35.6804C35.7298 38.9305 35.7643 38.9395 35.7831 38.9574C35.8019 38.9753 35.8157 39.0072 35.8226 39.054L35.8522 39.3488V39.3508Z" fill="#092A35"/>
<path d="M37.6014 38.2484C37.6014 38.2913 37.5925 38.3321 37.5757 38.3699C37.5589 38.4078 37.5362 38.4417 37.5066 38.4715C37.4769 38.5004 37.4434 38.5223 37.4039 38.5403C37.3653 38.5572 37.3238 38.5652 37.2794 38.5652C37.2349 38.5652 37.1964 38.5572 37.1599 38.5403C37.1233 38.5233 37.0897 38.5004 37.0631 38.4715C37.0344 38.4417 37.0127 38.4088 36.9949 38.3699C36.9771 38.3311 36.9702 38.2913 36.9702 38.2484C36.9702 38.2056 36.9781 38.1628 36.9949 38.1239C37.0117 38.0851 37.0344 38.0522 37.0631 38.0224C37.0897 37.9935 37.1233 37.9716 37.1599 37.9536C37.1964 37.9357 37.2379 37.9277 37.2794 37.9277C37.3238 37.9277 37.3653 37.9367 37.4039 37.9536C37.4434 37.9706 37.4769 37.9935 37.5066 38.0224C37.5362 38.0522 37.5589 38.0851 37.5757 38.1239C37.5925 38.1628 37.6014 38.2036 37.6014 38.2484ZM37.5224 38.9317V41.1945H37.0492V38.9317H37.5224Z" fill="#092A35"/>
<path d="M39.4575 39.3426C39.4446 39.3636 39.4328 39.3775 39.418 39.3875C39.4032 39.3974 39.3844 39.4004 39.3627 39.4004C39.338 39.4004 39.3103 39.3934 39.2817 39.3775C39.253 39.3616 39.2175 39.3446 39.1779 39.3247C39.1384 39.3048 39.092 39.2879 39.0387 39.2739C38.9843 39.258 38.9221 39.25 38.85 39.25C38.7917 39.25 38.7384 39.257 38.691 39.2719C38.6436 39.2859 38.6031 39.3048 38.5705 39.3307C38.5379 39.3566 38.5122 39.3865 38.4944 39.4223C38.4766 39.4562 38.4677 39.494 38.4677 39.5339C38.4677 39.5876 38.4845 39.6315 38.5161 39.6673C38.5487 39.7022 38.5902 39.7331 38.6436 39.7599C38.6969 39.7868 38.7562 39.8088 38.8243 39.8297C38.8925 39.8506 38.9606 39.8725 39.0308 39.8964C39.1009 39.9193 39.17 39.9462 39.2372 39.9781C39.3054 40.0089 39.3646 40.0468 39.418 40.0916C39.4703 40.1374 39.5128 40.1922 39.5454 40.2559C39.577 40.3207 39.5928 40.3984 39.5928 40.491C39.5928 40.5966 39.575 40.6952 39.5365 40.7858C39.498 40.8754 39.4427 40.9541 39.3696 41.0208C39.2965 41.0876 39.2046 41.1394 39.095 41.1762C38.9863 41.2141 38.8609 41.232 38.7196 41.232C38.6426 41.232 38.5675 41.225 38.4944 41.2101C38.4223 41.1961 38.3522 41.1772 38.288 41.1533C38.2228 41.1284 38.1615 41.0995 38.1052 41.0657C38.0489 41.0318 37.9985 40.995 37.9551 40.9551L38.0647 40.7729C38.0785 40.7499 38.0944 40.733 38.1141 40.7201C38.1329 40.7071 38.1586 40.7021 38.1872 40.7021C38.2159 40.7021 38.2484 40.7111 38.2791 40.732C38.3097 40.7509 38.3443 40.7738 38.3838 40.7968C38.4243 40.8207 38.4727 40.8426 38.531 40.8625C38.5882 40.8814 38.6584 40.8924 38.7443 40.8924C38.8144 40.8924 38.8757 40.8844 38.9261 40.8675C38.9784 40.8505 39.0199 40.8266 39.0535 40.7968C39.0871 40.7669 39.1118 40.734 39.1295 40.6962C39.1454 40.6583 39.1533 40.6175 39.1533 40.5756C39.1533 40.5179 39.1374 40.4701 39.1049 40.4332C39.0732 40.3954 39.0308 40.3645 38.9764 40.3376C38.9231 40.3117 38.8619 40.2878 38.7947 40.2669C38.7255 40.246 38.6564 40.2241 38.5873 40.2002C38.5161 40.1773 38.447 40.1504 38.3798 40.1185C38.3107 40.0876 38.2494 40.0478 38.1971 40C38.1447 39.9522 38.1013 39.8944 38.0687 39.8247C38.0361 39.756 38.0203 39.6723 38.0203 39.5727C38.0203 39.4831 38.0381 39.3974 38.0746 39.3167C38.1111 39.2351 38.1625 39.1634 38.2326 39.1016C38.3028 39.0389 38.3887 38.9901 38.4905 38.9532C38.5922 38.9164 38.7097 38.8984 38.8431 38.8984C38.9942 38.8984 39.1325 38.9233 39.256 38.9721C39.3795 39.0209 39.4822 39.0877 39.5652 39.1713L39.4604 39.3446L39.4575 39.3426Z" fill="#092A35"/>
<path d="M42.2175 41.1957H41.7443V39.3084H40.6509V40.5922C40.6509 40.6739 40.6716 40.7356 40.7111 40.7794C40.7506 40.8213 40.804 40.8432 40.8692 40.8432C40.9057 40.8432 40.9373 40.8382 40.964 40.8282C40.9897 40.8193 41.0124 40.8093 41.0322 40.7974C41.0519 40.7854 41.0667 40.7754 41.0815 40.7665C41.0954 40.7575 41.1082 40.7515 41.122 40.7515C41.1477 40.7515 41.1695 40.7665 41.1853 40.7964L41.3265 41.0304C41.2534 41.0951 41.1665 41.1459 41.0667 41.1798C40.967 41.2147 40.8642 41.2326 40.7595 41.2326C40.5728 41.2326 40.4296 41.1798 40.3289 41.0742C40.2281 40.9687 40.1787 40.8193 40.1787 40.626V39.3094H39.9308C39.9051 39.3094 39.8824 39.3004 39.8626 39.2835C39.8429 39.2666 39.834 39.2416 39.834 39.2068V39.0146L40.1965 38.9608L40.3002 38.3064C40.3071 38.2815 40.319 38.2606 40.3378 38.2447C40.3545 38.2287 40.3782 38.2218 40.4079 38.2218H40.6499V38.9648H42.2175V41.1967V41.1957ZM42.3133 38.2377C42.3133 38.2805 42.3054 38.3214 42.2886 38.3582C42.2718 38.3951 42.2481 38.4299 42.2185 38.4588C42.1898 38.4877 42.1553 38.5096 42.1167 38.5275C42.0782 38.5455 42.0377 38.5534 41.9943 38.5534C41.9508 38.5534 41.9113 38.5445 41.8747 38.5275C41.8382 38.5106 41.8036 38.4877 41.775 38.4588C41.7463 38.4299 41.7246 38.3961 41.7068 38.3582C41.689 38.3204 41.6811 38.2805 41.6811 38.2377C41.6811 38.1949 41.69 38.1521 41.7068 38.1122C41.7236 38.0734 41.7463 38.0395 41.775 38.0106C41.8036 37.9808 41.8372 37.9578 41.8747 37.9409C41.9123 37.924 41.9518 37.916 41.9943 37.916C42.0367 37.916 42.0782 37.924 42.1167 37.9409C42.1553 37.9578 42.1898 37.9808 42.2185 38.0106C42.2481 38.0395 42.2718 38.0734 42.2886 38.1122C42.3054 38.1521 42.3133 38.1929 42.3133 38.2377Z" fill="#092A35"/>
<path d="M42.7586 39.2472C43.0114 39.0091 43.3147 38.8906 43.6643 38.8906C43.7928 38.8906 43.9083 38.9115 44.0091 38.9534C44.1098 38.9952 44.1928 39.055 44.262 39.1326C44.3301 39.2093 44.3815 39.301 44.418 39.4065C44.4546 39.5121 44.4724 39.6296 44.4724 39.7581V41.1963H44.261C44.2145 41.1963 44.181 41.1893 44.1572 41.1744C44.1335 41.1604 44.1148 41.1325 44.097 41.0887L44.0516 40.9055C43.9943 40.9563 43.937 41.0031 43.8817 41.0429C43.8254 41.0837 43.7671 41.1176 43.7088 41.1465C43.6485 41.1754 43.5853 41.1953 43.5172 41.2092C43.449 41.2242 43.3749 41.2312 43.292 41.2312C43.2001 41.2312 43.1161 41.2182 43.0381 41.1933C42.9591 41.1684 42.8909 41.1296 42.8346 41.0798C42.7773 41.029 42.7319 40.9642 42.6993 40.8895C42.6667 40.8148 42.6499 40.7252 42.6499 40.6226C42.6499 40.536 42.6736 40.4503 42.72 40.3676C42.7655 40.286 42.8425 40.2113 42.9482 40.1455C43.0539 40.0798 43.1942 40.025 43.369 39.9822C43.5429 39.9394 43.7582 39.9155 44.013 39.9085V39.7581C44.013 39.5948 43.9785 39.4743 43.9093 39.3946C43.8402 39.3149 43.7384 39.2741 43.6051 39.2741C43.5142 39.2741 43.4381 39.287 43.3769 39.3089C43.3147 39.3318 43.2613 39.3567 43.2169 39.3826C43.1705 39.4085 43.1309 39.4334 43.0964 39.4563C43.0598 39.4792 43.0233 39.4902 42.9838 39.4902C42.9522 39.4902 42.9235 39.4822 42.9008 39.4653C42.8781 39.4484 42.8603 39.4274 42.8455 39.4016L42.7595 39.2462L42.7586 39.2472ZM44.013 40.2053C43.8431 40.2123 43.7009 40.2262 43.5863 40.2461C43.4698 40.268 43.3759 40.2949 43.3048 40.3278C43.2327 40.3617 43.1803 40.4005 43.1487 40.4473C43.1171 40.4931 43.1013 40.5429 43.1013 40.5977C43.1013 40.6525 43.1102 40.6973 43.127 40.7342C43.1438 40.771 43.1665 40.8029 43.1971 40.8268C43.2278 40.8517 43.2623 40.8686 43.3038 40.8806C43.3433 40.8915 43.3888 40.8975 43.4362 40.8975C43.5596 40.8975 43.6653 40.8736 43.7552 40.8268C43.8431 40.781 43.9301 40.7132 44.014 40.6236V40.2043L44.013 40.2053Z" fill="#092A35"/>
<path d="M45.4669 39.2311C45.5153 39.1813 45.5657 39.1355 45.6171 39.0957C45.6694 39.0548 45.7247 39.019 45.783 38.9901C45.8413 38.9612 45.9035 38.9373 45.9707 38.9214C46.0359 38.9054 46.109 38.8965 46.1851 38.8965C46.3085 38.8965 46.4172 38.9184 46.51 38.9592C46.6029 39.0001 46.6819 39.0598 46.7451 39.1345C46.8083 39.2092 46.8567 39.3008 46.8893 39.4054C46.9209 39.511 46.9367 39.6275 46.9367 39.755V41.1952H46.4666V39.755C46.4666 39.6026 46.432 39.4841 46.3619 39.3994C46.2927 39.3148 46.187 39.273 46.0448 39.273C45.9381 39.273 45.8413 39.2979 45.7514 39.3467C45.6615 39.3955 45.5766 39.4622 45.4976 39.5459V41.1942H45.0244V38.9313H45.3099C45.3751 38.9313 45.4166 38.9612 45.4343 39.021L45.4669 39.2291V39.2311Z" fill="#092A35"/>
<path d="M48.8325 39.3426C48.8196 39.3636 48.8078 39.3775 48.793 39.3875C48.7782 39.3974 48.7594 39.4004 48.7377 39.4004C48.713 39.4004 48.6853 39.3934 48.6567 39.3775C48.628 39.3616 48.5925 39.3446 48.5529 39.3247C48.5134 39.3048 48.467 39.2879 48.4137 39.2739C48.3593 39.258 48.2971 39.25 48.225 39.25C48.1667 39.25 48.1134 39.257 48.066 39.2719C48.0186 39.2859 47.9781 39.3048 47.9455 39.3307C47.9129 39.3566 47.8872 39.3865 47.8694 39.4223C47.8516 39.4562 47.8427 39.494 47.8427 39.5339C47.8427 39.5876 47.8595 39.6315 47.8911 39.6673C47.9237 39.7022 47.9652 39.7331 48.0186 39.7599C48.0719 39.7868 48.1312 39.8088 48.1993 39.8297C48.2675 39.8506 48.3356 39.8725 48.4058 39.8964C48.4759 39.9193 48.545 39.9462 48.6122 39.9781C48.6804 40.0089 48.7396 40.0468 48.793 40.0916C48.8453 40.1374 48.8878 40.1922 48.9204 40.2559C48.952 40.3207 48.9678 40.3984 48.9678 40.491C48.9678 40.5966 48.95 40.6952 48.9115 40.7858C48.873 40.8754 48.8177 40.9541 48.7446 41.0208C48.6715 41.0876 48.5796 41.1394 48.47 41.1762C48.3613 41.2141 48.2359 41.232 48.0946 41.232C48.0176 41.232 47.9425 41.225 47.8694 41.2101C47.7973 41.1961 47.7272 41.1772 47.663 41.1533C47.5978 41.1284 47.5365 41.0995 47.4802 41.0657C47.4239 41.0318 47.3735 40.995 47.3301 40.9551L47.4397 40.7729C47.4535 40.7499 47.4694 40.733 47.4891 40.7201C47.5079 40.7071 47.5336 40.7021 47.5622 40.7021C47.5909 40.7021 47.6234 40.7111 47.6541 40.732C47.6847 40.7509 47.7193 40.7738 47.7588 40.7968C47.7993 40.8207 47.8477 40.8426 47.906 40.8625C47.9632 40.8814 48.0334 40.8924 48.1193 40.8924C48.1894 40.8924 48.2507 40.8844 48.3011 40.8675C48.3534 40.8505 48.3949 40.8266 48.4285 40.7968C48.4621 40.7669 48.4868 40.734 48.5045 40.6962C48.5203 40.6583 48.5283 40.6175 48.5283 40.5756C48.5283 40.5179 48.5124 40.4701 48.4798 40.4332C48.4482 40.3954 48.4058 40.3645 48.3514 40.3376C48.2981 40.3117 48.2369 40.2878 48.1697 40.2669C48.1005 40.246 48.0314 40.2241 47.9623 40.2002C47.8911 40.1773 47.822 40.1504 47.7548 40.1185C47.6857 40.0876 47.6244 40.0478 47.5721 40C47.5197 39.9522 47.4763 39.8944 47.4437 39.8247C47.4111 39.756 47.3953 39.6723 47.3953 39.5727C47.3953 39.4831 47.4131 39.3974 47.4496 39.3167C47.4861 39.2351 47.5375 39.1634 47.6076 39.1016C47.6778 39.0389 47.7637 38.9901 47.8655 38.9532C47.9672 38.9164 48.0847 38.8984 48.2181 38.8984C48.3692 38.8984 48.5075 38.9233 48.631 38.9721C48.7544 39.0209 48.8572 39.0877 48.9402 39.1713L48.8354 39.3446L48.8325 39.3426Z" fill="#092A35"/>
<path d="M49.3582 39.2472C49.612 39.0091 49.9143 38.8906 50.2639 38.8906C50.3943 38.8906 50.5079 38.9115 50.6087 38.9534C50.7094 38.9952 50.7944 39.055 50.8615 39.1326C50.9297 39.2093 50.9811 39.301 51.0176 39.4065C51.0542 39.5121 51.0719 39.6296 51.0719 39.7581V41.1963H50.8606C50.8151 41.1963 50.7806 41.1893 50.7578 41.1744C50.7341 41.1604 50.7134 41.1325 50.6976 41.0887L50.6512 40.9055C50.5939 40.9563 50.5366 41.0031 50.4813 41.0429C50.4259 41.0837 50.3687 41.1176 50.3084 41.1465C50.2501 41.1754 50.1849 41.1953 50.1178 41.2092C50.0496 41.2242 49.9745 41.2312 49.8916 41.2312C49.8007 41.2312 49.7167 41.2182 49.6377 41.1933C49.5597 41.1684 49.4915 41.1296 49.4342 41.0798C49.3779 41.029 49.3325 40.9642 49.2999 40.8895C49.2663 40.8148 49.2505 40.7252 49.2505 40.6226C49.2505 40.536 49.2732 40.4503 49.3196 40.3676C49.3661 40.286 49.4421 40.2113 49.5488 40.1455C49.6555 40.0798 49.7948 40.025 49.9676 39.9822C50.1415 39.9394 50.3568 39.9155 50.6116 39.9085V39.7581C50.6116 39.5948 50.5781 39.4743 50.5089 39.3946C50.4388 39.3149 50.338 39.2741 50.2047 39.2741C50.1128 39.2741 50.0377 39.287 49.9755 39.3089C49.9143 39.3318 49.8599 39.3567 49.8155 39.3826C49.771 39.4085 49.7296 39.4334 49.695 39.4563C49.6604 39.4792 49.6229 39.4902 49.5834 39.4902C49.5508 39.4902 49.5231 39.4822 49.5004 39.4653C49.4777 39.4484 49.4589 39.4274 49.4441 39.4016L49.3582 39.2462V39.2472ZM50.6126 40.2053C50.4447 40.2123 50.3015 40.2262 50.1859 40.2461C50.0703 40.268 49.9765 40.2949 49.9044 40.3278C49.8323 40.3617 49.7809 40.4005 49.7493 40.4473C49.7177 40.4931 49.7019 40.5429 49.7019 40.5977C49.7019 40.6525 49.7098 40.6973 49.7266 40.7342C49.7434 40.771 49.7671 40.8029 49.7977 40.8268C49.8274 40.8517 49.8619 40.8686 49.9024 40.8806C49.9429 40.8925 49.9874 40.8975 50.0358 40.8975C50.1592 40.8975 50.2649 40.8736 50.3528 40.8268C50.4417 40.781 50.5277 40.7132 50.6116 40.6236V40.2043L50.6126 40.2053Z" fill="#092A35"/>
<path d="M52.0665 39.2311C52.1149 39.1813 52.1663 39.1355 52.2177 39.0957C52.27 39.0548 52.3253 39.019 52.3836 38.9901C52.4419 38.9612 52.5041 38.9373 52.5703 38.9214C52.6365 38.9054 52.7086 38.8965 52.7856 38.8965C52.9091 38.8965 53.0178 38.9184 53.1096 38.9592C53.2035 39.0001 53.2815 39.0598 53.3457 39.1345C53.4089 39.2092 53.4563 39.3008 53.4889 39.4054C53.5215 39.511 53.5373 39.6275 53.5373 39.755V41.1952H53.0662V39.755C53.0662 39.6026 53.0316 39.4841 52.9625 39.3994C52.8923 39.3148 52.7866 39.273 52.6434 39.273C52.5387 39.273 52.4399 39.2979 52.35 39.3467C52.2611 39.3955 52.1762 39.4622 52.0962 39.5459V41.1942H51.624V38.9313H51.9095C51.9737 38.9313 52.0142 38.9612 52.033 39.021L52.0656 39.2291L52.0665 39.2311Z" fill="#092A35"/>
<path d="M55.9991 37.9112V41.1949H55.7116C55.6494 41.1949 55.6089 41.164 55.5911 41.1032L55.5496 40.8572C55.4558 40.9678 55.3501 41.0574 55.2296 41.1251C55.1101 41.1939 54.9708 41.2277 54.8128 41.2277C54.6863 41.2277 54.5717 41.2028 54.469 41.151C54.3663 41.0992 54.2794 41.0255 54.2053 40.9279C54.1312 40.8303 54.0739 40.7088 54.0344 40.5654C53.9939 40.421 53.9731 40.2557 53.9731 40.0694C53.9731 39.9011 53.9959 39.7447 54.0413 39.6013C54.0858 39.4579 54.15 39.3324 54.2329 39.2278C54.3169 39.1222 54.4186 39.0386 54.5382 38.9778C54.6567 38.9191 54.791 38.8892 54.9392 38.8892C55.0716 38.8892 55.1832 38.9101 55.276 38.9519C55.3689 38.9938 55.4509 39.0535 55.5249 39.1282V37.9102H55.9981L55.9991 37.9112ZM55.5259 39.4878C55.4607 39.4021 55.3867 39.3434 55.3076 39.3085C55.2286 39.2736 55.1427 39.2577 55.0498 39.2577C54.8661 39.2577 54.7209 39.3264 54.6172 39.4629C54.5135 39.5993 54.4611 39.8025 54.4611 40.0704C54.4611 40.2098 54.472 40.3284 54.4957 40.426C54.5184 40.5236 54.552 40.6052 54.5964 40.666C54.6409 40.7287 54.6952 40.7736 54.7565 40.8015C54.8197 40.8303 54.8908 40.8433 54.9698 40.8433C55.0903 40.8433 55.195 40.8174 55.2819 40.7646C55.3689 40.7118 55.4499 40.6381 55.5249 40.5415V39.4878H55.5259Z" fill="#092A35"/>
</g>
<defs>
<clipPath id="clip0_2424_1705">
<rect width="56" height="42" fill="white"/>
</clipPath>
</defs>
</svg>
