<svg width="26" height="24" viewBox="0 0 26 24" fill="none" xmlns="http://www.w3.org/2000/svg">
<path d="M0 1.73867C0 0.778307 0.8679 0 1.93875 0H24.4612C25.5321 0 26.4 0.778307 26.4 1.73867V22.536C26.4 23.4964 25.5321 24.2747 24.4612 24.2747H1.93875C0.8679 24.2747 0 23.4964 0 22.536V1.73867ZM8.15595 20.3209V9.35941H4.1943V20.3209H8.15595ZM6.17595 7.86196C7.557 7.86196 8.41665 7.02145 8.41665 5.96854C8.3919 4.89287 7.55865 4.07511 6.20235 4.07511C4.84605 4.07511 3.96 4.89438 3.96 5.96854C3.96 7.02145 4.81965 7.86196 6.14955 7.86196H6.17595ZM14.2741 20.3209V14.1992C14.2741 13.8715 14.3005 13.5438 14.4061 13.3101C14.6916 12.6562 15.3434 11.978 16.439 11.978C17.8728 11.978 18.4453 12.9824 18.4453 14.4571V20.3209H22.407V14.0338C22.407 10.6657 20.4534 9.09997 17.8464 9.09997C15.7443 9.09997 14.8021 10.162 14.2741 10.91V10.9479H14.2478L14.2741 10.91V9.35941H10.3141C10.3636 10.388 10.3141 20.3209 10.3141 20.3209H14.2741Z" fill="#FFFFF2"/>
</svg>
